<svg  fill="#000000" xmlns="http://www.w3.org/2000/svg" xmlns:xlink="http://www.w3.org/1999/xlink" version="1.1" x="0px" y="0px" viewBox="0 0 100 100" style="enable-background:new 0 0 100 100;" xml:space="preserve"><path d="M81.4299927,40.4868164c-1.6034546-3.0057373-5.5042114-6.5477295-8.581543-8.2224121  c-10.4495239-5.6867676-16.5257568-1.7367554-21.8986816-0.8418579c-0.0009155-0.7614136-0.0046387-1.5391846-0.0126953-2.2653809  c2.3777466-2.3120117,6.4908447-3.5042725,9.7648315-4.026001c3.7906494-0.604126,7.9734497-1.2946167,10.3922119-4.140625  c1.8240356-2.1462402,2.2192993-5.0669556,3.5688477-7.508667c1.0375977-1.8773804,2.6604004-3.4575195,4.6013184-4.5015869  c0.2703247-0.1453857,0.185791-0.5393066-0.1223145-0.5704346c-5.5592041-0.5610352-11.3778076-0.09375-16.2366333,2.5176392  c-5.6987305,3.0628662-9.940979,8.9634399-12.0338135,15.7046509c-0.1212158-2.1165771-0.6835938-4.9262085-0.9910278-6.5335693  c-0.0292358-0.1529541-1.4224243-6.8602905-1.4224243-6.8602905c-0.0672607-0.4898071-0.5143433-0.8092651-0.960083-0.6860352  l-3.0577393,0.6312256c-0.2766113,0.0765381-0.2539673,0.8520508-0.1710815,1.1461792c0,0,2.1582031,3.7965698,2.7459106,5.1994629  c0.6490479,1.5492554,1.637207,4.5725708,1.9451904,7.3484497c0.078064,0.7038574,0.2227783,2.7315063,0.3497314,4.6116333  c-5.4852905-0.7346191-11.6055298-5.0700684-22.3463135,0.7752075c-3.0773315,1.6746826-6.9780884,5.2166748-8.581543,8.2224121  c-4.0287476,7.552124-2.9431152,15.8227539-0.769104,24.0302734c2.1739502,8.2075195,6.9863281,15.6549072,13.0864868,21.819397  c2.75,2.7789917,6.1703491,5.4753418,10.1859741,5.4644165c3.1442871-0.0085449,5.5866699-1.2393799,8.5563354-2.2232056  c0.1239014-0.0410767,0.2851562-0.0654907,0.4642334-0.0784302c0.1790771,0.0129395,0.340332,0.0373535,0.4642334,0.0784302  c2.9696655,0.9838257,5.4120483,2.2146606,8.5563354,2.2232056c4.015625,0.0109253,7.4359741-2.6854248,10.1859741-5.4644165  c6.1001587-6.1644897,10.9125366-13.6118774,13.0864868-21.819397  C84.3731079,56.3095703,85.4587402,48.0389404,81.4299927,40.4868164z"></path></svg>