<svg  fill="#000000" xmlns="http://www.w3.org/2000/svg" xmlns:xlink="http://www.w3.org/1999/xlink" version="1.1" x="0px" y="0px" viewBox="0 0 64 64" style="enable-background:new 0 0 64 64;" xml:space="preserve"><path d="M56.7,17.2c-2.1-2.1-3.3-4.9-3.3-7.9V3.4l-4.1,2.7c0,0,0,12.8,0,12.9c-0.1,12.6-8.4,23.6-20.4,26.7  c-8.5,2.2-17.1,0.3-23.6-5.4c-0.3-0.3-0.8-0.6-1.6-0.2c-0.5,0.3-0.9,0.7-0.9,1.3c1.7,19.9,19.2,19.2,19.2,19.2  c18.5,0,34.3-12.5,38.4-30.3C61.6,25.5,60.2,20.7,56.7,17.2z M36.2,51.4c-1.4,0.5-2.8,0.8-4.1,1.1c-0.1,0-0.9,0.3-1.2-0.8  c-0.1-0.5,0.2-1.1,0.8-1.2c1.3-0.3,2.6-0.6,3.9-1.1c0.5-0.2,1.1,0.1,1.3,0.6C37,50.7,36.7,51.3,36.2,51.4z M40.3,49.6  c-0.1,0.1-0.9,0.4-1.4-0.4c-0.3-0.5-0.1-1.1,0.4-1.4c12-6.5,13.5-20.2,13.5-20.4c0.1-0.6,0.5-1,1.1-0.9c0.6,0.1,1,0.5,0.9,1.1  C54.8,28.3,53.2,42.6,40.3,49.6z"></path><path d="M6.8,38.8c5.9,5.2,13.9,7,21.7,5C35,42.1,40.3,38,43.6,32.5c-4.7,3.4-10.2,5.2-15.9,5.1c-8.8-0.1-16.6-4.2-21.3-11.3  c-0.3-0.5-0.9-0.8-1.5-0.7c-0.6,0.1-1,0.5-1.2,1.1c-1,3.7-0.8,7.6,0.4,11.3C5,37.8,6,38.1,6.8,38.8z"></path></svg>