<svg   fill="#000000" xmlns="http://www.w3.org/2000/svg" data-name="Layer 1" viewBox="0 0 100 100" x="0px" y="0px"><title>EXPORT - UP</title><path d="M88.69263,40.39459c-1.67017-1.57367-2.2168-1.09765-2.66565-1.42126-.92932-.67066,2.27649-.46472,3.69226-1.08917a.3671.3671,0,0,0,.09534-.652c-2.542-2.31494-9.77637-4.24457-12.51136-2.57508a5.29893,5.29893,0,0,0-2.18445,2.598c-1.56237-2.1272-7.14709-.99878-10.25378-2.686,1.51709-5.66784,1.15723-11.5899-2.5271-16.86334-1.03894-1.48718-3.48242-.04016-2.43237,1.4621a16.70043,16.70043,0,0,1,1.24756,2.13141c-.42176,2.375-1.40577,5.08514-3.59583,6.32739a2.73626,2.73626,0,0,1-1.37585.36688,7.47415,7.47415,0,0,0,2.04943-4.62976c.18982-3.02924-.48559-6.92767-3.01452-8.9057-2.15088-1.68237-4.73779-1.19672-5.87549,1.31964a10.31439,10.31439,0,0,0,.59253,8.69073,13.281,13.281,0,0,0,2.98669,3.889,5.62694,5.62694,0,0,1-5.879-.74957c-2.2959-1.84021-2.86133-4.96021-3.35584-7.7002-.90466-5.01178-.50684-12.57556,6.06238-13.28778,1.0238-.111,1.02661-1.72619-.00537-1.61432-6.79126.73627-8.74243,7.78424-7.901,13.59986.48547,3.355,1.05627,7.26959,3.61,9.74518A7.26583,7.26583,0,0,0,53.3457,29.9693a8.19664,8.19664,0,0,0,1.18457-.62238,4.02653,4.02653,0,0,0,2.82972.12226c2.46472-.79706,3.98718-3.16187,4.80969-5.61512C64.021,30.05627,61.8949,36.73926,58.33325,42.35A10.2644,10.2644,0,0,1,60.043,44.86377a37.2,37.2,0,0,0,3.85571-7.3446c2.74146.38061,7.43262-.50831,8.782,1.28265a8.38309,8.38309,0,0,0-4.11254,1.18732c-2.73511,1.66961-4.32544,8.98651-3.42823,12.30535a.367.367,0,0,0,.62329.21314c1.20264-.974,2.48474-3.91931,2.6565-2.78632.08276.54718-.59058.81586.04577,3.02063.93128,3.22675,2.48792,4.57636,3.61316,4.76038.51392.08435,1.96082-1.88269,2.66309-4.33624a1.037,1.037,0,0,1,.73242-.74329c.27466-.06506.54248-.01813.59717.30853l.19495,1.16736a2.92072,2.92072,0,0,0,.41357,1.10755,4.83708,4.83708,0,0,0,2.10559,1.79748c.22974.066.458.13141.68774.19751l6.15772,1.11932,1.81885-5.98864c.04638-.23456.09253-.46735.13891-.70191a4.83845,4.83845,0,0,0-.63647-2.69439,2.92027,2.92027,0,0,0-.7959-.87378l-.94922-.70716c-.26562-.19787-.18506-.45758-.00146-.67224a1.03721,1.03721,0,0,1,.99585-.31177c2.50317.49695,4.91394.109,5.074-.38665C91.626,44.6991,91.137,42.69775,88.69263,40.39459ZM50.55505,21.58667a8.688,8.688,0,0,1-.03576-4.2558,2.77147,2.77147,0,0,1,2.49585-2.23614c.81665.01739,1.62353,1.00042,2.062,1.57837,1.84424,2.43145,2.32764,7.27447.36011,9.74145a6.80334,6.80334,0,0,1-1.01111,1.018A10.95719,10.95719,0,0,1,50.55505,21.58667Z"></path><circle cx="39.74298" cy="55.08847" r="8.23283"></circle><path d="M56.55762,43.52521a8.22289,8.22289,0,0,0-13.17334,2.12414,10.02264,10.02264,0,0,1,6.34045,7.87781l.73267.145a10.275,10.275,0,0,1,4.90417,2.46521,8.02081,8.02081,0,0,0,1.196-.96906A8.233,8.233,0,0,0,56.55762,43.52521Z"></path><path d="M54.25793,69.60339a8.23288,8.23288,0,0,0,.00013-11.64306,8.14463,8.14463,0,0,0-4.21045-2.22083A10.27924,10.27924,0,0,1,40.394,65.393a8.14251,8.14251,0,0,0,2.22083,4.21044A8.23293,8.23293,0,0,0,54.25793,69.60339Z"></path><path d="M29.54712,53.45428a10.2651,10.2651,0,0,1,8.56177-8.56182,8.23309,8.23309,0,1,0-8.56177,8.56182Z"></path><path d="M19.822,83.80139a10.23908,10.23908,0,0,1-6.87024-3.00268,10.37349,10.37349,0,0,1-.73144-.81549,8.10133,8.10133,0,0,0-1.18567.9624A8.23289,8.23289,0,0,0,22.67773,92.58868a7.99515,7.99515,0,0,0,.95935-1.18774,10.40846,10.40846,0,0,1-.81237-.72931A10.28846,10.28846,0,0,1,19.822,83.80139Z"></path><path d="M29.5824,62.6886A8.2329,8.2329,0,1,0,42.66907,72.361a10.16266,10.16266,0,0,1-4.34241-6.55816l-.09937-.5022a10.0733,10.0733,0,0,1-6.7467-4.01361A8.12318,8.12318,0,0,0,29.5824,62.6886Z"></path><path d="M58.61829,65.51434a10.27264,10.27264,0,0,1-8.44947,8.44941,8.233,8.233,0,1,0,8.44947-8.44941Z"></path><path d="M25.12158,67.47681a10.18167,10.18167,0,0,1,5.28015-7.99494,10.38405,10.38405,0,0,1-.9674-3.9234,10.20609,10.20609,0,0,1-7.62622-3.881,8.13566,8.13566,0,0,0-2.67237,1.76465,8.21529,8.21529,0,0,0,5.98584,14.03473Z"></path><path d="M34.03955,78.84619l-.00171-.10223a10.27222,10.27222,0,0,1-5.9458-2.92188c-.10547-.10559-.19678-.21979-.29687-.32861a8.13889,8.13889,0,0,0-3.48023,2.04468A8.23287,8.23287,0,1,0,35.958,89.18115a8.14757,8.14757,0,0,0,1.74316-2.61291c-.2229-.18793-.44336-.38031-.65307-.59015A10.27154,10.27154,0,0,1,34.03955,78.84619Z"></path><path d="M19.94434,81.6994a10.27181,10.27181,0,0,1,2.88037-5.65173,10.09774,10.09774,0,0,1,3.676-2.3241,10.32763,10.32763,0,0,1-1.34912-4.13977,10.24094,10.24094,0,0,1-7.50635-3.00842c-.2091-.20917-.40088-.429-.58838-.65119a8.13725,8.13725,0,0,0-2.61474,1.74115,8.21794,8.21794,0,0,0,5.5022,14.03406Z"></path><path d="M51.06946,81.03888q-.34736-.34736-.65711-.723c-.11816-.14289-.22277-.29474-.33252-.44324-.08178-.11072-.17041-.21716-.24755-.33069-.14832-.2185-.28174-.44556-.41236-.67425-.02807-.04908-.061-.09534-.08825-.14478-.14625-.26636-.27845-.54-.40027-.81818a10.40186,10.40186,0,0,1-.864-3.80456,10.37983,10.37983,0,0,1-2.66357-.43811c-.12927-.03876-.25537-.08948-.38318-.13367-.16614-.05792-.33411-.1095-.4978-.17609A10.19771,10.19771,0,0,1,36.147,78.81036,8.20322,8.20322,0,0,0,51.9458,81.81525,10.37375,10.37375,0,0,1,51.06946,81.03888Z"></path><path d="M60.37317,53.07568a10.27171,10.27171,0,0,1-2.32544,3.58313,9.88485,9.88485,0,0,1-1.2655,1.04676,10.30386,10.30386,0,0,1,1.983,5.931,9.99984,9.99984,0,0,1,6.77551,2.93127c.2395.23932.46314.48865.67334.74512.07764-.0719.1637-.12885.23926-.20435a8.21639,8.21639,0,0,0-6.0802-14.0329Z"></path><path d="M40.21509,44.80389l.00891.21265c.35547.0188.70911.062,1.06177.11383l.21606-.42908a10.29727,10.29727,0,0,1,9.12634-5.685A8.21764,8.21764,0,0,0,34.6084,36.04156a10.283,10.283,0,0,1,5.60669,8.76233Z"></path></svg>