<svg   fill="#000000" xmlns="http://www.w3.org/2000/svg" xmlns:xlink="http://www.w3.org/1999/xlink" version="1.1" x="0px" y="0px" viewBox="0 0 100 100" enable-background="new 0 0 100 100" xml:space="preserve"><path d="M55.457,16.943c0,0,12.216-6.291,19.876,11.551C75.333,28.494,59.432,26.879,55.457,16.943z"></path><g><path d="M56.621,18.441c-0.17,0-0.342-0.043-0.5-0.135l-4.083-2.364c-0.478-0.277-0.641-0.889-0.364-1.366   c0.275-0.479,0.888-0.642,1.366-0.364l4.083,2.364c0.478,0.277,0.641,0.889,0.364,1.366C57.302,18.263,56.966,18.441,56.621,18.441   z"></path></g><polyline points="49.934,25.032 50.738,11.795 53.317,11.795 54.122,25.031 "></polyline><path d="M77.037,42.164c-5.561-20.69-24.798-18.02-24.798-18.02c-18.569-1.78-32.599,18.02-29.929,36.263  c2.669,18.242,13.57,26.251,22.691,27.809c9.121,1.557,11.347-2.893,11.347-2.893C59.018,76.869,82.599,62.854,77.037,42.164z   M25.839,60.683c-0.717-4.446-0.446-8.599-0.434-8.774c0.038-0.55,0.509-0.958,1.065-0.93c0.551,0.037,0.967,0.514,0.93,1.065  c-0.002,0.041-0.266,4.108,0.414,8.32c0.088,0.545-0.283,1.059-0.828,1.146c-0.054,0.009-0.107,0.013-0.161,0.013  C26.343,61.524,25.918,61.174,25.839,60.683z M29.378,67.464c-0.17,0.112-0.361,0.166-0.55,0.166c-0.325,0-0.643-0.158-0.835-0.449  c-0.64-0.969-1.16-2.156-1.545-3.53c-0.149-0.532,0.161-1.084,0.693-1.233c0.532-0.15,1.083,0.161,1.233,0.693  c0.329,1.174,0.762,2.172,1.288,2.968C29.966,66.54,29.839,67.16,29.378,67.464z"></path></svg>