<svg  fill="#000000" xmlns="http://www.w3.org/2000/svg" xmlns:xlink="http://www.w3.org/1999/xlink" version="1.1" x="0px" y="0px" viewBox="0 0 28.921 21.06" style="enable-background:new 0 0 28.921 21.06;" xml:space="preserve"><g><path d="M18.391,0C13.283,0,9.028,3.638,8.066,8.462l12.605,5.058l0.916,0.366l-0.368,0.915c-1.056,2.629-2.985,4.694-5.377,5.936   c0.816,0.203,1.668,0.323,2.548,0.323c5.816,0,10.53-4.714,10.53-10.53C28.921,4.714,24.207,0,18.391,0z M18.392,1.352   c0.61,0,1.104,0.27,1.104,0.603c0,0.334-0.494,0.604-1.104,0.604c-0.611,0-1.106-0.27-1.106-0.604   C17.285,1.621,17.78,1.352,18.392,1.352z M15.766,4.183c-0.738,0-1.336-0.326-1.336-0.729s0.598-0.728,1.336-0.728   c0.737,0,1.335,0.325,1.335,0.728S16.503,4.183,15.766,4.183z M18.392,5.588c-0.642,0-1.161-0.283-1.161-0.633   s0.52-0.633,1.161-0.633c0.64,0,1.16,0.283,1.16,0.633S19.031,5.588,18.392,5.588z M21.017,4.183c-0.738,0-1.336-0.326-1.336-0.729   s0.598-0.728,1.336-0.728c0.737,0,1.335,0.325,1.335,0.728S21.754,4.183,21.017,4.183z"></path><path d="M20.306,14.434L0.76,6.593C-1.404,11.99,1.213,18.12,6.612,20.286c1.284,0.516,2.612,0.76,3.917,0.76   C14.705,21.046,18.655,18.546,20.306,14.434z M2.633,13.267c-0.278-0.137-0.484-0.388-0.564-0.687   c-0.369-1.359-0.33-2.784,0.205-4.119l6.041,2.425c0.088,0.036,0.146,0.12,0.146,0.215c0,0.095-0.057,0.18-0.145,0.216   l-4.795,1.979C3.234,13.412,2.911,13.402,2.633,13.267z M6.708,17.586c-0.305,0.098-0.639,0.056-0.909-0.115   c-0.731-0.465-1.379-1.013-1.925-1.622c-0.235-0.26-0.327-0.619-0.25-0.961c0.078-0.342,0.317-0.624,0.641-0.758l4.581-1.89   c0.087-0.036,0.186-0.016,0.252,0.05c0.067,0.065,0.088,0.166,0.054,0.252l-1.773,4.417C7.259,17.258,7.014,17.486,6.708,17.586z    M12.516,18.448c-0.179,0.302-0.493,0.496-0.843,0.522c-0.82,0.063-1.671,0.014-2.525-0.157c-0.315-0.063-0.585-0.263-0.738-0.546   c-0.152-0.282-0.172-0.618-0.052-0.916l1.779-4.435c0.034-0.087,0.117-0.145,0.212-0.146c0.093-0.001,0.179,0.053,0.217,0.139   l2.011,4.549C12.719,17.778,12.696,18.148,12.516,18.448z M15.236,17.85c-0.266,0.161-0.589,0.198-0.884,0.104   c-0.297-0.092-0.538-0.309-0.663-0.592l-2.094-4.731c-0.038-0.087-0.021-0.188,0.045-0.256c0.066-0.067,0.167-0.089,0.255-0.054   l6.026,2.418C17.389,16.069,16.436,17.123,15.236,17.85z"></path></g></svg>