<svg  fill="#000000" xmlns="http://www.w3.org/2000/svg" data-name="Layer 1" viewBox="0 0 100 100" x="0px" y="0px"><title>Fruits</title><path d="M50.52,56.5a64.53,64.53,0,0,0,5.83,5.84A37.13,37.13,0,0,0,60.61,56c-0.78-.67-1.55-1.36-2.28-2.06s-1.62-1.59-2.3-2.36c-0.23-.26-0.44-0.51-0.65-0.77l-0.22-.27-0.35.09-0.12,0-0.36.61q-0.29.47-.6,1l-0.18.27a45.54,45.54,0,0,1-2.81,3.74Z"></path><path d="M58.33,49.16l-0.19.14a6.93,6.93,0,0,1-1.61.82l0.56,0.65c0.38,0.43.8,0.86,1.24,1.31,0.88,0.89,1.86,1.79,2.88,2.68a14.69,14.69,0,0,0,1.39-5.19A17,17,0,0,0,59.25,47a1,1,0,0,1,.07.35A2.3,2.3,0,0,1,58.33,49.16Z"></path><path d="M36.4,69a46.66,46.66,0,0,0,5.69,5.87A61.94,61.94,0,0,0,48.68,70a61.47,61.47,0,0,1-5.83-5.87A62.41,62.41,0,0,1,36.4,69Z"></path><path d="M57.95,40.95c-0.39.15-.76,0.31-1.12,0.49A13,13,0,0,0,54.33,43q-0.42.34-.79,0.7L53.62,44c0.1,0.32.2,0.65,0.3,1s0.17,0.65.25,1a25.06,25.06,0,0,1,.47,2.65A9.53,9.53,0,0,0,56.53,48a4.18,4.18,0,0,0,.15-0.72,9.39,9.39,0,0,1,1-3.22l0.24-.43a10.48,10.48,0,0,1,.72-1.07,12.86,12.86,0,0,1,2.45-2.4,14.5,14.5,0,0,0-2,.45C58.67,40.69,58.3,40.81,57.95,40.95Z"></path><path d="M49.65,69.2a59.36,59.36,0,0,0,5.85-5.86,66.52,66.52,0,0,1-5.85-5.84,66.53,66.53,0,0,1-5.85,5.84A59.39,59.39,0,0,0,49.65,69.2Z"></path><path d="M62.9,69a62.42,62.42,0,0,1-6.46-4.84A61.47,61.47,0,0,1,50.62,70a61.92,61.92,0,0,0,6.59,4.84A46.65,46.65,0,0,0,62.9,69Z"></path><path d="M45.58,52.22q-0.32-.49-0.62-1l-0.36-.6H44.55l-0.39-.1-0.21.26c-0.21.25-.42,0.51-0.65,0.76-0.68.76-1.45,1.55-2.27,2.33S39.5,55.31,38.69,56A37.14,37.14,0,0,0,43,62.34a64.53,64.53,0,0,0,5.83-5.84l-0.22-.26a45.53,45.53,0,0,1-2.81-3.75Z"></path><path d="M49.65,80.56c1.59-1,3.17-2.15,4.69-3.33,0.64-.5,1.25-1,1.84-1.49a63.73,63.73,0,0,1-6.54-4.87,63.74,63.74,0,0,1-6.54,4.87c0.6,0.5,1.21,1,1.84,1.49C46.48,78.41,48.06,79.53,49.65,80.56Z"></path><path d="M46.51,51.23l0.28,0.43,0.38,0.57,0.35,0.49c0.65,0.92,1.37,1.84,2.13,2.77,0.77-.92,1.48-1.85,2.13-2.76l0.35-.5,0.38-.56,0.28-.43L53,50.95l-0.8.09-1,.07c-0.49,0-1,0-1.48,0s-1,0-1.48,0l-1-.07-0.86-.1Z"></path><path d="M69,72.28a36.78,36.78,0,0,1-5-2.59,47.07,47.07,0,0,1-5.63,5.89,46.48,46.48,0,0,0,6.34,3.2C67,76.45,68.56,74.21,69,72.52Z"></path><path d="M53.86,21c-0.35.47-.68,0.93-1,1.4s-0.71,1.07-1,1.6a23,23,0,0,1,1,2.12c0.24,0.56.47,1.16,0.69,1.81,0.11,0.32.21,0.65,0.31,1s0.24,0.88.35,1.35A28.09,28.09,0,0,1,57.87,27a58.18,58.18,0,0,1,8.45-17,40,40,0,0,0-11.48,9.78Q54.33,20.38,53.86,21Z"></path><path d="M68.39,76.46A28.86,28.86,0,0,1,66,79.29q0.72,0.26,1.43.48A27.79,27.79,0,0,0,68.39,76.46Z"></path><path d="M45.14,30.29c0.11-.47.22-0.92,0.35-1.35s0.21-.67.31-1c0.22-.65.45-1.25,0.69-1.81a23,23,0,0,1,1-2.11c-0.32-.53-0.67-1.06-1-1.59s-0.65-.93-1-1.4-0.64-.85-1-1.28A40,40,0,0,0,33,10a58.18,58.18,0,0,1,8.45,17A28.09,28.09,0,0,1,45.14,30.29Z"></path><path d="M51.78,33.25c0.24-.33.49-0.66,0.74-1l0,0a22.87,22.87,0,0,0-.78-3.27c-0.11-.34-0.22-0.68-0.34-1s-0.26-.68-0.4-1-0.27-.61-0.4-0.89S50.27,25.3,50.09,25s-0.28-.5-0.41-0.71c-0.13.21-.27,0.45-0.41,0.71s-0.37.7-.57,1.1-0.26.56-.39,0.87-0.27.64-.4,1-0.23.65-.34,1a22.93,22.93,0,0,0-.78,3.28l0,0c0.26,0.32.5,0.65,0.74,1q0.78,1.08,1.45,2.17V30.6a0.66,0.66,0,1,1,1.32,0v4.82Q51,34.33,51.78,33.25Z"></path><path d="M40.91,75.59a47.08,47.08,0,0,1-5.63-5.89,36.89,36.89,0,0,1-4.94,2.56c0,0.18,0,.36,0,0.53a17.38,17.38,0,0,0,4.18,6A46.47,46.47,0,0,0,40.91,75.59Z"></path><path d="M41,52c0.43-.43.84-0.86,1.21-1.28l0.55-.63a6.88,6.88,0,0,1-1.57-.8L41,49.16a2.3,2.3,0,0,1-1-1.79A1,1,0,0,1,40.1,47a17,17,0,0,0-3.39,2.59,14.74,14.74,0,0,0,1.39,5.15C39.13,53.85,40.13,52.93,41,52Z"></path><path d="M33.26,79.29A29.19,29.19,0,0,1,31,76.56a27.68,27.68,0,0,0,.9,3.2Q32.57,79.55,33.26,79.29Z"></path><path d="M48.09,43.33c-0.13.33-.25,0.68-0.38,1l-0.1.3-0.13.42-0.12.41c-0.05.19-.11,0.39-0.16,0.59s-0.16.68-.23,1c-0.12.6-.22,1.22-0.3,1.87l0.79,0.08,0.37,0,1,0.05H49V44.77a0.64,0.64,0,0,1,0-.19v0a0.65,0.65,0,0,1,1.23,0s0,0,0,0a0.64,0.64,0,0,1,0,.19v4.38H50.5l1-.05,0.37,0L52.69,49c-0.08-.65-0.18-1.27-0.3-1.87-0.07-.35-0.15-0.7-0.23-1S52,45.69,52,45.49l-0.12-.41-0.13-.42-0.1-.3c-0.12-.36-0.25-0.71-0.38-1s-0.19-.48-0.29-0.71l-0.19-.43c-0.16-.36-0.33-0.69-0.49-1s-0.3-.56-0.44-0.8l-0.11-.19-0.06-.11-0.06.11-0.11.19c-0.14.24-.29,0.51-0.44,0.8s-0.32.63-.49,1l-0.19.43C48.28,42.84,48.19,43.08,48.09,43.33Z"></path><path d="M34.48,68.64a22.49,22.49,0,0,1-3.58-6.87l-0.15.09a38.45,38.45,0,0,0-.57,6.78c0,0.76,0,1.5.06,2.23A36.56,36.56,0,0,0,34.48,68.64Z"></path><path d="M42.53,41.44c-0.36-.18-0.73-0.34-1.12-0.49s-0.73-.26-1.11-0.37a14.5,14.5,0,0,0-2-.45,12.86,12.86,0,0,1,2.45,2.4,10.48,10.48,0,0,1,.72,1.07L41.68,44a9.39,9.39,0,0,1,1,3.22,4.17,4.17,0,0,0,.15.73,9.64,9.64,0,0,0,1.88.64A25,25,0,0,1,45.18,46c0.08-.34.16-0.66,0.26-1s0.19-.67.3-1l0.08-.23Q45.44,43.39,45,43A13,13,0,0,0,42.53,41.44Z"></path><path d="M40.37,85.47a51.94,51.94,0,0,1-6.1-5.14C33.63,80.58,33,80.8,32.35,81a20.23,20.23,0,0,0,3.48,5.73A18.3,18.3,0,0,0,40.37,85.47Z"></path><path d="M41.78,38.65L41.91,39A14.92,14.92,0,0,1,44,40l0.53,0.31q0.52,0.32,1,.66l0.34,0.25q0.38,0.29.73,0.6l0.27-.6c0.17-.36.33-0.69,0.49-1L47.45,40c0.21-.38.4-0.71,0.58-1s0.33-.52.46-0.71L48.34,38c-0.44-.81-0.92-1.63-1.46-2.45L46.51,35l-0.37-.53-0.53-.71-0.19-.25q-0.34-.43-0.7-0.85a26.82,26.82,0,0,0-2.36-2.44c-0.42-.38-0.86-0.75-1.32-1.12s-0.87-.67-1.32-1a26.3,26.3,0,0,0-9.12-4C34.24,26.86,39.45,31.79,41.78,38.65Z"></path><path d="M54,92.26a28.42,28.42,0,0,1-4.36-1.45,28.46,28.46,0,0,1-4.34,1.45A21,21,0,0,0,54,92.26Z"></path><path d="M67,81c-0.65-.21-1.31-0.43-2-0.69a51.94,51.94,0,0,1-6.1,5.14,18.09,18.09,0,0,0,4.6,1.26A20.22,20.22,0,0,0,67,81Z"></path><path d="M68.4,61.77a22.49,22.49,0,0,1-3.58,6.87,36.44,36.44,0,0,0,4.29,2.25c0-.73.06-1.48,0.06-2.25a38.48,38.48,0,0,0-.56-6.74Z"></path><path d="M51.33,90a21.21,21.21,0,0,0,5.56,1.35,17,17,0,0,0,5.5-3.49,24.63,24.63,0,0,1-4.75-1.52A48.69,48.69,0,0,1,51.33,90Z"></path><path d="M46.52,19.1c0.79,1,1.52,2,2.17,3.07l0.22-.29L49,21.77V17a0.66,0.66,0,0,1,1.32,0v4.81l0.11,0.11,0.22,0.29c0.66-1,1.38-2,2.17-3.07-0.25-7-2.19-10.1-3.16-11.25C48.71,9,46.77,12.13,46.52,19.1Z"></path><path d="M48,90a48.68,48.68,0,0,1-6.31-3.66A24.75,24.75,0,0,1,37,87.9a17,17,0,0,0,5.5,3.49A21.28,21.28,0,0,0,48,90Z"></path><path d="M48.42,81.34c-1.44-1-2.88-2-4.27-3.07-0.77-.6-1.49-1.2-2.2-1.8a48.68,48.68,0,0,1-6.35,3.33,52.06,52.06,0,0,0,6.22,5.08A55.52,55.52,0,0,0,48.42,81.34Z"></path><path d="M42,63.15a40.15,40.15,0,0,1-4.32-6.31A67.25,67.25,0,0,1,32.08,61a20.44,20.44,0,0,0,3.52,6.91A60.52,60.52,0,0,0,42,63.15Z"></path><path d="M31.72,58.48a9.87,9.87,0,0,0,.08,1.15,66.24,66.24,0,0,0,5.28-4,18,18,0,0,1-1.56-4.72,21.34,21.34,0,0,0-3.88,7.3A0.65,0.65,0,0,1,31.72,58.48Z"></path><path d="M56.21,85.75a58.4,58.4,0,0,1-6.56-3.61,58.42,58.42,0,0,1-6.56,3.61,45.48,45.48,0,0,0,6.56,3.61A45.49,45.49,0,0,0,56.21,85.75Z"></path><path d="M67.58,58.48a0.62,0.62,0,0,1,.11-0.33,21.27,21.27,0,0,0-3.91-7.3,17.92,17.92,0,0,1-1.57,4.77,66.26,66.26,0,0,0,5.28,4A9.84,9.84,0,0,0,67.58,58.48Z"></path><path d="M59.64,28.1q-0.69.48-1.32,1c-0.46.36-.9,0.73-1.32,1.12a26.81,26.81,0,0,0-2.36,2.44q-0.36.42-.7,0.85l-0.19.25-0.53.71L52.85,35l-0.38.56c-0.53.81-1,1.63-1.45,2.44l-0.15.28c0.13,0.19.29,0.43,0.46,0.71s0.37,0.61.58,1L52,40.2c0.16,0.31.33,0.64,0.49,1l0.27,0.6q0.35-.31.72-0.6l0.35-.26q0.48-.35,1-0.66l0.51-.3a14.88,14.88,0,0,1,2.09-1l0.12-.36c2.33-6.87,7.54-11.8,11.18-14.55A26.3,26.3,0,0,0,59.64,28.1Z"></path><path d="M61.6,56.84a40.16,40.16,0,0,1-4.31,6.31,60.5,60.5,0,0,0,6.42,4.8A20.44,20.44,0,0,0,67.22,61,67.28,67.28,0,0,1,61.6,56.84Z"></path><path d="M63.71,79.8a48.69,48.69,0,0,1-6.35-3.33c-0.71.6-1.43,1.2-2.2,1.8-1.4,1.09-2.83,2.12-4.27,3.07a55.51,55.51,0,0,0,6.61,3.53A52.06,52.06,0,0,0,63.71,79.8Z"></path></svg>