<svg  fill="#000000" xmlns="http://www.w3.org/2000/svg" data-name="Layer 1" viewBox="0 0 512 512" x="0px" y="0px"><path d="M269.85,411.437c3.071.912,4.438.571,4.73.265.956-1,1.279-5-.217-11.4-4.457,5.964-5.61,9.721-5.356,10.77A2.981,2.981,0,0,0,269.85,411.437Z"></path><path d="M314.113,412.706c3.2.129,4.443-.533,4.654-.9.682-1.2.02-5.164-2.988-11-2.867,6.871-3.07,10.8-2.57,11.754A3.01,3.01,0,0,0,314.113,412.706Z"></path><path d="M231.868,397.317c1.372-.151,4.192-3.01,7.155-8.871-7.249,1.692-10.546,3.823-11.023,4.788a3.032,3.032,0,0,0,.415.828C230.183,396.743,231.442,397.377,231.868,397.317Z"></path><path d="M234.1,436.291a153.7,153.7,0,0,0,190.192-32.8,143.6,143.6,0,0,0,35.67-93.587l-285.4,63.9A146.853,146.853,0,0,0,234.1,436.291Zm166.439-89.825a6.411,6.411,0,0,1,3.669-5.166c12.987-6.023,22.3-7.323,27.674-3.861,1.749,1.126,4.676,3.84,4.634,9.368-.064,8.412-3.643,11.973-6.634,13.478a12.018,12.018,0,0,1-5.475,1.219c-6.932,0-15.061-4.717-21.274-9.251h0A6.418,6.418,0,0,1,400.543,346.466Zm-22.887,17.67a6.408,6.408,0,0,1,6.13-1.606c13.821,3.723,21.8,8.708,23.7,14.816.619,1.985,1.123,5.944-2.449,10.156-4.235,4.994-8.222,6.362-11.318,6.362a10.539,10.539,0,0,1-2.4-.278c-8.4-1.963-13-13.778-15.382-23.344A6.411,6.411,0,0,1,377.656,364.136Zm-30.8,17.661a6.41,6.41,0,0,1,6.34-.118h0c8.636,4.728,18.885,12.173,18.662,20.8-.087,3.347-1.779,8.1-9.344,11.747a12.011,12.011,0,0,1-5.244,1.286,9.8,9.8,0,0,1-5.191-1.475c-5.428-3.382-8.231-12.369-8.333-26.71A6.41,6.41,0,0,1,346.856,381.8Zm-37.08,8.329a6.381,6.381,0,0,1,11-.537c5.4,8.243,10.949,19.644,6.693,27.148-1.572,2.772-5.03,5.985-12.6,5.985-.379,0-.767-.008-1.167-.025-5.513-.228-8.078-3.28-9.117-5.079C301.382,412.077,303.13,402.828,309.776,390.126Zm-38.628-1.644a6.382,6.382,0,0,1,10.794,2.163c3.229,9.317,5.827,21.73-.133,27.966a11.423,11.423,0,0,1-8.624,3.4,21.756,21.756,0,0,1-6.18-.989c-5.289-1.569-7.032-5.156-7.6-7.156C257.656,407.713,261.607,399.172,271.148,388.482Zm-52.292.706c2.624-5.834,11.138-9.822,25.305-11.855a6.384,6.384,0,0,1,6.869,8.6h0c-3.514,9.209-9.5,20.384-18.073,21.323a10.38,10.38,0,0,1-1.155.064c-3.256,0-7.618-1.51-11.735-7.754C217.026,394.955,218,391.084,218.856,389.188Z"></path><path d="M425.39,351.353c.38-.191,1.106-1.4,1.13-4.621a3.022,3.022,0,0,0-.1-.92c-.932-.546-4.858-.53-11.851,2C420.237,351.113,424.155,351.975,425.39,351.353Z"></path><path d="M291.262,97.9a18.106,18.106,0,0,0,2.475,2.519,26.084,26.084,0,0,1,4.387,4.743,35.466,35.466,0,0,1,2.7,5.084,32.035,32.035,0,0,0,1.908,3.72c1.038,1.629,1.886,3.3,2.7,4.922.673,1.329,1.309,2.584,2.021,3.768a37.924,37.924,0,0,1,2.478,5.2,34.956,34.956,0,0,0,1.729,3.765,12.477,12.477,0,0,0,2.224,2.3,19.1,19.1,0,0,1,4.535,5.264c.6,1.126,1.316,2.272,2.077,3.486a57.371,57.371,0,0,1,2.951,5.1c.936,1.895,1.792,3.844,2.62,5.73.486,1.108.974,2.222,1.482,3.329A16.437,16.437,0,0,1,328.661,164a11.047,11.047,0,0,0,.218,3.059,12.308,12.308,0,0,0,1.975,1.852c1.741,1.445,3.908,3.242,4.982,6.023a16.413,16.413,0,0,1,.657,7.275,11.068,11.068,0,0,0,.019,3.056,13.369,13.369,0,0,0,1.877,1.871c1.729,1.549,3.881,3.476,4.8,6.384.947,3.015.079,5.911-.618,8.238a13.632,13.632,0,0,0-.623,2.592c.6,2.162,1.1,4.326,1.58,6.418.236,1.021.473,2.047.722,3.081.539,2.227.97,4.448,1.388,6.6.19.977.381,1.96.583,2.95a14.244,14.244,0,0,0,1.7,1.946c1.711,1.77,3.841,3.973,4.376,7.151a17.833,17.833,0,0,1-.549,7.016,11.972,11.972,0,0,0-.461,3.221q.166,1.254.34,2.508c.326,2.378.663,4.837.9,7.348a15.867,15.867,0,0,0,.978,3.382,22.372,22.372,0,0,1,1.584,6.423,17.45,17.45,0,0,1-1.4,6.989,11.6,11.6,0,0,0-.845,3.065,11.619,11.619,0,0,0,1.1,2.605,15.658,15.658,0,0,1,2.195,7.356,23.546,23.546,0,0,1-1.214,6.339,10.8,10.8,0,0,0-.4,7.177,23.907,23.907,0,0,1,.526,6.51,16.554,16.554,0,0,1-2.625,6.826,11.214,11.214,0,0,0-1.338,2.773c-.354,2.773-.815,5.547-1.26,8.229l-.26,1.573a9.163,9.163,0,0,0,.219,2.522l36.461-8.157a262.914,262.914,0,0,0,2.283-36.459c0-81.651-40.061-152.56-98.4-187.273.188.844.316,1.666.431,2.421A10.659,10.659,0,0,0,291.262,97.9Z"></path><path d="M393.592,383.849c.415.1,1.742-.37,3.817-2.815a3,3,0,0,0,.51-.771c-.357-1.015-3.373-3.529-10.366-6.082C389.791,380.357,392.247,383.534,393.592,383.849Z"></path><path d="M357.313,405.513a3.013,3.013,0,0,0,.862-.3c2.892-1.393,3.677-2.57,3.688-3,.036-1.384-2.407-4.565-7.8-8.293C354.761,401.332,356.422,404.9,357.313,405.513Z"></path><path d="M229.378,25.568,216.2,22.328c-.175,18.224-1.064,30.856-1.675,37.542q4.067.135,8.1.463Z"></path><path d="M188.338,92.993a19.434,19.434,0,0,1-2.328,6.645,24.533,24.533,0,0,1-3.743,4.344A16.879,16.879,0,0,0,179.614,107a39.443,39.443,0,0,1-2.99,4.2A29.988,29.988,0,0,0,174,114.918a27.129,27.129,0,0,1-3.425,4.574,19.532,19.532,0,0,0-2.439,3.187,13.839,13.839,0,0,0,.016,2.6c.14,2.289.312,5.137-1.007,7.826a28.14,28.14,0,0,0-1.424,3.959,41.188,41.188,0,0,1-1.847,5.126c-.614,1.336-1.272,2.637-1.909,3.9-.821,1.624-1.6,3.158-2.279,4.75-1.26,2.935-3.93,4.528-6.075,5.808-.569.339-1.349.805-1.849,1.173.172.594.484,1.417.713,2.021.991,2.615,2.225,5.87,1,9.18-1.118,3.018-3.729,4.736-5.826,6.116-.521.343-1.225.807-1.7,1.183.229.581.6,1.345.869,1.913,1.25,2.608,2.807,5.853,1.72,9.31-1.125,3.582-4.581,5.244-7.359,6.578a25.723,25.723,0,0,0-2.43,1.273c-.331,1.119-.689,2.245-1.05,3.378-.579,1.82-1.126,3.54-1.572,5.264-.35,1.349-.745,2.713-1.144,4.086-.459,1.581-.9,3.088-1.266,4.582.321.595,1,1.543,1.47,2.213,1.815,2.557,4.073,5.737,3.3,9.478-.611,2.972-2.626,5.067-4.246,6.75a13.781,13.781,0,0,0-1.721,2c-.311,1.753-.549,3.547-.8,5.444-.177,1.338-.355,2.679-.56,4.018a11.12,11.12,0,0,0,.646,2.841,16.755,16.755,0,0,1,1.011,7.112c-.39,3.067-2.33,5.326-3.89,7.14a22.266,22.266,0,0,0-1.43,1.781c.3.532.842,1.313,1.236,1.874,1.543,2.2,3.462,4.941,3.2,8.357a17.21,17.21,0,0,1-2.229,6.552,10.674,10.674,0,0,0-1.182,2.847,10.755,10.755,0,0,0,.867,2.885,17.513,17.513,0,0,1,1.551,6.809c-.082,3.22-1.976,5.692-3.5,7.678a16.076,16.076,0,0,0-1.469,2.118c0,1.1-.015,2.208-.028,3.32-.023,1.989-.047,4.044,0,6.026a14,14,0,0,0,1.35,2.221c1.317,1.928,2.957,4.328,3.107,7.369.073,1.467.1,2.915.12,4.317.029,1.825.057,3.549.186,5.276.137,1.861.351,3.708.576,5.664.148,1.285.3,2.576.426,3.881a19.9,19.9,0,0,1-.665,6.411,12.129,12.129,0,0,0-.474,3.4,11.223,11.223,0,0,0,1.311,2.875,18.342,18.342,0,0,1,2.483,6.319c.537,3.66-1.731,6.649-3.553,9.05a26.073,26.073,0,0,0-1.519,2.14,20.4,20.4,0,0,0,1.243,2.712,22.877,22.877,0,0,1,2.266,5.676,16.508,16.508,0,0,0,1.816,1.763c1.9,1.681,4.257,3.773,4.954,6.966a24.32,24.32,0,0,1,.359,5.992,15.916,15.916,0,0,0,.164,3.76c.733,3.032-.315,5.862-1.157,8.135a16.214,16.214,0,0,0-.782,2.468,15.231,15.231,0,0,0,1.725,2.037,15.728,15.728,0,0,1,4.136,6.293c.416,1.443.984,2.917,1.585,4.477.571,1.481,1.161,3.011,1.667,4.636a17.831,17.831,0,0,1,.432,6.816,12.7,12.7,0,0,0-.01,3.1,14.878,14.878,0,0,0,1.946,1.678c1.878,1.46,4.215,3.277,5.254,6.19a44.266,44.266,0,0,1,1.382,5.059,33.717,33.717,0,0,0,1.173,4.276,41,41,0,0,1,1.471,5.121,30.884,30.884,0,0,0,1.207,4.206,17.978,17.978,0,0,1,.994,6.731,11.341,11.341,0,0,0,.3,3.227c.658,1.555,1.2,3.118,1.715,4.629.55,1.6,1.069,3.108,1.69,4.5a26.43,26.43,0,0,0,2.149,3.6c.257.386.523.789.791,1.2a154.742,154.742,0,0,0,34.088,5.413c-.06-1.737-.118-3.643-.12-5.661,0-1.875.145-3.768.287-5.6s.275-3.555.273-5.251c0-1.65-.168-3.35-.343-5.15-.181-1.859-.367-3.78-.368-5.7,0-2.561.162-4.916.3-6.994.029-.418.056-.816.081-1.2a181.6,181.6,0,0,1-58.162-71.2,9.966,9.966,0,0,1,6.888-13.87l53.99-12.079c0-.171,0-.342,0-.513-.007-1.691-.013-3.378.011-5.061.027-1.749.106-3.48.183-5.154.075-1.637.146-3.183.17-4.731a11.178,11.178,0,0,0-.976-2.994,17.245,17.245,0,0,1-1.729-6.936c.029-1.712.083-3.417.138-5.117.051-1.6.1-3.185.13-4.77a15.807,15.807,0,0,1,2.381-7.221,11.612,11.612,0,0,0,1.176-2.605,14.57,14.57,0,0,0-.707-3.567,17.687,17.687,0,0,1,.261-12.732,14.3,14.3,0,0,0,.834-3.456,12.975,12.975,0,0,0-1.2-2.5c-1.108-2-2.487-4.489-2.428-7.461a16.665,16.665,0,0,1,2.168-7.065,11.4,11.4,0,0,0,1.117-2.755,13.461,13.461,0,0,0-.752-3.473,20.678,20.678,0,0,1-1.152-6.452c.035-1.617.034-3.229.034-4.832,0-1.693,0-3.378.037-5.054a17.137,17.137,0,0,1,2.071-6.987,14.535,14.535,0,0,0,1.067-2.641,17.207,17.207,0,0,0-1.439-2.188c-1.515-2.089-3.4-4.689-3.324-7.994.042-1.756.132-3.488.22-5.163.085-1.633.165-3.174.2-4.712.043-1.759.135-3.493.224-5.17.086-1.63.167-3.17.206-4.7.084-3.358,2.1-5.895,3.726-7.932a20.948,20.948,0,0,0,1.424-1.926,18.568,18.568,0,0,0-1.239-2.185c-1.275-2.044-2.861-4.587-2.779-7.7a15.8,15.8,0,0,1,2.5-7.271,11.845,11.845,0,0,0,1.2-2.533,14.877,14.877,0,0,0-1.252-2.416c-1.176-2.021-2.639-4.535-2.554-7.56a15.9,15.9,0,0,1,2.488-7.268A11.944,11.944,0,0,0,208.3,163.5c.051-1.783.161-3.536.268-5.232.1-1.609.2-3.128.242-4.625.043-1.457-.062-2.967-.174-4.566a52.984,52.984,0,0,1-.188-5.331,11.222,11.222,0,0,0-.9-3.231,17.454,17.454,0,0,1-1.47-6.729,37.481,37.481,0,0,1,.775-5.869,27.45,27.45,0,0,0,.567-3.976,55.735,55.735,0,0,1,.544-5.635c.2-1.505.386-2.927.429-4.222a34.921,34.921,0,0,1,.861-6.023,24.545,24.545,0,0,0,.6-3.818,16.6,16.6,0,0,0-.622-3.988,22.533,22.533,0,0,1-.81-5.949c.115-3.271,1.77-5.825,3.1-7.877a17.663,17.663,0,0,0,1.167-1.963,14.079,14.079,0,0,0-1.6-2.766c-1.356-2.014-2.892-4.3-2.783-7.186a15.752,15.752,0,0,1,.83-4.742l-.156,0-.14,0a10.05,10.05,0,0,1-7.688,3.175,6.444,6.444,0,0,0-.927.062.991.991,0,0,0-.155.114c.064.559.195,1.318.292,1.881.524,3.039,1.242,7.2-1.153,10.537-1.885,2.626-5,3.406-7.5,4.033a17.659,17.659,0,0,0-2.687.814A16.122,16.122,0,0,0,188.338,92.993Z"></path><path d="M144.154,96.224a14.8,14.8,0,0,0-2.8.738,14.374,14.374,0,0,0-1.21,2.774,21.274,21.274,0,0,1-3.094,6.118A27.345,27.345,0,0,1,133,109.778a19.3,19.3,0,0,0-3.035,2.907,44.369,44.369,0,0,1-3.351,3.849,34.568,34.568,0,0,0-3.071,3.562,29.9,29.9,0,0,1-3.769,4.172,21.61,21.61,0,0,0-2.87,3.155,12.709,12.709,0,0,0-.431,2.735,16.143,16.143,0,0,1-2,7.339,32.338,32.338,0,0,0-1.96,3.931,45.9,45.9,0,0,1-2.381,4.8c-.715,1.208-1.47,2.4-2.231,3.6-1.014,1.595-1.972,3.1-2.848,4.679-1.485,2.672-4.091,4.073-6.186,5.2a19.794,19.794,0,0,0-2.12,1.247,23.347,23.347,0,0,0,.406,2.319c.539,2.585,1.211,5.8-.258,8.833-1.341,2.77-3.884,4.31-5.927,5.547a21.851,21.851,0,0,0-1.976,1.292c.116.609.4,1.55.611,2.224.8,2.6,1.789,5.842.467,9.036-1.375,3.321-4.663,4.8-7.3,5.985a21.757,21.757,0,0,0-2.411,1.2c-.41,1.063-.842,2.133-1.278,3.209-.728,1.8-1.482,3.662-2.1,5.452-.425,1.233-.883,2.476-1.345,3.728-.609,1.652-1.237,3.354-1.766,5a22.886,22.886,0,0,0,1.151,2.363c1.379,2.593,3.095,5.82,2.13,9.333-.768,2.794-2.707,4.775-4.264,6.367a11.861,11.861,0,0,0-1.819,2.121c-.452,1.891-.831,3.875-1.232,5.977-.225,1.175-.45,2.352-.69,3.525a10.96,10.96,0,0,0,.4,3.127,18.236,18.236,0,0,1,.477,6.9c-.5,2.906-2.307,5.085-3.763,6.835a17.387,17.387,0,0,0-1.545,2.039,19.6,19.6,0,0,0,1.139,2.157c1.268,2.2,2.846,4.929,2.519,8.173a18.48,18.48,0,0,1-2.123,6.327,11.134,11.134,0,0,0-1.193,3.082,11.16,11.16,0,0,0,.759,3.154,18.85,18.85,0,0,1,1.266,6.608c-.095,3.064-1.758,5.5-3.094,7.459a14.045,14.045,0,0,0-1.384,2.287q0,1.325,0,2.662c0,2.3-.011,4.687.078,6.977A13.149,13.149,0,0,0,64,314.623c1.192,1.877,2.675,4.213,2.888,7.1.1,1.308.161,2.613.225,3.92.1,1.971.188,3.832.391,5.7.225,2.08.541,4.137.876,6.314.165,1.071.33,2.148.486,3.237a21.988,21.988,0,0,1-.217,6.222,13.6,13.6,0,0,0-.208,3.651,12.167,12.167,0,0,0,1.463,3.049,20.142,20.142,0,0,1,2.62,6.014c.731,3.443-1.019,6.5-2.425,8.947a21.587,21.587,0,0,0-1.229,2.343,20.079,20.079,0,0,0,1.516,2.992,25.29,25.29,0,0,1,2.547,5.48,14.666,14.666,0,0,0,1.921,1.78c1.847,1.54,4.144,3.457,5.081,6.43a27.166,27.166,0,0,1,.985,5.734,17.911,17.911,0,0,0,.642,3.929c.979,2.8.417,5.613-.033,7.871a12.411,12.411,0,0,0-.374,2.787,13.229,13.229,0,0,0,2,2.118,17.048,17.048,0,0,1,4.471,5.727c.61,1.464,1.372,2.937,2.179,4.5.7,1.362,1.433,2.772,2.105,4.263a19.5,19.5,0,0,1,1.385,6.451,12.076,12.076,0,0,0,.595,3.409,14.25,14.25,0,0,0,2.155,1.586c1.895,1.25,4.254,2.808,5.611,5.438A50.367,50.367,0,0,1,103.7,446.3a37.993,37.993,0,0,0,1.874,4.247l-.55.3a170.648,170.648,0,0,0,49.222,28.876c-.2-.557-.39-1.111-.578-1.658-.486-1.412-.944-2.746-1.467-3.981a18.042,18.042,0,0,1-1.09-7,11.623,11.623,0,0,0-.275-3.128,38.825,38.825,0,0,1-1.653-5.6,33.006,33.006,0,0,0-1.095-3.9,41.65,41.65,0,0,1-1.57-5.582,37.132,37.132,0,0,0-1.022-3.849,13.806,13.806,0,0,0-2-1.745c-1.9-1.478-4.268-3.319-5.261-6.291a17.831,17.831,0,0,1-.511-7.113,11.513,11.513,0,0,0-.007-3.116c-.407-1.308-.913-2.62-1.448-4.009-.653-1.693-1.327-3.443-1.864-5.306a11.955,11.955,0,0,0-1.816-2.216c-1.519-1.618-3.409-3.63-4.149-6.423-.832-3.138.249-6.056,1.118-8.4a15.031,15.031,0,0,0,.777-2.47,24.11,24.11,0,0,1-.4-6.226,18.419,18.419,0,0,0-.095-3.392,16.086,16.086,0,0,0-1.855-1.809c-1.921-1.7-4.313-3.822-4.946-7.076a14.643,14.643,0,0,0-1.4-3.281,21.223,21.223,0,0,1-2.347-6.159c-.645-3.771,1.684-6.839,3.554-9.3.476-.627,1.147-1.51,1.483-2.081a18.423,18.423,0,0,0-1.192-2.391,17.676,17.676,0,0,1-2.492-6.507,19.474,19.474,0,0,1,.638-6.782,12.609,12.609,0,0,0,.475-3.262c-.123-1.249-.266-2.485-.408-3.715-.227-1.97-.462-4.008-.615-6.073-.149-2.013-.181-3.964-.212-5.852-.022-1.354-.043-2.635-.1-3.913a13.23,13.23,0,0,0-1.381-2.293c-1.341-1.963-3.01-4.406-3.087-7.506-.055-2.2-.029-4.385,0-6.5.014-1.152.027-2.3.027-3.438,0-3.359,1.959-5.914,3.533-7.967a17.132,17.132,0,0,0,1.43-2.043,13.7,13.7,0,0,0-.875-2.756,13.706,13.706,0,0,1,.744-13.9,15.4,15.4,0,0,0,1.109-2.475,19.6,19.6,0,0,0-1.372-2.134c-1.563-2.23-3.508-5.005-3.157-8.466.326-3.22,2.339-5.563,3.956-7.445a15.347,15.347,0,0,0,1.562-2.007,13.126,13.126,0,0,0-.663-2.808,16.16,16.16,0,0,1-.967-7.275c.195-1.272.364-2.548.532-3.819.26-1.961.53-3.99.89-6,.563-3.135,2.656-5.311,4.338-7.06.42-.437.989-1.028,1.359-1.484-.364-.616-.961-1.456-1.363-2.023-1.828-2.575-4.1-5.781-3.23-9.542.464-2,1.03-3.945,1.577-5.829.371-1.28.74-2.552,1.067-3.81.515-1.985,1.129-3.916,1.723-5.784.4-1.269.805-2.529,1.163-3.778,1.077-3.761,4.646-5.476,7.514-6.854.516-.248,1.184-.57,1.731-.864-.231-.549-.539-1.191-.777-1.687-1.258-2.624-2.824-5.889-1.643-9.343,1.1-3.205,3.814-4.994,6-6.431.536-.352,1.272-.837,1.736-1.209-.167-.621-.512-1.531-.762-2.189-1-2.627-2.235-5.9-.919-9.189,1.253-3.138,4.042-4.8,6.283-6.139a16.7,16.7,0,0,0,2.1-1.385c.781-1.8,1.629-3.473,2.45-5.1.622-1.23,1.21-2.393,1.745-3.557a32.341,32.341,0,0,0,1.377-3.9,36.051,36.051,0,0,1,2-5.416,12.824,12.824,0,0,0,0-2.818c-.139-2.288-.312-5.138,1.064-7.77a26.877,26.877,0,0,1,3.8-5.192,19.38,19.38,0,0,0,2.228-2.87,38.545,38.545,0,0,1,3.49-5.014,31.876,31.876,0,0,0,2.261-3.13,24.831,24.831,0,0,1,4.243-5.055,16.878,16.878,0,0,0,2.3-2.548,11.965,11.965,0,0,0,1-3.355,17.157,17.157,0,0,1,2.276-6.347c2.112-3.147,5.776-4.065,8.45-4.735.48-.12,1.109-.277,1.61-.428-.046-.8-.246-1.962-.381-2.741a17.656,17.656,0,0,1-.349-5.782,155.341,155.341,0,0,0-27.635,5.99l.855.935a10.227,10.227,0,0,1-7.783,2.816c-.788-.007-1-.011-1.4.341-.039.544-.032,1.387-.029,2,.021,2.905.049,6.883-2.577,9.832C149.535,95.138,146.551,95.74,144.154,96.224Z"></path><path d="M219.96,465.584q-4.263-2.415-8.362-5.038-.024.8-.025,1.621c0,1.441.156,3.043.321,4.74.19,1.954.386,3.974.39,6.1,0,2.092-.153,4.1-.3,6.041-.132,1.713-.258,3.331-.256,4.814,0,2.041.068,4.028.13,5.809a163.493,163.493,0,0,0,45.828-7.967A182.777,182.777,0,0,1,219.96,465.584Z"></path><path d="M329.362,464.412a167.78,167.78,0,0,1-20.959,1.321,160.79,160.79,0,0,1-79.2-20.726,156.76,156.76,0,0,1-64.66-68.96l-11.674,2.614h0l0,0a174.747,174.747,0,0,0,72.027,78.221A172.716,172.716,0,0,0,482.558,304.841l-12.6,2.821a153.478,153.478,0,0,1-38.117,102.383A162.259,162.259,0,0,1,329.362,464.412Z"></path><path d="M82.792,428.838c-.559-1.243-1.2-2.471-1.868-3.772-.864-1.672-1.758-3.4-2.527-5.246a11.384,11.384,0,0,0-2.087-2.284,16.371,16.371,0,0,1-4.524-5.921c-1.122-2.93-.537-5.868-.066-8.228a12.747,12.747,0,0,0,.373-2.709,25.6,25.6,0,0,1-1.13-6.192,20.072,20.072,0,0,0-.54-3.582,13.843,13.843,0,0,0-1.977-1.847c-1.887-1.575-4.237-3.535-5.1-6.609a17.1,17.1,0,0,0-1.643-3.367,23.247,23.247,0,0,1-2.67-5.979c-.885-3.583.931-6.749,2.39-9.293a22.077,22.077,0,0,0,1.206-2.291,17,17,0,0,0-1.371-2.669,19.1,19.1,0,0,1-2.663-6.324,21.167,21.167,0,0,1,.145-6.749,14.473,14.473,0,0,0,.226-3.458c-.151-1.055-.311-2.1-.471-3.136-.336-2.189-.684-4.454-.934-6.754-.234-2.164-.337-4.261-.437-6.29-.06-1.225-.12-2.45-.21-3.677a12.067,12.067,0,0,0-1.356-2.476c-1.231-1.938-2.763-4.35-2.879-7.35-.1-2.5-.092-4.982-.086-7.388,0-.912.005-1.821,0-2.722-.012-3.245,1.728-5.793,3.126-7.841a14.488,14.488,0,0,0,1.359-2.234,13.055,13.055,0,0,0-.774-3.081,17.913,17.913,0,0,1-1.236-6.926,18.212,18.212,0,0,1,2.177-6.793,13.813,13.813,0,0,0,1.144-2.791,16.229,16.229,0,0,0-1.2-2.338c-1.3-2.251-2.918-5.052-2.467-8.378.42-3.1,2.318-5.379,3.843-7.213a12.424,12.424,0,0,0,1.611-2.2,12.22,12.22,0,0,0-.424-3.1,17.415,17.415,0,0,1-.407-7.184c.232-1.128.448-2.26.663-3.39.406-2.122.825-4.316,1.345-6.484.717-2.988,2.749-5.064,4.382-6.732a20.856,20.856,0,0,0,1.575-1.73c-.24-.62-.756-1.59-1.123-2.281-1.4-2.636-3.146-5.917-2.046-9.472.64-2.07,1.387-4.093,2.109-6.05.436-1.183.87-2.357,1.271-3.522.7-2.04,1.506-4.027,2.284-5.949.475-1.174.947-2.341,1.387-3.5,1.332-3.515,4.737-5.045,7.473-6.274.59-.265,1.383-.622,1.949-.927-.136-.613-.388-1.435-.575-2.045-.808-2.64-1.814-5.924-.375-9.129,1.333-2.968,3.988-4.576,6.122-5.868a19.942,19.942,0,0,0,2-1.314,20.742,20.742,0,0,0-.42-2.47c-.545-2.614-1.223-5.866.349-8.892,1.5-2.878,4.226-4.346,6.419-5.526a14.5,14.5,0,0,0,2.242-1.359c1-1.792,2.061-3.459,3.086-5.074.705-1.109,1.405-2.209,2.067-3.327a37.581,37.581,0,0,0,1.854-3.783A40.357,40.357,0,0,1,106,132.17a11.5,11.5,0,0,0,.513-2.972c.212-2.2.476-4.943,2.066-7.326A29.7,29.7,0,0,1,112.8,117.1a22.364,22.364,0,0,0,2.574-2.775,43.007,43.007,0,0,1,3.958-4.646,36.684,36.684,0,0,0,2.622-2.981,27.425,27.425,0,0,1,4.625-4.588,19.54,19.54,0,0,0,2.627-2.458,13.305,13.305,0,0,0,1.547-3.355,18.763,18.763,0,0,1,3.017-5.863c2.334-2.786,5.844-3.5,8.407-4.012.573-.116,1.358-.275,1.886-.425a15.264,15.264,0,0,0,.107-2.068C77.1,114.392,29.434,190.675,29.434,279.742c0,58.353,20.467,111.215,53.438,149.306C82.846,428.975,82.821,428.9,82.792,428.838Z"></path><path d="M217.529,242.792a16.925,16.925,0,0,1-2.046,6.877,10.982,10.982,0,0,0-1.112,2.93c-.036,1.6-.036,3.213-.035,4.831,0,1.675,0,3.358-.036,5.047a13.293,13.293,0,0,0,.739,3.387A20.962,20.962,0,0,1,216.2,272.4a16.509,16.509,0,0,1-2.147,6.972,11.027,11.027,0,0,0-1.138,2.84,13.845,13.845,0,0,0,1.177,2.414c1.117,2.017,2.508,4.526,2.45,7.536a21.828,21.828,0,0,1-1.3,6.3,8.407,8.407,0,0,0-.147,7.037,22.169,22.169,0,0,1,1.064,6.407,15.684,15.684,0,0,1-2.362,7.147,11.6,11.6,0,0,0-1.194,2.668c-.028,1.633-.081,3.273-.134,4.918s-.107,3.3-.134,4.958a11.211,11.211,0,0,0,.964,2.936,17.368,17.368,0,0,1,1.741,6.988c-.027,1.7-.1,3.393-.18,5.032-.076,1.672-.149,3.251-.173,4.846-.016,1.058-.008,2.122-.006,3.185L279.42,340.1c.007-.065.013-.13.02-.2.217-1.913.421-3.72.555-5.517a11.275,11.275,0,0,0-.778-3.177,17.912,17.912,0,0,1-1.265-6.8q.1-1.731.21-3.448c.137-2.183.267-4.245.345-6.329a16.626,16.626,0,0,1,2.294-7.008,11.323,11.323,0,0,0,1.164-2.72,15.391,15.391,0,0,0-.7-3.722,18.851,18.851,0,0,1,.033-12.358,15.092,15.092,0,0,0,.7-3.623,12.169,12.169,0,0,0-1.271-2.573c-1.1-1.907-2.479-4.281-2.583-7.139a17.509,17.509,0,0,1,1.561-6.986,11.077,11.077,0,0,0,.884-2.947,14.108,14.108,0,0,0-1.019-3.538,22.033,22.033,0,0,1-1.594-6.131c-.146-1.97-.358-3.986-.564-5.934-.135-1.276-.269-2.548-.387-3.817a18.123,18.123,0,0,1,1.07-6.977,13.64,13.64,0,0,0,.681-2.926,15.646,15.646,0,0,0-1.692-2.044c-1.675-1.83-3.759-4.107-4.174-7.268-.183-1.4-.34-2.783-.5-4.16-.217-1.915-.422-3.725-.693-5.527-.21-1.393-.393-2.776-.576-4.15-.253-1.912-.492-3.718-.8-5.512-.543-3.191.778-6.015,1.84-8.283a18.015,18.015,0,0,0,.963-2.305,19.17,19.17,0,0,0-1.7-1.972c-1.583-1.694-3.554-3.8-4.17-6.736a16.546,16.546,0,0,1,.553-7.417,11.494,11.494,0,0,0,.483-2.852,12.934,12.934,0,0,0-1.816-2.144c-1.555-1.627-3.491-3.651-4.2-6.479a16.628,16.628,0,0,1,.248-7.423,11.54,11.54,0,0,0,.362-2.857c-.386-1.419-.74-2.84-1.09-4.248-.457-1.841-.889-3.58-1.382-5.258a47.319,47.319,0,0,0-1.689-4.536c-.614-1.5-1.248-3.041-1.764-4.673a11.59,11.59,0,0,0-1.936-2.85,18.376,18.376,0,0,1-3.5-5.662,40.81,40.81,0,0,1-1.333-5.459,28.265,28.265,0,0,0-.985-4.073c-.632-1.74-1.089-3.415-1.53-5.034-.427-1.563-.83-3.038-1.332-4.333a38.66,38.66,0,0,1-1.573-5.564,25.517,25.517,0,0,0-1.087-3.914,17.06,17.06,0,0,0-2.277-3.477,24.234,24.234,0,0,1-3.108-4.841c-1.269-2.856-1.044-5.768-.864-8.108a16.137,16.137,0,0,0,.08-2.4,12.637,12.637,0,0,0-2.713-1.8c-2.024-1.132-4.318-2.413-5.586-4.857a13.718,13.718,0,0,1-1.821-7.152c-2.248-.269-4.511-.475-6.782-.646a12.942,12.942,0,0,1-1.531,2.108,2.664,2.664,0,0,0-.793,2.107c.223.427.718,1.162,1.064,1.676,1.454,2.161,3.446,5.12,3.312,8.814-.1,2.8-1.528,5-2.786,6.938a10.834,10.834,0,0,0-1.5,2.787,15.165,15.165,0,0,0,.556,3.332,24.626,24.626,0,0,1,.876,6.594,32.131,32.131,0,0,1-.8,5.5,26.648,26.648,0,0,0-.66,4.33c-.058,1.786-.287,3.521-.509,5.2-.213,1.616-.415,3.142-.462,4.647a35.463,35.463,0,0,1-.737,5.514,28.955,28.955,0,0,0-.606,4.323,11.655,11.655,0,0,0,.851,2.941,18.353,18.353,0,0,1,1.519,7.01c-.04,1.337.061,2.793.169,4.333a55.331,55.331,0,0,1,.194,5.556c-.05,1.664-.155,3.339-.257,4.959s-.207,3.278-.254,4.905a15.55,15.55,0,0,1-2.431,7.063,12.964,12.964,0,0,0-1.238,2.639,14.328,14.328,0,0,0,1.194,2.325c1.2,2.059,2.69,4.622,2.6,7.734a15.508,15.508,0,0,1-2.449,7.1,13.706,13.706,0,0,0-1.229,2.575A15.519,15.519,0,0,0,216,195.483c1.295,2.076,2.907,4.659,2.825,7.843-.085,3.286-2.073,5.783-3.671,7.79a15.843,15.843,0,0,0-1.558,2.167c-.044,1.6-.129,3.211-.211,4.768-.086,1.607-.174,3.269-.213,4.884-.04,1.677-.128,3.362-.213,4.991-.079,1.519-.161,3.087-.2,4.618a17.122,17.122,0,0,0,1.414,2.147C215.7,236.8,217.606,239.434,217.529,242.792Z"></path><path d="M239.709,74.149c2.244,1.254,5.318,2.971,6.9,6.289,1.2,2.512,1,5.113.823,7.409a10.493,10.493,0,0,0,.031,3.277,16.625,16.625,0,0,0,1.907,2.818,25.215,25.215,0,0,1,3.576,5.728,33.185,33.185,0,0,1,1.6,5.542,29.994,29.994,0,0,0,1.141,4.151,53.184,53.184,0,0,1,1.657,5.319c.407,1.491.791,2.9,1.283,4.255a36.005,36.005,0,0,1,1.4,5.585,32.167,32.167,0,0,0,.986,4.149,11.977,11.977,0,0,0,1.791,2.574,18.817,18.817,0,0,1,3.7,6.135c.391,1.233.92,2.523,1.48,3.889a55.586,55.586,0,0,1,2.033,5.515c.552,1.88,1.03,3.8,1.492,5.665.332,1.337.667,2.686,1.035,4.034a15.945,15.945,0,0,1-.2,7.421,10.978,10.978,0,0,0-.359,3.049,14.194,14.194,0,0,0,1.729,2c1.623,1.7,3.642,3.807,4.334,6.811a15.948,15.948,0,0,1-.507,7.445,12.2,12.2,0,0,0-.5,2.944,13.957,13.957,0,0,0,1.7,2.033c1.644,1.76,3.691,3.949,4.278,7.042.606,3.186-.722,6.022-1.788,8.3a14.737,14.737,0,0,0-1.015,2.508c.325,1.929.581,3.863.829,5.735.174,1.316.349,2.64.55,3.974.3,1.984.524,3.97.741,5.891.143,1.259.286,2.525.451,3.8a15.634,15.634,0,0,0,1.66,2c1.727,1.887,3.876,4.236,4.245,7.533a17.236,17.236,0,0,1-1.037,7.076,11.451,11.451,0,0,0-.687,3.165c.115,1.227.244,2.458.375,3.693.214,2.024.434,4.118.592,6.245a14.517,14.517,0,0,0,.994,3.382,21.7,21.7,0,0,1,1.63,6.474,16.988,16.988,0,0,1-1.536,7.092,11.027,11.027,0,0,0-.9,3.027,12.413,12.413,0,0,0,1.245,2.494c1.141,1.971,2.561,4.424,2.614,7.4a22.665,22.665,0,0,1-1.045,6.4,9.568,9.568,0,0,0-.023,7.2,23.076,23.076,0,0,1,1.033,6.476,16.159,16.159,0,0,1-2.277,7.115,11.091,11.091,0,0,0-1.186,2.8c-.083,2.21-.223,4.432-.358,6.58-.071,1.123-.142,2.249-.206,3.381a11.562,11.562,0,0,0,.77,3.079,17.971,17.971,0,0,1,1.262,7.078c-.067.89-.152,1.778-.241,2.663l50.281-11.25a18.227,18.227,0,0,1-.318-6.332l.263-1.586c.45-2.711.875-5.271,1.205-7.858a17.417,17.417,0,0,1,2.613-6.532,11.076,11.076,0,0,0,1.311-2.7,16.151,16.151,0,0,0-.41-3.844,20.115,20.115,0,0,1,.649-11.765,15.821,15.821,0,0,0,.809-3.679,11.553,11.553,0,0,0-1.123-2.686,16.045,16.045,0,0,1-2.173-6.9,18.137,18.137,0,0,1,1.435-6.665,11.007,11.007,0,0,0,.83-3.02,14.733,14.733,0,0,0-1.006-3.6,23.525,23.525,0,0,1-1.528-5.837c-.219-2.3-.542-4.657-.854-6.933-.117-.855-.234-1.709-.346-2.562a18.79,18.79,0,0,1,.613-6.7,12.952,12.952,0,0,0,.464-3.072,14.591,14.591,0,0,0-1.718-1.975c-1.634-1.69-3.668-3.792-4.279-6.771-.218-1.064-.423-2.118-.627-3.167-.415-2.133-.807-4.148-1.292-6.156-.258-1.067-.5-2.128-.746-3.182-.486-2.108-.945-4.1-1.495-6.077-.824-2.962.023-5.785.7-8.054a16.125,16.125,0,0,0,.611-2.445,15.873,15.873,0,0,0-1.881-1.853c-1.646-1.474-3.695-3.309-4.643-6.014a17.175,17.175,0,0,1-.557-7.07,11.05,11.05,0,0,0-.009-2.964,12.05,12.05,0,0,0-2.04-1.932,15.34,15.34,0,0,1-4.8-5.657,17.221,17.221,0,0,1-1-7.015,11.027,11.027,0,0,0-.2-2.946c-.53-1.155-1.04-2.317-1.548-3.474-.819-1.866-1.593-3.629-2.428-5.32-.687-1.39-1.548-2.762-2.458-4.214-.823-1.311-1.673-2.668-2.441-4.115a11.99,11.99,0,0,0-2.365-2.493,19.339,19.339,0,0,1-4.261-4.831,42.7,42.7,0,0,1-2.265-4.863,30.185,30.185,0,0,0-1.808-3.87c-.9-1.5-1.649-2.976-2.373-4.406-.743-1.467-1.444-2.853-2.216-4.064a40.413,40.413,0,0,1-2.556-4.906,27.67,27.67,0,0,0-1.916-3.689,18.018,18.018,0,0,0-2.8-2.916,25.919,25.919,0,0,1-3.921-4.149,16.264,16.264,0,0,1-2.436-7.285,13.913,13.913,0,0,0-.523-2.524,12.719,12.719,0,0,0-2.647-1.2c-2.092-.789-4.7-1.771-6.445-4.029a18.489,18.489,0,0,1-3.016-7l-.056-.212a157.317,157.317,0,0,0-30.3-8.967c.076.189.166.394.287.639C238.335,73.381,239.147,73.835,239.709,74.149Z"></path></svg>