<svg fill="#000" xmlns="http://www.w3.org/2000/svg" xmlns:xlink="http://www.w3.org/1999/xlink" viewBox="0 0 100 100" enable-background="new 0 0 100 100"><g><path d="M84.224 41.967c-1.492.724-1.612 4.182-.779 3.348.687-.688 1.133-1.087 1.854-1.657C85.676 43.358 84.852 41.663 84.224 41.967z"/><path d="M84.695 48.634c-.534.334-.378 1.491.79 1.365C85.664 49.513 85.254 48.634 84.695 48.634z"/><path d="M95.688 61.215c-.236.448-.472.77-.339 1.32C95.916 62.2 95.846 61.451 95.688 61.215z"/><path d="M97.383 60.497c-.708-1.127-2.395-3.063-2.72-3.798-.36-.819-.359-4.948-.324-5.484.01-.148.324-1.095.324-2.059.0-1.266-.938-1.455-.952-1.997-.025-1.106-.626-1.611.092-2.686.716-1.074.772-2.187.609-2.518-.287-.58-2.202.984-3.007.715-2.89-4.42-13.326-10.767-14.383-11.2-1.298-.53-2.358.295-3.464-.466-1.471-1.012-4.731-2.465-6.075-2.644-1.342-.179-3.401-.716-5.459-.716-2.061.0-10.564.358-12.981.0-2.417-.358-7.788-1.611-10.474-1.88-2.686-.268-9.668-.626-11.906-.537-2.237.089-12.643.311-15.755 2.417-7.745 5.241-8.624 10.52-8.57 13.022.137 6.335.944 5.777 2.064 1.356C5.522 43.555 4.874 50 7.776 54.409c.891 1.355-1.167 4.131-1.103 5.775.039.972 3.093 7.404 3.741 10.78.081.414 4.009 1.413 4.073.499.041-.571 1.174.561 2.588.62 1.029.042 1.475-.648 1.264-.935-.428-.581.237-.696 1.389-.303 1.205.41 2.63.889 2.63.182.0-1.243 1.595.532 2.004-.404.73-1.665-2.532-2.607-3.159-2.966-.626-.357-.826-2.443-1.417-4.534-.169-.6.059-4.244 1.058-5.76 3.363-1.138 10.849 3.397 17.333 3.697 9.138.422 18.116-2.355 19.191-1.907-.093 1.607-1.153 3.911-1.075 5.46.07 1.354-.063 6.897.406 7.213.772.519 1.742.034 2.548.276 1.432.431 2.346 1.277 2.508.389.106-.597.57-.123.57-.123 1.139 2.416 3.419 2.483 3.732 1.307.152-.577.68.659 1.156.856.612.253 1.522.248 2.149.0.626-.249.358.497 1.342.168.947-.315.2-2.317-.698-2.558-1.769-.472-3.15-2.516-3.062-3.679.09-1.163 1.254-5.281 2.061-6.445.805-1.163.988-5.228 2.003-5.496s1.106-.464 2.114.126c.596.347.805.447 1.252-.09.448-.537.448-.269 1.075.626.626.895 2.434 3.044 5.997 3.224 1.281.063-.011 1.966.35 3.246.348 1.242 1.515 2.304 2.784 3.021 1.127.635 4.386 1.252 6.176 1.163 1.791-.09 3.622-.286 4.477-.806C98.065 65.306 97.853 61.243 97.383 60.497zM61.756 70.075c-1.119-.881-.893-4.122-.359-5.013C61.644 66.231 61.906 69.258 61.756 70.075zM90.41 67.266c-4.734-.158-6.97-1.792-7.774-3.314-.806-1.522.647-2.645.293-4.098-.116-.481-4.243-4.476-4.012-10.605.044-1.183 1.506-3.418 3.042-4.42-.052-1.25.513-2.238 1.085-2.802 1.577-1.552 2.236.36 2.482.177.286-.213-.563-1.641-1.637-1.285-2.139.705-3.622 4.585-5.271 4.177-.721-.179 2.097-5.52 1.398-5.902-.929-.508-4.469 9.442-4.669 9.108-.807-1.342 1.647-11.661 1.178-12.063-.578-.492-2.313 9.206-3.249 9.206-.868.0.723-12.324-1.068-12.502-1.79-.18-1.011 15.517-1.323 17.631-.554 3.773-4.728 18.23-6.053 18.027-3.181-.489-2.608-15.132-3.054-17.207-.531-2.48-1.725-7.432-5.216-5.97-2.379.996-8.862 10.42-15.396 10.867-6.535.448-9.686-13.974-11.297-18.807-1.611-4.834-4.408-4.742-5.609-2.137-1.402 3.037-3.287 11.966-4.007 16.561-.868 5.543-5.543 6.544-5.852 11.813-.131 2.236 1.159 4.19.478 4.591-.837.492-3.658-.545-5.212-3.063-1.016-1.644-2.675-4.47-2.399-5.551.238-.935 2.104-4.922 1.405-5.645-1.615-1.67-3.36-10.893-3.661-14.176-.853-9.338 6.359-13.947 26.06-13.947 1.916.0 10.886 1.002 16.63 2.343 1.333.312 15.106.258 16.694.529 6.655 1.137 9.076 3.647 10.151 3.473 1.947-.317 4.259 1.078 6.098 2.174 2.285 1.365 9.044 6.558 10.325 8.742 1.136.211 2.599-.891 2.586-.535-.009.202-.657.727-1.028 1.565.162 1.184.384 3.413 1.253 4.081.271.209.4 1.699-.134 2.404.0.0-.237 3.277-.134 5.341.066 1.337 3.406 3.34 3.406 7.079C96.918 65.963 94.298 67.396 90.41 67.266z"/><path d="M89.237 60.229c-.357.533.281 2.043 1.163 1.969C90.499 61.769 89.834 60.229 89.237 60.229z"/></g></svg>