<svg fill="#000" xmlns="http://www.w3.org/2000/svg" xmlns:xlink="http://www.w3.org/1999/xlink" viewBox="0 0 100 100" enable-background="new 0 0 100 100"><g><path fill="#000" d="M77.2 84.562c-1.584-1.21-3.103-.516-3.687-1.215-.582-.7-.363-10.506-.479-11.905-.117-1.399-.238-5.026-.238-6.076.0-1.049 1.438-5.979.587-17.239-.123-1.645-1.666-11.34-2.214-12.591-.87-1.986-3.323-3.445-5.655-4.377s-5.935-.81-7.284-.168c-.584-1.283-.351-3.498-.351-5.013.0-1.515-.933-3.614-1.398-4.196-.466-.583-1.166-1.166-1.982-1.865-.815-.7-1.797-1.253-1.981-3.73.699-.583 1.804-1.748 1.632-3.731-.125-1.447-.933-1.864-.933-2.214.0-.35.341-2.007-1.282-3.031-.985-.623-1.344-1.224-2.558-1.313-.987-.073-2.513-1.713-3.111-2.219C43.457 1.307 38.05 1.4 36.749 1.986c-2.698 1.213-2.532 1.528-4.399 1.958-2.57.593-4.18 1.985-6.294 4.198-2.795 2.923-3.148 7.46-3.031 11.657.116 4.197-3.148 6.645-2.682 13.522.466 6.878 1.982 8.512 1.399 11.367-.583 2.855-2.773 6.235-1.445 8.8 1.328 2.565 1.561 1.634 1.911 4.314.35 2.681 1.282.933 1.749 3.729.466 2.798.0 5.828 2.214 7.695 2.215 1.864 2.438.14 2.973 2.797.572 2.842 4.544 19.233 3.089 19.934-.987.476-2.509.45-2.636 1.413-.225 1.708-.725 2.638-.454 3.25.522 1.185 2.561 1.194 4.229 1.154 1.647-.039 4.73-.226 5.08-.808.35-.585.944-1.998 1.077-2.813.29-1.787.081-2.396-.061-3.051-.149-.693-.056-1.825-.567-3.353-.341-1.02-.958-4.187-1.074-5.469-.116-1.283.304-7.149 1.049-7.811 1.08-.958 2.005-2.634 3.171-2.634 1.165.0 2.686-.389 3.686 1.438.991 1.812 2.046 2.134 2.235 3.875.282 2.598-.481 6.169-.258 7.453.36 2.067-.442 6.07-1.607 7.353-1.166 1.283-1.989 1.817-2.098 3.731-.088 1.53-.116 1.525 1.515 1.987 1.632.46 3.144.374 4.799.603 1.262.173 3.514.141 4.097-.686s.965-.931.779-2.021c-.081-.481.609.073 1.775-.044 1.165-.117 2.663.207 3.55.044 1.018-.184 1.274-.396 1.742-1.328.466-.934-.016-2.333-.482-3.615-.467-1.281-.522-4.267-.639-4.965-.117-.699.233-5.602-.351-6.768-.582-1.166-1.165-2.559-1.165-3.492.0-.932.401-5.723.233-7.228-.145-1.294 2.565-4.545 3.09-5.245.523-.699 1-.178 1.527.996.629 1.393 1.993 9.375 2.027 11.128.041 2.133-.583 2.564-.467 4.313.116 1.748.224 10.959.471 12.939.172 1.377.355 1.819 1.045 2.098 1.102.447 3.382.816 4.431.7 1.049-.117 3.073-.106 3.192-.748.209-1.126-.044-2.651-1.844-3.055-1.438-.324-2.111-12.015-2.111-13.531.0-1.515.763-4.932.763-4.932.161 1.605-.725 9.309.99 13.652.365.927 3.252 1.784 4.719 2.067C79.088 88.83 82.637 88.706 77.2 84.562zM30.126 13.183c.198 1.385 1.004 1.743 1.297 2.477.294.733.267 2.119-.223 2.951-.489.831-.527 1.84-2.004.0-6.692-8.341 2.374-9.418 3.325-8.459C30.738 10.711 29.954 11.985 30.126 13.183zM50.514 9.564c1.495.0 2.942 1.368 3.227 2.738.315 1.518-.978 3.52-1.613 3.569-.636.05-.662-.85-.368-1.536.272-.635.6-.933.784-1.862S49.386 9.564 50.514 9.564zM37.779 95.572c-.126.84-.407.986-1.349 1.439-.734.353-2.244.194-3.007.279-.449.049-2.722.485-3.44-.594-.719-1.078-.427-2.123.023-3.04.576-1.171 2.756-1.215 3.774-1.437 1.009-.221 3.195.051 3.958.874C38.094 93.479 37.9 94.76 37.779 95.572zM46.958 37.244c-3.31.538-6.123-1.288-6.77-4.441-.058-.282-1.799-2.262-2.631-3.29-.831-1.026-2.606-3.22-2.934-7.871-.048-.689-.064-3.771.587-4.45 3.024-3.15 2.351-4.647 4.2-5.11 2.146-.536 4.018 3.308 4.705 3.136.586-.146.666-3.457 2.008-2.499.968.69 4.32 4.021 4.353 7.537.012 1.094-.618 3.252-.631 3.688-.025.88.943 1.922 1.259 2.844.552 1.616-.396 5.916-1.349 6.637-.392.296-.66.263-.416.488C49.725 34.265 48.657 36.968 46.958 37.244zM70.779 77.856c.545 6.336.67 13.169 1.91 13.708 1.342.582 1.928.417 2.185 2.402.134 1.036-7.482 1.421-7.536-1.037-.067-3.02 1.637-12.19 1.727-14.258s-.396-3.048-.747-3.709c-.84-1.578-.439-8.341-1.052-10.136-.836-2.458-3.544-8.491-4.681-8.763-.289-.068-.592.131-.951.508-1.513 1.743-5.025 10.383-5.407 14.491-.004.051-.012.099-.021.146.264 8.787-2.091 22.619-1.436 24.544.382 1.12-.564 1.951-1.904 2.025-5.244.291-8.126-.548-8.074-1.755.264-6.042 4.932-2.381 5.943-3.094.899-.635.293-3.801.382-4.97.09-1.169.161-7.039-.108-8.028-.27-.988-2.262-4.137-2.441-5.485-.18-1.35 1.349-3.687 1.69-5.034.122-.482.705-1.404 1.445-2.268.039-.089.085-.176.144-.258 2.897-4.051 2.898-4.051 3.611-9.604.337-2.896.893-6.204.903-7.443.021-2.517-.854-7.122 1.646-10.005 1.168-1.349 2.247-3.668 1.903-5.287-.346-1.618-1.616-2.573-1.257-3.113.36-.54 3.258-1.134 8.083.765 5.135 2.02 4.08 6.354 5.079 9.011s1.456 16.583 1.147 19.389C71.87 70.521 70.662 76.501 70.779 77.856z"/><path fill="#000" d="M41.098 20.371c.052-.725-.109-2.637-2.476-.988C39.203 20.768 40.499 20.257 41.098 20.371z"/><path fill="#000" d="M49.196 18.984c-.57-.065-1.528-.009-.854 1.46C49.207 20.374 49.376 19.947 49.196 18.984z"/><path fill="#000" d="M48.962 33.601c.288.289.133-.408.047-.607-.264-.605-.534-.704-.679-1.016-.276-.59.093-1.928.572-2.605.786-1.11 2.199-1.685 2.048-2.022-.149-.336-.669.436-2.265.526-2.587.146-3.398-1.288-3.52-.75-.24 1.064 1.501 1.154 2.813 2.277.583.499.062 2.229-.089 2.355-.509.427-1.504 1.196-2.724 1.563-1.584.478-4.141-.187-4.44-.261-.298-.074-.187.97.374 1.306.56.336 3.396-.41 4.181-.746.783-.336 1.637-.92 2.491-.942C48.628 32.658 48.663 33.3 48.962 33.601z"/></g></svg>