<svg fill="#000" xmlns="http://www.w3.org/2000/svg" xmlns:xlink="http://www.w3.org/1999/xlink" viewBox="0 0 100 100" enable-background="new 0 0 100 100"><g><path fill="#000" d="M84.261 44.556c-.161.218-.099.39-.025.591.057.157.116.319.039.487-.099.212-.338.146-.512.097-.15-.042-.32-.089-.434-.026-.075.043-.133.136-.172.28-.107.388.064.563.217.717.1.102.224.228.154.391-.063.146-.227.158-.386.17-.148.012-.316.025-.399.13-.07.089-.089.244-.055.462.048.322.273.39.612.456.22.042.467.091.511.326.019.097-.014.161-.044.197-.084.104-.237.106-.414.108-.173.003-.369.006-.462.103-.048.051-.07.13-.067.242.007.239.055.398.143.474.099.084.253.064.402.047.157-.021.375-.047.438.152.037.116-.006.254-.055.413-.06.194-.127.413-.034.553.074.112.255.181.531.208.039-.01.077-.018.117-.018.092.0.222.031.325.18.096.137.245.186.404.238.168.056.358.118.433.31.073.189.157.216.236.216.068.0.15-.023.229-.045.086-.024.174-.049.26-.049.153.0.24.081.286.149.042.062.076.071.107.071.061.0.142-.036.222-.071.102-.045.208-.092.319-.092.168.0.295.104.378.307.029-.022.071-.059.103-.084.117-.101.249-.214.404-.214.048.0.095.012.137.033.146.077.286-.064.433-.205.154-.147.311-.285.487-.243.179-.063 1.071-1.475.974-2.53-.094-1.009-.902-1.747-1.287-1.747-.075.0-.095.032-.103.046-.143.241-.024.444.196.783.283.435.671 1.028.119 1.926-.089.144-.579.861-1.56.861l-.055-.002c-.706-.019-1.786-.874-2.118-1.947-.184-.589-.274-1.733 1.166-2.781.367-.267.877-.407 1.475-.407 1.274.0 2.635.621 3.465 1.583.73.846 1.027 1.902.856 3.059-.364 2.479-3.231 5.234-9.796 6.953.167.104.239.309.297.487.089.274.158.443.383.482.021-.029.008-.217-.001-.341-.02-.282-.041-.602.146-.77.099-.089.236-.118.41-.088.745.131.753.644.758.982.004.249.019.329.104.354.168.048.235-.037.364-.34.078-.183.158-.372.336-.429.105-.034.226-.01.355.07.599.369.53.948.49 1.294-.008.069-.019.158-.016.207.03-.012.077-.039.11-.059.208-.121.558-.324 1.009.082.253.225.135.576.049.833-.027.082-.067.202-.068.256.043-.015.119-.063.172-.098.18-.115.427-.273.688-.179.085.031.164.086.236.168.528-.268-.123-.77.321-1.089.334-.241.939 1.043 1.842.237.755-.673-.146-1.115.597-1.687.313-.241.809.547 1.542-.097.807-.707-.782-1.179-.184-1.867.278-.319 1.042.529 1.729-.211.68-.733-.48-.99-.119-1.664.191-.355 1.188.073 1.426-.713.317-1.051-1.229-.861-1.052-1.598.088-.37 1.444.224 1.646-.6.195-.8-1.05-.727-1.108-1.422-.027-.332 1.002.018 1.049-.718.04-.634-.905-.46-1.033-.892-.104-.35.295-.863.172-1.159-.413-.99-.688-.286-.921-.563-.116-.137.277-.903-.196-1.197-.598-.371-.726.454-1.052.307-.291-.132.235-.951-.535-1.426-.291-.18-.925.405-1.256.371-.296-.03.079-.921-.551-1.014-.869-.128-.893.73-1.126.665-.188-.053.35-.686-.592-.794-.906-.104-1.066.777-1.406.83-.353.057-.354-.873-1.129-.771-.552.072-.472 1.401-1.177 1.077-.111-.051-.242-.109-.365-.261C84.668 44.111 84.494 44.241 84.261 44.556z"/><path fill="#000" d="M87.959 60.406c-.14-.051-.308.058-.457.153-.154.099-.299.192-.441.118-.211-.11-.127-.361-.053-.582.087-.26.14-.451.025-.555-.31-.276-.509-.162-.702-.05-.123.072-.263.153-.398.062-.133-.089-.112-.264-.089-.466.039-.338.089-.76-.367-1.041-.061-.038-.109-.054-.139-.044-.062.02-.124.165-.174.282-.104.243-.261.608-.679.488-.285-.083-.289-.37-.293-.602-.005-.341-.009-.636-.54-.729-.09-.016-.153-.007-.189.024-.092.082-.073.356-.059.556.017.244.031.454-.09.563-.039.035-.107.074-.216.055-.397-.068-.504-.396-.589-.66-.093-.288-.142-.385-.328-.372-.182.014-.238.161-.323.42-.078.236-.175.531-.479.622-.283.083-.486-.134-.665-.326-.223-.239-.348-.343-.527-.257-.225.107-.238.292-.241.583-.003.238-.007.508-.222.696-.065.057-.13.059-.173.053-.119-.018-.188-.131-.266-.262-.071-.117-.16-.264-.264-.287-.054-.011-.12.01-.197.061-.39.262-.333.574-.278.877.038.213.082.455-.122.588-.206.134-.363-.062-.468-.19-.096-.118-.195-.241-.327-.249-.116-.006-.276.079-.46.258-.084.081-.044.22.032.439.079.231.179.52-.029.738-.19.2-.4.099-.554.024-.22-.105-.394-.189-.68.285-.13.214-.037.383.124.641.107.17.218.347.218.552.0.271-.23.371-.434.458-.209.092-.424.184-.519.444l-.036.134c-.167.628-.26 1.216.437 1.5l.198.081-.162.141c-.207.178-.298.431-.249.69.049.261.23.483.464.567l.115.041-.033.118c-.042.145.0.333.102.467.063.085.179.188.362.188.056.0.114-.011.175-.029l.111-.035.048.107c.168.375.301.45.459.45.092.0.207-.026.364-.082l.13-.046.04.132c.056.181.266.218.433.218.246.0.56-.089.761-.217l.067-.043.068.039c.087.05.186.075.292.075.373.0.825-.331.903-.823l.019-.117.118.007v0c.11.0.29-.166.457-.637.247-.701.255-1.44.153-1.522-.079.003-.267.284-.403.489-.324.486-.77 1.153-1.458 1.153.0.0.0.0-.001.0-.463.0-.949-.299-1.487-.911l-.02-.024-.009-.029c-.324-1.226.253-2.448.902-3.188v0c.074-.09.147-.182.22-.274.759-.954 1.543-1.94 3.297-2.032.631-.035 1.329.256 1.854.771.406.4.641.874.633 1.271l.002.011c0 .001.0.002.0.004-.001.0.0.001.0.001h-.001c.019 3.907-2.147 7.888-5.405 9.984.711.428 3.127 1.725 4.121 2.177.392-.226.733-.731.459-1.806-.094-.371.889.078 1.512-.53.452-.441-.621-.914-.237-1.661.174-.338.883.516 1.485-.237.449-.562-.71-.873-.297-1.604.164-.293 1.021.237 1.426-.416.48-.775-.946-.979-.772-1.299.437-.807 1.01-.065 1.366-.898.273-.64-1.06-.505-.934-.864s.994-.224 1.112-.563c.311-.888-.678-.545-.625-1.167.029-.348.602-.243.684-.675.122-.635-.995-.335-.831-1.052.12-.526.484-.29.541-1.029C88.165 60.572 88.064 60.444 87.959 60.406z"/><path fill="#000" d="M98.529 73.014c-.357-.768-4.635 6.839-15.74 1.734.069-.003.155-.013.246-.034-1.238-.592-3.742-1.945-4.099-2.195-3.378-2.016-7.466-3.082-11.822-3.082-2.821.0-5.654.451-8.192 1.305l-.062.021-.003-.002c-.758.224-2.236.593-3.669.95-1.521.38-2.958.739-3.493.91v-.001c-1.163.463-2.242.757-3.379 1.063-.693.188-1.406.38-2.189.623 2.729.667 4.706 1.609 5.758 2.786.509-.12 1.292-.456 1.437-1.392.887.647 1.621.303 2.55-.601.215.14.734-.04 1.024.326.189.238.301.782.818.862 1.275.198 1.226-.759 1.723-.712.45.041.214 1.57.713 1.782 1.96.831 2.069-1.021 2.673-.724.786.388-.354 1.313 1.426 1.733.97.229.892-1.367 1.664-1.129.662.203-.729 1.784 1.069 1.782.941-.001 1.244-1.042 1.723-1.069.476-.027-.051 1.07 1.366 1.069.988-.001.975-1.168 1.427-1.188.438-.021-.055 1.189 1.188 1.188 1.166-.001.88-1.417 1.307-1.426.447-.01.203 1.21 1.07 1.01 1.012-.234.979-1.434 1.307-1.426.434.01.489.981 1.366.713 1.216-.372.356-1.258.943-1.582.76.894 1.415.687 1.946.1-.965-.65-2.969-1.645-4.131-2.221-.531-.264-.788-.391-.872-.443l-.147.156c-.388.413-2.688.749-5.127.749-1.874.0-5.263-.2-6.907-1.538l-.396-.321.501.09c.929.169 1.141-.016 1.724-.531l.116-.103.08.043c.177.094.413.144.684.144.518.0 1.065-.189 1.274-.441l.089-.106.102.096c.587.551 1.175.607 1.745.16l.119-.094.075.132c.153.266.39.412.666.412.291.0.592-.157.826-.432l.155-.183.069.229c.118.388.477.446.68.446.214.0.451-.064.67-.179l.115-.063.062.116c.261.489.721.57 1.326.273l.126-.063.054.132c.266.665.528.729 1.095.812l.219.032.14-.194c.05.035.423.221.854.435 1.187.588 3.24 1.607 4.216 2.277C92.146 81.38 98.928 73.87 98.529 73.014z"/><path fill="#000" d="M79.607 63.495c.104.0.221-.016.331-.031.531-.079.669-.499.789-.87.083-.253.161-.492.384-.521.285-.035.348.239.397.453.094.398.197.646.735.571.757-.105.821-.631.873-1.053.032-.263.063-.511.29-.555l.122-.023.03.12c.187.75.507.75.612.75.078.0.152-.017.213-.031-.031-.305-.233-.672-.551-.984-.473-.465-1.09-.723-1.656-.697-1.635.086-2.382 1.025-3.104 1.935-.059.073-.117.146-.176.22C79.123 63.437 79.362 63.495 79.607 63.495z"/><path fill="#000" d="M48.288 77.417c-.25.104-.669.172-1.024.022-.174-.072-.312-.189-.404-.343-.482.194-1.104.212-1.563-.256-.489.28-.934.277-1.385-.008-.369.252-.802.357-1.202.29-.331-.056-.614-.222-.828-.482-.233.179-.537.271-.869.258-.384-.015-.751-.165-1.006-.407-.262.174-.63.26-.992.224-.25-.024-.458-.102-.601-.221-.445.33-1.283.473-1.855.021-.292.324-.822.442-1.259.442-.005.0-.011.0-.017.0-.288-.002-.622-.058-.855-.195-.089.349-.408.628-.661.796.044.354.368.73 1.015.632-.119.712.712 1.841 1.722 1.603.297.595 1.901.892 2.555.298.772.594 1.961.594 3.089-.476 1.01.714 2.258.476 2.463-.557.982.26 2.185.206 3.014-.334.733-.003 1.558-.078 1.969-.394C49.118 77.834 48.436 77.354 48.288 77.417z"/><path fill="#000" d="M45.396 74.542l-.038.012-.039-.011c-.771-.214-1.492-.407-2.214-.56-.949-.141-1.959-.256-3.028-.345-.211-.002-.423-.003-.645.005l-.126.004L39.3 73.578c-1.927-.135-4.028-.188-6.278-.153-4.381.466-8.092 1.725-10.553 2.56-1.401.477-2.414.819-2.965.819v0c-.122.0-.221-.016-.303-.049-.089-.037-.146-.114-.154-.211-.097-1.161 9.274-9.045 16.517-13.537l.394-.245-.207.415c-1.453 2.906-2.613 8.225-2.542 9.981 2.173-.026 4.208.027 6.083.16-.066-2.668 2.054-6.22 3.558-7.83.504-.539 1.25-1.187 1.736-1.071.292.068.652.245 1.07.523.079.053.104.12.112.166.025.152-.093.307-.243.502-.358.467-.597.86-.145 1.327.32.332.649.493 1.008.493.249.0.479-.074.682-.141.323-.105.592-.152.76.017.179.18.091.413.006.64-.13.344-.276.734.181 1.229.121.132.288.196.511.196.269.0.571-.095.814-.17.349-.108.574-.154.676-.018.093.124.029.293-.058.525-.154.41-.387 1.03.137 1.626.127.145.394.225.752.225.389.0.789-.094.968-.183l.273-.134-.089.29c-.061.194-.032.427-.01.612.005.043.008.076.012.112.69-.193 1.877-.489 3.12-.801 1.313-.328 2.665-.665 3.46-.89-1.856-1.413-5.556-6.08-4.732-7.742.284-.574 1.586-.855 3.979-.859.466.0.572.188.662.434.075.204.145.396.712.481.418.063.609-.127.829-.354.19-.196.406-.418.785-.418.111.0.228.019.355.058.598.175.618.53.634.815.018.308.031.551.697.705.065.015.126.022.181.022.271.0.388-.174.559-.455.166-.276.354-.589.793-.589.08.0.169.012.261.034.626.151.623.568.62.874-.003.343-.005.592.678.658.465.047.598-.202.758-.526.167-.336.375-.754 1.049-.754l.05.001c.688.019.71.498.727.85.017.362.027.602.514.602.737.0.84-.342.949-.705.088-.29.187-.62.64-.642.645-.036.77.387.868.722.104.349.186.625.725.625.616.0.764-.337.919-.692.125-.286.267-.61.677-.648.39-.034.549.331.685.652.119.277.207.459.345.459.088.0.254-.066.547-.365.104-.457.443-.607.694-.716.2-.087.275-.129.275-.218.0-.13-.086-.267-.178-.413-.153-.245-.346-.552-.127-.915.38-.626.712-.534 1.02-.385.164.078.199.083.25.03.091-.096.049-.242-.03-.472-.078-.228-.177-.51.034-.714.241-.235.458-.342.658-.332.247.016.402.207.516.348.042.05.104.126.131.136.042-.035.031-.13-.004-.322-.057-.313-.142-.785.391-1.142.14-.094.274-.127.4-.099.214.048.34.256.432.407.021.036.05.082.072.114.096-.112.099-.278.101-.469.003-.209.006-.457.165-.646-1.659.319-3.503.582-5.552.77l-.001.006-.089.002c-.655.06-1.332.111-2.03.155l-.914.058.861-.313c.332-.119 1.583-.153 1.969-.16.064-.219.239-.71.513-.843.215-.104.382-.151.524-.151.227.0.354.121.476.238.17.162.367.349.946.324.314-.014.522-.081.634-.206.147-.164.128-.443.108-.739-.029-.44-.066-.987.494-1.285.107-.058.206-.086.301-.086.314.0.46.297.601.584.171.347.303.573.576.573.09.0.195-.024.313-.074.445-.189.383-.516.245-1.033-.117-.438-.25-.935.238-1.222.122-.072.231-.107.334-.107.318.0.449.321.564.605.13.319.229.527.437.527.166.0.398-.121.691-.36.573-.471.373-.784.16-1.116-.147-.232-.332-.521-.063-.79.18-.18.334-.265.484-.265.2.0.326.146.438.275.108.126.182.202.276.202.079.0.224-.054.467-.309.471-.49.182-.878-.051-1.188-.129-.172-.25-.334-.143-.481.001-.002.103-.136.249-.261-.186-.057-.322-.14-.403-.26-.163-.244-.072-.54.001-.777.027-.087.068-.219.056-.257-.008.011-.097.021-.156.028-.177.022-.42.052-.605-.107-.148-.127-.225-.346-.234-.666-.005-.183.042-.328.141-.431.169-.176.435-.18.647-.183.062-.001.147-.002.195-.012-.038-.051-.168-.076-.294-.101-.296-.059-.742-.145-.822-.675-.045-.298-.01-.515.108-.664.155-.194.403-.214.585-.228.047-.005.115-.01.152-.019-.019-.027-.057-.065-.087-.097-.161-.163-.432-.438-.283-.972.06-.216.156-.359.296-.438.208-.118.443-.053.633.0.072.021.18.052.212.041.021-.06-.007-.146-.057-.282-.077-.214-.185-.505.062-.836.235-.319.438-.486.618-.56-.039-.088-.077-.188-.109-.313-.067-.262-.753.024-1.04-.139-.309-.174.125-.705-.497-1.201-.246-.196-.829.438-1.058.188-.425-.466.367-.773-.189-1.317-.579-.565-1.146.43-1.378.317-.276-.136-.024-.92-.285-1.089-.677-.438-.55.671-1.612.42-.265-.063.084-1.059-.468-1.192-.744-.182-.644.669-1.327.606-.62-.058-.276-.934-1.012-.963-.982-.04-.21.991-.929 1.01-.344.009-.532-.817-1.143-.656-.63.165-.114.724-.58 1.071-.354.265-.968-.341-1.247-.06-.606.613-.112.756-.237 1.188-.126.434-.601.108-.756.842-.171.81.645.387.696.974.032.376-.95.314-.646 1.032.207.485.637.014.942.42.162.216-.435.666-.091.971.326.288.695-.159.981.039.251.174.136.688.713.772.355.052.302-.18.653-.238.121-.019.247.38.651.327.309-.041.194-.235.359-.268 2.183-.421 2.003-2.903 1.516-2.922-.519-.019-.705 2.205-2.459 1.734-1.843-.495-1.427-3.992 1.334-3.729 2.062.197 6.275 2.884 5.805 6.981-.523 4.573-9.3 9.188-22.691 5.544.318-.373.88-.668 1.601-.912.321-.108.278.743 1.188.649.77-.079.809-.84 1.022-1.192.22-.361.591-.284.85-.148.358.188-.217 1.257 1.083.914 1.122-.297.928-.83 1.093-1.24.33-.817.803-.603 1.214-.176.184.191.085.973.976.628 1.362-.528.507-2.196.688-2.232.349-.071.588 1.392 1.626.985.437-.171.381-.738.737-.886.696-.292.693-1.147.854-1.608.163-.469.339-.79.067-1.186-2.553-3.728-3.274-4.332-4.516-4.387-7.416-.331-9.357-4.351-7.87-7.069 2.259-4.129 5.163-.327 5.428-.614.278-.301-1.709-3.429-5.136-2.188-.269.098-.25.411-.397.709-.113.227-.833-.098-.943.154-.086.194.0.605-.076.818-.078.218-.676.034-.667.278.013.353.153.77.095 1.022-.051.221-.799.319-.815.551-.039.551.487.685.455.908-.036.253-.729.415-.753.67-.024.252.613.71.602.961-.014.298-.348.511-.343.805.004.275.493.558.514.825.018.23-.409.408-.304.605.477.888.916.657 1.004.985.082.302-.141.504.304.93.524.501.825-.039 1.062.227.279.315.054.945.417 1.137.525.279.729-.454 1.061-.379.296.066.066.952.627 1.092.675.167.831-.476 1.212-.434.35.039.289.938.871 1.237.528.271.735-.695.985-.606.623.222.222.934.854.966.543.029.742-.771 1.027-.752.243.015 1.364.556.603 1.15-3.39 2.662-14.22 2.936-13.953.679.128-1.085 1.674-1.755 1.63-3.986-.019-.961-1.718-2.2-1.718-2.2 5.788-11.061 2.33-13.598 3.75-16.053.594-.04.899-.521.886-1.064.539.193.89.018.938-.495.52.25.914.295 1.269-.145.302.352.651.439.983.11.281.372.5.416.821.168.466.379.642.467.879.206.375.305.638.436.996.215.386.309.648.353.915.122 1.201.088 2.313-.178 3.178-1.391.37-.519-1.214.4-3.053.342-2.164-.067-6.806-3.706-9.86.19-2.797 3.569.453 3.32-5.791 13.114.0.0-11.57-27.771-25.612-16.892-9.457 7.327-5.115 25.639 9.668 26.572-7.902 8.258-27.863 3.812-27.603-2.033.119-2.662 2.369-2.948 4.174-2.179 2.482 1.06 3.595 3.869 4.268 3.662.64-.196-.817-4.086-3.747-5.881-.396-.243-.791-.308-1.053-.463-.813-.48-.873-.018-1.644-.352C6.686 39.421 6.315 40.019 5.78 39.9c-.545-.121-.88.512-1.824.744-.398.098-.24.866-.778 1.013-.807.22-.716 1.17-.958 1.431C2.05 43.27 1.651 43.45 1.545 44.183c-.107.74.697.831.592 1.172-.179.579-.734-.154-.68 1.266.042 1.104.87.51.926 1.032.035.328-1 .522-.459 1.593.384.762.994.07 1.246.441.187.273-.872.676-.198 1.656.592.86 1.299-.089 1.57.279.249.339-1.023 1.062-.072 1.944 1.045.97 1.76-.391 2.256-.12.666.364-.78.94.847 1.938.917.563 1.544-1.029 1.884-.805.33.218-.156 1.16.776 1.722.953.573 1.135-.918 1.603-.644.564.332-.328 1.151.829 1.826 1.156.675 1.097-.888 1.728-.589.644.304.042 1.016 1.896 1.442.479.111.804-1.442 1.257-1.315.627.176-.13 1.388 1.851 1.931.662.181.795-.988 1.456-.936.519.04.619.76 1.889.567 1.152-.175.563-.975 1.381-1.143.415-.084.704.829 1.815.404.883-.337.519-.965 1.276-1.282.563-.237.869.604 1.648.225.88-.431.542-1.706 1.163-1.693.235.005.526.333.723.356.704.084.985-.393 1.25-.703.632-.743 3.57-.409 3.57-.409-2.226 1.767-10.474 8.265-16.529 14.702-.559.593-1.946.409-1.904 1.96.017.597-1.557.273-1.519 1.148.05 1.136-.718.696-1.038 1.444-.154.358.069.787-.117 1.105-.281.481-1.05.798-1.215 1.273-.323.933.259.896.146 1.386-.165.706-.945.899-.749 2.124.035.221.49.224.57.43.161.417-.437.687.344 1.372.344.302.784-.115 1.082.231.844.984 2.106.186 2.614.477.826.472 2.105.191 2.673-.772.603.513 2.139.811 2.792-.773.772.299 2.02.0 2.436-.949.712.296 1.972.059 2.495-1.01.891.296 1.901.296 2.317-.832.95.297 1.694.261 2.228-.457.354.206.894.268 1.303.216.254-.148.745-.507.684-.914l-.098-.653.34.566c.098.163.452.279.859.282.532.002.975-.169 1.143-.441l.087-.141.117.118c.494.493 1.349.32 1.698-.011l.104-.1.089.113c.09.114.283.196.516.22.337.032.689-.062.895-.238l.099-.085.086.1c.204.237.55.393.902.405.313.009.595-.088.787-.279l.113-.113.089.132c.18.269.437.438.742.488.357.06.75-.048 1.078-.295l.076-.058.078.056c.42.295.798.295 1.265-.004l.098-.062.074.088c.403.481 1.009.429 1.441.219l.126-.061.053.129c.061.149.169.258.322.322.264.11.604.066.823-.023.354-.148 1.177.521 1.657 1.043.715.297 1.193 1.261.383 1.813-1.208.823-3.401-.57-3.141-.012.942 2.011 6.698 1.556 4.47-2.87.008-.001.018-.003.026-.004-1.097-1.146-3.132-2.055-5.923-2.689C45.571 74.485 45.486 74.511 45.396 74.542zM45.567 48.458c1.179-.026 2.031 1.507 1.838 2.389-.169.776-.958 1.324-1.838 1.333-.778.008-1.408-.678-1.536-1.37C43.759 49.342 44.761 48.477 45.567 48.458z"/><path fill="#000" d="M80.906 58.146c.168.182.278.289.397.253.162-.049.224-.202.305-.452.039-.118.084-.249.155-.359-.385.094-.778.185-1.187.27C80.705 57.932 80.813 58.047 80.906 58.146z"/><path fill="#000" d="M45.918 50.822c.262-.219-.613-1.27-1.051-1.182C44.479 49.717 45.655 51.041 45.918 50.822z"/><path fill="#000" stroke="#000" stroke-width="0" stroke-linecap="round" stroke-linejoin="round" d="M33.362 77.484v0z"/><path fill="#000" d="M75.755 73.52l-.14.194-.219-.032c-.566-.082-.829-.146-1.095-.812l-.054-.132-.126.063c-.605.297-1.065.216-1.326-.273l-.062-.116-.115.063c-.219.114-.456.179-.67.179-.203.0-.562-.059-.68-.446L71.2 71.979l-.155.183c-.234.274-.535.432-.826.432-.276.0-.513-.146-.666-.412l-.075-.132-.119.094c-.57.447-1.158.391-1.745-.16l-.102-.096-.089.106c-.209.252-.757.441-1.274.441-.271.0-.507-.05-.684-.144l-.08-.043-.116.103c-.583.516-.795.7-1.724.531l-.501-.09.396.321c1.645 1.338 5.033 1.538 6.907 1.538 2.439.0 4.739-.336 5.127-.749l.147-.156c.084.053.341.18.872.443 1.162.576 3.166 1.57 4.131 2.221.178.12.324.229.419.321l.183-.188c-.094-.091-.232-.197-.4-.312-.976-.67-3.029-1.689-4.216-2.277C76.178 73.74 75.805 73.555 75.755 73.52z"/></g></svg>