<svg  fill="#000" xmlns="http://www.w3.org/2000/svg" xmlns:xlink="http://www.w3.org/1999/xlink" viewBox="0 0 100 100" enable-background="new 0 0 100 100"><g><path fill="#000" d="M89.164 51.812c-.635-.632-1.046-.484-1.563-.779.075-.482-.241-.819-.557-.928-.841-.287-1.439-.405-2.496-.405s-2.482.654-3.428 1.059c.05-1.717 3.453-1.404 3.56-3.04.028-.416.175-.229.968-.229s1.674-1.223 1.674-1.62.528-.925.396-1.585c-.132-.659-.263-1.056-.792-1.98-.528-.924-3.169-5.811-4.093-7.13-.926-1.321-2.068-2.722-3.303-3.831-1.198-1.076-5.225-3.375-7.526-4.226.035-4.582-2.641-6.999-3.565-7.263-.924-.264-3.325.473-4.357 5.151-.925-.66-2.493-1.436-3.145-1.275-.727.178-3.583 1.612-3.591 7.877-1.305 3.832-4.665 6.187-5.626 6.483-2.042.629-5.155.141-7.393.522-5.63.961-14.422 4.94-17.625 17.693 1.602-14.417 13.775-18.047 16.929-18.969 2.889-.843 4.733-4.026 4.869-8.502.31-10.21-8.143-21.022-22.45-26.278-7.266-2.67-13.088 4.887-12.677 9.64.556 6.428 13.761 10.469 13.378 16.886-.209 3.517-7.578 6.511-11.582 14.471-4.745 9.436-3.403 19.399-.872 27.672 1.055 3.446 5.998 16.954 15.318 17.432 1.978.099 2.113-2.114 3.038-1.586.924.528 2.905.925 3.037 1.586.132.659.132 1.585 1.584 1.98 1.453.396 6.207 1.188 7.527 2.112 1.321.924 1.981 2.244 2.905 3.037.924.792 1.383 1.127 1.718.792.232-.233.318-.701.64-.777.359-.084.365 1.026 1.656.638.261-.717.14-1.106.477-1.316.251-.155.681.72 1.397.302.357-.716-.009-1.162.346-1.403.37.072.64.308.934.109.302-.203.283-.915.283-1.455.121-.169.582-.068.705-.235.174-.241-.022-.941-.179-1.195-.66-1.067-3.6-1.718-4.808-2.06-1.856-.527-7.395-.661-7.526-1.718-.132-1.057 4.531-1.516 5.414-1.584.171.559-.501 1.063.264 1.716.907.775 7.651-1.108 10.803.737.939.55 2.869 1.64 2.869 1.64.528.133 1.084.584 1.866.507.214-.657.396-1.449.329-1.978.643.04 1.12.44 2.043.264.179-.781.329-1.449.0-1.976.111-.037.256-.037.423-.024.507.05 1.185.264 1.62.085.118-.048.201-.122.262-.21.016-.009.033-.017.05-.025.011-.043.017-.08.025-.12.041-.116.054-.249.051-.391.006-.308-.063-.56-.12-.819-.022-.112-.043-.219-.056-.318-.006-.052-.012-.101-.016-.156.0.0 1.072.628 1.187.396.33-.659-2.504-2.7-5.558-2.59-.528.019-6.682.757-7.357.548-1.046-.321 1.6-2.583 2.37-3.917.994-1.722 1.682-3.125 2.432-8.84.99-.433 3.808.104 7.223-1.552 3.226-1.562 12.177-9.67 13.392-12.085 1.77-.509 4.441-1.437 4.702-2.142-.113-.418-.336-.381-.386-.609.778-.26 1.618-.337 1.721-.651-.334-.595-.467-.26-.37-.779C88.956 52.384 89.006 52.444 89.164 51.812zM58.008 79.286c-1.554 2.451-3.055 3.924-10.721 6.05-.818.227-2.274.527-3.288.595 1.533-3.91 1.531-6.838 1.531-11.239.0-1.201-.145-8.221 1.433-12.4.246-.655 1.982-1.982 2.883-2.103s2.242-.37 2.583.361c1.46 3.128 4.063 9.049 8.382 9.771C59.987 71.438 60.355 75.588 58.008 79.286zM76.394 42.109c-.12.3-1.717 2.299-4.564 1.021-1.486-.667-2.419-3.063-.998-4.251.553.512.615 2.045 1.908 2.672 1.984.962 3.59-.419 3.654-.385C76.812 41.382 76.514 41.809 76.394 42.109zM77.808 39.601c-.12.721-.891 1.411-.996 1.314-.51-.466-.256-2.658-1.739-3.311-2.308-1.016-3.794.884-4.008.746-.467-1.909 1.293-2.754 2.036-2.757 3.059-.015 3.774 1.171 4.193 1.771C77.714 37.965 77.928 38.88 77.808 39.601z"/></g></svg>