<?xml version="1.0" encoding="utf-8"?>
<!-- Generator: Adobe Illustrator 25.2.0, SVG Export Plug-In . SVG Version: 6.00 Build 0)  -->
<svg version="1.1" id="Layer_1" xmlns="http://www.w3.org/2000/svg" xmlns:xlink="http://www.w3.org/1999/xlink" x="0px" y="0px"
	 viewBox="0 0 450 318.18" style="enable-background:new 0 0 450 318.18;" xml:space="preserve">
<style type="text/css">
	.st0{fill:#D2AC6F;}
	.st1{fill:#E2E892;}
	.st2{fill:#C6D07B;}
	.st3{fill:#BC9B64;}
	.st4{fill:#DED8D1;}
	.st5{fill:#9E752C;}
	.st6{fill:#D19436;}
	.st7{fill:#FBBEB3;}
	.st8{fill:#AC843E;}
	.st9{fill:#BB8A5F;}
	.st10{fill:#F8ADA2;}
	.st11{fill:#F58E84;}
	.st12{fill:#F79F94;}
	.st13{fill:#9FB4C5;}
	.st14{fill:#BBC8D4;}
	.st15{fill:#E7A35D;}
	.st16{fill:#BE7F30;}
	.st17{fill:#CCA059;}
	.st18{fill:#BCC961;}
	.st19{fill:#C0C9C0;}
	.st20{fill:#A6B255;}
	.st21{fill:#97A34D;}
	.st22{fill:#80C0FE;}
	.st23{fill:#D1CAC0;}
	.st24{fill:#A4D5FF;}
	.st25{fill:#FDFBE6;}
	.st26{fill:#F7F2B7;}
	.st27{fill:#AE7643;}
	.st28{fill:#9E752B;}
	.st29{display:none;}
	.st30{display:inline;fill:#B7844D;}
	.st31{display:inline;fill:#FDE9B8;}
	.st32{fill:#FDE9B8;}
	.st33{fill:#925733;}
	.st34{fill:#926435;}
	.st35{fill:#EED09E;}
	.st36{fill:#A8733F;}
	.st37{fill:#FDC88E;}
	.st38{fill:#E7A45A;}
	.st39{fill:#FBB161;}
	.st40{fill:#C49A6C;}
	.st41{fill:#ACBCE1;}
	.st42{opacity:0.6;fill:#894529;enable-background:new    ;}
	.st43{fill:#A89775;}
	.st44{fill:#D7CFBC;}
	.st45{fill:#D9D1C0;}
	.st46{fill:#E7E1D6;}
	.st47{fill:#E0D9CA;}
	.st48{fill:#BFB297;}
	.st49{fill:#C9BDA6;}
	.st50{fill:#CFC5AF;}
	.st51{fill:#C2B59B;}
	.st52{fill:#AF9F7F;}
	.st53{opacity:0.6;}
	.st54{display:inline;}
	.st55{fill:#B7844D;}
	.st56{fill:#9F6936;}
	.st57{fill:#C79358;}
	.st58{fill:#B17A3F;}
	.st59{fill:#956231;}
	.st60{fill:#724323;}
	.st61{fill:#BF8544;}
	.st62{fill:#C69158;}
	.st63{fill:#CFA372;}
</style>
<g id="Layer_12">
	<g>
		<g id="XMLID_13_">
			<g>
				<path class="st0" d="M373.94,254.4c1.94,0.87,0.32,2.82,0.32,2.82l-40.12,20.8l-2.06,1.06l-36.18,18.76l-1.96,1.02L260,316.44
					l-0.17,0.09L81,237.77c0,0-1.9-1.76-0.04-2.77c0.26-0.14,0.6-0.27,1.03-0.37c0.03-0.01,0.05-0.02,0.08-0.02l33.57-7.75
					l2.85-0.66l37.77-8.72l3.07-0.71l32.51-7.51l181.47,44.93C373.55,254.25,373.76,254.31,373.94,254.4z"/>
				<path class="st1" d="M450,156.34v69.95l-246.93-43.55l-0.13-0.02v-27.28V77.3v-9.43c5.72-5.03,16.76-7.96,22.27-9.61
					c11.04-3.56,22.09-6.42,33.49-8.56c27.8-4.98,57.73-2.84,85.17,3.21c27.08,5.7,55.23,15.68,74.83,36
					c8.2,8.55,12.76,16.76,18.17,27.79c4.81,9.8,6.87,18.44,10.07,28.06C448.18,148.18,449.19,152.14,450,156.34z"/>
				<path class="st2" d="M450,5.84v150.45c-0.81-4.21-1.82-8.17-3.06-11.58c-3.2-9.62-5.26-18.26-10.07-28.06
					c-5.41-11.04-9.97-19.25-18.17-27.8c-19.6-20.31-47.75-30.29-74.83-35.99c-27.44-6.06-57.37-8.2-85.17-3.21
					c-11.4,2.14-22.45,4.99-33.49,8.55c-5.51,1.66-16.55,4.58-22.27,9.61V56.03L450,5.84z"/>
				<polygon class="st3" points="450,0 450,4.02 201.95,54.43 201.6,54.35 201.6,53.99 201.6,50.15 335.67,20.35 427.25,0 				"/>
				<polygon class="st0" points="443.68,318.18 346.28,318.18 295.9,297.84 332.08,279.08 				"/>
				<path class="st4" d="M427.25,0l-91.58,20.35c-26.85,3.18-54.2,4.69-82.75,4.58C194.23,24.72,140.55,13.44,62.47,0H427.25z"/>
				<path class="st0" d="M223.43,202.58c32.07,1.07,62.53,7.48,94.07,11.22c7.34,0.71,14.72,1.57,22.1,2.57l50.03,9.22
					c3.6,0.84,7.17,1.73,10.72,2.65c12.9,3.08,32.29,9.21,49.65,16.77v26.36l-261.8-68.02
					C200.37,202.46,212.37,202.15,223.43,202.58z"/>
				<path class="st0" d="M400.35,228.24c-3.55-0.92-7.12-1.81-10.72-2.65L450,236.7v8.31C432.64,237.45,413.25,231.32,400.35,228.24
					z"/>
				<path class="st0" d="M373.94,254.4c-0.18-0.09-0.39-0.15-0.63-0.21l0.32-1.23L450,272.8v45.38h-1.22l-114.64-40.16l40.12-20.8
					C374.26,257.22,375.88,255.27,373.94,254.4z"/>
				<path class="st0" d="M373.63,252.96l-0.32,1.23l-181.47-44.93l-32.51,7.51l-20.09-7.04c14.05-2.64,29.45-4.77,44.71-6.04
					L373.63,252.96z"/>
				<path class="st5" d="M364.67,219.59L450,235.3v1.4l-60.37-11.11c-8.26-1.95-16.65-3.7-25.1-5.25L364.67,219.59z"/>
				<path class="st6" d="M364.53,220.34c8.45,1.55,16.84,3.3,25.1,5.25l-50.03-9.22C347.93,217.5,356.26,218.83,364.53,220.34z"/>
				<polygon class="st5" points="334.14,278.02 448.78,318.18 443.68,318.18 332.08,279.08 				"/>
				<polygon class="st5" points="295.9,297.84 346.28,318.18 341.8,318.18 293.94,298.86 				"/>
				<polygon class="st0" points="260,316.44 293.94,298.86 341.8,318.18 259.83,318.18 259.83,316.53 				"/>
				<polygon class="st0" points="259.83,316.53 259.83,318.18 250.01,318.18 80.36,239.17 81,237.77 				"/>
				<path class="st0" d="M247.3,318.18h-68.35l-134.9-73.44c5.38-5.07,11.42-9.29,17.96-12.86L247.3,318.18z"/>
				<path class="st2" d="M258.7,49.65c27.8-4.99,57.73-2.85,85.17,3.21c27.08,5.7,55.23,15.68,74.83,35.99
					c8.2,8.55,12.76,16.76,18.17,27.8c4.81,9.8,6.87,18.44,10.07,28.06c1.24,3.41,2.25,7.37,3.06,11.58v0.05
					c-0.81-4.2-1.82-8.16-3.06-11.58c-3.2-9.62-5.26-18.26-10.07-28.06c-5.41-11.03-9.97-19.24-18.17-27.79
					c-19.6-20.32-47.75-30.3-74.83-36c-27.44-6.05-57.37-8.19-85.17-3.21c-11.4,2.14-22.45,5-33.49,8.56
					c-5.51,1.65-16.55,4.58-22.27,9.61v-0.06c5.72-5.03,16.76-7.95,22.27-9.61C236.25,54.64,247.3,51.79,258.7,49.65z"/>
				<path class="st7" d="M202.94,77.3v78.14c-1.16-0.95-2.46-1.78-3.83-2.49v-78.2C200.43,75.54,201.71,76.39,202.94,77.3z"/>
				<polygon class="st8" points="450,4.02 450,5.84 202.94,56.03 201.6,56.3 201.6,54.35 201.95,54.43 				"/>
				<polygon class="st9" points="201.6,54.35 0,11.76 0,5.33 201.6,50.15 201.6,53.99 				"/>
				<path class="st10" d="M201.6,56.3l1.34-0.27v11.78v0.06v9.43c-1.23-0.91-2.51-1.76-3.83-2.55v-1.88v-17.1L201.6,56.3z"/>
				<path class="st11" d="M199.11,74.75c-1.3-0.78-2.65-1.51-4.01-2.21V54.92l4.01,0.85v17.1V74.75z"/>
				<path class="st12" d="M195.1,72.54c1.36,0.7,2.71,1.43,4.01,2.21v78.2c-1.28-0.67-2.63-1.23-4.01-1.71V72.54z"/>
				<path class="st13" d="M198.93,185.19c0,0.8-0.14,1.35-0.41,1.74c-0.65,0.95-2.09,0.88-4.24,0.86c0.96-0.93,1.07-2.66,1.17-4.35
					l-0.35,0.05v-32.25c1.38,0.48,2.73,1.04,4.01,1.71v29.95v2.29H198.93z"/>
				<path class="st14" d="M203.07,182.8c-0.19,2.86-1.15,4.3-4.55,4.13c0.27-0.39,0.41-0.94,0.41-1.74h0.18v-2.29v-29.95
					c1.37,0.71,2.67,1.54,3.83,2.49v27.28v0.05L203.07,182.8z"/>
				<path class="st10" d="M195.1,54.92v17.62c-1.46-0.73-2.94-1.43-4.43-2.08V53.99L195.1,54.92z"/>
				<path class="st7" d="M190.67,70.46c1.49,0.65,2.97,1.35,4.43,2.08v78.7c-1.46-0.51-2.95-0.91-4.43-1.23V70.46z"/>
				<path class="st15" d="M198.52,186.93c3.4,0.17,4.36-1.27,4.55-4.13L450,226.34v8.96l-85.33-15.71l-170.86-31.46
					c0.17-0.09,0.33-0.21,0.47-0.34C196.43,187.81,197.87,187.88,198.52,186.93z"/>
				<path class="st16" d="M193.81,188.13l170.86,31.46l-0.14,0.75c-8.27-1.51-16.6-2.84-24.93-3.97l-149.91-27.6
					c0.1-0.22,0.2-0.46,0.27-0.72C191.81,188.63,193.02,188.58,193.81,188.13z"/>
				<path class="st11" d="M187.99,69.32V53.41l2.68,0.58v16.47C189.78,70.06,188.88,69.68,187.99,69.32z"/>
				<path class="st12" d="M187.99,125.61V69.32c0.89,0.36,1.79,0.74,2.68,1.14v79.55c-0.9-0.2-1.8-0.36-2.68-0.49V125.61z"/>
				<path class="st14" d="M193.81,188.13c-0.79,0.45-2,0.5-3.85-0.08c0.06-0.19,0.12-0.39,0.17-0.6c0.24-1.02,0.35-2.17,0.51-3.04
					h0.03v-0.27v-34.13c1.48,0.32,2.97,0.72,4.43,1.23v32.25l0.35-0.05c-0.1,1.69-0.21,3.42-1.17,4.35
					C194.14,187.92,193.98,188.04,193.81,188.13z"/>
				<path class="st13" d="M187.99,187.06v-2.52v-35.02c0.88,0.13,1.78,0.29,2.68,0.49v34.13v0.27h-0.03
					c-0.16,0.87-0.27,2.02-0.51,3.04c-0.05,0.21-0.11,0.41-0.17,0.6c-0.07,0.26-0.17,0.5-0.27,0.72c-0.36,0.75-0.88,1.23-1.7,1.18
					v-1.49V187.06z"/>
				<path class="st5" d="M450,272.8l-76.37-19.84l-189.68-49.27c1.42-0.12,2.84-0.23,4.25-0.34L450,271.37V272.8z"/>
				<path class="st17" d="M317.5,213.8c-31.54-3.74-62-10.15-94.07-11.22c-11.06-0.43-23.06-0.12-35.23,0.77l-46.31-12.03
					l34.25-5.04l4.23-0.62l4.09-0.6v1.35v1.4v0.07c1.57,1.44,2.7,2.03,3.53,2.07c0.82,0.05,1.34-0.43,1.7-1.18l149.91,27.6
					C332.22,215.37,324.84,214.51,317.5,213.8z"/>
				<path class="st14" d="M187.99,187.06v1.4v1.49c-0.83-0.04-1.96-0.63-3.53-2.07v-0.07v-1.4v-1.35v-31.73v-4.17
					c1.12,0.06,2.31,0.18,3.53,0.36v35.02V187.06z"/>
				<path class="st10" d="M187.99,53.41v15.91c-1.18-0.5-2.37-0.96-3.53-1.42v-6.08v-9.15L187.99,53.41z"/>
				<path class="st7" d="M187.99,69.32v56.29h-0.91c-0.64-2.18-1.53-4.4-2.62-6.59v-11.58V67.9
					C185.62,68.36,186.81,68.82,187.99,69.32z"/>
				<path class="st7" d="M187.99,125.61v23.91c-1.22-0.18-2.41-0.3-3.53-0.36v-30.14c1.09,2.19,1.98,4.41,2.62,6.59H187.99z"/>
				<path class="st18" d="M184.46,52.67v9.15c-4.65-4.11-14.27-6.58-19.83-8.1c-8.29-2.14-16.3-4.28-24.86-5.61
					c-18.17-2.94-35.27-7.22-53.71-7.75c-7.48-0.22-31.21-1.89-40.45,5.25c0-7.31,0-14.61,0-21.91l0.09-0.43L184.46,52.67z"/>
				<path class="st2" d="M184.46,149.16v4.17h-0.5l-1.42-0.2v-37.57c0.69,1.13,1.34,2.29,1.92,3.46V149.16z"/>
				<path class="st2" d="M48.37,53.99v3.56v6.06h-1.33c-0.48,0.07-0.95,0.16-1.43,0.26c0-6.08,0-12.17,0-18.26
					c9.24-7.14,32.97-5.47,40.45-5.25c18.44,0.53,35.54,4.81,53.71,7.75c8.56,1.33,16.57,3.47,24.86,5.61
					c5.56,1.52,15.18,3.99,19.83,8.1v6.08v39.54v11.58c-0.58-1.17-1.23-2.33-1.92-3.46v-8.92V73.23v-0.27L48.37,53.99z"/>
				<polygon class="st19" points="182.54,153.13 183.96,153.33 182.54,153.42 				"/>
				<path class="st17" d="M138.36,191.84l45.59,11.85c-15.26,1.27-30.66,3.4-44.71,6.04l-36.21-12.69L138.36,191.84z"/>
				<path class="st20" d="M182.54,106.64v8.92c-2.87-4.69-6.59-8.94-10.59-11.77l0.04-3.44l0.29-25.69l4.69-0.77l5.57-0.66V106.64z"
					/>
				<polygon class="st20" points="182.54,73.23 176.97,73.89 182.54,72.96 				"/>
				<path class="st18" d="M171.95,103.79c4,2.83,7.72,7.08,10.59,11.77v37.57l-11.12-1.62L171.95,103.79z"/>
				<polygon class="st21" points="48.37,53.99 182.54,72.96 176.97,73.89 171.39,74.54 48.37,57.55 				"/>
				<path class="st0" d="M175.73,318.18h-63.47L29.9,265.83c2.02-6.23,5.71-12.22,10.46-17.36c0.82-0.9,1.66-1.77,2.53-2.61
					L175.73,318.18z"/>
				<polygon class="st21" points="171.39,74.54 176.97,73.89 172.28,74.66 				"/>
				<polygon class="st21" points="182.54,153.42 48.37,161.52 48.37,158.28 171.42,151.51 182.54,153.13 				"/>
				<path class="st22" d="M169.53,98.4c-4.88-5.52-14.75-8.27-21.2-9.94c-4.05-1-8.19-1.68-12.38-2.06V72.28l33.85,4.69L169.53,98.4
					z"/>
				<path class="st23" d="M252.92,24.93c28.55,0.11,55.9-1.4,82.75-4.58L201.6,50.15L0,5.33V0h62.47
					C140.55,13.44,194.23,24.72,252.92,24.93z"/>
				<path class="st24" d="M148.33,88.46c6.45,1.67,16.32,4.42,21.2,9.94l-0.62,50.37l-32.96,1.83V86.4
					C140.14,86.78,144.28,87.46,148.33,88.46z"/>
				<path class="st0" d="M156.26,217.48l-37.77,8.72l-19.72-7.96c12.1-3.1,24.72-5.47,37.18-7.88L156.26,217.48z"/>
				<path class="st16" d="M141.89,191.32l46.31,12.03c-1.41,0.11-2.83,0.22-4.25,0.34l-45.59-11.85L141.89,191.32z"/>
				<path class="st6" d="M139.24,209.73l20.09,7.04l-3.07,0.71l-20.31-7.12C137.04,210.14,138.13,209.93,139.24,209.73z"/>
				<path class="st22" d="M133.08,71.88v14.3c-13.12-0.79-26.62,1.27-39.1,5.54l0.24-25.23L133.08,71.88z"/>
				<path class="st24" d="M133.08,86.18v64.58l-39.71,2.21l0.61-61.25C106.46,87.45,119.96,85.39,133.08,86.18z"/>
				<path class="st17" d="M135.95,210.36c-12.46,2.41-25.08,4.78-37.18,7.88l-37.34-15.08l38.02-5.59L135.95,210.36z"/>
				<path class="st5" d="M109.69,318.18l-80.21-50.97c0.13-0.46,0.27-0.92,0.42-1.38l82.36,52.35H109.69z"/>
				<path class="st0" d="M109.69,318.18H68.94c-14.04-8.37-26.54-16.87-30.46-20.34c-10.02-8.88-11.98-20.05-9-30.63L109.69,318.18z
					"/>
				<path class="st16" d="M103.03,197.04l36.21,12.69c-1.11,0.2-2.2,0.41-3.29,0.63l-36.5-12.79L103.03,197.04z"/>
				<path class="st6" d="M98.77,218.24l19.72,7.96l-2.85,0.66l-19.59-7.91C96.96,218.71,97.86,218.47,98.77,218.24z"/>
				<path class="st24" d="M91.21,92.7v60.39l-40.97,2.28v-30.62c1.77-2.95,3.85-5.7,5.35-7.69c6.95-9.09,16.3-15.77,26.72-20.58
					C85.2,95.1,88.17,93.83,91.21,92.7z"/>
				<path class="st0" d="M80.36,239.17l-17.1-7.97c10.01-5.29,21.14-9.14,32.79-12.25l19.59,7.91l-33.57,7.75
					c-0.03,0-0.05,0.01-0.08,0.02c-0.43,0.1-0.77,0.23-1.03,0.37c-1.86,1.01,0.04,2.77,0.04,2.77L80.36,239.17z"/>
				<path class="st17" d="M38.48,297.84c3.92,3.47,16.42,11.97,30.46,20.34H46.55L0,283.28v-34.81l29.48,18.74
					C26.5,277.79,28.46,288.96,38.48,297.84z"/>
				<path class="st5" d="M80.36,239.17l169.65,79.01h-2.71l-185.29-86.3c0.41-0.23,0.83-0.46,1.25-0.68L80.36,239.17z"/>
				<path class="st16" d="M96.05,218.95l-37.9-15.31l3.28-0.48l37.34,15.08C97.86,218.47,96.96,218.71,96.05,218.95z"/>
				<path class="st22" d="M55.59,117.06c-1.5,1.99-3.58,4.74-5.35,7.69V60.4l40.97,5.68V92.7c-3.04,1.13-6.01,2.4-8.9,3.78
					C71.89,101.29,62.54,107.97,55.59,117.06z"/>
				<path class="st25" d="M48.37,152.84v-24.58c0.54-1.18,1.18-2.36,1.87-3.51v30.62l40.97-2.28V92.7c0.92-0.34,1.84-0.67,2.77-0.98
					l-0.61,61.25l39.71-2.21V86.18c0.96,0.05,1.92,0.13,2.87,0.22v64.2l32.96-1.83l0.62-50.37c0.4,0.45,0.76,0.92,1.09,1.4
					l0.16-0.11c0.4,0.21,0.81,0.43,1.21,0.66l-0.04,3.44l-0.53,47.72l-123.05,6.77L48.37,152.84L48.37,152.84z"/>
				<path class="st26" d="M48.37,63.61v-6.06l123.02,16.99l0.89,0.12l-0.29,25.69c-0.4-0.23-0.81-0.45-1.21-0.66l-0.16,0.11
					c-0.33-0.48-0.69-0.95-1.09-1.4l0.27-21.43l-33.85-4.69V86.4c-0.95-0.09-1.91-0.17-2.87-0.22v-14.3l-38.86-5.39l-0.24,25.23
					c-0.93,0.31-1.85,0.64-2.77,0.98V66.08L50.24,60.4v64.35c-0.69,1.15-1.33,2.33-1.87,3.51C48.37,128.26,48.37,63.61,48.37,63.61z
					"/>
				<path class="st2" d="M48.37,152.84v5.44v3.24l134.17-8.1l1.42-0.09h0.5v31.73l-4.09,0.6l-4.23,0.62l-34.25,5.04l-3.53,0.52
					l-35.33,5.2l-3.58,0.53l-38.02,5.59l-3.28,0.48l-12.54,1.85c0-1,0-1.89,0-2.55c0-5.71,0-11.41,0-16.75c0-14.25,0-28.51,0-42.76
					c0-3.04,0-6.07,0-9.11c0-23.48,0-46.97,0-70.45c0.48-0.1,0.95-0.19,1.43-0.26h1.33v64.65V152.84z"/>
				<path class="st11" d="M45.7,23.27l-0.09,0.43c0,7.3,0,14.6,0,21.91c0,6.09,0,12.18,0,18.26c-2.39,0.52-4.78,1.4-7.13,2.56
					c0-14.7,0-29.39,0-44.09l0.13-0.57L45.7,23.27z"/>
				<path class="st12" d="M45.61,212.66c-0.99,1.63-5.12,1.9-7.13,1.94c0-2.07,0-5.84,0-8.06c0-0.25,0-0.48,0-0.68
					c0-5.84,0-11.68,0-17.15c0-14.59,0-29.19,0-43.78c0-26.17,0-52.34,0-78.5c2.35-1.16,4.74-2.04,7.13-2.56
					c0,23.48,0,46.97,0,70.45c0,3.04,0,6.07,0,9.11c0,14.25,0,28.51,0,42.76c0,5.34,0,11.04,0,16.75c0,0.66,0,1.55,0,2.55
					C45.61,208.23,45.61,211.69,45.61,212.66z"/>
				<polygon class="st17" points="44.17,318.18 0,318.18 0,285.06 				"/>
				<path class="st5" d="M44.05,244.74l134.9,73.44h-3.22L42.89,245.86C43.27,245.47,43.66,245.1,44.05,244.74z"/>
				<path class="st10" d="M38.48,22.34c0,14.7,0,29.39,0,44.09c-1.56,0.77-3.11,1.67-4.63,2.66c0-15.59,0-31.17,0-46.75l0.32-1.52
					l4.44,0.95L38.48,22.34z"/>
				<path class="st7" d="M38.75,214.87c1.07,2.72-3.61,3.03-4.9,2.24c0-2.41,0-6.5,0-8.46c0-0.48,0-0.95,0-1.43
					c0-5.45,0-10.87,0-15.98c0-14.82,0-29.64,0-44.45c0-25.9,0-51.8,0-77.7c1.52-0.99,3.07-1.89,4.63-2.66c0,26.16,0,52.33,0,78.5
					c0,14.59,0,29.19,0,43.78c0,5.47,0,11.31,0,17.15c0,0.2,0,0.43,0,0.68c0,2.22,0,5.99,0,8.06c0,0.1,0,0.19,0,0.27H38.75z"/>
				<path class="st11" d="M34.17,20.82l-0.32,1.52c0,15.58,0,31.16,0,46.75c-3.51,2.3-6.87,5.13-9.97,8.18c0-19.44,0-38.87,0-58.31
					l0.06-0.31L34.17,20.82z"/>
				<path class="st17" d="M33.85,217.11c1.29,0.79,5.97,0.48,4.9-2.24h-0.27c0-0.08,0-0.17,0-0.27c2.01-0.04,6.14-0.31,7.13-1.94
					c0-0.97,0-4.43,0-7.17l12.54-1.85l37.9,15.31c-11.65,3.11-22.78,6.96-32.79,12.25l-29.41-13.7
					C33.85,217.38,33.85,217.25,33.85,217.11z"/>
				<path class="st12" d="M33.85,218.59h-0.07c0,0.05,0,0.09,0,0.14c-0.27,2.52-7.94,3.03-9.9,0.75c0-2.53,0-6.43,0-8.35
					c0-0.82,0-1.63,0-2.44c0-5.3,0-10.55,0-15.52c0-15.28,0-30.56,0-45.84c0-23.36,0-46.71,0-70.06c3.1-3.05,6.46-5.88,9.97-8.18
					c0,25.9,0,51.8,0,77.7c0,14.81,0,29.63,0,44.45c0,5.11,0,10.53,0,15.98c0,0.48,0,0.95,0,1.43c0,1.96,0,6.05,0,8.46
					c0,0.14,0,0.27,0,0.39C33.85,217.95,33.85,218.33,33.85,218.59z"/>
				<path class="st5" d="M33.78,218.59h0.07c0-0.26,0-0.64,0-1.09l29.41,13.7c-0.42,0.22-0.84,0.45-1.25,0.68l-28.23-13.15
					C33.78,218.68,33.78,218.64,33.78,218.59z"/>
				<path class="st10" d="M23.94,18.65l-0.06,0.31c0,19.44,0,38.87,0,58.31c-3.03,2.97-5.8,6.15-8.2,9.24c0-23.2,0-46.4,0-69.6
					L23.94,18.65z"/>
				<path class="st7" d="M23.88,219.48c0,0.43,0,0.82,0,1.15h-0.09c0,2.49-6.53,1.04-8.11-0.13c0-2.56,0-6.53,0-8.49
					c0-0.7,0-1.41,0-2.12c0-5.5,0-10.97,0-16.13c0-15.54,0-31.08,0-46.61c0-20.21,0-40.43,0-60.64c2.4-3.09,5.17-6.27,8.2-9.24
					c0,23.35,0,46.7,0,70.06c0,15.28,0,30.56,0,45.84c0,4.97,0,10.22,0,15.52c0,0.81,0,1.62,0,2.44
					C23.88,213.05,23.88,216.95,23.88,219.48z"/>
				<path class="st12" d="M11.76,222.83c0-2.53,0-7.04,0-9.17c0-1.06,0-2.13,0-3.19c0-5.2,0-10.34,0-15.22c0-15.67,0-31.34,0-47.01
					c0-18.77,0-37.54,0-56.3c1.16-1.74,2.47-3.57,3.92-5.43c0,20.21,0,40.43,0,60.64c0,15.53,0,31.07,0,46.61
					c0,5.16,0,10.63,0,16.13c0,0.71,0,1.42,0,2.12c0,1.96,0,5.93,0,8.49c0,0.7,0,1.3,0,1.72h-0.05
					C14.37,223.25,13.11,223.01,11.76,222.83z"/>
				<path class="st11" d="M15.68,16.91c0,23.2,0,46.4,0,69.6c-1.45,1.86-2.76,3.69-3.92,5.43c0-25.11,0-50.21,0-75.32l0.11-0.52
					L15.68,16.91z"/>
				<path class="st7" d="M11.76,224.64l0.04,0.2c-0.74,0.5-2.14,0.58-3.54,0.42c-1.73-0.2-3.47-0.79-3.98-1.43c0-0.24,0-0.48,0-0.74
					c0-2.59,0-6,0-7.79c0-1.24,0-2.49,0-3.73c0-5.15,0-10.24,0-15.07c0-16,0-31.99,0-47.99c0-13.5,0-27,0-40.5
					c1.65-5.58,3.84-11.02,7.48-16.07c0,18.76,0,37.53,0,56.3c0,15.67,0,31.34,0,47.01c0,4.88,0,10.02,0,15.22c0,1.06,0,2.13,0,3.19
					c0,2.13,0,6.64,0,9.17c0,1,0,1.68,0,1.8C11.76,224.64,11.76,224.64,11.76,224.64z"/>
				<path class="st17" d="M11.76,222.83c1.35,0.18,2.61,0.42,3.87-0.61h0.05c0-0.42,0-1.02,0-1.72c1.58,1.17,8.11,2.62,8.11,0.13
					h0.09c0-0.33,0-0.72,0-1.15c1.96,2.28,9.63,1.77,9.9-0.75l28.23,13.15c-6.54,3.57-12.58,7.79-17.96,12.86L8.26,225.26
					c1.4,0.16,2.8,0.08,3.54-0.42l-0.04-0.2c0,0,0,0,0-0.01C11.76,224.51,11.76,223.83,11.76,222.83z"/>
				<path class="st10" d="M4.28,108.01c0-31.17,0-62.34,0-93.52l7.59,1.61l-0.11,0.52c0,25.11,0,50.21,0,75.32
					C8.12,96.99,5.93,102.43,4.28,108.01z"/>
				<path class="st17" d="M4.28,224.84l38.61,21.02c-0.87,0.84-1.71,1.71-2.53,2.61c-4.75,5.14-8.44,11.13-10.46,17.36l-29.9-19
					v-20.96h0.24c0,0.98,2.82,1.67,4.04,0.27C4.28,225.85,4.28,225.4,4.28,224.84z"/>
				<path class="st5" d="M4.28,223.83c0.51,0.64,2.25,1.23,3.98,1.43l35.79,19.48c-0.39,0.36-0.78,0.73-1.16,1.12L4.28,224.84
					C4.28,224.53,4.28,224.19,4.28,223.83z"/>
				<path class="st12" d="M4.28,224.84c0,0.56,0,1.01,0,1.3c-1.22,1.4-4.04,0.71-4.04-0.27H0V212.2v-87.38
					c1.51-5.6,2.64-11.27,4.28-16.81c0,13.5,0,27,0,40.5c0,16,0,31.99,0,47.99c0,4.83,0,9.92,0,15.07c0,1.24,0,2.49,0,3.73
					c0,1.79,0,5.2,0,7.79c0,0.26,0,0.5,0,0.74C4.28,224.19,4.28,224.53,4.28,224.84z"/>
				<path class="st11" d="M4.28,14.49c0,31.18,0,62.35,0,93.52c-1.64,5.54-2.77,11.21-4.28,16.81V13.58L4.28,14.49z"/>
				<polygon class="st5" points="0,283.28 46.55,318.18 44.17,318.18 0,285.06 				"/>
				<path class="st5" d="M0,246.83l29.9,19c-0.15,0.46-0.29,0.92-0.42,1.38L0,248.47V246.83z"/>
				<polygon class="st27" points="0,11.76 201.6,54.35 201.6,56.3 199.11,55.77 195.1,54.92 190.67,53.99 187.99,53.41 
					184.46,52.67 45.7,23.27 38.61,21.77 34.17,20.82 23.94,18.65 15.68,16.91 11.87,16.1 4.28,14.49 0,13.58 				"/>
			</g>
		</g>
	</g>
	<path class="st28" d="M347.02,282.29c-45.7-14.83-91.39-29.66-137.09-44.49c-23.89-7.75-47.78-15.51-71.66-23.26
		c-1.23-0.4-1.75,1.53-0.53,1.93c45.7,14.83,91.39,29.66,137.09,44.49c23.89,7.75,47.78,15.51,71.66,23.26
		C347.71,284.61,348.24,282.68,347.02,282.29L347.02,282.29z"/>
	<path class="st28" d="M341.02,316.04c-41.37-17.2-82.74-34.4-124.1-51.59c-39.22-16.3-78.43-32.61-117.65-48.91
		c-1.19-0.5-1.7,1.44-0.53,1.93c41.37,17.2,82.74,34.4,124.1,51.59c39.22,16.3,78.43,32.61,117.65,48.91
		C341.67,318.46,342.19,316.52,341.02,316.04L341.02,316.04z"/>
</g>
<g id="Layer_47">
</g>
<g id="Layer_47_copy">
</g>
<g id="XMLID_6_" class="st29">
	<g>
		<polygon class="st30" points="261.93,65.2 261.91,66.09 260.97,207.44 241.75,212.75 241.92,160.57 242.54,99.23 242.89,64.96 
			244.28,64.77 		"/>
		<polygon class="st31" points="238.85,94.62 238.97,68.86 211.98,72.01 197.24,73.73 197.22,97.03 195.2,97.15 194.56,97.15 
			194.74,71.25 242.89,64.96 242.54,99.23 239.81,99.2 238.83,99.24 238.84,97.17 		"/>
		<polygon class="st31" points="238.7,126.04 238.83,99.24 239.81,99.2 242.54,99.23 241.92,160.57 238.97,160.54 238.54,160.51 
			238.69,128.59 		"/>
		<path class="st32" d="M197.22,99.58v0.25l-0.02,25.8v2.55l-0.02,30.85l41.35,4.11l0.01-2.63l0.43,0.03l2.95,0.03l-0.35,48.81
			l-47.76-9.66l0.75-102.57h0.64l2.02-0.12L197.22,99.58L197.22,99.58z M237.5,204.67l0.73-37.33l-41.14-4.2l-0.37,33.71
			L237.5,204.67z"/>
		<polygon class="st33" points="238.97,68.86 238.85,94.62 211.98,96.18 211.98,72.01 		"/>
		<polygon class="st32" points="238.85,94.62 238.84,97.17 211.98,98.73 211.98,96.18 		"/>
		<polygon class="st34" points="238.84,97.17 238.83,99.24 211.98,100.43 211.98,98.73 		"/>
		<polygon class="st33" points="238.83,99.24 238.7,126.04 211.98,125.78 211.98,100.43 		"/>
		<polygon class="st32" points="238.7,126.04 238.69,128.59 211.98,128.33 211.98,125.78 		"/>
		<polygon class="st33" points="238.69,128.59 238.54,160.51 211.98,158.56 211.98,128.33 		"/>
		<polygon class="st34" points="238.54,160.51 238.53,163.14 197.18,159.03 211.98,158.56 		"/>
		<polygon class="st35" points="238.23,167.34 237.42,204.67 196.72,196.85 197.09,163.14 		"/>
		<polygon class="st36" points="211.98,128.33 211.98,158.56 197.18,159.03 197.2,128.18 		"/>
		<polygon class="st32" points="211.98,125.78 211.98,128.33 197.2,128.18 197.2,125.63 		"/>
		<polygon class="st36" points="211.98,100.43 211.98,125.78 197.2,125.63 197.22,99.83 		"/>
		<polygon class="st34" points="211.98,98.73 211.98,100.43 197.22,99.83 197.22,99.58 		"/>
		<polygon class="st32" points="211.98,96.18 211.98,98.73 197.22,99.58 197.22,97.03 		"/>
		<polygon class="st36" points="211.98,72.01 211.98,96.18 197.22,97.03 197.24,73.73 		"/>
		<polygon class="st32" points="200.58,201 200.5,204.04 193.67,202.92 193.81,199.72 		"/>
	</g>
</g>
<path class="st37" d="M374.04,88.73c0,0.18-0.01,0.36-0.02,0.53c-0.27-0.06-0.53-0.12-0.8-0.18c0-0.23,0-0.44,0-0.66
	c-0.01-0.16-0.02-0.32-0.03-0.48c0.26,0.05,0.55,0.04,0.84,0.01C374.03,88.22,374.04,88.48,374.04,88.73z"/>
<path class="st38" d="M370.31,88.47c0,0.04,0,0.07,0,0.11c-0.21-0.07-0.43-0.15-0.64-0.24C369.89,88.39,370.1,88.42,370.31,88.47z"
	/>
<path class="st39" d="M365.73,87.72c-0.12-0.02-0.25-0.03-0.37-0.04c0.07-0.11,0.14-0.23,0.21-0.34
	C365.63,87.47,365.67,87.6,365.73,87.72z"/>
<polygon class="st40" points="356.61,105.76 356.52,105.76 356.52,105.7 "/>
<path class="st41" d="M331.04,92.38c0.16-0.01,0.31-0.02,0.45-0.02c-0.19,0.01-0.38,0.02-0.57,0.03
	C330.96,92.39,331,92.38,331.04,92.38z"/>
<path class="st41" d="M329.76,94.67c0.01,0.02,0.02,0.03,0.03,0.05c-0.03-0.01-0.06-0.01-0.09-0.02
	C329.72,94.69,329.74,94.67,329.76,94.67z"/>
<polygon class="st40" points="297.37,106.6 297.19,106.6 297.19,106.46 "/>
<g id="Layer_28">
</g>
<g id="Layer_28_copy">
</g>
<g id="Layer_37">
	<path class="st42" d="M198.34,251.81c-0.27-0.24-0.94-0.57-1.91-0.97c-2.1-0.84-26.65-11.02-31.3-12.34
		c-5.64-0.26-12.19-4.35-15.75-3.88c-0.09-0.03-11.62,9.04-18.41,9.42c-13.56,0.75-33.86,1.91-55.65,3.16
		c-0.17-0.05-0.34-0.09-0.49-0.14c-0.8-0.23-1.48-0.43-1.99-0.58c-7.59-0.41-25.28-2.76-30.21-2.12c1-0.25,26.25,25.75,26.25,25.75
		l10.5,0.25c1.23,0.66,3.17-0.58,4.02-0.11c1.03,0.61,1.79,1.24,2.65,1.84c2.16,0.5,5.41,0.76,8.5,0.92
		c2.61,0.1,8.13,0.32,10.48,0.15c3.29-0.13,6.6-0.54,8.49-0.72c15.55-1.43,36.11-3.01,49.98-5.28c4.51-0.67,3.56-1.09,2.28-2.38
		l-0.06-0.07c-1.04-0.9-3.16-2-4.48-2.86c-0.33-0.2-0.64-0.4-0.95-0.6c4.26-0.61,24.6-4.38,33.72-7.14c2.42-0.73,4.06-1.39,4.38-1.9
		C198.48,252.07,198.48,251.93,198.34,251.81z"/>
</g>
<g id="Layer_32_copy_3">
	<g>
		<g id="XMLID_42_">
			<g>
				<path class="st43" d="M39.14,183.11c1.51-1.23,4.68-3.83,6.59-4.23c-0.1,0.03-0.2,0.07-0.28,0.1c-1.51,0.58-2.75,1.47-3.19,2.89
					c1.8,1.78,3.32,4.43,4.6,7.51c1.44,3.44,2.56,7.42,3.43,11.32c-0.38-0.09-0.74-0.16-1.06-0.23c-0.69-0.12-1.25-0.18-1.63-0.14
					l-7.68,1.4c-0.6-2.2-1.85-5.71-2.29-7.26c-0.62-1.99-1.44-3.92-2.15-5.82C35.85,186.54,37.43,184.64,39.14,183.11z"/>
				<path class="st44" d="M62.81,217.16c-2.75-2.66-26.1-14.85-26.1-14.85l3.22-0.58l7.68-1.4c0.38-0.03,0.94,0.02,1.63,0.14
					c0.32,0.06,0.68,0.14,1.06,0.23c1.12,0.25,2.47,0.63,3.99,1.12c0.71,0.22,1.46,0.47,2.24,0.73c0.69,0.24,1.39,0.49,2.11,0.75
					c0.77,0.27,1.54,0.57,2.32,0.86c3.94,1.51,8.05,3.31,11.48,5.1c0.8,0.42,1.57,0.83,2.3,1.24c2.01,1.15,3.62,2.26,4.59,3.25
					l-16.32,3.7C62.95,217.33,62.89,217.23,62.81,217.16z"/>
				<path class="st45" d="M103.58,178.65c-12.54-2.67-39.75,8.83-47.04,23.9c-0.78-0.26-1.53-0.51-2.24-0.73
					c-1.77-9.55-4.93-21.38-8.84-22.84c0.09-0.03,0.19-0.07,0.28-0.1c2.45-0.86,5.5-1,7.12-1.23c13.29-1.94,30.2-5.32,44.16-4.43
					C101.41,173.32,101.69,174.8,103.58,178.65z"/>
				<path class="st46" d="M153.4,204.16c0.41,3,0.5,7.31,0.43,11.99c-1.2,7.92-5.74,16.78-11.01,21.75c0.45-9.4,1.07-23.91,0.6-31.3
					L153.4,204.16z"/>
				<path class="st44" d="M153.82,216.14c-0.13,9.29-0.92,20.08-1.17,25.29c-3.16,2.76-6.83,3.77-10.17,3.84
					c0.05-1.53,0.19-4.16,0.33-7.37C148.08,232.92,152.62,224.06,153.82,216.14z"/>
				<path class="st44" d="M118.69,195.72c7-2.65,20.04-0.5,26.06,1.14l0.1-0.45c3.15,1.04,5.63,2.18,6.92,3.4l-9.54,1.97
					C139.76,200.16,127.69,197.52,118.69,195.72z"/>
				<path class="st47" d="M142.24,201.78l9.54-1.97c0.37,0.36,0.66,0.72,0.82,1.08c0.34,0.74,0.6,1.86,0.8,3.26l-9.99,2.44
					c-0.14-2.41-0.4-4.07-0.83-4.55C142.5,201.96,142.39,201.87,142.24,201.78z"/>
				<path class="st43" d="M142.47,245.58c-1.76-1.6-4.39-2.22-6.34-3.41c1.02-6.15,0.85-13.48,1.03-20.15
					c0.92-0.53,1.45-1.01,1.56-1.44c0.07-2.14,0.64-7.19,0.02-8.63c0.04-0.02,0.08-0.03,0.12-0.04c-3.97-3.54-10.98-5.08-16.26-6.3
					c-3.75-1.15-7.75-1.65-11.58-1.85c-0.09-3.36-1.08-6.71-2.19-9.94c1.15,0.21,5.08,0.94,9.87,1.91c9,1.79,21.06,4.44,23.55,6.06
					c0.15,0.09,0.26,0.18,0.34,0.26c0.43,0.48,0.69,2.14,0.83,4.55c0.47,7.39-0.15,21.9-0.6,31.3c-0.14,3.21-0.27,5.84-0.33,7.37
					C142.48,245.38,142.48,245.48,142.47,245.58z"/>
				<path class="st45" d="M81.81,223.46c17.36-2.57,52.16-9.45,56.93-11.52c0.61,1.44,0.04,6.49-0.02,8.63
					c-0.11,0.44-0.65,0.92-1.56,1.44c-7.45,4.25-39.81,10.85-55.01,12.37c0.01-3.58-0.05-7.06-0.26-10.14
					C81.85,223.98,81.83,223.72,81.81,223.46z"/>
				<path class="st48" d="M122.6,205.6c5.28,1.22,12.29,2.76,16.26,6.3c-0.04,0.01-0.08,0.02-0.12,0.04
					c-4.77,2.07-39.57,8.95-56.93,11.52c-0.11-1.39-0.25-2.68-0.43-3.84c-0.39-2.64-0.98-4.62-1.82-5.62
					c-0.06-0.08-0.15-0.16-0.23-0.25c-0.97-0.98-2.58-2.1-4.59-3.25c-0.72-0.41-1.5-0.82-2.3-1.24c4.09-0.79,7.9-1.41,10.23-1.92
					c8.11-1.83,16.17-3.39,24.31-3.71c0.02,0,0.03,0,0.05,0c1.28,0.01,2.61,0.06,3.97,0.12C114.84,203.95,118.84,204.45,122.6,205.6
					z"/>
				<path class="st49" d="M115.07,235.88c4.62,1.14,7.66,5.81,9.62,10.25c-10.53,2.99-26.37,7.4-43.39,12.11
					c0.11-2.57,0.29-6.09,0.47-10.06c0.11-2.6,0.22-5.39,0.28-8.2c0.66-0.18,1.32-0.35,1.98-0.51
					C92.81,237.07,105.96,233.09,115.07,235.88z"/>
				<path class="st48" d="M144.85,196.41l-0.1,0.45c-6.03-1.64-19.06-3.78-26.06-1.14c-4.79-0.97-8.72-1.71-9.87-1.91
					c-0.45-1.29-0.92-2.57-1.36-3.83C111.57,190.03,132.99,192.5,144.85,196.41z"/>
				<path class="st50" d="M107.47,189.98c0.44,1.26,0.91,2.54,1.36,3.83c1.1,3.24,2.1,6.58,2.19,9.94
					c-1.36-0.07-2.69-0.11-3.97-0.12c-0.02,0-0.03,0-0.05,0c-8.15,0.32-16.21,1.88-24.31,3.71c-2.33,0.51-6.14,1.14-10.23,1.92
					c-3.43-1.78-7.55-3.59-11.48-5.1c-0.78-0.29-1.55-0.59-2.32-0.86c-0.72-0.26-1.42-0.51-2.11-0.75
					c7.29-15.07,34.5-26.57,47.04-23.9c0.04,0.07,0.08,0.14,0.11,0.21c1.24,2.77,2.18,6.44,3.13,9.19
					C107.02,188.69,107.24,189.34,107.47,189.98z"/>
				<path class="st51" d="M137.15,222.02c-0.17,6.66-0.01,14-1.03,20.15c-0.02,0.21-0.07,0.43-0.11,0.64
					c-2.09,0.66-6.04,1.82-11.32,3.32c-1.97-4.44-5.01-9.11-9.62-10.25c-9.11-2.79-22.26,1.19-31.03,3.58
					c-0.66,0.16-1.32,0.34-1.98,0.51c0.02-1.14,0.04-2.28,0.07-3.42c0-0.72,0-1.43,0.01-2.15
					C97.34,232.87,129.71,226.27,137.15,222.02z"/>
				<path class="st46" d="M81.88,224.25c0.21,3.07,0.27,6.56,0.26,10.14c-0.01,0.72-0.01,1.43-0.01,2.15
					c-0.02,1.15-0.04,2.29-0.07,3.42c-0.07,2.81-0.18,5.6-0.28,8.2c-0.18,3.97-0.36,7.49-0.47,10.06c-0.01,0.18-0.02,0.37-0.03,0.54
					c-0.03,0.91-0.07,1.67-0.08,2.26c-4.13,3.86-12.42,5.11-17.04,5.22c0.1-5.74,0.91-31.29-0.1-43.16l17.32-3.47
					c0.17,1.16,0.32,2.45,0.43,3.84C81.83,223.72,81.85,223.98,81.88,224.25z"/>
				<path class="st47" d="M64.06,223.09c-0.23-2.79-0.57-4.81-1.04-5.64l16.32-3.7c0.08,0.09,0.16,0.18,0.23,0.25
					c0.83,1.01,1.42,2.99,1.82,5.62L64.06,223.09z"/>
				<path class="st52" d="M63.02,217.45c0.47,0.83,0.81,2.85,1.04,5.64c1.01,11.87,0.2,37.42,0.1,43.16
					c-0.56-0.42-2.17-1.94-4.35-4.06c-0.67-5.94-4.24-13.54-6.38-18.5c-4.39-9.6-10.38-15.45-17-22.12l0.28-19.25
					c0,0,23.35,12.2,26.1,14.85C62.89,217.23,62.95,217.33,63.02,217.45z"/>
				<path class="st43" d="M36.43,221.56c6.62,6.67,12.61,12.52,17,22.12c2.13,4.97,10.06,16.62,10.73,22.56
					c-8.26-5.6-26.73-17.85-28.67-19.06L36.43,221.56z"/>
				<path class="st52" d="M45.45,178.98c3.91,1.45,7.07,13.29,8.84,22.84c-1.52-0.48-2.88-0.86-3.99-1.12
					c-0.88-3.9-1.99-7.88-3.43-11.32c-1.28-3.08-2.8-5.73-4.6-7.51C42.71,180.45,43.95,179.56,45.45,178.98z"/>
			</g>
		</g>
	</g>
</g>
<g id="Layer_3_copy_2">
</g>
<g id="Layer_31">
	<g id="XMLID_22_">
	</g>
</g>
<g id="Layer_38" class="st53">
</g>
<g id="Layer_38_copy">
</g>
<g id="Layer_7_copy" class="st29">
	<g class="st54">
		<path class="st55" d="M427.15,114.77l-22.43-1.66v36.39h-0.01v22.86v5.83v0.01h0.05l-0.05,1.73l-1.29,44.75
			c0,0,16.69-29.76,26.96-34.54l0.09-15.28l-24.87,3.43l24.87-3.63v-59.67L427.15,114.77z"/>
		<polygon class="st56" points="430.47,174.86 430.47,174.66 405.6,178.29 		"/>
		<polygon class="st34" points="400,177.72 400,171.94 269.12,160.25 242.28,161.71 243.08,161.79 312.35,168.82 316.44,169.24 		
			"/>
		<polygon class="st57" points="404.76,178.2 404.71,178.2 404.71,179.93 		"/>
		<path class="st58" d="M403.42,224.68l-0.6,20.52l-0.14,4.12L430,237.5l0.38-47.36C420.11,194.92,403.42,224.68,403.42,224.68z"/>
		<polygon class="st59" points="403.42,224.68 402.67,249.33 402.68,249.32 402.82,245.2 		"/>
		<path class="st32" d="M403.42,224.68l1.29-44.75v-1.73v-0.01v-5.83V149.5h0.01v-36.39l-148.71,1.37l-12.48,0.12l-1.43,0.01v25.57
			l157.9,9.05v22.71v5.78l-83.56-8.48l-4.09-0.42L242,161.75l-0.25,27.67l-0.16,23.76l4.9,0.99l0.03-0.16l0.1-3.63l9.76,1.87
			l8.36,1.5L395,241v6.67l7.67,2l0.01-0.35l-0.01,0.01L403.42,224.68z M244.06,137.8l-0.37,0.03v-0.05l-0.15-0.01v-21.79h12.47h4.66
			h139.41v28.24v1.48H400L244.06,137.8z M397.38,183.51l-0.36,12.32l-81.04-11.23l0.29-9.92L397.38,183.51z M247.88,167.26
			l64.27,6.98l-0.28,9.79l-64.22-8.9L247.88,167.26z M395.9,234.54l-80.92-15.53l-4.11-0.54l0.01-0.25l-64.13-12.3l0.49-16.58
			l0.33-11.48l64.21,9.23l-0.28,9.55l-0.62,21.58l4.1,0.79l0.63-21.62l0.28-9.7l81.03,11.64l-0.63,21.76L395.9,234.54z"/>
		<path class="st34" d="M400.08,144.22c-0.03,0-0.05,0-0.08,0v1.48h0.08V144.22z"/>
		<path class="st33" d="M249.09,137.33l11.63-0.91c0,0,91.08,5.12,139.28,7.8c0.03,0,0.05,0,0.08,0v-28.24H260.67v20.29
			L249.09,137.33z"/>
		<path class="st60" d="M260.72,136.42l-11.63,0.91l-5.03,0.47L400,145.7v-1.48C351.8,141.54,260.72,136.42,260.72,136.42z"/>
		<path class="st61" d="M397.02,195.83l0.36-12.32l-81.11-8.83l-0.29,9.92L397.02,195.83z M318.79,177.05l75.35,8.67l-0.19,6.5
			l-75.32-9.62L318.79,177.05z"/>
		<path class="st61" d="M315.89,187.69l-0.28,9.7c0.86,0.16,1.72,0.32,2.58,0.48c0.02,0.01,0.03,0.01,0.06,0.02l0.13-6.81l75.29,11
			l-0.52,17.67c1.09,0.45,2.14,0.89,3.14,1.34l0.63-21.76L315.89,187.69z"/>
		<path class="st62" d="M392.85,230.18l-74.96-13.6l0.36-18.69c-0.03-0.01-0.04-0.01-0.06-0.02c-0.86-0.16-1.72-0.32-2.58-0.48
			l-0.63,21.62l80.92,15.53l0.39-13.45c-1-0.45-2.05-0.89-3.14-1.34L392.85,230.18z"/>
		<polygon class="st35" points="394.14,185.72 318.79,177.05 318.63,182.6 393.95,192.22 		"/>
		<path class="st35" d="M393.67,202.08l-75.29-11l-0.13,6.81c12.22,2.59,52.19,12.48,74.9,21.86L393.67,202.08z"/>
		<path class="st32" d="M392.85,230.18l0.3-10.43c-22.71-9.38-62.68-19.27-74.9-21.86l-0.36,18.69L392.85,230.18z"/>
		<polygon class="st63" points="310.87,218.47 314.98,219.01 310.88,218.22 		"/>
		<path class="st61" d="M312.15,174.24l-64.27-6.98l-0.23,7.87l64.22,8.9L312.15,174.24z M308.98,181L250,173.78l0.13-4.21
			l58.99,6.57L308.98,181z"/>
		<path class="st61" d="M250.44,181.56l58.28,8.19l-0.18,6.36c1,0.17,1.98,0.35,2.96,0.53l0.28-9.55l-64.21-9.23l-0.33,11.48
			c0.98,0.01,1.98,0.04,2.97,0.07L250.44,181.56z"/>
		<path class="st62" d="M308.54,196.11L308,214.58l-58.2-10.88l0.41-14.29c-0.99-0.03-1.99-0.06-2.97-0.07l-0.49,16.58l64.13,12.3
			l0.62-21.58C310.52,196.46,309.54,196.28,308.54,196.11z"/>
		<polygon class="st35" points="250,173.78 308.98,181 309.12,176.14 250.13,169.57 		"/>
		<path class="st35" d="M250.44,181.56l-0.23,7.85c19.22,0.58,39.44,3.36,58.33,6.7l0.18-6.36L250.44,181.56z"/>
		<path class="st32" d="M249.8,203.7l58.2,10.88l0.54-18.47c-18.89-3.34-39.11-6.12-58.33-6.7L249.8,203.7z"/>
		<polygon class="st56" points="243.69,137.76 249.09,137.33 260.67,136.27 260.67,115.98 243.85,116.08 		"/>
		<polygon class="st36" points="243.69,137.76 243.69,137.78 243.69,137.83 244.06,137.8 249.09,137.33 		"/>
		<polygon class="st34" points="243.54,137.77 243.69,137.78 243.69,137.76 		"/>
	</g>
</g>
<g id="Layer_31_copy">
	<g id="XMLID_26_">
	</g>
</g>
<g id="Layer_16_copy">
	<g id="Layer_17_copy">
	</g>
	<g>
		<g id="XMLID_29_">
		</g>
	</g>
</g>
<g id="Layer_45">
</g>
<g id="Layer_45_copy_2">
</g>
<g id="Layer_14">
</g>
<g id="Layer_51">
</g>
<g id="Layer_51_copy">
</g>
<g id="Layer_13_copy">
	<g>
		<g id="XMLID_57_">
		</g>
	</g>
</g>
<g id="Layer_13_copy_2">
</g>
<g id="Layer_40">
</g>
<g id="Layer_40_copy">
</g>
</svg>
