<?xml version="1.0" encoding="utf-8"?>
<!-- Generator: Adobe Illustrator 25.2.0, SVG Export Plug-In . SVG Version: 6.00 Build 0)  -->
<svg version="1.1" id="Layer_1" xmlns="http://www.w3.org/2000/svg" xmlns:xlink="http://www.w3.org/1999/xlink" x="0px" y="0px"
	 viewBox="0 0 450 318.18" style="enable-background:new 0 0 450 318.18;" xml:space="preserve">
<style type="text/css">
	.st0{fill:#D2AC6F;}
	.st1{fill:#E2E892;}
	.st2{fill:#C6D07B;}
	.st3{fill:#BC9B64;}
	.st4{fill:#DED8D1;}
	.st5{fill:#9E752C;}
	.st6{fill:#D19436;}
	.st7{fill:#FBBEB3;}
	.st8{fill:#AC843E;}
	.st9{fill:#BB8A5F;}
	.st10{fill:#F8ADA2;}
	.st11{fill:#F58E84;}
	.st12{fill:#F79F94;}
	.st13{fill:#9FB4C5;}
	.st14{fill:#BBC8D4;}
	.st15{fill:#E7A35D;}
	.st16{fill:#BE7F30;}
	.st17{fill:#CCA059;}
	.st18{fill:#BCC961;}
	.st19{fill:#C0C9C0;}
	.st20{fill:#A6B255;}
	.st21{fill:#97A34D;}
	.st22{fill:#80C0FE;}
	.st23{fill:#D1CAC0;}
	.st24{fill:#A4D5FF;}
	.st25{fill:#FDFBE6;}
	.st26{fill:#F7F2B7;}
	.st27{fill:#AE7643;}
	.st28{fill:#9E752B;}
	.st29{fill:#CA9D53;}
	.st30{fill:#B7844D;}
	.st31{fill:#FDE9B8;}
	.st32{fill:#925733;}
	.st33{fill:#926435;}
	.st34{fill:#EED09E;}
	.st35{fill:#A8733F;}
	.st36{fill:#A77840;}
	.st37{fill:#C49A6C;}
	.st38{fill:#E6B7B8;}
	.st39{fill:#C6CB6A;}
	.st40{fill:#C28C79;}
	.st41{fill:#DEBBAE;}
	.st42{fill:#E9D2C9;}
	.st43{fill:#FDC88E;}
	.st44{fill:#E7A45A;}
	.st45{fill:#FBB161;}
	.st46{fill:#95AAD8;}
	.st47{fill:#ACBCE1;}
	.st48{fill:#CED7ED;}
	.st49{fill:#EBDFE2;}
	.st50{opacity:0.6;fill:#894529;enable-background:new    ;}
	.st51{fill:#A89775;}
	.st52{fill:#D7CFBC;}
	.st53{fill:#D9D1C0;}
	.st54{fill:#E7E1D6;}
	.st55{fill:#E0D9CA;}
	.st56{fill:#BFB297;}
	.st57{fill:#C9BDA6;}
	.st58{fill:#CFC5AF;}
	.st59{fill:#C2B59B;}
	.st60{fill:#AF9F7F;}
	.st61{opacity:0.6;}
	.st62{fill:#9F6936;}
	.st63{fill:#C79358;}
	.st64{fill:#B17A3F;}
	.st65{fill:#956231;}
	.st66{fill:#724323;}
	.st67{fill:#BF8544;}
	.st68{fill:#C69158;}
	.st69{fill:#CFA372;}
	.st70{fill:#C69740;}
	.st71{fill:#9F8D68;}
	.st72{fill:#365A77;}
	.st73{fill:#687992;}
	.st74{fill:#506883;}
	.st75{fill:#2C4B65;}
	.st76{fill:#E2C28B;}
	.st77{opacity:0.5;}
	.st78{fill:#FFF3CE;}
	.st79{fill:#ABB5B1;}
	.st80{fill:#C8554A;}
	.st81{fill:#AF1C29;}
	.st82{fill:#DC192A;}
	.st83{fill:#EF951B;}
	.st84{fill:#F58422;}
	.st85{fill:#B2A384;}
	.st86{fill:#7D85A2;}
	.st87{fill:#647293;}
	.st88{fill:#C4B273;}
	.st89{fill:#B7A252;}
	.st90{fill:#BEBEBE;}
	.st91{fill:#7DC143;}
	.st92{fill:#6CAB3A;}
	.st93{fill:#DBBE79;}
	.st94{fill:#D1AD52;}
	.st95{fill:#DAC5BF;}
	.st96{fill:#CAACA4;}
	.st97{fill:#A65728;}
	.st98{fill:#804218;}
	.st99{fill:#B06939;}
</style>
<g id="Layer_12">
	<g>
		<g id="XMLID_13_">
			<g>
				<path class="st0" d="M373.94,254.4c1.94,0.87,0.32,2.82,0.32,2.82l-40.12,20.8l-2.06,1.06l-36.18,18.76l-1.96,1.02L260,316.44
					l-0.17,0.09L81,237.77c0,0-1.9-1.76-0.04-2.77c0.26-0.14,0.6-0.27,1.03-0.37c0.03-0.01,0.05-0.02,0.08-0.02l33.57-7.75
					l2.85-0.66l37.77-8.72l3.07-0.71l32.51-7.51l181.47,44.93C373.55,254.25,373.76,254.31,373.94,254.4z"/>
				<path class="st1" d="M450,156.34v69.95l-246.93-43.55l-0.13-0.02v-27.28V77.3v-9.43c5.72-5.03,16.76-7.96,22.27-9.61
					c11.04-3.56,22.09-6.42,33.49-8.56c27.8-4.98,57.73-2.84,85.17,3.21c27.08,5.7,55.23,15.68,74.83,36
					c8.2,8.55,12.76,16.76,18.17,27.79c4.81,9.8,6.87,18.44,10.07,28.06C448.18,148.18,449.19,152.14,450,156.34z"/>
				<path class="st2" d="M450,5.84v150.45c-0.81-4.21-1.82-8.17-3.06-11.58c-3.2-9.62-5.26-18.26-10.07-28.06
					c-5.41-11.04-9.97-19.25-18.17-27.8c-19.6-20.31-47.75-30.29-74.83-35.99c-27.44-6.06-57.37-8.2-85.17-3.21
					c-11.4,2.14-22.45,4.99-33.49,8.55c-5.51,1.66-16.55,4.58-22.27,9.61V56.03L450,5.84z"/>
				<polygon class="st3" points="450,0 450,4.02 201.95,54.43 201.6,54.35 201.6,53.99 201.6,50.15 335.67,20.35 427.25,0 				"/>
				<polygon class="st0" points="443.68,318.18 346.28,318.18 295.9,297.84 332.08,279.08 				"/>
				<path class="st4" d="M427.25,0l-91.58,20.35c-26.85,3.18-54.2,4.69-82.75,4.58C194.23,24.72,140.55,13.44,62.47,0H427.25z"/>
				<path class="st0" d="M223.43,202.58c32.07,1.07,62.53,7.48,94.07,11.22c7.34,0.71,14.72,1.57,22.1,2.57l50.03,9.22
					c3.6,0.84,7.17,1.73,10.72,2.65c12.9,3.08,32.29,9.21,49.65,16.77v26.36l-261.8-68.02
					C200.37,202.46,212.37,202.15,223.43,202.58z"/>
				<path class="st0" d="M400.35,228.24c-3.55-0.92-7.12-1.81-10.72-2.65L450,236.7v8.31C432.64,237.45,413.25,231.32,400.35,228.24
					z"/>
				<path class="st0" d="M373.94,254.4c-0.18-0.09-0.39-0.15-0.63-0.21l0.32-1.23L450,272.8v45.38h-1.22l-114.64-40.16l40.12-20.8
					C374.26,257.22,375.88,255.27,373.94,254.4z"/>
				<path class="st0" d="M373.63,252.96l-0.32,1.23l-181.47-44.93l-32.51,7.51l-20.09-7.04c14.05-2.64,29.45-4.77,44.71-6.04
					L373.63,252.96z"/>
				<path class="st5" d="M364.67,219.59L450,235.3v1.4l-60.37-11.11c-8.26-1.95-16.65-3.7-25.1-5.25L364.67,219.59z"/>
				<path class="st6" d="M364.53,220.34c8.45,1.55,16.84,3.3,25.1,5.25l-50.03-9.22C347.93,217.5,356.26,218.83,364.53,220.34z"/>
				<polygon class="st5" points="334.14,278.02 448.78,318.18 443.68,318.18 332.08,279.08 				"/>
				<polygon class="st5" points="295.9,297.84 346.28,318.18 341.8,318.18 293.94,298.86 				"/>
				<polygon class="st0" points="260,316.44 293.94,298.86 341.8,318.18 259.83,318.18 259.83,316.53 				"/>
				<polygon class="st0" points="259.83,316.53 259.83,318.18 250.01,318.18 80.36,239.17 81,237.77 				"/>
				<path class="st0" d="M247.3,318.18h-68.35l-134.9-73.44c5.38-5.07,11.42-9.29,17.96-12.86L247.3,318.18z"/>
				<path class="st2" d="M258.7,49.65c27.8-4.99,57.73-2.85,85.17,3.21c27.08,5.7,55.23,15.68,74.83,35.99
					c8.2,8.55,12.76,16.76,18.17,27.8c4.81,9.8,6.87,18.44,10.07,28.06c1.24,3.41,2.25,7.37,3.06,11.58v0.05
					c-0.81-4.2-1.82-8.16-3.06-11.58c-3.2-9.62-5.26-18.26-10.07-28.06c-5.41-11.03-9.97-19.24-18.17-27.79
					c-19.6-20.32-47.75-30.3-74.83-36c-27.44-6.05-57.37-8.19-85.17-3.21c-11.4,2.14-22.45,5-33.49,8.56
					c-5.51,1.65-16.55,4.58-22.27,9.61v-0.06c5.72-5.03,16.76-7.95,22.27-9.61C236.25,54.64,247.3,51.79,258.7,49.65z"/>
				<path class="st7" d="M202.94,77.3v78.14c-1.16-0.95-2.46-1.78-3.83-2.49v-78.2C200.43,75.54,201.71,76.39,202.94,77.3z"/>
				<polygon class="st8" points="450,4.02 450,5.84 202.94,56.03 201.6,56.3 201.6,54.35 201.95,54.43 				"/>
				<polygon class="st9" points="201.6,54.35 0,11.76 0,5.33 201.6,50.15 201.6,53.99 				"/>
				<path class="st10" d="M201.6,56.3l1.34-0.27v11.78v0.06v9.43c-1.23-0.91-2.51-1.76-3.83-2.55v-1.88v-17.1L201.6,56.3z"/>
				<path class="st11" d="M199.11,74.75c-1.3-0.78-2.65-1.51-4.01-2.21V54.92l4.01,0.85v17.1V74.75z"/>
				<path class="st12" d="M195.1,72.54c1.36,0.7,2.71,1.43,4.01,2.21v78.2c-1.28-0.67-2.63-1.23-4.01-1.71V72.54z"/>
				<path class="st13" d="M198.93,185.19c0,0.8-0.14,1.35-0.41,1.74c-0.65,0.95-2.09,0.88-4.24,0.86c0.96-0.93,1.07-2.66,1.17-4.35
					l-0.35,0.05v-32.25c1.38,0.48,2.73,1.04,4.01,1.71v29.95v2.29H198.93z"/>
				<path class="st14" d="M203.07,182.8c-0.19,2.86-1.15,4.3-4.55,4.13c0.27-0.39,0.41-0.94,0.41-1.74h0.18v-2.29v-29.95
					c1.37,0.71,2.67,1.54,3.83,2.49v27.28v0.05L203.07,182.8z"/>
				<path class="st10" d="M195.1,54.92v17.62c-1.46-0.73-2.94-1.43-4.43-2.08V53.99L195.1,54.92z"/>
				<path class="st7" d="M190.67,70.46c1.49,0.65,2.97,1.35,4.43,2.08v78.7c-1.46-0.51-2.95-0.91-4.43-1.23V70.46z"/>
				<path class="st15" d="M198.52,186.93c3.4,0.17,4.36-1.27,4.55-4.13L450,226.34v8.96l-85.33-15.71l-170.86-31.46
					c0.17-0.09,0.33-0.21,0.47-0.34C196.43,187.81,197.87,187.88,198.52,186.93z"/>
				<path class="st16" d="M193.81,188.13l170.86,31.46l-0.14,0.75c-8.27-1.51-16.6-2.84-24.93-3.97l-149.91-27.6
					c0.1-0.22,0.2-0.46,0.27-0.72C191.81,188.63,193.02,188.58,193.81,188.13z"/>
				<path class="st11" d="M187.99,69.32V53.41l2.68,0.58v16.47C189.78,70.06,188.88,69.68,187.99,69.32z"/>
				<path class="st12" d="M187.99,125.61V69.32c0.89,0.36,1.79,0.74,2.68,1.14v79.55c-0.9-0.2-1.8-0.36-2.68-0.49V125.61z"/>
				<path class="st14" d="M193.81,188.13c-0.79,0.45-2,0.5-3.85-0.08c0.06-0.19,0.12-0.39,0.17-0.6c0.24-1.02,0.35-2.17,0.51-3.04
					h0.03v-0.27v-34.13c1.48,0.32,2.97,0.72,4.43,1.23v32.25l0.35-0.05c-0.1,1.69-0.21,3.42-1.17,4.35
					C194.14,187.92,193.98,188.04,193.81,188.13z"/>
				<path class="st13" d="M187.99,187.06v-2.52v-35.02c0.88,0.13,1.78,0.29,2.68,0.49v34.13v0.27h-0.03
					c-0.16,0.87-0.27,2.02-0.51,3.04c-0.05,0.21-0.11,0.41-0.17,0.6c-0.07,0.26-0.17,0.5-0.27,0.72c-0.36,0.75-0.88,1.23-1.7,1.18
					v-1.49V187.06z"/>
				<path class="st5" d="M450,272.8l-76.37-19.84l-189.68-49.27c1.42-0.12,2.84-0.23,4.25-0.34L450,271.37V272.8z"/>
				<path class="st17" d="M317.5,213.8c-31.54-3.74-62-10.15-94.07-11.22c-11.06-0.43-23.06-0.12-35.23,0.77l-46.31-12.03
					l34.25-5.04l4.23-0.62l4.09-0.6v1.35v1.4v0.07c1.57,1.44,2.7,2.03,3.53,2.07c0.82,0.05,1.34-0.43,1.7-1.18l149.91,27.6
					C332.22,215.37,324.84,214.51,317.5,213.8z"/>
				<path class="st14" d="M187.99,187.06v1.4v1.49c-0.83-0.04-1.96-0.63-3.53-2.07v-0.07v-1.4v-1.35v-31.73v-4.17
					c1.12,0.06,2.31,0.18,3.53,0.36v35.02V187.06z"/>
				<path class="st10" d="M187.99,53.41v15.91c-1.18-0.5-2.37-0.96-3.53-1.42v-6.08v-9.15L187.99,53.41z"/>
				<path class="st7" d="M187.99,69.32v56.29h-0.91c-0.64-2.18-1.53-4.4-2.62-6.59v-11.58V67.9
					C185.62,68.36,186.81,68.82,187.99,69.32z"/>
				<path class="st7" d="M187.99,125.61v23.91c-1.22-0.18-2.41-0.3-3.53-0.36v-30.14c1.09,2.19,1.98,4.41,2.62,6.59H187.99z"/>
				<path class="st18" d="M184.46,52.67v9.15c-4.65-4.11-14.27-6.58-19.83-8.1c-8.29-2.14-16.3-4.28-24.86-5.61
					c-18.17-2.94-35.27-7.22-53.71-7.75c-7.48-0.22-31.21-1.89-40.45,5.25c0-7.31,0-14.61,0-21.91l0.09-0.43L184.46,52.67z"/>
				<path class="st2" d="M184.46,149.16v4.17h-0.5l-1.42-0.2v-37.57c0.69,1.13,1.34,2.29,1.92,3.46V149.16z"/>
				<path class="st2" d="M48.37,53.99v3.56v6.06h-1.33c-0.48,0.07-0.95,0.16-1.43,0.26c0-6.08,0-12.17,0-18.26
					c9.24-7.14,32.97-5.47,40.45-5.25c18.44,0.53,35.54,4.81,53.71,7.75c8.56,1.33,16.57,3.47,24.86,5.61
					c5.56,1.52,15.18,3.99,19.83,8.1v6.08v39.54v11.58c-0.58-1.17-1.23-2.33-1.92-3.46v-8.92V73.23v-0.27L48.37,53.99z"/>
				<polygon class="st19" points="182.54,153.13 183.96,153.33 182.54,153.42 				"/>
				<path class="st17" d="M138.36,191.84l45.59,11.85c-15.26,1.27-30.66,3.4-44.71,6.04l-36.21-12.69L138.36,191.84z"/>
				<path class="st20" d="M182.54,106.64v8.92c-2.87-4.69-6.59-8.94-10.59-11.77l0.04-3.44l0.29-25.69l4.69-0.77l5.57-0.66V106.64z"
					/>
				<polygon class="st20" points="182.54,73.23 176.97,73.89 182.54,72.96 				"/>
				<path class="st18" d="M171.95,103.79c4,2.83,7.72,7.08,10.59,11.77v37.57l-11.12-1.62L171.95,103.79z"/>
				<polygon class="st21" points="48.37,53.99 182.54,72.96 176.97,73.89 171.39,74.54 48.37,57.55 				"/>
				<path class="st0" d="M175.73,318.18h-63.47L29.9,265.83c2.02-6.23,5.71-12.22,10.46-17.36c0.82-0.9,1.66-1.77,2.53-2.61
					L175.73,318.18z"/>
				<polygon class="st21" points="171.39,74.54 176.97,73.89 172.28,74.66 				"/>
				<polygon class="st21" points="182.54,153.42 48.37,161.52 48.37,158.28 171.42,151.51 182.54,153.13 				"/>
				<path class="st22" d="M169.53,98.4c-4.88-5.52-14.75-8.27-21.2-9.94c-4.05-1-8.19-1.68-12.38-2.06V72.28l33.85,4.69L169.53,98.4
					z"/>
				<path class="st23" d="M252.92,24.93c28.55,0.11,55.9-1.4,82.75-4.58L201.6,50.15L0,5.33V0h62.47
					C140.55,13.44,194.23,24.72,252.92,24.93z"/>
				<path class="st24" d="M148.33,88.46c6.45,1.67,16.32,4.42,21.2,9.94l-0.62,50.37l-32.96,1.83V86.4
					C140.14,86.78,144.28,87.46,148.33,88.46z"/>
				<path class="st0" d="M156.26,217.48l-37.77,8.72l-19.72-7.96c12.1-3.1,24.72-5.47,37.18-7.88L156.26,217.48z"/>
				<path class="st16" d="M141.89,191.32l46.31,12.03c-1.41,0.11-2.83,0.22-4.25,0.34l-45.59-11.85L141.89,191.32z"/>
				<path class="st6" d="M139.24,209.73l20.09,7.04l-3.07,0.71l-20.31-7.12C137.04,210.14,138.13,209.93,139.24,209.73z"/>
				<path class="st22" d="M133.08,71.88v14.3c-13.12-0.79-26.62,1.27-39.1,5.54l0.24-25.23L133.08,71.88z"/>
				<path class="st24" d="M133.08,86.18v64.58l-39.71,2.21l0.61-61.25C106.46,87.45,119.96,85.39,133.08,86.18z"/>
				<path class="st17" d="M135.95,210.36c-12.46,2.41-25.08,4.78-37.18,7.88l-37.34-15.08l38.02-5.59L135.95,210.36z"/>
				<path class="st5" d="M109.69,318.18l-80.21-50.97c0.13-0.46,0.27-0.92,0.42-1.38l82.36,52.35H109.69z"/>
				<path class="st0" d="M109.69,318.18H68.94c-14.04-8.37-26.54-16.87-30.46-20.34c-10.02-8.88-11.98-20.05-9-30.63L109.69,318.18z
					"/>
				<path class="st16" d="M103.03,197.04l36.21,12.69c-1.11,0.2-2.2,0.41-3.29,0.63l-36.5-12.79L103.03,197.04z"/>
				<path class="st6" d="M98.77,218.24l19.72,7.96l-2.85,0.66l-19.59-7.91C96.96,218.71,97.86,218.47,98.77,218.24z"/>
				<path class="st24" d="M91.21,92.7v60.39l-40.97,2.28v-30.62c1.77-2.95,3.85-5.7,5.35-7.69c6.95-9.09,16.3-15.77,26.72-20.58
					C85.2,95.1,88.17,93.83,91.21,92.7z"/>
				<path class="st0" d="M80.36,239.17l-17.1-7.97c10.01-5.29,21.14-9.14,32.79-12.25l19.59,7.91l-33.57,7.75
					c-0.03,0-0.05,0.01-0.08,0.02c-0.43,0.1-0.77,0.23-1.03,0.37c-1.86,1.01,0.04,2.77,0.04,2.77L80.36,239.17z"/>
				<path class="st17" d="M38.48,297.84c3.92,3.47,16.42,11.97,30.46,20.34H46.55L0,283.28v-34.81l29.48,18.74
					C26.5,277.79,28.46,288.96,38.48,297.84z"/>
				<path class="st5" d="M80.36,239.17l169.65,79.01h-2.71l-185.29-86.3c0.41-0.23,0.83-0.46,1.25-0.68L80.36,239.17z"/>
				<path class="st16" d="M96.05,218.95l-37.9-15.31l3.28-0.48l37.34,15.08C97.86,218.47,96.96,218.71,96.05,218.95z"/>
				<path class="st22" d="M55.59,117.06c-1.5,1.99-3.58,4.74-5.35,7.69V60.4l40.97,5.68V92.7c-3.04,1.13-6.01,2.4-8.9,3.78
					C71.89,101.29,62.54,107.97,55.59,117.06z"/>
				<path class="st25" d="M48.37,152.84v-24.58c0.54-1.18,1.18-2.36,1.87-3.51v30.62l40.97-2.28V92.7c0.92-0.34,1.84-0.67,2.77-0.98
					l-0.61,61.25l39.71-2.21V86.18c0.96,0.05,1.92,0.13,2.87,0.22v64.2l32.96-1.83l0.62-50.37c0.4,0.45,0.76,0.92,1.09,1.4
					l0.16-0.11c0.4,0.21,0.81,0.43,1.21,0.66l-0.04,3.44l-0.53,47.72l-123.05,6.77L48.37,152.84L48.37,152.84z"/>
				<path class="st26" d="M48.37,63.61v-6.06l123.02,16.99l0.89,0.12l-0.29,25.69c-0.4-0.23-0.81-0.45-1.21-0.66l-0.16,0.11
					c-0.33-0.48-0.69-0.95-1.09-1.4l0.27-21.43l-33.85-4.69V86.4c-0.95-0.09-1.91-0.17-2.87-0.22v-14.3l-38.86-5.39l-0.24,25.23
					c-0.93,0.31-1.85,0.64-2.77,0.98V66.08L50.24,60.4v64.35c-0.69,1.15-1.33,2.33-1.87,3.51C48.37,128.26,48.37,63.61,48.37,63.61z
					"/>
				<path class="st2" d="M48.37,152.84v5.44v3.24l134.17-8.1l1.42-0.09h0.5v31.73l-4.09,0.6l-4.23,0.62l-34.25,5.04l-3.53,0.52
					l-35.33,5.2l-3.58,0.53l-38.02,5.59l-3.28,0.48l-12.54,1.85c0-1,0-1.89,0-2.55c0-5.71,0-11.41,0-16.75c0-14.25,0-28.51,0-42.76
					c0-3.04,0-6.07,0-9.11c0-23.48,0-46.97,0-70.45c0.48-0.1,0.95-0.19,1.43-0.26h1.33v64.65V152.84z"/>
				<path class="st11" d="M45.7,23.27l-0.09,0.43c0,7.3,0,14.6,0,21.91c0,6.09,0,12.18,0,18.26c-2.39,0.52-4.78,1.4-7.13,2.56
					c0-14.7,0-29.39,0-44.09l0.13-0.57L45.7,23.27z"/>
				<path class="st12" d="M45.61,212.66c-0.99,1.63-5.12,1.9-7.13,1.94c0-2.07,0-5.84,0-8.06c0-0.25,0-0.48,0-0.68
					c0-5.84,0-11.68,0-17.15c0-14.59,0-29.19,0-43.78c0-26.17,0-52.34,0-78.5c2.35-1.16,4.74-2.04,7.13-2.56
					c0,23.48,0,46.97,0,70.45c0,3.04,0,6.07,0,9.11c0,14.25,0,28.51,0,42.76c0,5.34,0,11.04,0,16.75c0,0.66,0,1.55,0,2.55
					C45.61,208.23,45.61,211.69,45.61,212.66z"/>
				<polygon class="st17" points="44.17,318.18 0,318.18 0,285.06 				"/>
				<path class="st5" d="M44.05,244.74l134.9,73.44h-3.22L42.89,245.86C43.27,245.47,43.66,245.1,44.05,244.74z"/>
				<path class="st10" d="M38.48,22.34c0,14.7,0,29.39,0,44.09c-1.56,0.77-3.11,1.67-4.63,2.66c0-15.59,0-31.17,0-46.75l0.32-1.52
					l4.44,0.95L38.48,22.34z"/>
				<path class="st7" d="M38.75,214.87c1.07,2.72-3.61,3.03-4.9,2.24c0-2.41,0-6.5,0-8.46c0-0.48,0-0.95,0-1.43
					c0-5.45,0-10.87,0-15.98c0-14.82,0-29.64,0-44.45c0-25.9,0-51.8,0-77.7c1.52-0.99,3.07-1.89,4.63-2.66c0,26.16,0,52.33,0,78.5
					c0,14.59,0,29.19,0,43.78c0,5.47,0,11.31,0,17.15c0,0.2,0,0.43,0,0.68c0,2.22,0,5.99,0,8.06c0,0.1,0,0.19,0,0.27H38.75z"/>
				<path class="st11" d="M34.17,20.82l-0.32,1.52c0,15.58,0,31.16,0,46.75c-3.51,2.3-6.87,5.13-9.97,8.18c0-19.44,0-38.87,0-58.31
					l0.06-0.31L34.17,20.82z"/>
				<path class="st17" d="M33.85,217.11c1.29,0.79,5.97,0.48,4.9-2.24h-0.27c0-0.08,0-0.17,0-0.27c2.01-0.04,6.14-0.31,7.13-1.94
					c0-0.97,0-4.43,0-7.17l12.54-1.85l37.9,15.31c-11.65,3.11-22.78,6.96-32.79,12.25l-29.41-13.7
					C33.85,217.38,33.85,217.25,33.85,217.11z"/>
				<path class="st12" d="M33.85,218.59h-0.07c0,0.05,0,0.09,0,0.14c-0.27,2.52-7.94,3.03-9.9,0.75c0-2.53,0-6.43,0-8.35
					c0-0.82,0-1.63,0-2.44c0-5.3,0-10.55,0-15.52c0-15.28,0-30.56,0-45.84c0-23.36,0-46.71,0-70.06c3.1-3.05,6.46-5.88,9.97-8.18
					c0,25.9,0,51.8,0,77.7c0,14.81,0,29.63,0,44.45c0,5.11,0,10.53,0,15.98c0,0.48,0,0.95,0,1.43c0,1.96,0,6.05,0,8.46
					c0,0.14,0,0.27,0,0.39C33.85,217.95,33.85,218.33,33.85,218.59z"/>
				<path class="st5" d="M33.78,218.59h0.07c0-0.26,0-0.64,0-1.09l29.41,13.7c-0.42,0.22-0.84,0.45-1.25,0.68l-28.23-13.15
					C33.78,218.68,33.78,218.64,33.78,218.59z"/>
				<path class="st10" d="M23.94,18.65l-0.06,0.31c0,19.44,0,38.87,0,58.31c-3.03,2.97-5.8,6.15-8.2,9.24c0-23.2,0-46.4,0-69.6
					L23.94,18.65z"/>
				<path class="st7" d="M23.88,219.48c0,0.43,0,0.82,0,1.15h-0.09c0,2.49-6.53,1.04-8.11-0.13c0-2.56,0-6.53,0-8.49
					c0-0.7,0-1.41,0-2.12c0-5.5,0-10.97,0-16.13c0-15.54,0-31.08,0-46.61c0-20.21,0-40.43,0-60.64c2.4-3.09,5.17-6.27,8.2-9.24
					c0,23.35,0,46.7,0,70.06c0,15.28,0,30.56,0,45.84c0,4.97,0,10.22,0,15.52c0,0.81,0,1.62,0,2.44
					C23.88,213.05,23.88,216.95,23.88,219.48z"/>
				<path class="st12" d="M11.76,222.83c0-2.53,0-7.04,0-9.17c0-1.06,0-2.13,0-3.19c0-5.2,0-10.34,0-15.22c0-15.67,0-31.34,0-47.01
					c0-18.77,0-37.54,0-56.3c1.16-1.74,2.47-3.57,3.92-5.43c0,20.21,0,40.43,0,60.64c0,15.53,0,31.07,0,46.61
					c0,5.16,0,10.63,0,16.13c0,0.71,0,1.42,0,2.12c0,1.96,0,5.93,0,8.49c0,0.7,0,1.3,0,1.72h-0.05
					C14.37,223.25,13.11,223.01,11.76,222.83z"/>
				<path class="st11" d="M15.68,16.91c0,23.2,0,46.4,0,69.6c-1.45,1.86-2.76,3.69-3.92,5.43c0-25.11,0-50.21,0-75.32l0.11-0.52
					L15.68,16.91z"/>
				<path class="st7" d="M11.76,224.64l0.04,0.2c-0.74,0.5-2.14,0.58-3.54,0.42c-1.73-0.2-3.47-0.79-3.98-1.43c0-0.24,0-0.48,0-0.74
					c0-2.59,0-6,0-7.79c0-1.24,0-2.49,0-3.73c0-5.15,0-10.24,0-15.07c0-16,0-31.99,0-47.99c0-13.5,0-27,0-40.5
					c1.65-5.58,3.84-11.02,7.48-16.07c0,18.76,0,37.53,0,56.3c0,15.67,0,31.34,0,47.01c0,4.88,0,10.02,0,15.22c0,1.06,0,2.13,0,3.19
					c0,2.13,0,6.64,0,9.17c0,1,0,1.68,0,1.8C11.76,224.64,11.76,224.64,11.76,224.64z"/>
				<path class="st17" d="M11.76,222.83c1.35,0.18,2.61,0.42,3.87-0.61h0.05c0-0.42,0-1.02,0-1.72c1.58,1.17,8.11,2.62,8.11,0.13
					h0.09c0-0.33,0-0.72,0-1.15c1.96,2.28,9.63,1.77,9.9-0.75l28.23,13.15c-6.54,3.57-12.58,7.79-17.96,12.86L8.26,225.26
					c1.4,0.16,2.8,0.08,3.54-0.42l-0.04-0.2c0,0,0,0,0-0.01C11.76,224.51,11.76,223.83,11.76,222.83z"/>
				<path class="st10" d="M4.28,108.01c0-31.17,0-62.34,0-93.52l7.59,1.61l-0.11,0.52c0,25.11,0,50.21,0,75.32
					C8.12,96.99,5.93,102.43,4.28,108.01z"/>
				<path class="st17" d="M4.28,224.84l38.61,21.02c-0.87,0.84-1.71,1.71-2.53,2.61c-4.75,5.14-8.44,11.13-10.46,17.36l-29.9-19
					v-20.96h0.24c0,0.98,2.82,1.67,4.04,0.27C4.28,225.85,4.28,225.4,4.28,224.84z"/>
				<path class="st5" d="M4.28,223.83c0.51,0.64,2.25,1.23,3.98,1.43l35.79,19.48c-0.39,0.36-0.78,0.73-1.16,1.12L4.28,224.84
					C4.28,224.53,4.28,224.19,4.28,223.83z"/>
				<path class="st12" d="M4.28,224.84c0,0.56,0,1.01,0,1.3c-1.22,1.4-4.04,0.71-4.04-0.27H0V212.2v-87.38
					c1.51-5.6,2.64-11.27,4.28-16.81c0,13.5,0,27,0,40.5c0,16,0,31.99,0,47.99c0,4.83,0,9.92,0,15.07c0,1.24,0,2.49,0,3.73
					c0,1.79,0,5.2,0,7.79c0,0.26,0,0.5,0,0.74C4.28,224.19,4.28,224.53,4.28,224.84z"/>
				<path class="st11" d="M4.28,14.49c0,31.18,0,62.35,0,93.52c-1.64,5.54-2.77,11.21-4.28,16.81V13.58L4.28,14.49z"/>
				<polygon class="st5" points="0,283.28 46.55,318.18 44.17,318.18 0,285.06 				"/>
				<path class="st5" d="M0,246.83l29.9,19c-0.15,0.46-0.29,0.92-0.42,1.38L0,248.47V246.83z"/>
				<polygon class="st27" points="0,11.76 201.6,54.35 201.6,56.3 199.11,55.77 195.1,54.92 190.67,53.99 187.99,53.41 
					184.46,52.67 45.7,23.27 38.61,21.77 34.17,20.82 23.94,18.65 15.68,16.91 11.87,16.1 4.28,14.49 0,13.58 				"/>
			</g>
		</g>
	</g>
	<path class="st28" d="M347.02,282.29c-45.7-14.83-91.39-29.66-137.09-44.49c-23.89-7.75-47.78-15.51-71.66-23.26
		c-1.23-0.4-1.75,1.53-0.53,1.93c45.7,14.83,91.39,29.66,137.09,44.49c23.89,7.75,47.78,15.51,71.66,23.26
		C347.71,284.61,348.24,282.68,347.02,282.29L347.02,282.29z"/>
	<path class="st28" d="M341.02,316.04c-41.37-17.2-82.74-34.4-124.1-51.59c-39.22-16.3-78.43-32.61-117.65-48.91
		c-1.19-0.5-1.7,1.44-0.53,1.93c41.37,17.2,82.74,34.4,124.1,51.59c39.22,16.3,78.43,32.61,117.65,48.91
		C341.67,318.46,342.19,316.52,341.02,316.04L341.02,316.04z"/>
</g>
<g id="Layer_42">
	<polygon class="st2" points="263,113 441.67,115 444.67,225.33 262,197.67 	"/>
</g>
<g id="Layer_26_copy">
	<g>
		<polygon class="st2" points="252.59,59.9 251.2,60.09 203.05,66.38 202.87,92.28 202.12,194.85 202,194.85 202,199.81 
			208.51,201.74 217.51,198.73 217.52,198.73 249.71,206.85 269.28,202.57 270.22,61.22 270.24,60.33 		"/>
		<path class="st29" d="M360,267.07c6.55,0.23,12.18-0.27,18.62,1.82c6.68,2.16,11.99,6.55,17.4,10.8
			c4.17,3.27,9.16,5.15,14.23,6.48c6.43,1.68,12.23,0.87,18.75,0.96c0.16,0,0.16-0.24,0-0.25c-6.37-0.49-13.25-2.24-19.5-3.78
			c-7.07-1.74-12.05-5.66-17.96-9.53c-5.11-3.35-11.23-5.28-17.13-6.65c-4.41-1.03-10.2-1.89-14.44,0.03
			C359.9,266.97,359.94,267.07,360,267.07L360,267.07z"/>
		<path class="st29" d="M396.41,271.66c6.36,4,14.23,6.07,21.54,7.54c0.26,0.05,0.35-0.3,0.11-0.39
			c-7.11-2.84-14.83-3.31-21.46-7.46C396.39,271.22,396.21,271.53,396.41,271.66L396.41,271.66z"/>
		<path class="st29" d="M425.4,254.68c2.72,2.02,5.95,2.88,9.18,3.74c3.8,1,7.54,2.46,11.34,3.37c0.26,0.06,0.52-0.29,0.28-0.48
			c-2.44-2.02-5.71-2.69-8.74-3.42c-4.07-0.98-8.01-1.84-11.86-3.55C425.36,254.22,425.19,254.52,425.4,254.68L425.4,254.68z"/>
		<path class="st29" d="M327.96,293.13c5.04,1.45,10.09,2.79,15.04,4.54c5.65,2,10.33,5.24,15.59,7.96
			c4.35,2.25,9.3,3.27,14.04,4.34c6.09,1.38,11.51,3.51,17.29,5.81c0.26,0.1,0.48-0.29,0.27-0.47c-8.38-7.08-21.21-6.44-30.97-10.76
			c-4.99-2.21-9.46-5.15-14.64-7.01c-5.38-1.93-11.05-3.14-16.56-4.66C327.87,292.83,327.8,293.08,327.96,293.13L327.96,293.13z"/>
		<path class="st29" d="M334.45,301.67c4.08,0.71,7.61,2.74,11.5,3.99c0.18,0.06,0.29-0.21,0.13-0.3
			c-3.55-1.96-7.55-3.53-11.58-4.03C334.31,301.3,334.26,301.63,334.45,301.67L334.45,301.67z"/>
		<path class="st29" d="M131.92,273.63c14.3,6.1,24.47,18.6,37.71,26.4c7.12,4.19,15.65,6.46,23.48,8.89
			c8.72,2.71,17.16,5.99,25.8,8.91c0.39,0.13,0.59-0.43,0.27-0.64c-14.91-9.81-34.01-11.75-49.86-19.7
			c-7.19-3.6-13.28-9-19.56-13.93c-5.52-4.32-11.2-7.63-17.71-10.22C131.88,273.28,131.76,273.57,131.92,273.63L131.92,273.63z"/>
		<path class="st29" d="M156.92,279.58c3.36,4.15,7.94,6.15,12.84,7.95c6.81,2.5,13.57,4.51,19.65,8.62
			c0.17,0.12,0.36-0.14,0.22-0.28c-8.8-8.99-23.69-7.49-32.54-16.46C156.97,279.31,156.82,279.47,156.92,279.58L156.92,279.58z"/>
		<path class="st29" d="M199.92,302.79c1.07,0.31,2.14,0.64,3.21,0.95c1.09,0.32,2.17,0.87,3.29,1.03c0.26,0.04,0.52-0.27,0.28-0.48
			c-1.63-1.51-4.54-1.66-6.62-2.09C199.7,302.13,199.54,302.68,199.92,302.79L199.92,302.79z"/>
		<path class="st29" d="M141.33,287.28c1.23,0.75,2.49,1.42,3.78,2.06c1.39,0.69,2.81,1.55,4.31,1.93c0.26,0.07,0.52-0.29,0.28-0.48
			c-2.3-1.81-5.48-2.63-8.04-4.08C141.3,286.51,140.97,287.06,141.33,287.28L141.33,287.28z"/>
		<path class="st29" d="M21.94,250.6c6.65,5.09,15.18,7.87,21.11,13.89c2.49,2.53,4.41,5.51,7.01,7.96c2.35,2.2,6.6,2.76,9.35,4.22
			c0.18,0.1,0.39-0.15,0.23-0.29c-2.92-2.7-6.93-3.15-9.83-5.89c-2.94-2.78-5.01-6.29-8.07-8.99c-2.79-2.46-6.5-4.18-9.7-6.05
			c-3.24-1.89-6.48-3.77-10-5.06C21.9,250.34,21.84,250.53,21.94,250.6L21.94,250.6z"/>
		<path class="st29" d="M52.91,263.59c0.84,0.97,1.83,1.74,2.86,2.5c1.11,0.82,2.3,1.8,3.65,2.2c0.24,0.07,0.48-0.22,0.34-0.44
			c-0.65-0.99-1.65-1.56-2.62-2.2c-1.3-0.85-2.65-1.63-4.07-2.26C52.93,263.33,52.81,263.48,52.91,263.59L52.91,263.59z"/>
		<path class="st29" d="M10.91,272.66c5.71,3.51,12.33,5.02,18.11,8.42c5.37,3.15,9.28,8.25,13.49,12.7
			c7.44,7.86,18.09,17.92,28.91,20.52c0.33,0.08,0.55-0.39,0.23-0.56c-11.48-5.96-21.52-13.15-30.33-22.72
			c-3.34-3.63-6.62-7.22-10.68-10.07c-5.9-4.14-13.27-5.26-19.55-8.61C10.89,272.24,10.71,272.53,10.91,272.66L10.91,272.66z"/>
		<path class="st29" d="M50.83,292.17c2.06,1.7,4.51,3.83,7.09,4.61c0.28,0.09,0.48-0.28,0.28-0.48c-1.91-1.93-4.83-3.01-7.08-4.5
			C50.89,291.64,50.62,292,50.83,292.17L50.83,292.17z"/>
		<path class="st29" d="M137.5,311.69c2.97,0.26,4.84,2.58,7.4,3.66c0.33,0.14,0.52-0.28,0.41-0.53c-1.33-2.93-4.97-3.61-7.81-3.51
			C137.26,311.32,137.26,311.67,137.5,311.69L137.5,311.69z"/>
		<path class="st29" d="M391.39,288.89c13.93,5.67,28.36,11.46,43.06,14.77c0.22,0.05,0.3-0.26,0.09-0.33
			c-14.34-5.07-28.81-9.53-42.94-15.23C391.12,287.91,390.91,288.7,391.39,288.89L391.39,288.89z"/>
		<polygon class="st2" points="265.5,134.25 412.25,144 406.75,177.25 264.5,162 		"/>
	</g>
</g>
<g id="Layer_47">
</g>
<g id="Layer_47_copy">
</g>
<g id="Layer_26_copy_2">
	<g id="XMLID_6_">
		<g>
			<polygon class="st30" points="261.93,65.2 261.91,66.09 260.97,207.44 241.75,212.75 241.92,160.57 242.54,99.23 242.89,64.96 
				244.28,64.77 			"/>
			<polygon class="st31" points="238.85,94.62 238.97,68.86 211.98,72.01 197.24,73.73 197.22,97.03 195.2,97.15 194.56,97.15 
				194.74,71.25 242.89,64.96 242.54,99.23 239.81,99.2 238.83,99.24 238.84,97.17 			"/>
			<polygon class="st31" points="238.7,126.04 238.83,99.24 239.81,99.2 242.54,99.23 241.92,160.57 238.97,160.54 238.54,160.51 
				238.69,128.59 			"/>
			<path class="st31" d="M197.22,99.58v0.25l-0.02,25.8v2.55l-0.02,30.85l41.35,4.11l0.01-2.63l0.43,0.03l2.95,0.03l-0.35,48.81
				l-47.76-9.66l0.75-102.57h0.64l2.02-0.12L197.22,99.58L197.22,99.58z M237.5,204.67l0.73-37.33l-41.14-4.2l-0.37,33.71
				L237.5,204.67z"/>
			<polygon class="st32" points="238.97,68.86 238.85,94.62 211.98,96.18 211.98,72.01 			"/>
			<polygon class="st31" points="238.85,94.62 238.84,97.17 211.98,98.73 211.98,96.18 			"/>
			<polygon class="st33" points="238.84,97.17 238.83,99.24 211.98,100.43 211.98,98.73 			"/>
			<polygon class="st32" points="238.83,99.24 238.7,126.04 211.98,125.78 211.98,100.43 			"/>
			<polygon class="st31" points="238.7,126.04 238.69,128.59 211.98,128.33 211.98,125.78 			"/>
			<polygon class="st32" points="238.69,128.59 238.54,160.51 211.98,158.56 211.98,128.33 			"/>
			<polygon class="st33" points="238.54,160.51 238.53,163.14 197.18,159.03 211.98,158.56 			"/>
			<polygon class="st34" points="238.23,167.34 237.42,204.67 196.72,196.85 197.09,163.14 			"/>
			<polygon class="st35" points="211.98,128.33 211.98,158.56 197.18,159.03 197.2,128.18 			"/>
			<polygon class="st31" points="211.98,125.78 211.98,128.33 197.2,128.18 197.2,125.63 			"/>
			<polygon class="st35" points="211.98,100.43 211.98,125.78 197.2,125.63 197.22,99.83 			"/>
			<polygon class="st33" points="211.98,98.73 211.98,100.43 197.22,99.83 197.22,99.58 			"/>
			<polygon class="st31" points="211.98,96.18 211.98,98.73 197.22,99.58 197.22,97.03 			"/>
			<polygon class="st35" points="211.98,72.01 211.98,96.18 197.22,97.03 197.24,73.73 			"/>
			<polygon class="st31" points="200.58,201 200.5,204.04 193.67,202.92 193.81,199.72 			"/>
		</g>
	</g>
	<polygon class="st31" points="237.25,208.58 237.25,211.83 242,213.25 242.17,209.42 	"/>
</g>
<polygon class="st36" points="403.71,34.48 403.71,65.34 374.96,68.28 374.5,67.86 403.02,64.94 403.02,34.16 "/>
<path class="st37" d="M377.1,61.96v2.45l0.69-0.08v0.48l22.45-2.41v-0.6V37.95l-0.69,0.1v-0.5l-22.45,3.34V61.96z M403.02,34.16
	v30.78l-28.52,2.92l-0.12-0.11l0.58-28.99l27.97-4.64L403.02,34.16z"/>
<polygon class="st37" points="403.02,34.08 403.02,34.16 402.93,34.12 374.96,38.76 374.38,67.75 374.5,67.86 374.27,67.88 
	374.27,38.36 "/>
<path class="st37" d="M400.24,61.8v0.6l-22.45,2.41v-0.48L399.55,62v-1.83c0.27,0.53,0.48,1.08,0.59,1.62h0.1V61.8z"/>
<path class="st37" d="M400.24,37.95V61.8h-0.1c-0.11-0.54-0.32-1.09-0.59-1.62V38.05L400.24,37.95z"/>
<path class="st38" d="M394.18,56.01c0.41,0.03,0.82,0.11,1.21,0.24c1.68,0.61,3.29,2.2,4.16,3.92V62l-21.76,2.33v-3.56
	c1.1-1.52,2.75-2.57,4.55-3.31c0.45-0.18,0.91-0.35,1.37-0.5c-0.39,0.94,4.03,1.61,4.55,1.61c1.83-0.05,3.88-0.98,4.95-2.54v-0.06
	C393.53,55.97,393.86,55.98,394.18,56.01z"/>
<path class="st39" d="M399.55,38.05v22.12c-0.87-1.73-2.47-3.31-4.16-3.92c-0.39-0.13-0.8-0.21-1.21-0.24
	c-0.12-1.12-0.15-2.28-0.11-3.41c0.05-1.73,0.21-3.61-0.13-5.34c-0.22-1.12-0.64-2.17-1.43-3.08c-1.6-1.83-5.08-1.83-7.17-1.07
	c-1.38,0.5-2.84,1.16-3.38,2.59c-0.04,0.1-0.07,0.2-0.1,0.3c-0.4,1.38-0.18,2.76-0.22,4.14c-0.04,1.47,0.09,2.67,0.27,4.14
	c0.12,0.75,0.55,2.37,0.43,3.16c-1.81,0.75-3.46,1.79-4.55,3.31V41.29L399.55,38.05z"/>
<path class="st36" d="M399.55,37.55v0.5l-21.76,3.24v19.48c-0.27,0.37-0.5,0.76-0.69,1.19V40.89L399.55,37.55z"/>
<path class="st40" d="M393.93,47.27c0.34,1.73,0.19,3.61,0.13,5.34c-0.04,1.12-0.01,2.28,0.11,3.41c-0.32-0.03-0.65-0.04-0.97-0.04
	c-0.89,0-1.77,0.06-2.56-0.11c0-0.49,0-0.96,0-1.44c0.21-0.19,0.41-0.39,0.59-0.59c1.4-1.72,1.31-4.16,1.16-6.28
	c0.3-0.04,0.59-0.09,0.87-0.15L393.93,47.27z"/>
<path class="st40" d="M392.4,47.55c-1.53,0.2-3.38,0.09-4.79-0.02c-0.73-0.07-3.12-0.38-4.2-1.05c-0.3-0.19-0.5-0.4-0.53-0.64
	l-0.92-0.12c0.54-1.43,2-2.09,3.38-2.59c2.09-0.76,5.56-0.76,7.17,1.07c0.79,0.91,1.21,1.96,1.43,3.08l-0.67,0.13
	C392.99,47.46,392.71,47.51,392.4,47.55z"/>
<path class="st41" d="M390.65,55.86c0.79,0.17,1.67,0.12,2.56,0.11v0.06c-1.07,1.56-3.12,2.49-4.95,2.54
	c-0.52,0-4.94-0.67-4.55-1.61c0.75-0.24,1.51-0.44,2.25-0.61c-0.08-0.35-0.13-0.75-0.13-1.14c0.08,0.04,0.16,0.09,0.24,0.13
	c1.52,0.81,3.31,0.18,4.58-0.92C390.65,54.91,390.65,55.37,390.65,55.86z"/>
<path class="st42" d="M390.65,54.42c-1.27,1.1-3.06,1.73-4.58,0.92c-0.08-0.04-0.16-0.09-0.24-0.13c-1.32-0.77-1.97-2.13-2.23-3.63
	c-0.12-1.09-0.39-3.47-0.21-5.01l0.03-0.1c1.07,0.67,3.46,0.98,4.2,1.05c1.41,0.11,3.26,0.22,4.79,0.02
	c0.15,2.12,0.24,4.56-1.16,6.28C391.06,54.03,390.86,54.23,390.65,54.42z"/>
<path class="st40" d="M383.71,56.96c-0.47,0.15-0.92,0.32-1.37,0.5c0.12-0.8-0.32-2.41-0.43-3.16c-0.18-1.47-0.31-2.67-0.27-4.14
	c0.04-1.38-0.18-2.76,0.22-4.14c0.03-0.1,0.06-0.2,0.1-0.3l0.92,0.12c0.03,0.24,0.23,0.45,0.53,0.64l-0.03,0.1
	c-0.18,1.53,0.09,3.92,0.21,5.01c0.26,1.5,0.91,2.86,2.23,3.63c0.01,0.39,0.05,0.79,0.13,1.14
	C385.22,56.52,384.46,56.72,383.71,56.96z"/>
<path class="st36" d="M377.79,60.77v3.56l-0.69,0.08v-2.45C377.29,61.53,377.52,61.14,377.79,60.77z"/>
<path class="st43" d="M374.04,88.73c0,0.18-0.01,0.36-0.02,0.53c-0.27-0.06-0.53-0.12-0.8-0.18c0-0.23,0-0.44,0-0.66
	c-0.01-0.16-0.02-0.32-0.03-0.48c0.26,0.05,0.55,0.04,0.84,0.01C374.03,88.22,374.04,88.48,374.04,88.73z"/>
<path class="st44" d="M370.31,88.47c0,0.04,0,0.07,0,0.11c-0.21-0.07-0.43-0.15-0.64-0.24C369.89,88.39,370.1,88.42,370.31,88.47z"
	/>
<path class="st45" d="M365.73,87.72c-0.12-0.02-0.25-0.03-0.37-0.04c0.07-0.11,0.14-0.23,0.21-0.34
	C365.63,87.47,365.67,87.6,365.73,87.72z"/>
<polygon class="st37" points="356.61,105.76 356.52,105.76 356.52,105.7 "/>
<polygon class="st36" points="342.74,80.94 342.74,106.16 297.88,107 297.37,106.6 342.05,105.76 342.05,80.54 "/>
<path class="st37" d="M299.73,100.39v3.56l0.69-0.01v0.41l6.35-0.09l29.86-0.39l3.61-0.05V83.25l-0.69,0.04v-0.44l-39.82,2.5
	L299.73,100.39L299.73,100.39z M342.05,80.54v25.22l-44.68,0.83l-0.18-0.14l0.69-22.38l44.13-3.54L342.05,80.54L342.05,80.54z"/>
<polygon class="st37" points="342.01,80.54 297.88,84.08 297.19,106.46 297.19,83.68 "/>
<path class="st37" d="M339.55,97.04V83.29l0.69-0.04v20.58l-3.61,0.05v-0.03c-1.13,0-2.25-0.12-3.33-0.34l6.25-0.08L339.55,97.04
	L339.55,97.04z"/>
<path class="st46" d="M339.55,97.04v6.39l-6.25,0.08c-0.46-0.1-0.92-0.21-1.37-0.35c-1.69-0.62-5.08-0.98-6.06-2.58
	c-1.87,0.62-3.39,2.05-5.53,1.6c-1.07-0.27-2.05-0.89-3.03-1.25c-1.87,0.53-3.47,1.96-5.44,2.5c-0.69,0.17-1.38,0.29-2.08,0.39
	l-9.39,0.12v-3.17c1.82,0.61,5.67-0.1,6.03-1.35c0.22-0.66-0.85-0.79-1.96-0.95v-0.03c-0.08-3.5,4.05-0.97,6.21,0.08l0,0
	c0.42,0.73,0.88,1.32,1.89,1.44c1.43,0.18,3.39-0.44,4.54-1.16c1.34-0.89,2.59-2.41,1.25-4.01c-0.72-0.98-2.4-0.89-3.56-1.07
	c0.02,0.03,0.03,0.05,0.04,0.08c-0.53-0.07-0.83-0.57-0.67-1.15c0.27-1.25,2.5-1.15,3.47-1.07c1.9,0.32,3.31,1.55,5.04,2.2
	c0.74,0.96,1.46,1.95,2.27,2.79c1.69,1.78,5.25,2.85,7.57,1.42c2.46-1.5-1.16-4.38-2.79-3.33c-0.28-0.58,2.1-1.03,2.7-0.95
	c1.18,0.19,2.1,0.63,3.18,0.89c0.12,0.12,0.25,0.24,0.38,0.36C336.85,95.87,338.28,97.08,339.55,97.04z"/>
<path class="st47" d="M335.65,94.6c-0.52-0.5-1.01-0.97-1.54-1.35c0.46-0.15,0.68-0.89,0.9-1.28c-0.75-0.33-1.54-0.62-2.35-0.88
	l0.28-0.84c0.48,0.16,0.97,0.28,1.45,0.37c-0.82-0.46-1.17-1.68-1.17-2.56c0.04-1.38,0.67-2.23,1.78-2.98
	c-0.26-0.05-0.52-0.07-0.79-0.05l-0.08-1.39l5.42-0.34v13.75c-1.27,0.04-2.7-1.17-3.52-2.07C335.9,94.84,335.77,94.72,335.65,94.6z"
	/>
<path class="st36" d="M339.55,82.85v0.44l-5.42,0.34l-33.71,2.12v15.02c-0.29-0.09-0.52-0.22-0.69-0.38V85.35L339.55,82.85z"/>
<path class="st37" d="M336.62,103.85v0.03l-29.86,0.39c1-0.17,2.02-0.29,3.04-0.45l23.49-0.31
	C334.38,103.73,335.5,103.85,336.62,103.85z"/>
<path class="st48" d="M334.11,93.26c0.53,0.38,1.02,0.85,1.54,1.35c-1.08-0.26-2-0.7-3.18-0.89c-0.61-0.07-2.99,0.37-2.7,0.95
	c-0.02,0.01-0.04,0.02-0.06,0.03c0.03,0.01,0.07,0.01,0.09,0.02c0.57,0.11,0.87,0.55,0.53,1.13v0.01c-1.08,0.46-2.79,0.56-3.3-0.71
	c-0.69-1.81,2.39-2.54,3.88-2.75c0,0,0.01,0,0.02,0c0.19-0.01,0.38-0.02,0.57-0.03C332.56,92.37,333.37,92.73,334.11,93.26z"/>
<path class="st49" d="M331.49,92.36c-0.14,0-0.29,0.01-0.45,0.02c-0.04,0-0.08,0.01-0.12,0.02c-0.01,0-0.01,0-0.02,0
	c-0.73,0.03-1.47,0.01-2.14-0.33c-0.98-0.44-1.38-1.47-1.96-2.31l0.03-0.12c1.87,0.37,3.9,0.83,5.82,1.46
	c0.81,0.26,1.6,0.56,2.35,0.88c-0.22,0.39-0.43,1.12-0.9,1.28C333.37,92.73,332.56,92.37,331.49,92.36z"/>
<path class="st49" d="M334.21,85.02c0.27-0.02,0.54,0,0.79,0.05c-1.11,0.75-1.74,1.6-1.78,2.98c0,0.88,0.34,2.1,1.17,2.56
	c-0.49-0.09-0.97-0.21-1.45-0.37c-1.13-0.36-2.22-0.87-3.25-1.23L329.7,89C329.82,87.03,332.19,85.14,334.21,85.02z"/>
<path class="st47" d="M330.33,95.85c0.34-0.59,0.03-1.02-0.53-1.13c-0.01-0.02-0.02-0.03-0.03-0.05c1.63-1.06,5.26,1.83,2.79,3.33
	c-2.32,1.43-5.88,0.36-7.57-1.42c-0.81-0.84-1.52-1.84-2.27-2.79c-1.37-1.77-2.84-3.42-5.22-3.71c-2.31-0.27-5.61,0.09-6.68,2.5
	c-0.8,1.78,0.09,3.56,1.96,3.83c2.19,0.26,3.09-0.85,2.09-2.59c-0.01-0.03-0.03-0.05-0.04-0.08c1.16,0.18,2.85,0.09,3.56,1.07
	c1.34,1.6,0.09,3.12-1.25,4.01c-1.15,0.72-3.12,1.34-4.54,1.16c-1.01-0.12-1.46-0.71-1.89-1.44l0,0c-0.21-0.36-0.42-0.76-0.69-1.14
	c-1.51-1.96-4.72-3.47-6.86-1.34c-1.88,1.93-0.24,2.21,1.33,2.43c1.11,0.16,2.18,0.29,1.96,0.95c-0.37,1.25-4.22,1.96-6.03,1.35
	V85.75l33.71-2.12l0.08,1.39c-2.02,0.12-4.39,2.01-4.51,3.97l-0.01,0.03c1.02,0.36,2.12,0.87,3.25,1.23l-0.28,0.84
	c-1.92-0.63-3.95-1.08-5.82-1.46l-0.03,0.12c0.58,0.84,0.98,1.87,1.96,2.31c0.67,0.34,1.41,0.35,2.14,0.33
	c-1.49,0.21-4.56,0.94-3.88,2.75C327.54,96.41,329.24,96.32,330.33,95.85L330.33,95.85z"/>
<path class="st48" d="M333.3,103.51l-23.49,0.31c0.7-0.1,1.39-0.22,2.08-0.39c1.96-0.53,3.56-1.96,5.44-2.5
	c0.98,0.36,1.96,0.98,3.03,1.25c2.14,0.44,3.66-0.98,5.53-1.6c0.98,1.6,4.36,1.96,6.06,2.58
	C332.38,103.29,332.83,103.41,333.3,103.51z"/>
<path class="st47" d="M331.04,92.38c0.16-0.01,0.31-0.02,0.45-0.02c-0.19,0.01-0.38,0.02-0.57,0.03
	C330.96,92.39,331,92.38,331.04,92.38z"/>
<path class="st47" d="M329.76,94.67c0.01,0.02,0.02,0.03,0.03,0.05c-0.03-0.01-0.06-0.01-0.09-0.02
	C329.72,94.69,329.74,94.67,329.76,94.67z"/>
<path class="st48" d="M317.5,90.06c2.37,0.29,3.84,1.94,5.22,3.71c-1.73-0.65-3.14-1.88-5.04-2.2c-0.98-0.09-3.21-0.18-3.47,1.07
	c-0.17,0.58,0.13,1.08,0.67,1.15c1,1.74,0.1,2.85-2.09,2.59c-1.87-0.27-2.76-2.05-1.96-3.83C311.89,90.16,315.19,89.8,317.5,90.06z"
	/>
<path class="st48" d="M310.02,97.37c0.27,0.39,0.47,0.78,0.69,1.14c-2.16-1.05-6.29-3.57-6.21-0.08v0.03
	c-1.57-0.22-3.21-0.5-1.33-2.43C305.3,93.9,308.5,95.41,310.02,97.37z"/>
<path class="st37" d="M300.42,103.94l9.39-0.12c-1.02,0.16-2.04,0.28-3.04,0.45l-6.35,0.09V103.94z"/>
<path class="st36" d="M300.42,100.77v3.17l-0.69,0.01v-3.56C299.89,100.55,300.13,100.68,300.42,100.77z"/>
<polygon class="st37" points="297.37,106.6 297.19,106.6 297.19,106.46 "/>
<g id="Layer_28">
</g>
<g id="Layer_28_copy">
</g>
<g id="Layer_37">
	<path class="st50" d="M198.34,251.81c-0.27-0.24-0.94-0.57-1.91-0.97c-2.1-0.84-26.65-11.02-31.3-12.34
		c-5.64-0.26-12.19-4.35-15.75-3.88c-0.09-0.03-11.62,9.04-18.41,9.42c-13.56,0.75-33.86,1.91-55.65,3.16
		c-0.17-0.05-0.34-0.09-0.49-0.14c-0.8-0.23-1.48-0.43-1.99-0.58c-7.59-0.41-25.28-2.76-30.21-2.12c1-0.25,26.25,25.75,26.25,25.75
		l10.5,0.25c1.23,0.66,3.17-0.58,4.02-0.11c1.03,0.61,1.79,1.24,2.65,1.84c2.16,0.5,5.41,0.76,8.5,0.92
		c2.61,0.1,8.13,0.32,10.48,0.15c3.29-0.13,6.6-0.54,8.49-0.72c15.55-1.43,36.11-3.01,49.98-5.28c4.51-0.67,3.56-1.09,2.28-2.38
		l-0.06-0.07c-1.04-0.9-3.16-2-4.48-2.86c-0.33-0.2-0.64-0.4-0.95-0.6c4.26-0.61,24.6-4.38,33.72-7.14c2.42-0.73,4.06-1.39,4.38-1.9
		C198.48,252.07,198.48,251.93,198.34,251.81z"/>
</g>
<g id="Layer_32_copy_3">
	<g>
		<g id="XMLID_42_">
			<g>
				<path class="st51" d="M39.14,183.11c1.51-1.23,4.68-3.83,6.59-4.23c-0.1,0.03-0.2,0.07-0.28,0.1c-1.51,0.58-2.75,1.47-3.19,2.89
					c1.8,1.78,3.32,4.43,4.6,7.51c1.44,3.44,2.56,7.42,3.43,11.32c-0.38-0.09-0.74-0.16-1.06-0.23c-0.69-0.12-1.25-0.18-1.63-0.14
					l-7.68,1.4c-0.6-2.2-1.85-5.71-2.29-7.26c-0.62-1.99-1.44-3.92-2.15-5.82C35.85,186.54,37.43,184.64,39.14,183.11z"/>
				<path class="st52" d="M62.81,217.16c-2.75-2.66-26.1-14.85-26.1-14.85l3.22-0.58l7.68-1.4c0.38-0.03,0.94,0.02,1.63,0.14
					c0.32,0.06,0.68,0.14,1.06,0.23c1.12,0.25,2.47,0.63,3.99,1.12c0.71,0.22,1.46,0.47,2.24,0.73c0.69,0.24,1.39,0.49,2.11,0.75
					c0.77,0.27,1.54,0.57,2.32,0.86c3.94,1.51,8.05,3.31,11.48,5.1c0.8,0.42,1.57,0.83,2.3,1.24c2.01,1.15,3.62,2.26,4.59,3.25
					l-16.32,3.7C62.95,217.33,62.89,217.23,62.81,217.16z"/>
				<path class="st53" d="M103.58,178.65c-12.54-2.67-39.75,8.83-47.04,23.9c-0.78-0.26-1.53-0.51-2.24-0.73
					c-1.77-9.55-4.93-21.38-8.84-22.84c0.09-0.03,0.19-0.07,0.28-0.1c2.45-0.86,5.5-1,7.12-1.23c13.29-1.94,30.2-5.32,44.16-4.43
					C101.41,173.32,101.69,174.8,103.58,178.65z"/>
				<path class="st54" d="M153.4,204.16c0.41,3,0.5,7.31,0.43,11.99c-1.2,7.92-5.74,16.78-11.01,21.75c0.45-9.4,1.07-23.91,0.6-31.3
					L153.4,204.16z"/>
				<path class="st52" d="M153.82,216.14c-0.13,9.29-0.92,20.08-1.17,25.29c-3.16,2.76-6.83,3.77-10.17,3.84
					c0.05-1.53,0.19-4.16,0.33-7.37C148.08,232.92,152.62,224.06,153.82,216.14z"/>
				<path class="st52" d="M118.69,195.72c7-2.65,20.04-0.5,26.06,1.14l0.1-0.45c3.15,1.04,5.63,2.18,6.92,3.4l-9.54,1.97
					C139.76,200.16,127.69,197.52,118.69,195.72z"/>
				<path class="st55" d="M142.24,201.78l9.54-1.97c0.37,0.36,0.66,0.72,0.82,1.08c0.34,0.74,0.6,1.86,0.8,3.26l-9.99,2.44
					c-0.14-2.41-0.4-4.07-0.83-4.55C142.5,201.96,142.39,201.87,142.24,201.78z"/>
				<path class="st51" d="M142.47,245.58c-1.76-1.6-4.39-2.22-6.34-3.41c1.02-6.15,0.85-13.48,1.03-20.15
					c0.92-0.53,1.45-1.01,1.56-1.44c0.07-2.14,0.64-7.19,0.02-8.63c0.04-0.02,0.08-0.03,0.12-0.04c-3.97-3.54-10.98-5.08-16.26-6.3
					c-3.75-1.15-7.75-1.65-11.58-1.85c-0.09-3.36-1.08-6.71-2.19-9.94c1.15,0.21,5.08,0.94,9.87,1.91c9,1.79,21.06,4.44,23.55,6.06
					c0.15,0.09,0.26,0.18,0.34,0.26c0.43,0.48,0.69,2.14,0.83,4.55c0.47,7.39-0.15,21.9-0.6,31.3c-0.14,3.21-0.27,5.84-0.33,7.37
					C142.48,245.38,142.48,245.48,142.47,245.58z"/>
				<path class="st53" d="M81.81,223.46c17.36-2.57,52.16-9.45,56.93-11.52c0.61,1.44,0.04,6.49-0.02,8.63
					c-0.11,0.44-0.65,0.92-1.56,1.44c-7.45,4.25-39.81,10.85-55.01,12.37c0.01-3.58-0.05-7.06-0.26-10.14
					C81.85,223.98,81.83,223.72,81.81,223.46z"/>
				<path class="st56" d="M122.6,205.6c5.28,1.22,12.29,2.76,16.26,6.3c-0.04,0.01-0.08,0.02-0.12,0.04
					c-4.77,2.07-39.57,8.95-56.93,11.52c-0.11-1.39-0.25-2.68-0.43-3.84c-0.39-2.64-0.98-4.62-1.82-5.62
					c-0.06-0.08-0.15-0.16-0.23-0.25c-0.97-0.98-2.58-2.1-4.59-3.25c-0.72-0.41-1.5-0.82-2.3-1.24c4.09-0.79,7.9-1.41,10.23-1.92
					c8.11-1.83,16.17-3.39,24.31-3.71c0.02,0,0.03,0,0.05,0c1.28,0.01,2.61,0.06,3.97,0.12C114.84,203.95,118.84,204.45,122.6,205.6
					z"/>
				<path class="st57" d="M115.07,235.88c4.62,1.14,7.66,5.81,9.62,10.25c-10.53,2.99-26.37,7.4-43.39,12.11
					c0.11-2.57,0.29-6.09,0.47-10.06c0.11-2.6,0.22-5.39,0.28-8.2c0.66-0.18,1.32-0.35,1.98-0.51
					C92.81,237.07,105.96,233.09,115.07,235.88z"/>
				<path class="st56" d="M144.85,196.41l-0.1,0.45c-6.03-1.64-19.06-3.78-26.06-1.14c-4.79-0.97-8.72-1.71-9.87-1.91
					c-0.45-1.29-0.92-2.57-1.36-3.83C111.57,190.03,132.99,192.5,144.85,196.41z"/>
				<path class="st58" d="M107.47,189.98c0.44,1.26,0.91,2.54,1.36,3.83c1.1,3.24,2.1,6.58,2.19,9.94
					c-1.36-0.07-2.69-0.11-3.97-0.12c-0.02,0-0.03,0-0.05,0c-8.15,0.32-16.21,1.88-24.31,3.71c-2.33,0.51-6.14,1.14-10.23,1.92
					c-3.43-1.78-7.55-3.59-11.48-5.1c-0.78-0.29-1.55-0.59-2.32-0.86c-0.72-0.26-1.42-0.51-2.11-0.75
					c7.29-15.07,34.5-26.57,47.04-23.9c0.04,0.07,0.08,0.14,0.11,0.21c1.24,2.77,2.18,6.44,3.13,9.19
					C107.02,188.69,107.24,189.34,107.47,189.98z"/>
				<path class="st59" d="M137.15,222.02c-0.17,6.66-0.01,14-1.03,20.15c-0.02,0.21-0.07,0.43-0.11,0.64
					c-2.09,0.66-6.04,1.82-11.32,3.32c-1.97-4.44-5.01-9.11-9.62-10.25c-9.11-2.79-22.26,1.19-31.03,3.58
					c-0.66,0.16-1.32,0.34-1.98,0.51c0.02-1.14,0.04-2.28,0.07-3.42c0-0.72,0-1.43,0.01-2.15
					C97.34,232.87,129.71,226.27,137.15,222.02z"/>
				<path class="st54" d="M81.88,224.25c0.21,3.07,0.27,6.56,0.26,10.14c-0.01,0.72-0.01,1.43-0.01,2.15
					c-0.02,1.15-0.04,2.29-0.07,3.42c-0.07,2.81-0.18,5.6-0.28,8.2c-0.18,3.97-0.36,7.49-0.47,10.06c-0.01,0.18-0.02,0.37-0.03,0.54
					c-0.03,0.91-0.07,1.67-0.08,2.26c-4.13,3.86-12.42,5.11-17.04,5.22c0.1-5.74,0.91-31.29-0.1-43.16l17.32-3.47
					c0.17,1.16,0.32,2.45,0.43,3.84C81.83,223.72,81.85,223.98,81.88,224.25z"/>
				<path class="st55" d="M64.06,223.09c-0.23-2.79-0.57-4.81-1.04-5.64l16.32-3.7c0.08,0.09,0.16,0.18,0.23,0.25
					c0.83,1.01,1.42,2.99,1.82,5.62L64.06,223.09z"/>
				<path class="st60" d="M63.02,217.45c0.47,0.83,0.81,2.85,1.04,5.64c1.01,11.87,0.2,37.42,0.1,43.16
					c-0.56-0.42-2.17-1.94-4.35-4.06c-0.67-5.94-4.24-13.54-6.38-18.5c-4.39-9.6-10.38-15.45-17-22.12l0.28-19.25
					c0,0,23.35,12.2,26.1,14.85C62.89,217.23,62.95,217.33,63.02,217.45z"/>
				<path class="st51" d="M36.43,221.56c6.62,6.67,12.61,12.52,17,22.12c2.13,4.97,10.06,16.62,10.73,22.56
					c-8.26-5.6-26.73-17.85-28.67-19.06L36.43,221.56z"/>
				<path class="st60" d="M45.45,178.98c3.91,1.45,7.07,13.29,8.84,22.84c-1.52-0.48-2.88-0.86-3.99-1.12
					c-0.88-3.9-1.99-7.88-3.43-11.32c-1.28-3.08-2.8-5.73-4.6-7.51C42.71,180.45,43.95,179.56,45.45,178.98z"/>
			</g>
		</g>
	</g>
</g>
<g id="Layer_3_copy_2">
</g>
<g id="Layer_31">
	<g id="XMLID_22_">
	</g>
</g>
<g id="Layer_38" class="st61">
</g>
<g id="Layer_38_copy">
</g>
<g id="Layer_7_copy">
	<g>
		<path class="st30" d="M427.15,114.77l-22.43-1.66v36.39h-0.01v22.86v5.83v0.01h0.05l-0.05,1.73l-1.29,44.75
			c0,0,16.69-29.76,26.96-34.54l0.09-15.28l-24.87,3.43l24.87-3.63v-59.67L427.15,114.77z"/>
		<polygon class="st62" points="430.47,174.86 430.47,174.66 405.6,178.29 		"/>
		<polygon class="st33" points="400,177.72 400,171.94 269.12,160.25 242.28,161.71 243.08,161.79 312.35,168.82 316.44,169.24 		
			"/>
		<polygon class="st63" points="404.76,178.2 404.71,178.2 404.71,179.93 		"/>
		<path class="st64" d="M403.42,224.68l-0.6,20.52l-0.14,4.12L430,237.5l0.38-47.36C420.11,194.92,403.42,224.68,403.42,224.68z"/>
		<polygon class="st65" points="403.42,224.68 402.67,249.33 402.68,249.32 402.82,245.2 		"/>
		<path class="st31" d="M403.42,224.68l1.29-44.75v-1.73v-0.01v-5.83V149.5h0.01v-36.39l-148.71,1.37l-12.48,0.12l-1.43,0.01v25.57
			l157.9,9.05v22.71v5.78l-83.56-8.48l-4.09-0.42L242,161.75l-0.25,27.67l-0.16,23.76l4.9,0.99l0.03-0.16l0.1-3.63l9.76,1.87
			l8.36,1.5L395,241v6.67l7.67,2l0.01-0.35l-0.01,0.01L403.42,224.68z M244.06,137.8l-0.37,0.03v-0.05l-0.15-0.01v-21.79h12.47h4.66
			h139.41v28.24v1.48H400L244.06,137.8z M397.38,183.51l-0.36,12.32l-81.04-11.23l0.29-9.92L397.38,183.51z M247.88,167.26
			l64.27,6.98l-0.28,9.79l-64.22-8.9L247.88,167.26z M395.9,234.54l-80.92-15.53l-4.11-0.54l0.01-0.25l-64.13-12.3l0.49-16.58
			l0.33-11.48l64.21,9.23l-0.28,9.55l-0.62,21.58l4.1,0.79l0.63-21.62l0.28-9.7l81.03,11.64l-0.63,21.76L395.9,234.54z"/>
		<path class="st33" d="M400.08,144.22c-0.03,0-0.05,0-0.08,0v1.48h0.08V144.22z"/>
		<path class="st32" d="M249.09,137.33l11.63-0.91c0,0,91.08,5.12,139.28,7.8c0.03,0,0.05,0,0.08,0v-28.24H260.67v20.29
			L249.09,137.33z"/>
		<path class="st66" d="M260.72,136.42l-11.63,0.91l-5.03,0.47L400,145.7v-1.48C351.8,141.54,260.72,136.42,260.72,136.42z"/>
		<path class="st67" d="M397.02,195.83l0.36-12.32l-81.11-8.83l-0.29,9.92L397.02,195.83z M318.79,177.05l75.35,8.67l-0.19,6.5
			l-75.32-9.62L318.79,177.05z"/>
		<path class="st67" d="M315.89,187.69l-0.28,9.7c0.86,0.16,1.72,0.32,2.58,0.48c0.02,0.01,0.03,0.01,0.06,0.02l0.13-6.81l75.29,11
			l-0.52,17.67c1.09,0.45,2.14,0.89,3.14,1.34l0.63-21.76L315.89,187.69z"/>
		<path class="st68" d="M392.85,230.18l-74.96-13.6l0.36-18.69c-0.03-0.01-0.04-0.01-0.06-0.02c-0.86-0.16-1.72-0.32-2.58-0.48
			l-0.63,21.62l80.92,15.53l0.39-13.45c-1-0.45-2.05-0.89-3.14-1.34L392.85,230.18z"/>
		<polygon class="st34" points="394.14,185.72 318.79,177.05 318.63,182.6 393.95,192.22 		"/>
		<path class="st34" d="M393.67,202.08l-75.29-11l-0.13,6.81c12.22,2.59,52.19,12.48,74.9,21.86L393.67,202.08z"/>
		<path class="st31" d="M392.85,230.18l0.3-10.43c-22.71-9.38-62.68-19.27-74.9-21.86l-0.36,18.69L392.85,230.18z"/>
		<polygon class="st69" points="310.87,218.47 314.98,219.01 310.88,218.22 		"/>
		<path class="st67" d="M312.15,174.24l-64.27-6.98l-0.23,7.87l64.22,8.9L312.15,174.24z M308.98,181L250,173.78l0.13-4.21
			l58.99,6.57L308.98,181z"/>
		<path class="st67" d="M250.44,181.56l58.28,8.19l-0.18,6.36c1,0.17,1.98,0.35,2.96,0.53l0.28-9.55l-64.21-9.23l-0.33,11.48
			c0.98,0.01,1.98,0.04,2.97,0.07L250.44,181.56z"/>
		<path class="st68" d="M308.54,196.11L308,214.58l-58.2-10.88l0.41-14.29c-0.99-0.03-1.99-0.06-2.97-0.07l-0.49,16.58l64.13,12.3
			l0.62-21.58C310.52,196.46,309.54,196.28,308.54,196.11z"/>
		<polygon class="st34" points="250,173.78 308.98,181 309.12,176.14 250.13,169.57 		"/>
		<path class="st34" d="M250.44,181.56l-0.23,7.85c19.22,0.58,39.44,3.36,58.33,6.7l0.18-6.36L250.44,181.56z"/>
		<path class="st31" d="M249.8,203.7l58.2,10.88l0.54-18.47c-18.89-3.34-39.11-6.12-58.33-6.7L249.8,203.7z"/>
		<polygon class="st62" points="243.69,137.76 249.09,137.33 260.67,136.27 260.67,115.98 243.85,116.08 		"/>
		<polygon class="st35" points="243.69,137.76 243.69,137.78 243.69,137.83 244.06,137.8 249.09,137.33 		"/>
		<polygon class="st33" points="243.54,137.77 243.69,137.78 243.69,137.76 		"/>
	</g>
</g>
<g id="Layer_43">
	<path class="st70" d="M412.89,260.74c-0.45-0.08-1.13-0.16-2-0.23c2.12-1.29,5.32-2.17,6.12-3.54c0.22-0.36,0.26-0.76,0.08-1.21
		c-0.46-1.13-3.09-2.9-6.81-4.3c-0.01-0.02-0.03-0.03-0.06-0.04s-0.07-0.02-0.11-0.03c-8.67-2.06-67.57-13.57-74.65-13.65
		c-1.19-0.02-2.39,0.05-3.59,0.19c0.02-0.52-0.96-1-2.33-1.42c-2.26-0.69-5.56-1.23-7.22-1.57c-13.12-2.68-29.5-6.38-44.3-8.25
		c-4.57-0.65-5.38-0.22-8.66,0.73c-0.06,0.02-0.12,0.04-0.18,0.05c-2.23,0.7-4.47,1.73-6.41,2.47c-0.43,0.17-0.88,0.35-1.34,0.52
		c-4.27-0.62-27.33-3.14-40.99-3.72c-3.63-0.15-6.59-0.17-8.35,0.02c-0.51,0.06-0.92,0.13-1.22,0.22c-0.61,0.19-1.26,0.5-1.95,0.92
		c-1.46,0.9-3.04,2.27-4.57,3.78c-3.05,3-5.95,6.59-7.47,8.3c2.33,1.37,5.78,2.27,9.22,2.8c-0.04,0.03-0.07,0.07-0.09,0.1
		c2.38-0.24,5.32-0.04,7.76-0.12c-0.04,0.07-0.08,0.15-0.11,0.22c1.94,0.54,5.64,1.52,10.6,2.82c10.85,2.84,27.72,7.21,45.49,11.8
		c0.1,0.03,0.2,0.05,0.3,0.08c0.94-0.02,2.02-0.07,2.71-0.09c-0.21,0.21-0.42,0.42-0.62,0.62c32.96,8.52,68.32,17.63,72.18,18.75
		l0.11-0.04c1.06,0.35,2.32,0.73,3.71,0.99c-0.34,0.36-0.63,0.67-0.87,0.91c3.28,2.26,12.58,4.22,18.02,5.08
		c0.83-0.07,3.39-0.38,6.89-0.84c11.94-1.54,34.88-4.65,37.69-4.79l7.3-7.17l7.82-7.68L412.89,260.74z"/>
</g>
<g id="Layer_43_copy">
	<g id="XMLID_62_">
		<g>
			<path class="st51" d="M403.58,227.53l-0.13,19.85c-2.37,1.29-19.95,16.59-29.17,24.36c0.96-6.54,5.47-14.83,8.18-20.25
				C388.01,241.01,395.41,234.71,403.58,227.53z"/>
			<path class="st60" d="M403.72,206.28l-0.14,21.25c-8.17,7.18-15.57,13.48-21.12,23.96c-2.7,5.42-7.22,13.71-8.18,20.25
				c-2.7,2.28-4.69,3.91-5.37,4.36c0.02-6.34-0.3-34.57,1.22-47.64c0.35-3.07,0.81-5.29,1.4-6.2c0.08-0.13,0.17-0.24,0.26-0.31
				C375.18,219.09,403.72,206.28,403.72,206.28z"/>
			<path class="st53" d="M380.09,182.18c0.78,1.16-3.15,15.68-5.73,25.47c-5.92,1.93-12.21,4.33-16.82,6.61
				c-2.69-0.62-5.64-1.24-8.75-1.86c8.7-8.21-2.87-16.32-10.93-20.75c-10.54-5.92-31.09-11.44-44.27-9.14
				c1.42-2.72,3.08-5.06,5.03-6.61c0.94-0.75,1.94-1.32,3.01-1.67c6.35-2.18,68.73,5.79,78.24,7.87
				C379.95,182.12,380.02,182.15,380.09,182.18z"/>
			<path class="st53" d="M380,182.12c0.04,0.01,0.06,0.03,0.09,0.07c-0.07-0.03-0.14-0.07-0.21-0.09
				C379.92,182.1,379.96,182.11,380,182.12z"/>
			<path class="st51" d="M388.63,203.91c-2.59,0.36-6.79,1.42-11.45,2.86l-0.09-0.31c2.74-5.45,8.06-9.9,13.84-13.2
				C391.42,196.85,389.37,200.07,388.63,203.91z"/>
			<path class="st60" d="M374.36,207.66c2.58-9.79,6.51-24.32,5.73-25.47c4.53,2.12,8.42,5.54,9.83,8.12c0.56,1.02,0.87,2,1,2.95
				c-5.77,3.3-11.1,7.75-13.84,13.2l0.09,0.31C376.25,207.05,375.31,207.35,374.36,207.66z"/>
			<path class="st55" d="M351.91,217.72l19.63,4.53c-0.59,0.91-1.04,3.14-1.4,6.2l-20.85-4.31c0.54-2.89,1.3-5.07,2.33-6.15
				C351.7,217.9,351.81,217.81,351.91,217.72z"/>
			<path class="st52" d="M403.72,206.28c0,0-28.54,12.8-31.93,15.66c-0.09,0.07-0.17,0.18-0.26,0.31l-19.63-4.53
				c1.2-1.06,3.17-2.24,5.64-3.46c4.61-2.27,10.9-4.68,16.82-6.61c0.95-0.31,1.9-0.61,2.82-0.89c4.66-1.44,8.86-2.5,11.45-2.86
				c0.84-0.11,1.51-0.16,1.98-0.12L403.72,206.28z"/>
			<path class="st54" d="M348.07,255.64c-0.1-4.03-0.16-8.46-0.12-12.83c0.05-4.78,0.21-9.51,0.62-13.57
				c0.18-1.86,0.42-3.57,0.71-5.1l20.85,4.31c-1.52,13.07-1.19,41.31-1.22,47.64c-5.58-0.25-15.57-1.86-20.47-6.24
				c0-0.66-0.02-1.5-0.04-2.5C348.33,264.49,348.18,260.33,348.07,255.64z"/>
			<path class="st57" d="M348.07,255.64c0.11,4.7,0.26,8.85,0.33,11.72c-1.46-0.15-2.91-0.63-4.17-1.14l-0.06,0.14
				c-4.41-1.41-43.81-11.55-80.56-21.05c0-0.57,0-1.14,0-1.72c0-4.64,0.1-9.8,0.15-14.46c13.59,3.85,27.26,8.87,40.47,13.43
				C318.46,247.77,333.93,250.34,348.07,255.64z"/>
			<path class="st58" d="M337.86,191.65c8.06,4.43,19.63,12.54,10.93,20.75c-21.83-4.34-51.59-8.32-56.26-8.23
				c-1.86,0.05-3.65,0.31-5.39,0.7c0.74-5.4,2.74-15.22,6.46-22.37C306.77,180.21,327.32,185.73,337.86,191.65z"/>
			<path class="st59" d="M263.81,223.45c8.84,3.65,63.55,16.33,84.15,19.35c-0.04,4.38,0.02,8.81,0.12,12.83
				c-14.14-5.3-29.61-7.86-43.82-13.08c-13.21-4.56-26.88-9.58-40.47-13.43C263.8,227.12,263.81,225.2,263.81,223.45z"/>
			<path class="st53" d="M263.4,213.17c28.9,7.05,61.35,11.94,85.17,16.07c-0.4,4.06-0.57,8.78-0.62,13.57
				c-20.59-3.03-75.31-15.7-84.15-19.35c-0.7-0.29-1.12-0.52-1.21-0.7c-0.06-0.12-0.1-0.27-0.15-0.44
				c-0.43-1.63-0.43-4.95-0.19-6.68C262.46,214.66,262.86,213.85,263.4,213.17z"/>
			<path class="st60" d="M284.56,197.68c1.76-8.75,5.87-23.03,10.74-24.44c1.59,0.55,2.88,1.38,3.32,2.66
				c-1.94,1.55-3.61,3.89-5.03,6.61c-3.72,7.15-5.72,16.96-6.46,22.37c-0.68,0.15-1.37,0.33-2.04,0.51
				c-0.36-0.32-0.83-0.65-1.41-0.96C283.51,204,283.84,201.32,284.56,197.68z"/>
			<path class="st53" d="M295.3,173.24c-4.87,1.42-8.98,15.69-10.74,24.44c-3.75-15.29-36.18-28.41-50.65-26.16
				c2.07-3.4,2.41-4.71,7.03-4.69c14.77-0.46,32.57,2.98,46.56,5.04C289.29,172.13,292.69,172.33,295.3,173.24z"/>
			<path class="st56" d="M292.53,204.17c4.67-0.09,34.44,3.89,56.26,8.23c3.11,0.62,6.05,1.24,8.75,1.86
				c-2.46,1.22-4.44,2.4-5.64,3.46c-0.1,0.09-0.2,0.18-0.3,0.27c-1.03,1.08-1.79,3.26-2.33,6.15c-0.3,1.52-0.53,3.24-0.71,5.1
				c-23.81-4.13-56.27-9.02-85.17-16.07c0.02-0.02,0.03-0.03,0.04-0.05c2.34-2.86,7.34-3.37,11.44-4.61c3.5-0.9,6.8-2.18,10.21-3.13
				c0.68-0.18,1.36-0.36,2.04-0.51C288.88,204.48,290.67,204.22,292.53,204.17z"/>
			<path class="st58" d="M284.56,197.68c-0.73,3.63-1.06,6.32-0.87,6.74c-0.08-0.05-0.16-0.09-0.25-0.14
				c-6.08-3.15-21.9-5.27-28.04-6.58c-8.53-1.82-17.01-3.42-25.61-3.9c-0.02,0-0.04,0-0.06,0c-1.36-0.02-2.77-0.02-4.2,0.01
				c0.17-3.01,1.29-5.98,2.53-8.84c0.5-1.15,1.01-2.28,1.5-3.39c0.25-0.58,0.5-1.15,0.73-1.72c1.07-2.44,2.14-5.7,3.5-8.15
				c0.04-0.06,0.08-0.13,0.12-0.19C248.39,169.27,280.82,182.39,284.56,197.68z"/>
			<path class="st56" d="M283.44,204.28c-7.88,2.69-16.59,4.15-23.55,8.42c-16.31-2.16-58.42-10.12-63.8-12.25
				c-0.04-0.02-0.09-0.03-0.12-0.05c4.26-3.07,11.7-4.27,17.3-5.24c3.98-0.93,8.23-1.28,12.27-1.36c1.43-0.03,2.84-0.03,4.2-0.01
				c0.02,0,0.04,0,0.06,0c8.6,0.48,17.08,2.08,25.61,3.9C261.54,199.01,277.37,201.13,283.44,204.28z"/>
			<path class="st71" d="M285.1,205.38c-3.41,0.95-6.71,2.24-10.21,3.13c-4.1,1.24-9.1,1.75-11.44,4.61
				c-0.97-0.09-2.17-0.24-3.56-0.42c6.96-4.28,15.67-5.73,23.55-8.42c0.08,0.04,0.17,0.09,0.25,0.14
				C284.26,204.73,284.74,205.06,285.1,205.38z"/>
			<path class="st60" d="M263.78,229.13c-0.05,4.66-0.15,9.82-0.15,14.46c-0.58,0.28-1.51,0.75-2.32,1.12
				c-0.11-0.03-0.22-0.06-0.33-0.09c-0.04-5.19-0.08-10.86-0.12-16.3C261.83,228.58,262.8,228.85,263.78,229.13z"/>
			<path class="st71" d="M260.81,222.35c0.65,0.01,1.19,0,1.64-0.03c0.04,0.17,0.09,0.31,0.15,0.44c0.1,0.17,0.51,0.4,1.21,0.7
				c0.01,1.75,0,3.67-0.02,5.68c-0.98-0.28-1.95-0.55-2.93-0.81c-0.01-2-0.03-3.98-0.04-5.88L260.81,222.35z"/>
			<path class="st57" d="M260.85,228.32c0.04,5.44,0.09,11.11,0.12,16.3c-19.82-5.12-38.63-10.01-50.76-13.23
				c2.17-3.93,5.48-8.03,10.38-8.94c9.68-2.27,23.49,1.61,32.7,3.96C255.81,227,258.33,227.64,260.85,228.32z"/>
			<path class="st59" d="M260.81,222.44c0.01,1.9,0.03,3.88,0.04,5.88c-2.52-0.68-5.04-1.32-7.56-1.91
				c-9.21-2.35-23.02-6.24-32.7-3.96c-4.9,0.91-8.21,5.01-10.38,8.94c-5.55-1.47-9.69-2.6-11.89-3.25
				c-0.04-0.19-0.08-0.39-0.11-0.58c-0.95-5.52-0.62-12.08-0.66-18.05c8.45,4.33,47.88,11.85,61.58,12.75
				c0.61,0.04,1.17,0.06,1.68,0.08V222.44z"/>
			<path class="st71" d="M259.89,212.71c1.39,0.18,2.59,0.33,3.56,0.42c-0.02,0.02-0.03,0.03-0.04,0.05
				c-0.54,0.68-0.94,1.49-1.14,2.47c-0.24,1.74-0.25,5.05,0.19,6.68c-0.44,0.03-0.99,0.04-1.64,0.03c-0.5-0.02-1.06-0.04-1.68-0.08
				v-0.05c-1.32-2.74-1.35-6.5-0.11-9.2l0.23,0.1C259.47,212.97,259.67,212.84,259.89,212.71z"/>
			<path class="st53" d="M259.89,212.71c-0.22,0.13-0.42,0.26-0.63,0.4l-0.23-0.1c-1.24,2.7-1.21,6.47,0.11,9.2v0.05
				c-13.69-0.9-53.13-8.42-61.58-12.75c-0.96-0.49-1.52-0.93-1.62-1.33c-0.02-1.92-0.52-6.44,0.15-7.72
				C201.47,202.58,243.58,210.54,259.89,212.71z"/>
			<path class="st52" d="M217.61,186.43c-9.55,1.39-22.35,3.46-25.01,4.85l-10.03-1.99c1.39-1.06,4.03-2.02,7.39-2.88l0.1,0.4
				C196.45,185.49,210.26,183.89,217.61,186.43z"/>
			<path class="st56" d="M189.95,186.41c12.61-3.22,35.28-4.9,39.62-4.84c-0.49,1.11-1.01,2.24-1.5,3.39
				c-1.22,0.16-5.38,0.71-10.46,1.46c-7.34-2.54-21.16-0.94-27.55,0.38L189.95,186.41z"/>
			<path class="st51" d="M217.61,186.43c5.08-0.75,9.24-1.31,10.46-1.46c-1.24,2.86-2.35,5.84-2.53,8.84
				c-4.04,0.08-8.29,0.43-12.27,1.36c-5.61,0.97-13.04,2.17-17.3,5.24c0.04,0.01,0.08,0.03,0.12,0.05c-0.67,1.28-0.18,5.8-0.15,7.72
				c0.1,0.4,0.67,0.84,1.62,1.33c0.04,5.97-0.28,12.53,0.66,18.05c-2.09,1.02-4.87,1.52-6.77,2.9c0-0.09-0.01-0.18,0-0.27
				c-0.03-1.37-0.11-3.72-0.2-6.61c-0.27-8.43-0.63-21.42,0.01-28.03c0.21-2.15,0.52-3.62,0.98-4.05c0.08-0.08,0.21-0.16,0.36-0.23
				C195.25,189.89,208.06,187.83,217.61,186.43z"/>
			<path class="st55" d="M182.57,189.29l10.03,1.99c-0.16,0.08-0.28,0.15-0.36,0.23c-0.45,0.42-0.77,1.9-0.98,4.05l-10.49-2.42
				c0.23-1.25,0.53-2.24,0.91-2.9C181.86,189.91,182.17,189.6,182.57,189.29z"/>
			<path class="st52" d="M191.25,223.58c0.09,2.88,0.17,5.23,0.2,6.61c-3.53-0.14-7.38-1.14-10.66-3.68
				c-0.17-4.66-0.77-14.35-0.72-22.65C181.18,210.97,185.79,219.01,191.25,223.58z"/>
			<path class="st54" d="M180.07,203.85c0.02-4.2,0.21-8.05,0.7-10.72l10.49,2.42c-0.64,6.61-0.28,19.6-0.01,28.03
				C185.79,219.01,181.18,210.97,180.07,203.85z"/>
		</g>
	</g>
</g>
<g id="Layer_31_copy">
	<g id="XMLID_26_">
	</g>
</g>
<g id="Layer_44" class="st61">
	<path class="st70" d="M293.33,296.9h-0.03c4.37,3.62-10.87,8-38.41,10.49c-32.25,2.94-69.12,2.2-82.35-1.65
		c-1.15-0.34-2.09-0.68-2.8-1.04c-0.41-0.25-0.84-0.51-1.26-0.79c-2.39-1.6-4.65-3.55-4.77-4.16c-0.68-3.38,14-7.16,38.67-9.4
		c2.71-0.24,5.44-0.47,8.21-0.66c-2.43-1.71-6.01-4.18-8.49-5.93c-0.46-0.03-0.99-0.2-1.46-0.42c-0.54-0.25-1.03-0.59-1.33-0.85
		h0.07c-0.15-0.11-0.21-0.22-0.17-0.32c-0.16-0.06-0.33-0.13-0.5-0.19c-6.09-1.05-17.51-1.44-24.38-2.82
		c0.44-0.69,9.83-1.96,10.26-2.23c-3.76-2.27-5.57-9.06-9.93-10.6c0,0,2.9,2.45,6.33,2.83c3.25,0.37,9.43,6.62,13.98,8.18
		c-0.01-0.06,0-0.11-0.01-0.17c-0.1-1.5-0.33-2.95-0.54-4.4c-0.21-1.5-0.39-3-0.33-4.57l-0.06-0.04c1.06-0.63,3.62-1.03,6.08-0.65
		l0.04,0.01c1.07,2.22,2.17,6.23,2.88,9.41c1.36-0.72,3.59-6.71,4.13-6.77c0.29-0.04,6-1.83,6-1.83c-3.3,1.84-5.5,9.5-7.97,13.28
		c-0.03,0.05-0.12,0.06-0.18,0.09c0.35,0.09,0.67,0.21,0.93,0.37c0.66,0.5,1.13,1.13,0.75,1.28c2.81,2.02,5.6,4.03,8.41,6.04
		c28.37-1.7,57.48-0.68,68.92,2.67C286.81,292.88,291.09,295.08,293.33,296.9z"/>
</g>
<g id="Layer_44_copy">
	<g>
		<path class="st72" d="M190.08,256.9c0,0.4-0.01,0.77-0.01,1.12c0.65,0.15,1.43,0.3,2.23,0.37c1.25,0.14,2.53,0.14,3.38-0.11
			c0-0.33,0-0.67,0-1c0-3.65,0-7.29,0-10.94c-1.77-0.05-3.56-0.12-5.34-0.19C190.3,249.26,190.13,253.73,190.08,256.9z"/>
		<path class="st73" d="M192.3,258.39c-0.79-0.07-1.58-0.22-2.23-0.37c0-0.35,0.01-0.72,0.01-1.12c-0.46,0.08-0.78,0.41-0.95,0.83
			c-0.2,0.47-0.24,1.07-0.15,1.55l0.07-0.01c0,0.2,0.11,0.39,0.3,0.56c0.53,0.48,1.7,0.84,2.95,0.99c1.2,0.14,2.49,0.09,3.39-0.23
			c0.26-0.1,0.48-0.21,0.67-0.36c0.24-0.18,0.41-0.41,0.46-0.69c-0.04-0.9-0.48-2.01-1.12-2.25c0,0.33,0,0.67,0,1
			C194.83,258.53,193.55,258.53,192.3,258.39z"/>
		<path class="st72" d="M189.35,259.82c-0.08,0.12-0.16,0.24-0.25,0.36c-2.25,3.12-4.95,6.4-7.69,9.62c-0.01,0-0.01,0-0.01,0
			c-2.77,3.28-5.59,6.48-7.99,9.42c0,0,2.42,0.09,5.57-0.8c2.97-0.86,4.68-1.73,4.68-1.73c2.59-2.99,5.81-5.31,8.4-8.3
			c0.08,0.1,0.16,0.19,0.24,0.29c0-2.62,0-5.25,0-7.87C191.04,260.66,189.88,260.3,189.35,259.82z"/>
		<path class="st74" d="M195.68,260.58c-0.9,0.33-2.19,0.37-3.39,0.23c0,2.62,0,5.25,0,7.87c2.16,2.58,4.1,5.08,6.06,7.58
			c2.04,2.59,4.12,5.18,6.54,7.86v0.08c2.1,1.01,5.49,1.53,7.59,0.7l0.03-0.02c-2.19-3.88-7.05-10.82-11.09-16.34
			c-2.47-3.38-4.65-6.22-5.74-7.52C195.68,260.88,195.68,260.73,195.68,260.58z"/>
		<path class="st75" d="M195.68,261.03c1.09,1.3,3.27,4.13,5.74,7.52c2.57,1.14,4.9,2.1,5.57,2.16c0.37,0.04,4.75-1.66,6.42-2.42
			l0.04-0.05c-6.36-2.93-11.15-5.28-16.76-7.87c-0.11-0.05-0.22-0.1-0.34-0.15c-0.18,0.15-0.41,0.26-0.67,0.36
			C195.68,260.73,195.68,260.88,195.68,261.03z"/>
		<path class="st75" d="M189.09,260.18c-5.03,2.22-9.25,3.21-14.63,6.04c1.51,1.15,6.05,3.15,6.93,3.58c0,0,0,0,0.01,0
			C184.14,266.58,186.85,263.3,189.09,260.18z"/>
		<path class="st30" d="M269.29,228.11h-0.03c0.13,1.11-0.41,2.23-1.66,3.32c-8.57,7.5-47.47,11.29-86.91,8.48
			c-33.52-2.39-56.62-8.79-57.54-15.26c-0.18,2.9,0.31,6.4,1.1,7.47c4.36,5.84,26.01,11.32,56.19,13.47
			c3.31,0.23,6.62,0.43,9.9,0.57c1.78,0.08,3.57,0.15,5.34,0.19c33.36,0.96,63.44-2.78,70.8-9.31
			C268.28,235.45,269.59,231.38,269.29,228.11z"/>
		<path class="st76" d="M180.69,239.91c39.43,2.81,78.34-0.98,86.91-8.48c1.25-1.09,1.78-2.21,1.66-3.32
			c-0.72-6.5-23.88-12.96-57.55-15.35c-39.44-2.82-78.35,0.98-86.91,8.48c-0.75,0.66-1.24,1.31-1.47,1.97
			c-0.08,0.45-0.14,0.94-0.17,1.44C124.07,231.12,147.17,237.52,180.69,239.91z"/>
	</g>
</g>
<g id="Layer_16">
	<g class="st77">
		<g id="XMLID_20_">
			<g>
				<path class="st78" d="M249.53,222.66l-34.5,10.76l-22.54-6.63l-43.84-12.89c0,0,20.85-2.06,35.02-2.06s27.25,1,27.25,1
					L249.53,222.66z"/>
				<path class="st78" d="M208.8,235.48l-17.72,5.27c0,0-4,0-18.83-1.33s-40.75-6-47.92-12.42c-3.51-3.15,1.58-7,4.33-8.08
					c3.78-1.49,14.86-4.01,14.86-4.01L208.8,235.48z"/>
			</g>
		</g>
	</g>
	<g id="Layer_17">
	</g>
</g>
<g id="Layer_29">
	<g id="XMLID_11_">
		<g>
			<polygon class="st79" points="250.63,136.64 260.77,136.65 259.55,137.34 247.79,137.46 			"/>
			<polygon class="st80" points="245.51,118.71 250.63,136.64 247.79,137.46 242.85,120.13 			"/>
			<polygon class="st81" points="255.47,118.89 260.77,136.65 250.63,136.64 245.51,118.71 			"/>
		</g>
	</g>
	<g id="XMLID_18_">
		<g>
			<polygon class="st79" points="255.87,137.15 266.02,137.16 264.79,137.85 253.04,137.96 			"/>
			<polygon class="st80" points="250.75,119.22 255.87,137.15 253.04,137.96 248.09,120.64 			"/>
			<polygon class="st82" points="260.71,119.4 266.02,137.16 255.87,137.15 250.75,119.22 			"/>
		</g>
	</g>
</g>
<g id="XMLID_19_">
	<g>
		<polygon class="st79" points="270.51,136.47 268.4,137.66 258.78,137.8 262.9,136.61 		"/>
		<path class="st83" d="M258.37,119.36l4.53,17.25l-4.12,1.19c0,0-4.29-16.75-4.41-17.04L258.37,119.36z"/>
		<polygon class="st84" points="266.12,119.74 270.52,136.47 270.51,136.47 262.9,136.61 258.37,119.36 		"/>
	</g>
</g>
<g id="XMLID_21_">
	<g>
		<polygon class="st79" points="277.92,137.13 275.79,138.28 266.17,138.22 270.31,137.12 		"/>
		<path class="st85" d="M266.14,119.77l4.17,17.34l-4.15,1.1c0,0-3.94-16.83-4.06-17.13L266.14,119.77z"/>
		<polygon class="st59" points="273.88,120.31 277.93,137.13 277.92,137.13 270.31,137.12 266.14,119.77 		"/>
	</g>
</g>
<g id="XMLID_52_">
	<g>
		<polygon class="st79" points="258.6,161.18 256.45,162.29 246.83,162.04 251,161.02 		"/>
		<path class="st83" d="M247.16,143.6l3.83,17.42l-4.17,1.02c0,0-3.61-16.91-3.72-17.2L247.16,143.6z"/>
		<polygon class="st84" points="254.88,144.29 258.61,161.18 258.6,161.18 251,161.02 247.16,143.6 		"/>
	</g>
</g>
<g id="XMLID_51_">
	<g>
		<polygon class="st79" points="265.98,162.14 263.81,163.2 254.2,162.75 258.38,161.82 		"/>
		<path class="st85" d="M254.91,144.32l3.48,17.5l-4.19,0.93c0,0-3.26-16.98-3.37-17.27L254.91,144.32z"/>
		<polygon class="st59" points="262.62,145.17 266,162.14 265.98,162.14 258.38,161.82 254.91,144.32 		"/>
	</g>
</g>
<g>
	<g id="XMLID_46_">
		<g>
			<polygon class="st79" points="294.12,165.32 304.07,165.65 302.81,166.32 291.38,166.04 			"/>
			<polygon class="st86" points="289.93,147.13 294.12,165.32 291.38,166.04 287.36,148.57 			"/>
			<polygon class="st87" points="299.61,147.26 304.07,165.65 294.12,165.32 289.93,147.13 			"/>
		</g>
	</g>
	<g id="XMLID_45_">
		<g>
			<polygon class="st79" points="299.18,166 309.34,166.35 308.06,167.02 296.39,166.73 			"/>
			<polygon class="st80" points="294.96,147.62 299.18,166 296.39,166.73 292.33,149.08 			"/>
			<polygon class="st82" points="304.84,147.77 309.34,166.35 299.18,166 294.96,147.62 			"/>
		</g>
	</g>
	<g id="XMLID_44_">
		<g>
			<polygon class="st79" points="314.01,165.79 311.77,166.96 302.03,166.76 306.21,165.68 			"/>
			<path class="st83" d="M302.48,147.74l3.73,17.95l-4.18,1.08c0,0-3.48-17.26-3.59-17.56L302.48,147.74z"/>
			<polygon class="st84" points="310.35,148.12 314.02,165.79 314.01,165.79 306.21,165.68 302.48,147.74 			"/>
		</g>
	</g>
	<g id="XMLID_14_">
		<g>
			<polygon class="st79" points="321.82,166.74 319.48,167.88 309.44,167.45 313.78,166.46 			"/>
			<path class="st88" d="M310.38,148.15l3.4,18.31l-4.33,1c0,0-3.17-17.6-3.27-17.91L310.38,148.15z"/>
			<polygon class="st89" points="318.49,148.71 321.83,166.75 321.82,166.74 313.78,166.46 310.38,148.15 			"/>
		</g>
	</g>
</g>
<g id="XMLID_35_">
	<g>
		<polygon class="st90" points="206.77,124.85 216.73,124.79 215.5,125.5 204.06,125.69 		"/>
		<polygon class="st91" points="201.86,106.85 206.77,124.85 204.06,125.69 199.35,108.39 		"/>
		<polygon class="st92" points="211.53,106.59 216.73,124.79 206.77,124.85 201.86,106.85 		"/>
	</g>
</g>
<g id="XMLID_34_">
	<g>
		<polygon class="st90" points="211.88,124.91 222.04,124.85 220.79,125.57 209.11,125.75 		"/>
		<polygon class="st80" points="206.91,106.72 211.88,124.91 209.11,125.75 204.35,108.28 		"/>
		<polygon class="st81" points="216.79,106.47 222.04,124.85 211.88,124.91 206.91,106.72 		"/>
	</g>
</g>
<g id="XMLID_15_">
	<g>
		<polygon class="st90" points="226.69,124.34 224.49,125.6 214.75,125.79 218.88,124.55 		"/>
		<path class="st93" d="M214.43,106.76l4.45,17.78l-4.13,1.24c0,0-4.17-17.1-4.29-17.4L214.43,106.76z"/>
		<polygon class="st94" points="222.32,106.82 226.7,124.34 226.69,124.34 218.88,124.55 214.43,106.76 		"/>
	</g>
</g>
<g id="XMLID_1_">
	<g>
		<polygon class="st90" points="234.52,124.68 232.23,125.91 222.19,125.89 226.48,124.72 		"/>
		<path class="st95" d="M222.34,106.56l4.13,18.16l-4.29,1.17c0,0-3.87-17.46-3.99-17.77L222.34,106.56z"/>
		<polygon class="st96" points="230.47,106.79 234.54,124.68 234.52,124.68 226.48,124.72 222.34,106.56 		"/>
	</g>
</g>
<g id="XMLID_61_">
	<g>
		<polygon class="st90" points="204.81,158.72 214.74,159.41 213.46,160.03 202.05,159.35 		"/>
		<polygon class="st91" points="201.28,140.4 204.81,158.72 202.05,159.35 198.65,141.75 		"/>
		<polygon class="st92" points="210.94,140.88 214.74,159.41 204.81,158.72 201.28,140.4 		"/>
	</g>
</g>
<g id="XMLID_60_">
	<g>
		<polygon class="st90" points="209.9,159.16 220.04,159.88 218.73,160.5 207.08,159.79 		"/>
		<polygon class="st80" points="206.33,140.65 209.9,159.16 207.08,159.79 203.65,142.01 		"/>
		<polygon class="st81" points="216.2,141.15 220.04,159.88 209.9,159.16 206.33,140.65 		"/>
	</g>
</g>
<g id="XMLID_59_">
	<g>
		<polygon class="st90" points="224.71,159.72 222.42,160.81 212.69,160.26 216.91,159.34 		"/>
		<path class="st93" d="M213.82,141.27l3.09,18.07l-4.22,0.93c0,0-2.86-17.37-2.96-17.68L213.82,141.27z"/>
		<polygon class="st94" points="221.68,141.93 224.72,159.72 224.71,159.72 216.91,159.34 213.82,141.27 		"/>
	</g>
</g>
<g id="XMLID_58_">
	<g>
		<polygon class="st90" points="232.5,160.66 230.11,161.71 220.1,160.92 224.47,160.08 		"/>
		<path class="st95" d="M221.72,141.66l2.75,18.42l-4.37,0.84c0,0-2.53-17.71-2.63-18.02L221.72,141.66z"/>
		<polygon class="st96" points="229.81,142.51 232.51,160.66 232.5,160.66 224.47,160.08 221.72,141.66 		"/>
	</g>
</g>
<g id="XMLID_56_">
	<g>
		<polygon class="st90" points="322.66,168.17 332.57,169.06 331.28,169.66 319.88,168.74 		"/>
		<polygon class="st91" points="319.49,149.78 322.66,168.17 319.88,168.74 316.84,151.08 		"/>
		<polygon class="st92" points="329.14,150.45 332.57,169.06 322.66,168.17 319.49,149.78 		"/>
	</g>
</g>
<g id="Layer_16_copy">
	<g id="Layer_17_copy">
	</g>
	<g>
		<g id="XMLID_29_">
		</g>
	</g>
</g>
<g id="Layer_45">
</g>
<g id="Layer_45_copy_2">
</g>
<g id="Layer_45_copy">
	<g>
		<path class="st70" d="M293.33,305.67l0.35,0.03l-0.2,0.03C293.42,305.7,293.37,305.68,293.33,305.67z"/>
		<path class="st70" d="M333.44,307.78c1.08,0.4,2.25,0.82,3.45,1.26c7.75,2.8,17.48,6.21,25.95,8.95
			c-0.03,0.19-5.55,0.19-8.03,0.19c-17.94-0.79-34.84-1.71-37.28-2.21c-0.09-0.02-0.17-0.03-0.22-0.05
			c-3.24-1.05-7.79-2.59-12.44-4.22c-11.49-0.39-23.63-1.12-31.54-1.56c0,0,0.04,0,0.09-0.01c-0.99-0.4-1.77-0.8-2.33-1.04
			l1.41-0.21c-1.34-0.57-1.55-0.71-1.49-0.72c0.16-0.03,0.33-0.06,0.53-0.09l-14.66-4.21c0,0-0.23-1.54,0.81-1.62
			c1.04-0.09,2.25,0.06,2.25,0.06l15.31,5.09c3.34-0.63,7.67-1.48,11.11-2.13c0.97-0.18,1.86-0.35,2.64-0.48l0.44-14.6l2.19-1.38
			l2,14.62c0.94,0.01,0.12-0.05,0.12-0.05s1.74,0.72,4.12,1.7c6.59,0.53,16.83,1.34,26.23,2.03l-4.03-8.24l3.12-0.25l7.56,8.97
			c0.6,0.04,1.22,0.09,1.8,0.13C332.85,307.74,333.15,307.76,333.44,307.78z M293.33,305.67c0.04,0.02,0.1,0.04,0.15,0.06l0.2-0.03
			L293.33,305.67z"/>
	</g>
</g>
<g id="Layer_45_copy_3">
	<g>
		<path class="st51" d="M299.91,241.68c4.35-2.74,19.28-8.61,33.09-11.83c-3.32,10.27-6.75,23.06-9.36,33.58l-7.7,3.64l-28.18,13.32
			l-0.26-0.08c2.48-11.4,8.21-28.7,11.17-37.55C298.76,242.5,299.19,242.13,299.91,241.68z"/>
		<path class="st60" d="M325,228.18c1.64-0.91,7.7,1.07,8,1.67c-13.81,3.22-28.74,9.09-33.09,11.83l-6.51-2.17
			C295,237.47,309.5,231.8,325,228.18z"/>
		<path class="st97" d="M321.79,268.47c-1.81,0.78-3.76,1.66-5.78,2.58l-0.07-3.98l7.7-3.64c-0.4,1.64-0.79,3.22-1.14,4.73
			C322.27,268.26,322.03,268.36,321.79,268.47z"/>
		<path class="st97" d="M320.29,268.47l3.07,30.44c0,0,0.02,1.42-1.36,1.42c-1.37,0-2.14-1.42-2.14-1.42l-4.89-27.6
			C316.83,270.3,318.62,269.33,320.29,268.47z"/>
		<path class="st98" d="M293.11,281.99c-0.63,3.86-1.09,6.68-1.09,6.68s-0.33,1.27-1.7,1.14c-1.37-0.13-1.79-1.47-1.79-1.47
			s0.14-1.68,0.34-4.25C289.94,283.56,291.39,282.84,293.11,281.99z"/>
		<path class="st97" d="M293.11,281.99c-1.72,0.85-3.17,1.57-4.24,2.1c-1.3,0.65-2.04,1.02-2.04,1.02
			c-0.08-0.02-0.16-0.05-0.24-0.08l0.04-0.12c0.2-1.31,0.47-2.78,0.82-4.37l0.31-0.15l28.18-13.32l0.07,3.98
			C308.05,274.68,298.99,279.09,293.11,281.99z"/>
		<path class="st97" d="M290.41,283.98l2.39,31.44c0,0-0.01,1.43-1.39,1.43c-1.37,0-2.11-1.43-2.11-1.43l-5.13-33.85
			c2.47,1,4.58,1.82,5.99,2.31C290.24,283.93,290.33,283.96,290.41,283.98z"/>
		<path class="st97" d="M264.65,276.53l-4.38,26.64c0,0-0.33,1.27-1.7,1.14c-1.37-0.13-1.79-1.47-1.79-1.47l2.26-28.43
			C260.46,274.91,262.41,275.66,264.65,276.53z"/>
		<path class="st56" d="M256.75,266.12c8.13-2.62,20.05-6.74,31.47-9.31c-1.44,5.33-2.85,10.91-3.96,15.87
			C276.83,268.55,256.75,266.12,256.75,266.12z"/>
		<path class="st53" d="M288.22,256.81c1.79-6.61,3.64-12.85,5.05-17.08c0.02-0.07,0.07-0.14,0.13-0.22l6.51,2.17
			c-0.72,0.45-1.15,0.82-1.24,1.08c-2.96,8.85-8.69,26.15-11.17,37.55l-31.12-9.81c0.14-1,0.19-2.69,0.5-4.38
			c0,0,19.96,2.43,27.38,6.56C285.37,267.72,286.78,262.14,288.22,256.81z"/>
		<path class="st99" d="M287.45,280.54c-0.35,1.59-0.62,3.06-0.82,4.37l-0.04,0.12c-1.34-0.44-3.34-1.18-5.67-2.08
			c-4.89-1.88-11.28-4.47-16.27-6.42c-2.24-0.87-4.19-1.62-5.61-2.12c-0.29-0.1-0.55-0.19-0.79-0.27c-0.09-0.03-0.16-0.63,0.22-3.13
			l29.03,9.3C287.48,280.39,287.46,280.47,287.45,280.54z"/>
	</g>
</g>
<g id="Layer_14">
</g>
<g id="Layer_51">
</g>
<g id="Layer_51_copy">
</g>
<g id="Layer_13_copy">
	<g>
		<g id="XMLID_57_">
		</g>
	</g>
</g>
<g id="Layer_13_copy_2">
</g>
<g id="Layer_40">
</g>
<g id="Layer_40_copy">
</g>
</svg>
