<svg fill="#000" xmlns="http://www.w3.org/2000/svg" xmlns:xlink="http://www.w3.org/1999/xlink" viewBox="0 0 100 100" enable-background="new 0 0 100 100"><g><g><path d="M85.774 67.693c-3.098-10.841-17.553-23.748-22.2-34.589-1.38-2.601-3.248-7.922-3.613-10.842-.517-4.13 1.238-9.499 2.064-10.325 1.549-1.548 8.262-5.162 8.777-6.195.245-.49-1.048-1.329-1.549-1.549-1.539-.673-5.163.0-6.712-.258C56.863 1.096 52.733.58 49.12 2.128c-5.679 2.582-6.711 9.292-6.711 11.874.0 2.328-.131 6.999-.517 9.292-.156.927-.666 2.75-1.032 3.615-1.033 3.614-3.615 7.228-5.68 9.809-1.486 1.859-13.939 16.005-16.004 20.135-1.854 3.593-6.711 11.874-4.646 14.971 2.106.302 2.581-6.711 12.927-14.971 5.141-4.646 5.141-6.194 6.045-9.293-.904 15.489 1.521 23.777 2.968 31.493.774 4.13.808 5.611.0 7.228-2.324 4.646-6.454 4.646-7.486 6.454 1.549 2.322 9.83-.971 12.907.0.0 2.839 6.195 2.839 8.776 3.354.532.208 1.033.517 1.548 1.033.517.0.517-.517 1.549-.517 1.033.0 1.033.646 2.065.646.517.0.302-.645 1.033-.645.517.0 1.032.258 1.549.258.517-.258.517-.774.517-1.29.0-.204-.358-.665.0-.517.421.175 1.291 1.001 1.549 1.032.258-.031.774-.79 1.032-1.032.259-.273 1.549.513 2.064.517.517-.52.0-1.032.516-1.548.518-.518 1.55.514 2.066.516.516-.518.516-1.549.0-2.066-.517-.517-5.164-2.065-7.745-2.581-.717-.485 3.82-9.533 4.646-11.874 3.099-8.777 3.099-26.329 3.099-26.329 1.032 3.098 5.306 6.3 7.227 8.26 2.893 2.95 9.809 13.422 11.357 11.873C85.258 71.308 86.06 68.694 85.774 67.693zM63.574 67.693c-.516 6.195-5.678 23.232-8.775 20.651-1.122-.936-.517-3.614-1.549-8.26-.517 3.613-.517 7.743-2.065 9.292-1.486 1.486-6.636-.215-8.26-1.549-3.222-2.647-5.736-11.343-6.196-15.488-1.032-9.292 3.099-17.036 3.615-19.101.751-3.005-.517-9.294-.775-11.875-.396-3.963 1.808-11.357 3.727-15.487 1.02-2.194 1.179-8.777 2.695-9.293 1.797-.611 3.729 4.466 6.743 4.13 4.646-.516 4.646-4.13 5.55-4.13.129.516-.137 5.438.129 7.227.667 4.484 4.936 12.567 5.679 17.037C65.192 47.47 64.132 61.005 63.574 67.693z"/></g><g><path d="M-71.226 71.693c-3.098-10.841-17.553-23.748-22.2-34.589-1.38-2.601-3.248-7.922-3.613-10.842-.517-4.13 1.238-9.499 2.064-10.325 1.549-1.548 8.262-5.162 8.777-6.195.245-.49-1.048-1.329-1.549-1.549-1.539-.673-5.163.0-6.712-.258-5.679-2.839-9.809-3.355-13.422-1.807-5.679 2.582-6.711 9.292-6.711 11.874.0 2.328-.131 6.999-.517 9.292-.156.927-.666 2.75-1.032 3.615-1.033 3.614-3.615 7.228-5.68 9.809-1.486 1.859-13.939 16.005-16.004 20.135-1.854 3.593-6.711 11.874-4.646 14.971 2.106.302 2.581-6.711 12.927-14.971 5.141-4.646 5.141-6.194 6.045-9.294-.904 15.489 1.521 23.777 2.968 31.493.774 4.13.808 5.611.0 7.228-2.324 4.646-6.454 4.646-7.486 6.454 1.549 2.322 9.83-.971 12.907.0.0 2.839 6.195 2.839 8.776 3.354.532.208 1.033.517 1.548 1.033.517.0.517-.517 1.549-.517 1.033.0 1.033.646 2.065.646.517.0.302-.645 1.033-.645.517.0 1.032.258 1.549.258.517-.258.517-.774.517-1.29.0-.204-.358-.665.0-.517.421.175 1.291 1.001 1.549 1.032.258-.031.774-.79 1.032-1.032.259-.273 1.549.513 2.064.517.517-.52.0-1.032.516-1.548.518-.518 1.55.514 2.066.516.516-.518.516-1.549.0-2.066-.517-.517-5.164-2.065-7.745-2.581-.717-.485 3.82-9.533 4.646-11.874 3.099-8.777 3.099-26.329 3.099-26.329 1.032 3.098 5.306 6.3 7.227 8.26 2.893 2.95 9.809 13.422 11.357 11.873C-71.742 75.308-70.94 72.694-71.226 71.693zM-93.426 71.693c-.516 6.195-5.678 23.232-8.775 20.651-1.122-.936-.517-3.614-1.549-8.26-.517 3.613-.517 7.743-2.065 9.292-1.486 1.486-6.636-.215-8.26-1.549-3.222-2.647-5.736-11.343-6.196-15.488-1.032-9.292 3.099-17.036 3.615-19.101.751-3.005-.517-9.294-.775-11.875-.396-3.963 1.808-11.357 3.727-15.487 1.02-2.194 1.179-8.777 2.695-9.293 1.797-.611 3.729 4.466 6.743 4.13 4.646-.516 4.646-4.13 5.55-4.13.129.516-.137 5.438.129 7.227.667 4.484 4.936 12.567 5.679 17.037C-91.808 51.471-92.868 65.005-93.426 71.693z"/><path fill="#000" d="M-98.588 27.811c-.266-1.79.0-6.711-.129-7.227-.904.0-.904 3.614-5.55 4.13-3.015.336-4.946-4.741-6.743-4.13-1.517.516-1.676 7.099-2.695 9.293-1.919 4.13-4.123 11.524-3.727 15.487.259 2.581 1.526 8.87.775 11.875-.517 2.064-4.647 9.809-3.615 19.101.46 4.146 2.974 12.841 6.196 15.488 1.624 1.334 6.774 3.035 8.26 1.549 1.549-1.549 1.549-5.679 2.065-9.292 1.032 4.646.427 7.324 1.549 8.26 3.098 2.581 8.26-14.456 8.775-20.651.558-6.688 1.618-20.223.517-26.846C-93.652 40.377-97.921 32.294-98.588 27.811z"/></g></g></svg>