<svg  fill="#000" xmlns="http://www.w3.org/2000/svg" xmlns:xlink="http://www.w3.org/1999/xlink" viewBox="0 0 100 100" enable-background="new 0 0 100 100"><g><path fill="#000" d="M87.027 39.359c-.934-.869-.698-1.575-2.353-3.184-.801-.777-1.638-3.433-2.353-4.29-1.011-1.212-1.182-5.45-4.705-8.303-4.164-3.372-10.104-2.097-11.486-1.938-1.898.219-5.77 3.659-6.366 5.952-.638 2.455-2.231 5.837-2.491 8.718-2.906-2.768-24.967-9.927-29.477-10.518-.731-.096-1.132.063-2.352-2.491-1.229-2.574-2.076-2.629-3.183-2.768-1.107-.138-1.125-1.36-2.353-1.107-.441.092-.513 2.605-.565 3.565-1.305-1.306-5.92-3.265-7.568-3.741-2.447-.707-3.997-.676-3.629.819.247 1.004-.52 1.829-1.539 1.182-3.694-2.347-3.792-2.262-4.136.39-.219 1.698 1.715 9.223 3.045 10.518 1.126 1.097 1.514 3.755 2.344 5.97.831 2.213.424 5.24.839 9.253.415 4.014 4.451 9.044 5.512 10.928 1.007 1.786 1.652 5.256 2.87 7.135 5.977 9.213 35.624 15.29 46.835 15.704 11.209.415 25.456-2.222 24.632-14.53-.583-8.726-11.717-16.105-13.284-17.438-1.487-1.263-.88-5.425.363-5.137 2.262.522 1.393-1.653 4.089-.173 3.426 1.878 6.003 5.393 14.23 4.619.628-.06.386.897 1.937.276.483-.193 1.661-1.155 1.661-2.906C97.545 44.222 89.634 41.786 87.027 39.359zM78.266 33.437c-.043 2.049.553 3.662-.14 5.046-.692 1.384-1.054 1.671-3.139 2.26-.218 1.011.057 1.388.741 2.034.625.59 1.599.463 1.087.734-1.162.617-6.361-.692-8.471-.692-3.459.0-.261 4.398 2.983 7.181s5.712 9.15 5.874 11.086c.766 9.125-5.874 15.711-13.496 16.991-14.083 2.362-41.945-8.352-45.149-13.11-1.254-1.862-2.75-5.481-3.609-7.221-.78-1.58-5.245-6.728-5.522-11.709-.276-4.983.158-5.972-.525-7.738-1.087-2.813-1.551-5.751-2.813-7.189-1.063-1.21-2.785-8.219-2.785-9.326.0-1.107-.002-1.71 3.104.336 1.503.99 2.703-.898 2.57-1.499-.658-2.977 8.11 1.883 11.052 3.481.009-1.133-.207-4.23.44-3.807.462.303 1.555 1.377 2.762 1.349 1.208-.028 1.184 2.828 2.809 4.376.496.472 17.331 3.837 30.696 10.807-.063 3.006 1.63 9.562 1.982 11.448.402 2.154 1.425 6.374-.768 7.93-1.443 1.022-2.993 1.503-3.775 1.854-1.52.682.222.418 2.625-.383 1.91-.638 3.644-1.791 3.518-4.756-.139-3.304-1.403-9.405-1.937-11.625-.75-3.125-.428-4.403-.139-6.228.412-2.589 1.901-5.586 2.214-7.767.164-1.151 3.433-4.61 5.68-4.989 3.979-.674 8.87.189 10.104.958 2.814 1.752 4.604 5.865 5.391 8.74.296 1.089.83 2.505.0 2.505C80.8 34.516 79.096 33.847 78.266 33.437zM84.043 39.578c-.128.769-2.121.143-2.367-.447C81.356 38.364 84.17 38.812 84.043 39.578z"/><path fill="#000" d="M69.463 29.165c-.87-.129-1.437.184-1.811.923.073.924.857 1.889 1.588 1.922.942.042 1.319-.448 2.088-.592C70.959 30.472 70.46 29.312 69.463 29.165z"/></g></svg>