<svg  fill="#000" xmlns="http://www.w3.org/2000/svg" xmlns:xlink="http://www.w3.org/1999/xlink" viewBox="0 0 100 100" enable-background="new 0 0 100 100"><g><path d="M90.806 42.953c.121-1.332-.837-2.625-1.824-3.308.835-.835 2.492-2.835.911-5.47-1.938-3.228-4.216-2.81-5.127-2.659-.313-.616.591-.914.35-1.64 3.486-.372 2.731-2.295 2.005-3.955-.726-1.66-2.546-3.179-3.823-3.312.063-1.267-.621-2.914-1.722-4.197-1.138-1.325-3.951-1.899-5.199-1.495 1.286-2.152 1.023-3.6-.31-4.811-1.331-1.21-2.657-1.026-3.667-.88-.093-1.285-.358-2.197-1.816-3.27-1.312-.966-2.683-.749-3.441-.635-.522-.862-1.587-2.365-3.038-2.849-1.454-.484-2.926-.456-4.177-.149-.421-1.028-2.009-2.092-3.345-2.285-1.557-.225-3.077.572-4.163 1.074-.936-.729-1.914-1.111-3.13-1.071-1.404.044-2.165.721-3 1.594-1.026-.341-2.681-.274-3.377-.075-1.865.531-2.777 1.671-3.499 2.583-1.09-.121-2.513-.749-3.761-.076-1.369.739-2.393 2.203-2.317 3.266-2.355-.114-3.441.197-4.895 1.045-1.453.848-2.436 3.058-2.336 4.146-1.922-.101-4.366.456-5.242 1.343-1.239 1.253-1.442 3.612-1.318 5.058-1.44.563-2.935 1.373-3.697 2.411-.819 1.116-.743 2.9-.553 4.154-1.405.798-2.317 1.216-2.958 2.749-.441 1.054.413 4.431 1.11 5.035-1.246.553-2.292 1.599-2.443 3.563-.112 1.47 2.011 3.848 3.391 4.117-.923 1.097-2.518 1.934-2.48 3.718.03 1.408 1.27 2.821 2.602 3.306 1.332.484 8.147-.892 11.141.0-1.512 2.43-1.201 3.391-1.664 4.823-.344 1.063-.032 2.807.21 3.532.283 3.152 2.059 3.512 2.059 4.238.0.728-1.446 4.454-1.244 6.511-.136.125-.92.268-1.057.392-.37.338-.316 1.209-.5 1.735-.363.0-.363.0-1.166.177-.201 1.532 2.03 3.658 2.271 4.627.242.97 2.655 3.856 4.965 4.602 1.032 1.762 6.661 2.422 7.387 2.544.727.12 1.938-.243 2.543-.364.605-.12 1.816-.726 2.422-.969.605-.241 2.948-1.271 3.432-1.393.485-.12.968 2.321 1.333 4.139.363 1.815.807 3.915.927 5.246.121 1.332.241 1.817.241 2.786s-.493 1.525-.932 1.765c-.53.292-2.806 2.141-2.996 3.14.809-.048 1.386-.062 1.869-.303.485-.243 2.025-1.359 2.839-1.647.237.814.119.992.57 1.808.364.658.714 1.142.714 1.142s.598-.881.714-1.569c.142-.846.538-1.858.665-2.426.419-.311 1.189-.333 2.046-.714-1.39-.535-2.101-.66-2.639-1.24-.469-.507-.55-.803-.913-1.771s.241-.605 1.148-1.695c-.927-.429-1.812-.668-2.021-1.38-.267-.908-.64-2.067-.761-3.521-.121-1.452-.143-4.09-.143-4.09s1.291.394 1.896.635c.606.242 5.45 1.816 6.661 1.938 1.211.12.862.438 1.104 1.649.243 1.21.302 1.207.06 1.813-.242.605-1.852 1.486-1.367 1.486s.907-.35 1.872-.209c.496.072.535.951.684 2.229.124 1.063.06 1.635-.415 2.344-.233.351-1.16.837-1.487 1.313.969.129 1.3-.489 1.729-.381.056.41.196.659.251 1.593.032.55.092.889.144 1.712.035.588.475 1.046.475 1.046s.509-.624.698-1.384c.209-.837.319-1.213.491-1.659.188-.488.665.384 1.454 1.041.63.522 1.597 1.034 2.422.969 1.086-.088.77.155.968.0-.483-.849-1.279-1.51-1.751-1.882-.273-.214-1.575-1.706-1.713-1.936-1.814-3.002-3.848-9.335-3.353-9.434.604-.122 7.371-.179 10.692-3.582.78-.798 4.067-3.219 4.079-6.019-.582-.011.063-.159-.582-.011-.095-.733.255-1.276-.107-1.6-.18-.161-.295-.095-.804-.186-.363-.363.104-1.596-.38-1.596-.485.0-.753-.397-.753-1.004.0-.605-.158-.173.525-.287.684-3.608-1.01-5.041-1.131-5.888.675-.949 1.282-2.202 1.587-3.874.275-1.518.219-4.966.113-6.495.483-.727 13.177 1.178 14.51 1.178 1.823.0 3.22-1.339 3.286-2.192.17-2.175-1.09-4.117-1.694-4.723C89.285 45.95 90.684 44.285 90.806 42.953zM80.133 27.854c1.562-.618 3.166 4.067 2.749 5.561-2.009 1.627-5.655 3.593-7.542 4.793-.524-.095-1.009-1.129-1.599-1.406-.011-.65-.148-3.26-.073-3.419C75.37 31.79 78.995 29.07 80.133 27.854zM45.556 8.489c.669-1.249 3.975-1.697 5.159-.919-.419 6.168.193 13.391 1.105 19.454-1.651-.13-1.722-.894-1.791-1.542C49.566 21.114 45.421 8.741 45.556 8.489zM19.095 32.074c1.73 1.002 6.126 4.414 7.734 5.24.063.243-.39.651-.447.895-.144.606.519 2.147.0 2.492-1.985-.548-6.557-2.737-8.501-3.579C17.295 35.964 17.886 32.544 19.095 32.074zM18.265 38.209c1.739 1.016 6.671 2.492 8.564 3.452.006.923-.678 2.675-.831 3.451-2.206-.132-6.647-1.035-8.884-2.172C16.477 41.902 17.182 38.765 18.265 38.209zM27.148 48.243c-.17.457-1.014 1.107-1.47 1.278-2.101-.611-6.39-.361-8.564.0-.838-1.019-.147-4.567 1.022-5.176 1.795.526 6.728 1.491 8.692 1.661C27.249 46.384 27.346 47.714 27.148 48.243zM28.491 34.949c-.235.432-.853 1.39-1.342 1.438-2.212-.988-5.894-3.634-7.542-5.401.861-1.341 1.791-3.378 2.637-4.538 1.827.575 4.591 4.975 6.886 5.944C29.366 33.008 28.806 34.37 28.491 34.949zM32.39 29.005c-.935.484-2.407 2.546-3.451 2.413-1.927-1.072-4.583-4.506-6.004-6.313-.002-1.655 3.158-5.854 4.789-5.575 1.087 2.378 4.218 7.493 5.561 9.346C33.167 29.071 32.59 28.901 32.39 29.005zM36.032 24.659c-.726.525-1.404 2.73-2.3 2.748-2.184-1.929-5.079-6.733-5.241-8.82.696-1.166 3.563-3.847 5.497-4.346 1.35 1.821 2.342 6.927 5.067 9.213C38.668 24.279 36.771 24.126 36.032 24.659zM39.584 22.747c-1.448-1.836-3.019-4.342-4.83-9.336.419-1.165 3.591-2.277 4.666-1.662 1.135 3.457 2.208 11.142 2.685 13.997C41.292 24.724 40.46 23.858 39.584 22.747zM39.948 11.31c.57-.914 3.573-1.923 4.521-1.416 1.233 2.309 2.341 6.812 3.235 9.85-.405.459-2.333.251-2.915.441-.708.229-1.851 1.081-2.17 1.081S40.533 13.445 39.948 11.31zM53.792 37.423c0 .377-.432 1.607-.573 1.985s.257 8.541-.282 8.566c-.696.032-.735-2.714-1.584-3.816.131.65-.282 1.729-.282 2.432.0.656.085 1.323.085 1.921.0.565.13 1.718.17 2.121.048.487.14 2.512.14 2.997-.22.51-.557.824-1.119.935-.544.105-.722-.296-1.086-.473-.355.186-.283.283-.804.566-.518.283-.729.491-1.273.331-.535-.158-.807-.155-.919-.815-.12-.709-.546-.602-1.206-.979-.662-.379-1.249.003-1.612-.697-.213-.412.196-1.144.428-1.77.187-.506.333-1.358.664-2.067.257-.889.473-2.502.708-3.353.236-.85.712-2.642.764-3.328.057-.747-.008-3.471-.103-4.085-.094-.614.283-2.786.472-3.258.189-.472 1.322-1.7 1.841-1.842s2.645.094 2.928.425c.283.331.641.004 1.25.534.489.424.686.93.875 1.213.188.283.797.727.794 1.472C54.065 36.773 53.792 37.045 53.792 37.423zM57.572 19.546c-.68.682-3.069.11-3.771.768-.836.78-.474 5.504-1.058 6.58-.923.13-1.108-17.407-1.26-19.159 1.446-1.242 6.972-.259 8.197 1.201C60.241 11.574 58.658 16.528 57.572 19.546zM61.982 22.742c-.318-1.145-3.132-2.685-3.324-2.941.46-2.125 2.465-6.774 2.271-9.242 1.606-.73 5.001 1.46 5.782 3.043-.957 3.595-4.509 11.776-6.104 14.006C60.493 26.602 62.31 23.92 61.982 22.742zM63.708 24.276c-.192.015-.606.825-1.79 1.854 1.94-2.918 4.944-10.522 5.368-12.208 1.116-.107 3.107 1.854 3.388 2.94-.25 2.486-2.49 7.171-3.873 8.883C65.625 24.829 65.003 24.177 63.708 24.276zM69.292 29.216c-.479-.672-1.493-2.752-1.896-3.36 1.145-1.322 3.191-5.623 3.725-8.164 1.566-.042 4.006 1.836 4.219 3.132C74.153 23.176 71.549 27.662 69.292 29.216zM69.843 29.708c1.95-1.91 5.527-6.782 5.497-7.989 1.785-.119 4.379 3.898 4.346 5.688-1.601 1.881-4.482 3.883-6.319 5.347C72.938 31.969 70.972 30.253 69.843 29.708zM83.521 52.845c-2.291-.36-7.259-.788-10.737-1.021-.369-.754 1.528-2.702 1.726-2.877 2.432-.429 5.934-.822 8.373-1.023C83.791 48.768 84.27 51.855 83.521 52.845zM83.777 46.933c-2.047.405-6.442.8-8.58 1.12.243-.691.314-2.248.0-2.86 2.146-.908 5.782-2.073 8.58-2.319C84.529 43.555 84.347 46.094 83.777 46.933zM84.275 41.369c-2.081.536-6.41 1.993-8.905 2.823-.173-.715.698-2.081.673-2.852-.021-.601-.425-1.896-.703-2.474 1.743-1.22 5.854-2.931 7.319-4.396C83.89 35.793 84.549 39.762 84.275 41.369z"/></g></svg>