<svg xmlns="http://www.w3.org/2000/svg" xmlns:xlink="http://www.w3.org/1999/xlink"  viewBox="0 0 1200 1200"><g transform="translate(600 600) scale(-1 1) rotate(0) translate(-600 -600)" style="fill:#e84e4e"><svg fill="#e84e4e" xmlns:dc="http://purl.org/dc/elements/1.1/" xmlns:cc="http://creativecommons.org/ns#" xmlns:rdf="http://www.w3.org/1999/02/22-rdf-syntax-ns#" xmlns:svg="http://www.w3.org/2000/svg" xmlns="http://www.w3.org/2000/svg" xmlns:sodipodi="http://sodipodi.sourceforge.net/DTD/sodipodi-0.dtd" xmlns:inkscape="http://www.inkscape.org/namespaces/inkscape" viewBox="0 0 80 80" version="1.1" x="0px" y="0px"><path style="" d="m 35.149951,4.3734459 c -11.14815,0.0214 -21.9457,6.2455101 -27.8882601,15.6255401 -2.5742996,3.95422 -4.2093296,8.47664 -4.9630596,13.11502 -0.62619,4.12816 -0.45225,8.37228 0.40585,12.45405 1.76259,8.15195 6.6328896,15.59655 13.4628997,20.40887 6.5749,-8.89409 12.99906,-17.89255 19.53918,-26.80983 0.32468,-0.48703 0.70735,-1.00885 0.5682,-1.64663 -0.0464,-11.03934 0.0464,-22.09028 -0.0464,-33.1296301 -0.3602,-0.0123 -0.7188,-0.0181 -1.07842,-0.0174 z m 8.98396,2.5656 c -0.13856,5.2e-4 -0.27595,5.5e-4 -0.41455,0.003 -0.0812,10.8886001 -0.0232,21.7772001 -0.0348,32.6657901 0.0464,0.69576 -0.058,1.36832 -0.52182,1.90174 -6.45894,8.91728 -12.97587,17.78818 -19.38843,26.72866 4.46444,3.37442 9.81018,5.51967 15.32985,6.33139 8.07078,1.11321 16.54742,-0.67257 23.36584,-5.1602 3.18888,-2.01769 5.92553,-4.67317 8.27951,-7.60694 4.66157,-5.98351 7.32864,-13.55567 7.1547,-21.15101 0.0116,-8.95208 -3.75709,-17.81138 -10.18125,-24.03841 -6.23246,-6.09548 -14.85948,-9.7063101 -23.58906,-9.6739201 z m 0.13046,0.52472 c 7.81567,0.0696 15.57336,2.9801601 21.4757,8.1171701 6.76043,5.7168 11.02774,14.26301 11.53796,23.09913 0.68417,8.49983 -2.21482,17.18519 -7.7113,23.67893 -5.1486,6.2734 -12.70916,10.48273 -20.74516,11.61914 -5.09062,0.70735 -10.36677,0.38266 -15.26026,-1.27556 -3.22368,-1.05523 -6.28501,-2.60909 -9.04485,-4.5804 6.48214,-8.94047 12.98747,-17.88095 19.4812,-26.80983 0.31309,-0.46384 0.22032,-1.05523 0.26671,-1.58865 l 0,-32.2599301 z" fill="#e84e4e" stroke="#e84e4e" stroke-width="0.0108712"></path></svg></g></svg>