<svg  fill="#e84e4e" xmlns="http://www.w3.org/2000/svg" xmlns:xlink="http://www.w3.org/1999/xlink" viewBox="0 0 100 100" enable-background="new 0 0 100 100"><g><path d="M97.634 76.363c-.629-.664-1.131-2.652-1.443-3.582-.567-1.69-2.281-7.887-2.452-9.77-.462-5.084-.941-8.618-1.145-10.537-.771-7.272-.191-10.027-.796-11.714-1.246-3.478-9.263-17.347-16.192-19.195-7-1.866-7.87.425-14.028.11-4.602-.235-13.961-4.888-16.768-4.932-2.853-.045-5.026 1.66-13.809 1.863-1.319.03-6.431-.747-8.658.109-1.236.475-2.302 1.644-3.507 2.74-1.205 1.096-2.959 3.397-3.726 4.712-.767 1.315-1.753 3.507-2.521 5.042-.767 1.534-1.863 3.068-1.863 3.616s-1.644 2.411-1.425 2.959c.219.548-.893 1.683-.767 2.849.048.45-.737 1.799-.736 2.291-1.939.519-5.621.23-5.949.669s3.116 1.559 5.758 1.399C6.873 45.136 2.64 44.55 2.26 45.216c-.255.446 4.177 1.421 5.093 1.421.18.46-.208 1.538-.024 1.889.15.288.173 2.324.438 2.708.184.266.33 1.349.439 1.677.109.329 3.199 10.925 11.179 8.658.705-.2 3.406-1.613 3.507-4.713.043-1.313-1.087-3.999-2.01-4.35-1.03-.39-2.158.195-2.191.706-.032.508.533-.101.585.355.078.689-.637.29-.487 1.064.059.303.611.014.884.994.064.232-.376 1.457-.945 1.668-2.62.974-4.944-3.864-4.603-7.563.403-4.368 2.541-7.126 2.556-7.283.94.063 1.828.05 2.267-.06s-.006.619.877.658c.867.037 1.011-.737 1.424-1.097 1.448-.298 1.342-1.028 1.753-1.096.866-.141 4.214-.221 4.947-.921-.032.955.032 3.819.955 4.456 1.143.788 5.39-1.549 6.048-1.878.657-.329-.813 6.37-.923 7.575-.11 1.207-1.153 2.499-1.592 4.362s-1.97 7.99-2.737 9.963-2.133 5.659-2.133 7.416c0 3.979-1.147 5.545-1.496 5.961-.704.84-3.032 2.286-2.802 2.984.529 1.599 2.377 1.765 3.693 1.655 1.315-.11 4.849.434 5.094-1.225.317-2.144.219-2.182.262-3.086.087-1.865 4.952-11.68 6.028-12.933.929-1.081 4.323-6.222 5.868-7.585 1.56 4.966 3.587 8.786 3.776 10.105.267 1.863 2.014 6.606 2.63 7.892.438.91.38 2.93-.369 3.538-.84.684-3.395 1.972-2.823 3.07.764 1.464 9.24 1.196 9.685.429.9-1.554-.646-6.827-.295-7.719.323-.822-.828-6.113-1.157-7.977s-1.484-8.957.0-13.48c4.69 1.595 9.975 3.409 14.431 3.632 1.782 2.101 4.646 4.266 5.516 8.753.568 2.937-.647 10.217-1.206 10.959-1.477 1.965-3.065 2.991-2.408 4.196.658 1.206 2.878 1.302 5.069 1.302 2.192.0 3.422-.863 3.86-1.96.438-1.095.657-3.726.657-4.821s-.793-11.967.798-14.163c6.207 3.215 8.395 15.318 8.683 17.091.135.83-1.012 2.771.548 3.178 1.379.359 5.284-.108 6.112-1.712C98.014 79.34 98.615 77.4 97.634 76.363zM7.268 46.302c-.833.077-4.656-.955-4.656-1.052s3.81-.145 4.984.094C7.594 45.766 7.556 45.803 7.268 46.302zM24.73 81.619c-.231.416-.933-.239-1.147-.673s.144-.945.572-.945C24.56 80.001 24.852 81.401 24.73 81.619zM26.9 82.009c-.114.239-1.68.318-1.795-.072-.131-.443.458-1.087.843-1.093C26.229 80.839 27.099 81.592 26.9 82.009zM73.088 81.492c-.518.04-.955-.55-1.001-.766-.091-.426.155-1.107.433-1.078C73.116 79.712 73.864 81.432 73.088 81.492zM74.576 81.938c-.398.067-1.007-.153-1.007-.431.0-.276.411-.745.641-.639C74.569 81.035 75.052 81.858 74.576 81.938zM17.602 57.973c.937.285 1.773-.098 2.282-1.142.219-.448.216-1.211.108-1.602-.045-.169.022-.293.164-.373.323.116.79.514 1.273.049.263-.253-.096-1.156-.09-1.479.011-.614 1.175 2.174 1.241 3.003.075.951-.401 2.291-1.542 3.486-.937.981-2.729 1.887-4.727 1.439C10.359 60.021 8.024 51.439 8.026 50c.001-.905 4.261-2.393 5.052-2.676.711-.254.813.148.694.949C12.753 55.12 15.607 57.365 17.602 57.973zM2.362 43.68c.153-.053 7.583.399 11.165-3.231 1.101.041 2.527-.188 3.329.938C8.865 46.958 2.166 43.747 2.362 43.68zM29.471 43.626c-.747-.19-.949-2.122-1.111-3.178-.173-1.135 1.495-7.771 1.879-9.373.384-1.601 2.818-4.675 5.059-6.724 2.241-2.049.128-2.113-.705-2.113-.832.0-4.802 1.985-5.891 3.202s1.369 4.234-.64 5.828c-1.454 1.153-3.603-.486-4.803.0-2.642 1.072-2.187 4.353-2.498 5.955-.436 2.248-1.852 3.438-3.16 2.981-5.95-2.078-4.402 1.258-8.722 2.032-.754.135 1.538-5.653 5.462-13.494.217-.434 1.304-2.597 2.129-3.558.859-1 3.263-4.639 6.021-6.106 1.059-.563 8.715.267 10.798.181 2.975-.123 8.15-1.63 9.5-.927.364.189 2.882 1.152 3.842 2.241.96 1.088 4.167 4.589 4.866 5.892.332.618-.768 4.867-2.689 7.492C46.889 36.583 31.864 44.239 29.471 43.626zM48.498 82.54c-.344.013-.91-.197-.922-.628-.007-.275.471-.791.709-.693C48.815 81.435 48.888 82.526 48.498 82.54zM51.327 82.759c-.538.386-2.165-.033-2.298-.219-.37-.516.507-1.416 1.136-1.423C50.516 81.113 51.865 82.375 51.327 82.759zM93.33 81.302c-.087.31-1.604.157-2.033-.121-.421-.272-.041-.949.609-.999C92.323 80.15 93.489 80.738 93.33 81.302zM93.723 81.402c-.232-.292.363-1.114.705-1.189.501-.111.839.322 1.029.614C95.758 81.29 93.83 81.536 93.723 81.402zM97.596 79.153c-.139.504-.681 1.418-2.382.298-.578-.381-1.543.729-1.869.426-.723-.679-1.683-.467-1.958-.229-.267.229.25-1.356.164-1.572-.383-.973-.972-6.539-2.59-9.601-1.763-3.334-1.349-4.719-6.02-8.069-3.998-2.867-3.444-6.593-3.509-8.001-.064-1.41 3.765-11.659 3.893-13.003s-.704-4.291-1.536-3.458c-.833.832-3.164 8.507-5.892 10.822-4.122 3.498-10.438 4.419-14.921 2.497-4.482-1.921-2.346-10.871-3.971-10.758-.515.035-.832 11.975-1.28 13-.448 1.024-1.428 5.143-1.556 6.487-.129 1.345 1.863 15.34 1.991 16.492.038.338.865 7.414.528 7.533-1.558.555-3.945 1.627-5.347-1.164-.474-.944-2.428.166-2.401-.035.064-.485 2.835-1.604 2.729-3.633-.112-2.14-2.894-8.397-3.18-9.479-1.649-6.233-4.729-11.794-4.677-13.346.08-2.39-1.472-5.545-2.495-6.571-2.046-2.051 3.929-7.725 6.98-8.709 2.953-.953 5.36-11.472 5.154-13.118-.419-3.361-9.544-8.187-8.125-8.09 4.063.274 9.561 5.302 19.556 4.75 3.011-.166 6.128-1.396 11.595.551 1.808.644 14.667 12.911 14.58 19.381-.239 17.906 5.149 32.742 5.616 33.4C97.172 76.656 98.107 77.298 97.596 79.153z"/><path d="M19.361 30.069c.544.096 1.844.446 1.93-1.009C19.865 28.148 19.361 29.431 19.361 30.069z"/></g></svg>