<svg  fill="#e84e4e" xmlns="http://www.w3.org/2000/svg" viewBox="0 3 111 114"><circle cx="42.275" cy="14.178" r="9.757"></circle><path d="M105.755,114.323L67.852,70.716c0.987-1.414,1.118-3.33,0.17-4.901l-19.414-32.34c-1.756-3.071-5.455-6.297-12.115-6.011  c-5.821,0.25-15.309,9.669-22.003,14.013c-3.115,2.021-3.014,7.458-3.564,10.707c-0.721,4.254-1.441,8.508-2.163,12.761  c-0.719,4.234,2.842,6.152,6.341,4.259c1.917-1.036,2.756-3.666,3.091-5.644c0.865-5.102,2.019-9.084,2.884-14.186l6.148-4.99  c-2.088,12.488-3.977,19.866-5.894,36.7c-0.567,4.981-1.25,10.084-2.425,11.615c-3.799,4.952-6.706,9.819-10.559,14.729  c-5.453,6.948,4.254,12.285,9.246,5.924c3.414-4.351,6.828-8.701,10.241-13.051c4.84-6.169,4.632-16.229,5.894-23.771  c3.828,8.268,7.655,16.532,11.483,24.8c1.771,3.828,3.545,7.656,5.318,11.486c3.31,7.146,13.51,3.445,10.033-4.059  C55.63,98.106,51.7,87.454,46.767,76.803c-1.539-3.327-3.953-6.565-3.43-10.185c0.861-5.927,1.723-11.853,2.582-17.778l0.303-1.729  l14.094,23.354c0.845,1.4,2.332,2.176,3.856,2.176c0.41,0,0.822-0.059,1.226-0.174l38.093,43.825  c0.296,0.341,0.713,0.516,1.133,0.516c0.349,0,0.699-0.121,0.983-0.368C106.232,115.896,106.299,114.949,105.755,114.323z"></path></svg>