 <svg xmlns="http://www.w3.org/2000/svg" fill="#e84e4e" viewBox="0 -10 100 100"><g><path d="M16.4525738,68.4385757c-1.9672184,0-3.5617628,1.5950394-3.5617628,3.5617599v11.5896378   c0,1.9667206,1.5945444,3.5617676,3.5617628,3.5617676s3.5617619-1.595047,3.5617619-3.5617676V72.0003357   C20.0143356,70.0336151,18.4197903,68.4385757,16.4525738,68.4385757z"></path><path d="M38.4720917,63.2112122c-1.9672165,0-3.5617599,1.5950394-3.5617599,3.5617599v16.8170013   c0,1.9667206,1.5945435,3.5617676,3.5617599,3.5617676s3.5617638-1.595047,3.5617638-3.5617676V66.7729721   C42.0338554,64.8062515,40.4393082,63.2112122,38.4720917,63.2112122z"></path><path d="M60.4921074,52.7564888c-1.9667206,0-3.5617599,1.5950432-3.5617599,3.5617638v27.2717209   c0,1.9667206,1.5950394,3.5617676,3.5617599,3.5617676s3.5617638-1.595047,3.5617638-3.5617676V56.3182526   C64.0538712,54.351532,62.458828,52.7564888,60.4921074,52.7564888z"></path><path d="M82.5116272,42.3007698c-1.9667206,0-3.5617599,1.5950432-3.5617599,3.5617638v37.7274399   c0,1.9667206,1.5950394,3.5617676,3.5617599,3.5617676s3.5617599-1.595047,3.5617599-3.5617676V45.8625336   C86.0733871,43.895813,84.4783478,42.3007698,82.5116272,42.3007698z"></path><path d="M16.448101,57.1152763c0.1475792,0,0.2971439-0.0089455,0.4472084-0.0278282   C46.382515,53.3920822,70.5879517,34.15345,80.4131699,25.2333946c0.6090088,1.1286411,1.7996368,1.8732414,3.1300201,1.8732414   c0.1321716,0,0.2663345-0.0069561,0.4014893-0.0218639c1.9547958-0.2196274,3.3610153-1.9826202,3.1423798-3.9374161   l-0.6588821-5.8723354c-0.1699448-1.5135498-1.283989-2.7508249-2.7707062-3.079771l-5.7004089-1.2611256   c-1.9249802-0.4283257-3.8231277,0.7880793-4.2464828,2.7080917c-0.3818665,1.7236137,0.561615,3.4233761,2.1473389,4.0619507   c-9.0807419,8.2124748-32.3729362,26.8716011-59.8480797,30.3154106c-1.9523115,0.2444725-3.3361712,2.0253563-3.0912008,3.977169   C13.1442289,55.7975006,14.6786489,57.1152763,16.448101,57.1152763z"></path></g></svg>