<svg height='300px' width='300px'  fill="#e84e4e" xmlns="http://www.w3.org/2000/svg" data-name="Layer 2" viewBox="0 0 32 32" x="0px" y="0px"><title>Artboard 10</title><path d="M24.69,9a4.05,4.05,0,0,0-2.77-1.76c-2.06-.23-4.1,1.48-6.27,3.28-2.46,2-5,4.16-7.47,3.31a2,2,0,0,0-2,.34A2,2,0,0,0,5.51,16,10.53,10.53,0,0,0,21.58,23.9a10.79,10.79,0,0,0,4.91-7.25A9.5,9.5,0,0,0,24.69,9Zm.81,7.43A9.78,9.78,0,0,1,21,23,9.53,9.53,0,0,1,6.51,15.87,1,1,0,0,1,6.86,15a1,1,0,0,1,1-.17c3,1,5.89-1.37,8.44-3.49,2-1.66,3.88-3.24,5.52-3.05A3.12,3.12,0,0,1,23.9,9.65,8.51,8.51,0,0,1,25.5,16.47Z"></path><path d="M9.6,16.14a2,2,0,0,0,1.66,3.64h0A2,2,0,1,0,9.6,16.14Zm1.25,2.73a1,1,0,1,1,.49-1.33A1,1,0,0,1,10.85,18.87Z"></path><path d="M16.36,18.25a2.5,2.5,0,1,0,1.4,1.3A2.48,2.48,0,0,0,16.36,18.25Zm.53,2.87a1.5,1.5,0,1,1,0-1.15A1.49,1.49,0,0,1,16.89,21.12Z"></path><path d="M21.81,15.76a2.5,2.5,0,0,0-3.15,3.38,2.5,2.5,0,1,0,3.15-3.38Zm.53,2.87a1.5,1.5,0,1,1,0-1.15A1.49,1.49,0,0,1,22.35,18.63Z"></path><path d="M20.56,10a2.5,2.5,0,1,0,3.31,1.24A2.5,2.5,0,0,0,20.56,10Zm1.66,3.64h0a1.5,1.5,0,1,1,.74-2A1.49,1.49,0,0,1,22.22,13.68Z"></path></svg>