<svg   fill="#e84e4e" xmlns="http://www.w3.org/2000/svg"  viewBox="0 0 100 100" ><g display="none"></g><g display="none" opacity="0.31"><g display="inline"><path d="M39.925,25.435c0-6.23-5.069-11.299-11.299-11.299c-6.23,0-11.299,5.069-11.299,11.299c0,6.23,5.069,11.299,11.299,11.299    C34.856,36.735,39.925,31.666,39.925,25.435z M20.326,25.435c0-4.576,3.723-8.299,8.299-8.299s8.299,3.723,8.299,8.299    s-3.723,8.299-8.299,8.299S20.326,30.011,20.326,25.435z"></path><path d="M13.115,49.934v16.82c0,3.107,2.283,5.692,5.26,6.164v15.606c0,3.441,2.799,6.24,6.24,6.24h8.02    c3.441,0,6.24-2.799,6.24-6.24V51.333h10.034v15.958h3V51.283c5.193-0.494,9.27-4.877,9.27-10.198v-2.862h-9.27V27.112h12.267    v5.907h22.709l-5.877-10.362l5.722-11.514H71.38V5.236H48.909v2.5v19.376v11.112H24.825    C18.368,38.224,13.115,43.477,13.115,49.934z M81.889,14.143l-4.278,8.607l4.123,7.269H67.176V14.143H81.889z M51.909,8.236H68.38    v2.907h-4.205v12.969H51.909V8.236z M24.825,41.224h33.353c-0.074,3.933-3.295,7.109-7.246,7.109H35.875v40.191    c0,1.787-1.454,3.24-3.24,3.24h-8.02c-1.787,0-3.24-1.454-3.24-3.24v-18.53h-2.02c-1.787,0-3.24-1.454-3.24-3.24v-16.82    C16.115,45.131,20.022,41.224,24.825,41.224z"></path></g></g><g><path d="M27.228,72.218c0.385,0.345,0.863,0.525,1.356,0.525c0.22,0,0.444-0.036,0.662-0.11c0.707-0.239,1.212-0.821,1.357-1.578   c0.133-0.697-0.106-1.398-0.64-1.877c-3.304-2.962-5.956-6.679-7.671-10.748c-0.319-0.758-1.051-1.248-1.903-1.248   c-0.686,0-1.323,0.342-1.704,0.915c-0.374,0.563-0.442,1.269-0.182,1.888C20.447,64.612,23.464,68.843,27.228,72.218z"></path><path d="M70.754,72.633c0.219,0.074,0.442,0.11,0.662,0.11c0.492,0,0.971-0.181,1.356-0.525c3.765-3.375,6.782-7.605,8.725-12.232   c0.26-0.62,0.193-1.326-0.182-1.889c-0.381-0.573-1.018-0.915-1.704-0.915h-0.036c-0.816,0-1.548,0.49-1.866,1.247   c-1.714,4.069-4.366,7.786-7.671,10.749c-0.533,0.478-0.772,1.18-0.636,1.899C69.542,71.813,70.047,72.394,70.754,72.633z"></path><path d="M67.441,17.468L67.441,17.468C62.174,14.324,56.143,12.662,50,12.662s-12.174,1.662-17.441,4.805   c-0.604,0.36-0.977,0.995-0.998,1.697c-0.02,0.7,0.314,1.354,0.914,1.761c0.342,0.232,0.733,0.348,1.126,0.348   c0.359,0,0.72-0.097,1.048-0.292c4.638-2.768,9.946-4.232,15.351-4.232c5.405,0,10.713,1.463,15.351,4.232   c0.685,0.409,1.518,0.387,2.193-0.069c0.58-0.394,0.915-1.047,0.895-1.748C68.418,18.463,68.045,17.828,67.441,17.468z"></path><path d="M19.147,10.519h-1.63c-0.03,0-0.059,0.004-0.089,0.005c-4.191,0.048-7.586,3.468-7.586,7.669v3.303   c0,4.232,3.442,7.674,7.674,7.674h1.63c4.232,0,7.674-3.442,7.674-7.674v-3.303c0-0.862-0.149-1.688-0.413-2.463   C25.38,12.704,22.517,10.519,19.147,10.519z"></path><path d="M31.664,48.056v-6.183c0-5.33-4.336-9.666-9.666-9.666h-7.333c-1.77,0-3.426,0.487-4.854,1.321   c-1.1,0.642-2.06,1.494-2.828,2.503C5.745,37.656,5,39.677,5,41.873v6.183h12.614H31.664z"></path><path d="M80.852,30.714h1.631c4.231,0,7.674-3.442,7.674-7.674v-3.303c0-4.231-3.442-7.674-7.674-7.674h-1.631   c-0.463,0-0.914,0.048-1.354,0.127c-1.853,0.332-3.477,1.326-4.614,2.734c-1.064,1.318-1.705,2.991-1.705,4.812v3.303   C73.178,27.271,76.621,30.714,80.852,30.714z"></path><path d="M91.556,36.031c-0.573-0.484-1.205-0.897-1.88-1.238c-1.307-0.661-2.779-1.042-4.342-1.042h-7.333   c-5.33,0-9.666,4.336-9.666,9.666V49.6h12.897H95v-6.183C95,40.457,93.659,37.806,91.556,36.031z"></path><path d="M50.815,70.595c4.232,0,7.674-3.442,7.674-7.674v-3.303c0-4.232-3.442-7.674-7.674-7.674h-1.63   c-4.231,0-7.674,3.442-7.674,7.674v3.303c0,4.231,3.442,7.674,7.674,7.674H50.815z"></path><path d="M36.667,83.298v6.183h26.665v-6.183c0-5.33-4.336-9.666-9.666-9.666h-7.333C41.003,73.633,36.667,77.969,36.667,83.298z"></path></g></svg>