<svg  stroke-width="2" stroke="#e84e4e" fill="#e84e4e" xmlns="http://www.w3.org/2000/svg" data-name="Ebene 1" viewBox="0 0 100 100" x="0px" y="0px"><title>neu</title><path d="M34.46,35.31a9.22,9.22,0,1,1,9.22-9.22A9.23,9.23,0,0,1,34.46,35.31Zm0-16.44a7.22,7.22,0,1,0,7.22,7.22A7.23,7.23,0,0,0,34.46,18.87Zm29,16.44a9.22,9.22,0,1,1,9.22-9.22A9.22,9.22,0,0,1,63.47,35.31Zm0-16.44a7.22,7.22,0,1,0,7.22,7.22A7.22,7.22,0,0,0,63.47,18.87Zm-29,64.26a9.22,9.22,0,1,1,9.22-9.22A9.24,9.24,0,0,1,34.46,83.13Zm0-16.44a7.22,7.22,0,1,0,7.22,7.22A7.23,7.23,0,0,0,34.46,66.69Zm29,16.44a9.22,9.22,0,1,1,9.22-9.22A9.23,9.23,0,0,1,63.47,83.13Zm0-16.44a7.22,7.22,0,1,0,7.22,7.22A7.22,7.22,0,0,0,63.47,66.69ZM20.83,59.22A9.22,9.22,0,1,1,30.05,50,9.24,9.24,0,0,1,20.83,59.22Zm0-16.44A7.22,7.22,0,1,0,28.05,50,7.23,7.23,0,0,0,20.83,42.78ZM79.17,59.22A9.22,9.22,0,1,1,88.39,50,9.24,9.24,0,0,1,79.17,59.22Zm0-16.44A7.22,7.22,0,1,0,86.39,50,7.23,7.23,0,0,0,79.17,42.78ZM61.81,58.72h-24L49.84,38Zm-20.49-2h17L49.84,42Z"></path></svg>