<svg  fill="#e84e4e" xmlns="http://www.w3.org/2000/svg"  viewBox="0 0 68 68" ><g><path d="M11.7,26l13.5,15.8l14.9-16.5c-1.9,0-4.2,0-6.8,0.1l-7,7.7c-0.2,0.2-0.5,0.3-0.7,0.3c0,0,0,0,0,0c-0.3,0-0.6-0.1-0.7-0.4   l-6.2-7.3C16.2,25.8,13.8,25.9,11.7,26z"></path><path d="M30.6,25.5c-3,0-6.3,0.1-9.4,0.2l4.4,5.3L30.6,25.5z"></path><path d="M67,46.6c-0.1-0.5-0.7-0.9-1.2-0.8c-1.5,0.3-2.8,0.3-4.1,0.1c0.2-1.6,0.3-3.3,0.4-5.2c0.3-8.3-5.5-15.1-16.7-15.3   c-0.1,0-1,0-2.6,0L25.9,44c-0.2,0.2-0.5,0.3-0.7,0.3h0c-0.3,0-0.6-0.1-0.8-0.4L9.2,26.3c-4.1,0.8-7.3,4-7.9,8.2   c-0.7,4.5-0.1,7.3,0.5,11c1.8,10.1,1.2,13.9,1.5,17.7c0,2,1.7,3.6,3.7,3.6c2.4,0,4.3-0.2,5.1-2.6c0.1-0.3,0,0.7,0.5-11.2   c4.9,5,12.4,6.4,21.4,1v9.9c0,1.6,1.3,2.9,2.9,2.9c2.4,0,5.6,0.4,5.6-2.9c0.1-14-0.4-16.1,2.2-18.6c3.2-3,2.8,1.1,6.3,1.4   c0,0,0,0,0.1,0c1,0.1,2.4,0.6,2.8,2.1c1,3.1-0.2,5.9-3.4,8.2c-0.3,0.2-0.4,0.5-0.4,0.8c0.1,2-0.9,3.6,1.3,3.6   c2,0,7.9-1.1,10.1-13.5c0.7,0.1,1.4,0.2,2.1,0.2c0.9,0,1.8-0.1,2.8-0.3C66.8,47.6,67.1,47.1,67,46.6z M53.6,33.4   c1,0,1.7,0.9,1.7,1.8c0,0.5-0.2,0.9-0.5,1.2c-0.2,0.2-0.6,0.4-1.1,0.4c-1,0-1.8-0.7-1.8-1.7C51.9,34.1,52.6,33.4,53.6,33.4z"></path><path d="M2.8,19.5h21.7v4.2c0.7,0,1.3,0,2,0v-4.1h21c2.3,0,0.7-6.4-4.1-9.3C39.3,7.7,31.5,6,26.5,5.8V2.3c0-0.5-0.4-1-1-1   c-0.5,0-1,0.5-1,1v3.5h0c-7.5,0-14.2,2.1-19.3,6c-2.1,1.6-3.3,4.1-3.3,6.7C1.8,19,2.3,19.5,2.8,19.5z"></path></g></svg>