 
<svg  fill="#e84e4e" version="1.0" xmlns="http://www.w3.org/2000/svg" viewBox="0 0 1974.000000 469.000000"
 preserveAspectRatio="xMidYMid meet">

<g transform="translate(0.000000,469.000000) scale(0.100000,-0.100000)"
fill="#e84e4e"  stroke="none">
<path d="M16485 4124 c-80 -19 -244 -100 -330 -163 -38 -29 -81 -54 -95 -57
-108 -23 -198 -95 -247 -196 -37 -75 -46 -124 -45 -240 l1 -87 -32 -6 c-60
-13 -172 -73 -216 -117 -89 -90 -124 -197 -126 -388 -2 -124 -4 -140 -30 -200
-79 -186 -91 -354 -35 -486 l20 -47 -29 -46 c-89 -141 -81 -333 21 -493 34
-52 134 -158 150 -158 4 0 8 -36 8 -81 0 -152 52 -280 160 -389 56 -58 179
-130 221 -130 10 0 29 -22 47 -52 35 -62 131 -157 187 -186 72 -36 145 -52
239 -52 190 1 315 48 436 167 41 40 75 73 75 73 0 0 34 -33 75 -73 129 -126
260 -172 465 -165 102 4 115 7 187 41 90 44 162 110 208 190 19 34 39 57 49
57 43 0 166 73 225 133 106 108 156 230 156 379 0 48 4 88 9 88 17 0 121 113
155 168 96 159 103 353 16 484 l-30 45 19 44 c58 132 44 319 -36 495 -24 54
-27 71 -28 194 -1 74 -8 158 -15 185 -20 76 -64 156 -112 205 -43 43 -152 101
-217 115 l-33 7 5 52 c8 75 -10 199 -38 261 -43 98 -168 205 -240 205 -11 0
-61 28 -110 62 -272 185 -524 230 -667 117 -20 -16 -40 -29 -43 -29 -3 0 -23
14 -44 31 -72 58 -204 75 -336 43z m258 -162 c19 -18 39 -50 46 -71 10 -36 17
-761 7 -761 -2 0 -28 12 -57 28 -42 21 -67 27 -119 27 -87 0 -134 -26 -138
-76 -2 -24 3 -40 15 -51 23 -21 38 -23 94 -14 74 13 136 -32 181 -129 l23 -50
3 -644 c1 -355 0 -651 -2 -658 -4 -9 -20 -2 -57 26 -64 48 -133 71 -216 71
-55 0 -67 -4 -88 -25 -31 -30 -32 -68 -3 -95 17 -15 35 -20 82 -20 77 0 131
-24 191 -84 72 -72 87 -117 93 -277 5 -148 -7 -217 -52 -288 -70 -111 -223
-181 -392 -182 -153 0 -257 65 -322 203 -32 68 -37 72 -107 84 -87 15 -157 64
-216 151 -59 86 -85 214 -64 325 9 48 -6 73 -58 96 -55 25 -112 89 -151 171
-27 58 -31 76 -31 151 0 65 5 94 20 122 l20 37 54 -34 c130 -83 291 -126 331
-90 25 23 26 76 3 97 -10 8 -52 25 -93 38 -149 44 -239 110 -281 203 -45 99
-25 260 49 401 25 49 27 58 27 206 1 133 4 162 22 208 32 80 66 118 136 150
274 129 530 -1 544 -277 6 -107 9 -117 43 -131 64 -27 100 16 100 119 0 162
-99 337 -237 417 -49 29 -161 64 -204 64 -25 0 -27 4 -33 53 -7 52 3 127 23
180 30 78 110 137 187 137 78 0 139 -43 256 -180 24 -28 32 -32 60 -26 65 13
75 63 27 137 -33 52 -97 115 -147 144 -18 11 -31 24 -29 30 4 15 176 100 228
113 24 6 79 10 121 9 72 -2 79 -4 111 -35z m469 26 c58 -14 230 -97 234 -113
1 -5 -25 -30 -59 -55 -63 -46 -133 -128 -143 -167 -10 -38 4 -70 35 -83 41
-17 66 -6 100 44 70 101 169 162 252 154 127 -13 212 -148 193 -310 -6 -55 -8
-58 -33 -58 -43 0 -155 -35 -204 -63 -137 -81 -237 -257 -237 -420 0 -101 36
-143 100 -117 34 14 37 24 43 131 7 133 75 242 185 296 50 25 68 28 152 28
106 0 167 -16 243 -65 94 -59 135 -185 123 -374 -7 -101 -7 -101 28 -171 50
-103 69 -177 70 -275 0 -99 -14 -137 -70 -200 -55 -61 -100 -86 -226 -128 -98
-32 -113 -40 -120 -64 -7 -19 -5 -36 4 -55 13 -27 17 -28 79 -27 73 2 176 39
270 99 l54 34 18 -35 c43 -84 38 -182 -14 -286 -39 -76 -94 -137 -146 -160
-58 -26 -67 -46 -54 -121 35 -203 -103 -421 -285 -452 -69 -12 -74 -15 -103
-79 -45 -101 -120 -169 -213 -197 -50 -15 -186 -12 -252 6 -133 35 -224 106
-275 214 l-26 56 -3 1085 c-3 1229 -7 1155 72 1191 23 10 68 20 99 22 69 5 97
26 97 72 0 55 -26 69 -123 63 -46 -3 -94 -11 -106 -18 -15 -8 -27 -8 -33 -2
-6 6 -8 104 -6 253 2 204 6 249 20 274 18 33 54 69 78 78 28 10 128 7 182 -5z"/>
<path d="M15800 2893 c-26 -34 -22 -78 20 -201 63 -185 190 -324 331 -362 44
-12 49 -29 21 -72 -36 -54 -122 -98 -195 -98 -38 0 -50 -7 -66 -38 -17 -32 3
-80 36 -88 41 -11 147 2 195 24 91 40 161 123 187 219 11 38 16 43 54 53 120
32 287 141 287 187 0 30 -38 73 -64 73 -12 0 -58 -23 -101 -50 -87 -55 -184
-90 -249 -90 -24 0 -65 11 -101 29 -106 50 -184 163 -224 324 -11 44 -27 87
-37 98 -25 28 -68 24 -94 -8z"/>
<path d="M16356 1989 c-61 -14 -162 -68 -213 -113 -86 -75 -149 -203 -161
-326 l-7 -65 -55 -3 c-82 -3 -97 -9 -108 -39 -20 -60 10 -90 104 -102 38 -5
88 -16 112 -24 64 -22 150 -78 179 -115 31 -41 63 -130 63 -175 0 -83 49 -134
102 -106 34 18 38 28 38 96 0 69 -26 162 -63 225 -34 58 -122 140 -185 172
-47 24 -52 30 -52 59 0 17 7 60 15 95 40 167 135 257 309 292 63 12 83 21 99
42 20 27 17 56 -9 83 -17 17 -104 19 -168 4z"/>
<path d="M17917 2982 c-9 -10 -26 -54 -37 -98 -52 -205 -166 -334 -310 -351
-69 -8 -171 26 -263 87 -42 28 -86 50 -101 50 -33 0 -66 -33 -66 -66 0 -52
115 -133 258 -183 68 -24 77 -30 83 -56 29 -135 152 -241 293 -252 35 -3 76
-3 90 1 46 12 58 72 21 109 -8 8 -41 18 -73 22 -77 9 -153 52 -176 98 -9 19
-16 40 -16 45 0 6 22 17 48 25 114 33 220 134 288 273 34 71 74 206 74 251 0
53 -78 84 -113 45z"/>
<path d="M17126 2065 c-26 -27 -29 -56 -9 -83 16 -21 36 -30 99 -42 175 -35
269 -124 309 -292 8 -35 15 -78 15 -95 0 -29 -5 -35 -52 -59 -63 -32 -151
-114 -185 -172 -14 -23 -34 -70 -44 -103 -19 -60 -25 -174 -11 -195 13 -21 52
-34 77 -28 34 8 45 33 56 115 14 112 64 194 151 246 59 35 133 58 219 68 71 8
95 31 90 85 -3 36 -20 45 -93 50 l-73 5 -2 35 c-19 269 -229 479 -480 480 -33
0 -57 -5 -67 -15z"/>
<path d="M10550 3420 c-454 -45 -937 -271 -1400 -654 -107 -88 -340 -315 -436
-425 -91 -103 -105 -139 -76 -202 25 -56 225 -273 376 -408 514 -461 1018
-716 1518 -770 611 -67 1253 194 1892 768 137 123 349 349 379 403 37 70 15
114 -144 284 -456 485 -984 827 -1467 948 -213 54 -454 75 -642 56z m348 -310
c204 -41 363 -129 503 -276 131 -140 210 -298 244 -493 20 -114 19 -214 -5
-331 -37 -183 -114 -333 -239 -463 -124 -130 -255 -211 -428 -264 -81 -25
-102 -27 -253 -27 -151 0 -172 2 -253 27 -304 94 -535 313 -634 602 -101 296
-54 597 133 860 205 289 582 437 932 365z m-1152 -274 c-186 -278 -241 -617
-156 -951 35 -135 112 -295 194 -400 38 -48 26 -45 -90 26 -210 126 -458 327
-674 544 l-135 135 155 153 c163 160 316 291 479 407 94 67 269 178 283 179 4
1 -22 -42 -56 -93z m2014 22 c219 -137 419 -298 645 -520 l150 -148 -135 -135
c-216 -217 -464 -418 -674 -544 -119 -72 -125 -73 -74 -4 98 133 174 319 203
493 48 298 -19 600 -189 849 -31 46 -50 81 -42 78 8 -3 61 -34 116 -69z"/>
<path d="M10697 2664 c21 -46 25 -66 21 -122 -5 -78 -25 -126 -76 -178 -99
-102 -261 -104 -374 -5 -41 36 -44 34 -64 -42 -18 -67 -18 -198 1 -266 45
-172 185 -318 354 -372 91 -29 231 -29 322 0 170 54 308 199 354 372 18 68 19
208 1 274 -60 226 -273 395 -497 395 l-68 0 26 -56z"/>
<path d="M3010 2866 c-106 -31 -182 -92 -222 -181 -17 -39 -22 -68 -22 -130 0
-161 67 -242 287 -348 95 -46 142 -74 166 -102 31 -35 33 -42 29 -92 -4 -41
-11 -60 -33 -83 -40 -42 -83 -53 -184 -48 -78 4 -96 8 -175 47 -106 53 -111
50 -111 -55 0 -70 2 -78 27 -99 68 -58 247 -94 376 -75 88 13 181 52 235 99
20 18 51 63 69 99 30 60 33 75 33 157 0 78 -3 97 -27 141 -40 77 -106 128
-258 201 -74 35 -147 76 -162 90 -80 76 -47 185 63 214 59 16 135 2 230 -42
37 -17 72 -28 78 -25 6 4 11 40 11 86 0 73 -2 80 -26 99 -15 12 -50 28 -78 37
-67 22 -246 28 -306 10z"/>
<path d="M4507 2864 c-278 -67 -417 -312 -386 -679 28 -334 193 -487 524 -488
175 0 283 37 389 134 62 57 122 166 147 269 19 74 19 337 0 410 -48 193 -164
313 -342 355 -80 18 -254 18 -332 -1z m300 -200 c61 -29 102 -81 130 -165 26
-78 26 -330 0 -410 -26 -77 -81 -147 -142 -178 -43 -23 -62 -26 -145 -26 -107
1 -139 12 -203 73 -72 69 -107 240 -87 421 20 180 90 276 227 311 61 15 160 4
220 -26z"/>
<path d="M1163 2863 c-17 -3 -23 -12 -23 -31 0 -40 352 -1084 372 -1104 15
-15 36 -18 138 -18 103 0 123 3 138 18 11 11 98 257 201 566 141 419 181 550
172 559 -8 8 -46 12 -102 12 -72 0 -93 -3 -102 -16 -7 -9 -75 -219 -152 -467
-77 -248 -142 -449 -144 -447 -2 2 -68 207 -147 456 -78 248 -148 457 -154
463 -11 11 -156 18 -197 9z"/>
<path d="M2365 2863 c-46 -12 -45 5 -45 -579 l0 -554 26 -10 c34 -13 160 -13
185 0 18 10 19 27 19 570 0 374 -3 561 -10 565 -14 9 -150 15 -175 8z"/>
<path d="M3713 2859 l-33 -10 0 -559 c0 -543 1 -560 19 -570 25 -13 151 -13
185 0 l26 10 0 554 c0 482 -2 555 -15 566 -20 16 -140 22 -182 9z"/>
<path d="M6215 2866 c-5 -2 -22 -7 -37 -10 l-28 -6 0 -410 0 -409 -113 222
c-208 407 -299 568 -332 589 -24 14 -51 18 -141 18 -103 0 -112 -2 -132 -23
l-22 -23 0 -542 c0 -620 -10 -562 100 -562 110 0 100 -44 100 463 l0 442 43
-95 c54 -118 371 -713 403 -757 32 -42 81 -56 177 -52 128 7 117 -50 117 590
0 301 -4 550 -9 553 -11 7 -113 17 -126 12z"/>
<path d="M13998 2640 c-16 -10 -18 -29 -18 -170 l0 -159 -152 -3 -153 -3 -9
-42 c-5 -24 -5 -57 1 -80 l9 -38 152 -3 152 -3 0 -159 c0 -183 -2 -180 94
-180 84 0 86 4 86 186 l0 154 143 0 c98 0 147 4 155 12 16 16 16 130 0 146 -8
8 -57 12 -155 12 l-143 0 0 153 c0 83 -4 159 -9 166 -12 18 -128 26 -153 11z"/>
<path d="M6990 2471 c-16 -31 -12 -117 6 -135 13 -14 60 -16 364 -16 396 0
370 -6 370 85 0 91 27 85 -375 85 -340 0 -355 -1 -365 -19z"/>
<path d="M6990 2111 c-5 -11 -10 -41 -10 -66 0 -91 -27 -85 375 -85 402 0 375
-6 375 85 0 91 27 85 -375 85 -340 0 -355 -1 -365 -19z"/>
</g>
</svg>
