<svg    fill="#e84e4e" xmlns="http://www.w3.org/2000/svg" xmlns:xlink="http://www.w3.org/1999/xlink" version="1.1" x="0px" y="0px" viewBox="0 0 100 100" enable-background="new 0 0 100 100" xml:space="preserve"><path d="M61.076,17.269c-0.341-0.571,3.989-2.413,4.34-2.482c4.424-0.879,6.965,2.428,9.268,5.589  c2.19,3.006,5.294,6.236,9.213,6.593C83.896,26.968,67.923,28.68,61.076,17.269z"></path><path d="M60.505,18.41c0,0,8.559,13.122,22.251,9.699C82.756,28.109,63.929,35.526,60.505,18.41z"></path><path d="M83.861,66.996c-0.476-7.176-5.333-16.78-13.529-17.098c-4.15-0.16-8.473,2.115-11.618,4.775  c-6.811-7.505-1.849-27.259,0.365-34.739c1.34-1.563,2.52-3.256,3.495-5.071C62.863,14.325,64.907,9,65.001,9  c-1.323,0-2.666,0.042-3.98-0.025c-0.002,0.009-0.005,0.019-0.007,0.029c-0.721,2.983-2.234,5.57-4.013,7.997H57  c0,0.001,0,0.002-0.001,0.002c-1.261,1.721-2.649,3.364-4,4.999C38.967,38.988,38.573,50.512,39.325,55.38h0  c-3.462-2.463-8.247-4.465-12.552-3.828c-8.115,1.2-11.909,11.272-11.607,18.457c0.421,9.99,7.088,18.457,17.045,20.148  c2.594,0.441,5.784,0.81,8.401,0.414c9.877-1.495,16.305-11.878,16.13-21.355c-0.054-2.858-0.673-6.778-2.118-9.292  c-1.027-1.786-3.132-3.741-5.105-4.449c-1.427-0.512-2.969-0.613-4.473-0.599c-0.975,0.01-4.515,0.892-5.548,0.583  c-0.246-2.491,0.169-5.037,0.886-7.417c1.737-5.772,4.799-10.973,7.999-16.039c2.023-3.205,4.625-5.75,7.21-8.358  c-4.553,24.208,1.368,30.019,3.008,31.125c-0.111,0.096-0.226,0.19-0.334,0.287c-0.66,0.585-4.707,0.016-5.743,0.116  c-0.014,0.001-0.026,0.004-0.04,0.005c0.35,0.079,0.696,0.175,1.035,0.296c1.974,0.708,4.078,2.663,5.105,4.449  c1.445,2.514,2.064,6.434,2.118,9.292c0.125,6.758-3.12,13.959-8.567,18.088c2.533,1.683,5.445,2.745,8.607,2.879  c2.646,0.11,5.776-0.599,8.308-1.319C78.807,86.11,84.521,76.973,83.861,66.996z M24.276,71.01c0,0-4.126-1.089-4.08-3.353  c0,0,1.872-7.09,3.98-8.809c0,0,2.533,2.944,5.813,3.052C29.991,61.9,25.071,65.91,24.276,71.01z"></path></svg>