<svg height='300px' width='300px'  fill="#e84e4e" xmlns="http://www.w3.org/2000/svg" xmlns:xlink="http://www.w3.org/1999/xlink" version="1.1" x="0px" y="0px" viewBox="0 0 511 511" style="enable-background:new 0 0 511 511;" xml:space="preserve"><g><path d="M345.4,50H39.6c-4.1,0-7.5,3.4-7.5,7.5v124.5v28v244.3c0,4.1,3.3,7.5,7.5,7.5h305.9c4.1,0,7.5-3.4,7.5-7.5V57.5   C352.9,53.4,349.6,50,345.4,50z M338,446.9H47V210.1v-28V65H338V446.9z"></path><path d="M502.5,149.2h-0.8v-17.3c0-4.1-3.4-7.5-7.5-7.5c-4.1,0-7.5,3.4-7.5,7.5v17.3h-18.1v-17.3c0-4.1-3.4-7.5-7.5-7.5   c-4.1,0-7.5,3.4-7.5,7.5v17.3h-0.8c-4.1,0-7.5,3.4-7.5,7.5v49.6c0,4.1,3.4,7.5,7.5,7.5h17.3v157.9c0,5-4.1,9-9,9s-9-4.1-9-9v-99.2   c0-13.2-10.8-24-24-24h-9.1v-9c0-4.1-3.3-7.5-7.5-7.5H386V57.5c0-22.4-18.2-40.6-40.6-40.6H39.6C17.2,17-1,35.2-1,57.5v396.8   c0,22.4,18.2,40.6,40.6,40.6h305.9c22.4,0,40.6-18.2,40.6-40.6V280h25.6c4.1,0,7.5-3.4,7.5-7.5v-9.1h9c5,0,9.1,4.1,9.1,9l0,99.2   c0,13.2,10.8,24,24,24s24-10.8,24-24V213.8h17.3c4.1,0,7.5-3.4,7.5-7.5v-49.6C510,152.6,506.7,149.2,502.5,149.2z M371,239.4   L371,239.4L371,239.4v33.1v0v0v181.9c0,14.1-11.5,25.6-25.6,25.6H39.6c-14.1,0-25.6-11.5-25.6-25.6V57.5   c0-14.1,11.5-25.6,25.6-25.6h305.9c14.1,0,25.6,11.5,25.6,25.6V239.4z M404.1,265H386v-18.1h18.1V265z M495,198.8h-34.6v-34.6H495   V198.8z"></path><path d="M295.8,98.1h9v9c0,4.1,3.4,7.5,7.5,7.5c4.1,0,7.5-3.4,7.5-7.5V90.6c0-4.1-3.3-7.5-7.5-7.5h-16.5c-4.1,0-7.5,3.3-7.5,7.5   C288.4,94.7,291.7,98.1,295.8,98.1z"></path><path d="M72.6,114.6c4.1,0,7.5-3.4,7.5-7.5v-9h9c4.1,0,7.5-3.4,7.5-7.5c0-4.1-3.4-7.5-7.5-7.5H72.6c-4.1,0-7.5,3.3-7.5,7.5v16.5   C65.1,111.3,68.5,114.6,72.6,114.6z"></path><path d="M72.6,428.8h16.5c4.1,0,7.5-3.4,7.5-7.5c0-4.1-3.3-7.5-7.5-7.5h-9v-9c0-4.1-3.4-7.5-7.5-7.5c-4.1,0-7.5,3.3-7.5,7.5v16.5   C65.1,425.4,68.5,428.8,72.6,428.8z"></path><path d="M295.8,428.8h16.5c4.1,0,7.5-3.4,7.5-7.5v-16.5c0-4.1-3.3-7.5-7.5-7.5c-4.1,0-7.5,3.3-7.5,7.5v9h-9c-4.1,0-7.5,3.3-7.5,7.5   C288.4,425.4,291.7,428.8,295.8,428.8z"></path><path d="M192.5,288.2c17.8,0,32.3-14.5,32.3-32.3c0-17.8-14.5-32.3-32.3-32.3c-17.8,0-32.3,14.5-32.3,32.3   C160.2,273.7,174.7,288.2,192.5,288.2z M192.5,238.6c9.5,0,17.3,7.8,17.3,17.3s-7.8,17.3-17.3,17.3s-17.3-7.8-17.3-17.3   S183,238.6,192.5,238.6z"></path><path d="M192.5,213.8c4.1,0,7.5-3.4,7.5-7.5v-24.8c0-4.1-3.3-7.5-7.5-7.5c-4.1,0-7.5,3.3-7.5,7.5v24.8   C185,210.5,188.4,213.8,192.5,213.8z"></path><path d="M152.1,226.2c1.5,1.5,3.4,2.2,5.3,2.2c1.9,0,3.8-0.7,5.3-2.2c2.9-2.9,2.9-7.7,0-10.6L145.2,198c-2.9-2.9-7.7-2.9-10.6,0   c-2.9,2.9-2.9,7.7,0,10.6L152.1,226.2z"></path><path d="M118.1,263.4h24.8c4.1,0,7.5-3.4,7.5-7.5c0-4.1-3.4-7.5-7.5-7.5h-24.8c-4.1,0-7.5,3.3-7.5,7.5   C110.6,260.1,114,263.4,118.1,263.4z"></path><path d="M152.1,285.7l-17.5,17.5c-2.9,2.9-2.9,7.7,0,10.6c1.5,1.5,3.4,2.2,5.3,2.2c1.9,0,3.8-0.7,5.3-2.2l17.5-17.5   c2.9-2.9,2.9-7.7,0-10.6C159.8,282.8,155.1,282.8,152.1,285.7z"></path><path d="M192.5,298c-4.1,0-7.5,3.4-7.5,7.5v24.8c0,4.1,3.3,7.5,7.5,7.5c4.1,0,7.5-3.4,7.5-7.5v-24.8C200,301.4,196.6,298,192.5,298   z"></path><path d="M232.9,285.7c-2.9-2.9-7.7-2.9-10.6,0c-2.9,2.9-2.9,7.7,0,10.6l17.5,17.5c1.5,1.5,3.4,2.2,5.3,2.2s3.8-0.7,5.3-2.2   c2.9-2.9,2.9-7.7,0-10.6L232.9,285.7z"></path><path d="M234.6,255.9c0,4.1,3.3,7.5,7.5,7.5h24.8c4.1,0,7.5-3.3,7.5-7.5c0-4.1-3.3-7.5-7.5-7.5h-24.8   C238,248.4,234.6,251.8,234.6,255.9z"></path><path d="M227.6,228.3c1.9,0,3.8-0.7,5.3-2.2l17.5-17.5c2.9-2.9,2.9-7.7,0-10.6c-2.9-2.9-7.7-2.9-10.6,0l-17.5,17.5   c-2.9,2.9-2.9,7.7,0,10.6C223.7,227.6,225.7,228.3,227.6,228.3z"></path></g></svg>