<?xml version="1.0" encoding="utf-8"?>
<!DOCTYPE svg PUBLIC "-//W3C//DTD SVG 20010904//EN" "http://www.w3.org/TR/2001/REC-SVG-20010904/DTD/svg10.dtd">
<svg version="1.0" xmlns="http://www.w3.org/2000/svg" width="1791px" height="307px" viewBox="0 0 1791 307" preserveAspectRatio="xMidYMid meet">
 <g fill="#ffffff">
  <path d="M562.7 295.5 c-0.2 -2.6 -0.7 -4.9 -1 -5.2 -0.4 -0.3 -2.8 1.3 -5.5 3.6 -2.8 2.2 -5.5 4.1 -6.1 4.1 -2.4 0 -0.8 -2.2 4.9 -6.7 7 -5.6 6.8 -4.6 4 -23.7 -1.5 -10.5 -2.4 -14 -4 -15.6 -1.1 -1.1 -2 -2.9 -2 -4 0 -3.2 -3.2 -2.3 -6.7 1.9 -2.4 2.9 -4.2 7.2 -7.2 17.9 -2.3 7.7 -4.1 14.6 -4.1 15.3 0 0.8 2.5 3.9 5.6 7 3.5 3.5 5.4 6.2 4.9 6.9 -0.5 0.8 -2.6 -0.7 -6.5 -4.5 l-5.7 -5.7 -0.6 2.9 c-1.1 5.4 -2.7 8.7 -3.8 7.6 -0.7 -0.7 -0.6 -2.6 0.5 -6.2 0.8 -2.8 1.4 -5.1 1.3 -5.1 -0.1 0 -3.3 0.9 -7.2 2 -4.1 1.2 -7.3 1.6 -7.8 1.1 -1.2 -1.2 1.3 -2.4 9.4 -4.5 l6.7 -1.8 4.2 -15 c2.4 -8.2 4.3 -15.5 4.2 -16.1 -0.1 -0.7 -0.5 -3.1 -0.8 -5.5 -0.8 -5.3 -1.7 -5.9 -5 -3.3 -1.5 1.2 -3.4 2.1 -4.3 2.2 -0.9 0 -6.2 5.6 -11.8 12.3 l-10.3 12.3 2.6 7.7 c1.8 5.2 2.3 8.1 1.6 8.8 -0.7 0.7 -1.7 -0.9 -3.1 -4.9 -1.2 -3.2 -2.4 -6.5 -2.7 -7.3 -0.4 -1.1 -1.4 -0.6 -3.8 2.3 -3.1 3.4 -5.6 4.8 -5.6 2.9 0 -0.4 1.3 -2.3 3 -4.2 1.6 -1.9 2.9 -3.8 3 -4.1 0 -0.4 -2.1 -1 -4.7 -1.4 -7.6 -1.1 -9.3 -1.6 -9.3 -3.1 0 -1 0.7 -1.3 2.3 -0.9 7.7 1.7 14.3 2.3 15.4 1.2 0.6 -0.7 5.5 -6.3 10.7 -12.6 6.8 -8.1 9.6 -12.2 9.6 -14.1 0 -1.4 0.5 -3.1 1 -3.6 2.3 -2.3 0 -4 -5.3 -4 -4.4 0.1 -7.4 1.2 -19.2 7.1 -13 6.5 -14 7.2 -14.3 10 -0.8 10.4 -1.4 13.6 -2.5 13.2 -0.8 -0.2 -1.1 -2.7 -0.9 -7.6 l0.4 -7.2 -4.6 2.3 c-3.5 1.6 -4.9 1.9 -5.7 1.1 -0.9 -0.9 0 -1.8 3.5 -3.4 2.5 -1.3 4.6 -2.6 4.6 -3 0 -0.3 -2.5 -2.3 -5.5 -4.3 -5.1 -3.3 -6.9 -5.6 -4.5 -5.6 0.5 0 3.7 1.8 7.1 4 3.4 2.2 6.8 4 7.6 4 0.7 0 7.6 -3.1 15.2 -7 9.4 -4.7 14.2 -7.6 14.6 -9 0.3 -1.1 1.5 -2.4 2.5 -3 2.4 -1.3 1.5 -5 -1.3 -5 -1.1 0 -2.8 -0.7 -3.7 -1.5 -1.3 -1.2 -4.3 -1.4 -17.8 -0.8 l-16.2 0.6 -4 7.4 c-3.8 6.8 -6 9.1 -6 6.1 0 -0.7 1.4 -3.7 3 -6.7 1.7 -3 3 -5.8 3 -6.2 0 -0.5 -2.3 -0.7 -5.1 -0.6 -3.4 0.1 -5.3 -0.2 -5.6 -1 -0.3 -1 1.1 -1.3 5.1 -1.3 3.1 0 5.6 -0.3 5.6 -0.6 0 -0.4 -1.6 -3.3 -3.6 -6.6 -2.4 -4 -3.3 -6.3 -2.6 -7 0.6 -0.6 2.4 1.4 5.3 6.2 l4.4 7.2 16 -0.5 c14 -0.4 16.5 -0.8 20.3 -2.7 4.6 -2.4 5.4 -4.8 2.2 -6.8 -1.1 -0.7 -2 -1.8 -2 -2.6 0 -0.8 -6 -3.8 -14.9 -7.5 -8.3 -3.3 -15.2 -6.1 -15.6 -6.1 -0.3 0 -3.5 2.2 -7.2 5 -5.9 4.5 -8.3 5.4 -8.3 3.1 0 -0.4 2.7 -2.7 6.1 -5.1 l6 -4.4 -5 -2.3 c-2.8 -1.2 -5.1 -2.7 -5.1 -3.2 0 -1.5 1.2 -1.4 6.5 0.9 l4.7 2 -0.8 -5.2 c-1.1 -7.4 -1.1 -9.3 0.1 -9.6 0.6 -0.2 1.7 3.4 2.5 7.8 l1.5 8.1 14.2 5.9 c11.5 4.7 15.1 5.7 18.9 5.5 5.8 -0.4 7.1 -1.6 5.6 -5 -0.7 -1.4 -1.2 -3.4 -1.2 -4.3 0 -1 -5.1 -6.8 -11.3 -13 l-11.2 -11.2 -7.8 1.7 c-4.2 0.9 -8 1.3 -8.4 0.9 -1.1 -1.1 1.4 -2.3 7.8 -3.6 3.3 -0.7 5.9 -1.6 5.9 -1.9 0 -0.4 -1.6 -2.2 -3.5 -4.1 -1.9 -1.9 -3.5 -3.8 -3.5 -4.2 0 -1.8 2.6 -0.6 6.1 2.8 l3.6 3.5 1.9 -7 c1 -4.3 2.3 -7.1 3.1 -7.1 1.7 0 1.7 0.9 -0.9 9.6 l-2.1 7.5 11.4 11.5 c6.2 6.3 12.1 11.4 12.9 11.4 0.9 0 2.5 0.6 3.5 1.4 2.6 1.9 5.2 0.5 6 -3.4 0.4 -1.7 1.3 -3.6 2 -4.4 1 -0.9 1.5 -6.1 2 -17.7 l0.7 -16.4 -7.1 -4.3 c-3.9 -2.4 -7.1 -4.8 -7.1 -5.2 0 -2.2 2.1 -1.6 7.6 2.1 l5.9 3.9 0.5 -5.2 c0.7 -7.4 3 -7.6 3 -0.3 l0 5.7 6.5 -3.6 c7.4 -4.1 7.5 -4.1 7.5 -2.3 0 0.7 -3.1 3.1 -6.9 5.2 l-6.8 3.9 -0.7 9.5 c-1 16.3 -0.8 23.7 0.9 25.1 0.8 0.7 1.5 1.9 1.5 2.6 0 1 1.6 1.4 6.3 1.4 10.9 0 22.3 7.3 27.1 17.5 1.4 2.9 2.1 3.3 6.8 3.8 4.2 0.5 8.2 -0.1 19.8 -3.1 l14.5 -3.7 2.2 -7 c3.3 -10.1 3.2 -10 4.4 -8.8 0.7 0.7 0.4 3.1 -1 7.8 -1.2 3.7 -2.1 6.8 -2.1 7 0 0.2 2.4 -0.3 5.3 -1.1 2.8 -0.7 5.3 -1.4 5.5 -1.4 0.1 0 0.2 0.6 0.2 1.4 0 1.5 -1 1.9 -6.9 3.1 l-3.3 0.7 5.1 5.2 c4.6 4.6 6.3 7.6 4.4 7.6 -0.3 0 -3.4 -2.7 -6.8 -6 l-6.2 -5.9 -15.4 4 c-11.2 3 -16.1 4.7 -18 6.5 -1.4 1.3 -3 2.4 -3.7 2.4 -0.7 0 -1.2 0.9 -1.2 2 0 1.1 0.4 2 0.9 2 0.5 0 2.3 1.1 3.9 2.5 2.3 1.9 5.8 2.9 16.9 5 14.9 2.6 18.3 3 18.3 1.8 0.1 -0.5 2.3 -3.3 5 -6.3 3.4 -3.7 5.2 -5.2 5.9 -4.5 0.7 0.7 -0.4 2.8 -3.6 6.4 -4.9 5.6 -4.8 7 0.7 7.1 3.1 0 5.5 1.4 4.6 2.8 -0.4 0.6 -2.1 0.6 -5.2 0 -2.5 -0.6 -4.7 -0.8 -5 -0.5 -0.2 0.2 0.7 3.3 2 6.9 2.3 6.1 2.4 7.8 0.6 7.8 -0.4 0 -2 -3.4 -3.5 -7.5 -1.5 -4.1 -3 -7.7 -3.4 -7.9 -0.4 -0.3 -7.4 -1.7 -15.6 -3.1 -12.1 -2.2 -15.6 -2.5 -18.1 -1.6 -1.7 0.6 -4 1.1 -5.1 1.1 -2.5 0 -3.8 2.6 -1.9 3.7 0.7 0.5 2.1 2.2 3 4 1.1 2.1 5.7 5.9 14.5 11.8 l12.8 8.7 7.7 -3.5 c4.5 -2.1 7.8 -3.2 8.2 -2.6 0.8 1.3 1 1.1 -6.5 4.9 l-6.4 3.2 4.6 3 c2.6 1.7 4.4 3.4 4.1 3.9 -0.9 1.5 -2.5 1 -6 -1.6 -4.1 -3.2 -4.4 -3.1 -4.4 0.4 0 5.6 -1.3 12.2 -2.4 11.8 -0.6 -0.2 -0.9 -3.4 -0.7 -8.8 l0.3 -8.5 -12.9 -8.6 c-12.1 -8 -14.5 -9.1 -22.8 -10.1 -1.5 -0.1 -1.9 0.3 -1.7 1.8 0.2 1.1 0.5 3.6 0.7 5.5 0.1 2.4 2.9 7.8 8.5 16.8 l8.3 13.2 9 0 c6.6 0 8.8 0.3 8.5 1.3 -0.3 0.8 -3 1.3 -7.6 1.5 -4 0.2 -7.2 0.5 -7.2 0.8 0 0.3 1.1 2.5 2.5 4.9 1.4 2.4 2.2 4.6 1.7 4.9 -1 0.6 -2.8 -1.2 -5.7 -5.8 l-1.8 -3 -3.4 6.7 c-3.2 6.4 -5.3 8.5 -5.3 5.2 0 -0.8 1.6 -4.4 3.6 -7.9 l3.5 -6.5 -8.6 -14.1 c-4.8 -7.7 -9.4 -14 -10.2 -14 -0.7 0 -2.5 -1.2 -4 -2.6 -3 -3 -5.3 -2.5 -5.3 1.1 0 1.4 -0.5 3.3 -1.1 4.3 -0.8 1.3 -0.5 5.8 1.3 17.7 l2.3 15.9 7.5 3.2 c7.2 3.1 9.9 5.4 6.6 5.4 -0.9 0 -3.3 -0.7 -5.4 -1.6 -9 -3.8 -8.3 -4 -7.6 2.1 0.6 4.5 0.4 5.5 -0.8 5.5 -1.1 0 -1.7 -1.4 -2.1 -4.5z"/>
  <path d="M271.5 297.5 c-15.8 -2.3 -29.7 -5.3 -32.8 -7.2 -0.9 -0.5 -0.7 -6.4 1 -21.5 0.7 -6.7 1 -6.8 9.8 -3.8 16.3 5.6 54.4 9.3 73.7 7.2 18.3 -2 24.7 -5.8 26.8 -15.8 1.3 -6.2 0.5 -11.8 -2.3 -15.7 -3.9 -5.7 -11.9 -7.5 -44.2 -10.2 -24.2 -2 -31 -3.2 -40.5 -6.8 -16.5 -6.2 -23 -17.3 -23 -39.2 0 -25.2 9.8 -39.1 31.7 -45.1 14 -3.8 43.9 -5.4 63.1 -3.4 18 1.9 35.8 5.4 37.8 7.4 0.8 0.8 0.9 2.8 0.4 6.6 -0.5 3 -0.9 8.8 -0.9 12.8 -0.1 6.8 -0.2 7.2 -2.4 7.2 -1.2 0 -3.8 -0.5 -5.7 -1 -13.9 -4.1 -35.8 -7 -53.5 -7 -29.5 0 -39.5 5 -39.5 19.7 0 13.9 4.7 16.4 35.5 19.3 6.1 0.6 16.2 1.5 22.5 2.1 21.1 2 36.6 7.2 43 14.6 7.5 8.5 11 24.6 9 40.9 -2.1 17.1 -8.3 26.6 -21.4 32.8 -6.7 3.2 -9.6 4 -24 6.6 -8.1 1.4 -53 1 -64.1 -0.5z"/>
  <path d="M63.6 291.8 c-1.3 -2.9 -8.7 -21 -16.6 -40.3 -7.8 -19.2 -16 -39.2 -18.1 -44.3 -2.2 -5.1 -7.1 -17.2 -11 -27 -3.9 -9.7 -7.9 -19.5 -8.9 -21.7 -3.9 -8.5 -7 -16.9 -7 -18.7 0 -1.7 1.2 -1.8 15.9 -1.8 l15.9 0 23.2 57.8 c12.8 31.7 23.5 58.7 23.8 60 0.5 2.5 1.5 2.8 2.9 1 0.6 -0.7 5.6 -13 11.3 -27.3 5.6 -14.3 10.8 -27.3 11.5 -29 0.7 -1.6 2.1 -5 3 -7.5 0.9 -2.5 2.1 -5.5 2.6 -6.7 0.5 -1.3 1.3 -3.3 1.8 -4.5 0.5 -1.3 1.6 -4 2.5 -6 0.9 -2.1 2.8 -6.8 4.2 -10.5 4.2 -11.3 9.7 -24.7 10.7 -26 0.7 -1 5.1 -1.3 15.9 -1.3 l15 0 -0.5 3.3 c-0.2 1.7 -5.9 16.5 -12.7 32.7 -13.7 33.2 -27.1 65.7 -36.7 89.5 -3.6 8.8 -7.3 17.8 -8.3 20 -1 2.2 -2.7 6.1 -3.8 8.8 l-2.1 4.7 -16.1 0 -16.1 0 -2.3 -5.2z"/>
  <path d="M407.5 295.8 c-0.3 -0.7 -0.4 -36.4 -0.3 -79.3 l0.3 -78 13.9 -0.3 c7.7 -0.1 14.3 0.1 14.8 0.6 0.5 0.5 0.9 36 1.1 79 0.2 64.3 0 78.3 -1.1 78.7 -0.8 0.3 -7.4 0.5 -14.8 0.5 -9.9 0 -13.6 -0.3 -13.9 -1.2z"/>
  <path d="M669.8 296.3 c-0.2 -0.5 -0.2 -36.2 0 -79.5 l0.2 -78.8 19.4 0 19.3 0 40.3 53.8 c22.2 29.5 41 54.3 41.9 55 1.5 1.2 1.6 -3.3 2.1 -53.5 l0.5 -54.8 14.5 0 14.5 0 0 79 0 79 -14.9 0 -14.9 0 -45.6 -60.5 c-25 -33.3 -46 -60.5 -46.5 -60.5 -0.8 0 -1.2 18.8 -1.4 60.8 l-0.2 60.7 -14.4 0 c-8 0 -14.6 -0.3 -14.8 -0.7z"/>
  <path d="M910.5 295.8 c-0.3 -0.7 -0.4 -36.4 -0.3 -79.3 l0.3 -78 19.5 0 19.5 0 40.7 54.2 c22.5 29.9 41.1 54.3 41.4 54.2 0.4 0 1.1 0.5 1.5 1.3 0.5 0.7 0.9 -23.6 0.9 -54.4 l0 -55.8 14.5 0 14.5 0 0 79.5 0 79.5 -14.7 0 -14.8 0 -46.3 -61.6 c-25.9 -34.5 -46.4 -61 -46.7 -60.2 -0.3 0.7 -0.6 28.3 -0.8 61.3 l-0.2 60 -14.3 0.3 c-10.8 0.2 -14.4 0 -14.7 -1z"/>
  <path d="M1081.1 295.3 c0 -1 15 -36.7 33.3 -79.3 l33.2 -77.5 18.8 0 18.7 0 2.8 6.5 c8.4 19.9 42.7 99.3 44.7 103.8 1.3 2.9 2.4 5.5 2.4 5.7 0 0.2 1.4 3.4 3 7 1.7 3.6 3 6.8 3 7 0 0.2 1.3 3.3 2.8 6.7 1.6 3.5 3.5 7.9 4.2 9.8 0.8 1.9 2.2 5.1 3.1 7 1 1.9 1.4 3.8 1 4.3 -0.4 0.4 -7.9 0.6 -16.6 0.5 l-15.9 -0.3 -4.6 -11 c-2.6 -6 -5.6 -13.1 -6.8 -15.8 l-2.1 -4.7 -40.2 0.2 c-34.5 0.3 -40.3 0.5 -41 1.8 -1.2 2 -5.1 11.1 -8.3 18.9 -4.8 11.8 -3.4 11.1 -20.6 11.1 -13.6 0 -15 -0.2 -14.9 -1.7z m113.3 -57.2 c0.3 -0.4 -3.5 -10.7 -8.5 -22.7 -4.9 -12.1 -11.1 -27.1 -13.6 -33.4 -2.5 -6.3 -5 -12.1 -5.6 -12.7 -1.1 -1.5 -2.7 -0.8 -2.7 1.2 0 0.8 -1.1 3.8 -2.4 6.7 -1.3 2.9 -4.8 11.2 -7.6 18.3 -2.9 7.2 -6 14.8 -7 17 -4.5 9.9 -10 24.7 -9.5 25.6 0.8 1.2 56.2 1.2 56.9 0z"/>
  <path d="M1270 217.5 l0 -79.5 19.7 0.2 19.6 0.3 41 54.5 c22.5 30 41.5 54.6 42.3 54.8 1.2 0.3 1.4 -7.9 1.4 -54.8 l0 -55.1 14.3 0.3 14.2 0.3 0 79 0 79 -14.6 0.3 -14.6 0.3 -45.9 -61.1 c-25.2 -33.5 -46.4 -61 -47.1 -61 -1.1 0 -1.3 11.5 -1.3 60.8 l0.1 60.7 -14.6 0.3 -14.5 0.3 0 -79.6z"/>
  <path d="M1460.7 296.4 c-0.4 -0.4 -0.7 -36.2 -0.7 -79.6 l0 -78.8 19.5 0 19.5 0 41 54.8 c22.6 30.1 41.8 54.8 42.6 55 1.3 0.3 1.5 -6.6 1.4 -53.5 0 -29.6 -0.1 -54.4 0 -55.1 0 -1 3.2 -1.2 14.3 -1 l14.2 0.3 0 79 0 79 -14.6 0.3 -14.6 0.3 -45.9 -61.1 c-25.2 -33.5 -46.4 -61 -47.2 -61 -1 0 -1.2 11.7 -1.2 60.8 l0.1 60.7 -13.9 0.3 c-7.6 0.1 -14.1 -0.1 -14.5 -0.4z"/>
  <path d="M1693.7 296.3 c-0.4 -0.3 -0.7 -15 -0.7 -32.5 l0 -31.9 -32.5 -45.5 c-17.9 -25 -32.5 -46.2 -32.5 -47 0 -1.2 2.8 -1.4 18.1 -1.2 l18.2 0.3 21.7 30.3 c11.9 16.6 22.3 30.9 23.1 31.7 1.3 1.4 4 -2 23.9 -30.5 l22.4 -32 16.8 0 c14.1 0 16.8 0.2 16.8 1.5 0 0.8 -14.6 21.9 -32.5 47 l-32.5 45.5 0 32.5 0 32.5 -14.8 0 c-8.2 0 -15.2 -0.3 -15.5 -0.7z"/>
  <path d="M181 217.5 l0 -78.5 15 0 15 0 0 78.5 0 78.5 -15 0 -15 0 0 -78.5z"/>
  <path d="M561.2 166.8 c-2.8 -2.8 0.5 -11.8 4.3 -11.8 0.8 0 4.8 -6.5 9 -14.5 l7.7 -14.6 -4.3 -7 c-2.9 -4.8 -3.9 -7.3 -3.2 -8 0.7 -0.7 2.2 0.9 4.8 5 2 3.4 4 6.1 4.4 6.1 0.4 0 1.7 -2.1 3 -4.6 1.5 -3.2 2.5 -4.4 3.2 -3.7 0.7 0.7 0.4 2.4 -1 5.1 -1.2 2.3 -2.1 4.4 -2.1 4.7 0 0.3 3.4 0.5 7.5 0.5 4.2 0 7.5 0.4 7.5 1 0 1.3 -3.1 1.9 -10.9 2.2 l-6.4 0.3 -7.3 13.5 c-5.6 10.3 -7.3 14.5 -7.3 17.6 -0.1 6.8 -5.4 11.7 -8.9 8.2z"/>
  <path d="M611.3 152.3 c-0.7 -0.2 -1.3 -1.7 -1.3 -3.3 0 -3.7 4.2 -7.1 8.4 -6.9 2.4 0.2 6.2 -1.8 16.4 -8.5 l13.2 -8.7 0 -8.4 c0 -8.5 1.2 -11.2 2.4 -5.4 0.3 1.7 0.6 5.1 0.6 7.6 l0 4.4 4.5 -3.1 c2.5 -1.7 5 -2.8 5.5 -2.5 1.5 0.9 0.4 2.2 -4.3 5.2 l-4.1 2.6 6.7 3.4 c3.7 1.8 6.7 3.8 6.7 4.3 0 1.6 -1.6 1.2 -8.7 -2 -3.6 -1.6 -7 -3 -7.6 -3 -0.6 0 -7 3.9 -14.4 8.6 -9.1 5.9 -13.3 9.2 -13.3 10.4 0 3.7 -6.6 7 -10.7 5.3z"/>
  <path d="M613 113.5 c-1.7 -2.1 -1.5 -7.3 0.3 -9.4 0.9 -0.9 1.8 -4.8 2.1 -9.6 0.4 -4.4 0.9 -10.7 1.2 -14 l0.5 -6 -6 -4.3 c-5.5 -3.8 -7.5 -6.2 -5.3 -6.2 0.4 0 3 1.6 5.7 3.6 l5 3.5 0.8 -5 c1.1 -6.5 2.7 -6.6 2.7 -0.1 0 2.8 0.3 5 0.8 5 0.4 0 2.7 -1.1 5.1 -2.5 4.7 -2.7 6.1 -3.1 6.1 -1.5 0 0.5 -2.7 2.3 -6 4 -3.4 1.7 -6.3 3.6 -6.5 4.3 -0.2 0.7 -0.8 7.2 -1.2 14.4 -0.6 10.1 -0.5 13.7 0.4 15 3.9 5.3 -1.6 13.7 -5.7 8.8z"/>
  <path d="M668.4 73.5 c-1 -1.5 -1.4 -3.7 -1.2 -5.6 0.4 -2.2 -0.9 -6.8 -4 -14.8 -2.4 -6.4 -4.8 -12.3 -5.3 -13.3 -0.6 -1 -3.3 -2 -7.9 -2.8 -5 -0.8 -7 -1.6 -7 -2.7 0 -0.9 0.6 -1.2 1.8 -0.9 3.4 1 11.2 1.8 11.2 1.2 0 -0.4 -0.7 -2.3 -1.5 -4.3 -1 -2.4 -1.2 -4 -0.6 -4.6 0.7 -0.7 1.7 0.6 3.1 3.7 l2 4.8 4.1 -5.1 c2.2 -2.8 4.5 -4.9 5 -4.5 1.1 0.6 0.6 1.5 -3.6 6.9 -1.8 2.2 -3.5 4.5 -3.8 5.1 -0.4 0.6 1.6 6.8 4.3 13.8 3.4 8.9 5.8 13.5 7.9 15.5 3.2 3 4 6.8 1.9 8.9 -1.9 1.9 -4.6 1.4 -6.4 -1.3z"/>
  <path d="M694.2 50.8 c-2.1 -2.1 -1.3 -5.9 1.8 -8.8 2 -1.9 4.3 -6.4 7.5 -14.9 2.5 -6.7 4.5 -12.7 4.5 -13.4 0 -0.7 -1.8 -3.4 -4 -6.2 -5.6 -7 -4.9 -9.1 0.9 -2.6 l4.8 5.3 1.6 -4.1 c0.9 -2.2 2.1 -4.1 2.7 -4.1 1.4 0 1.3 1.1 -0.6 5.5 l-1.5 3.7 4.8 -0.7 c2.6 -0.3 5.5 -0.7 6.3 -0.8 0.8 -0.1 1.6 0.2 1.8 0.8 0.2 0.5 -2.9 1.7 -6.9 2.5 l-7.1 1.5 -4.8 12.8 c-3.6 9.7 -4.7 13.7 -4.3 16.3 1 5.9 -4 10.7 -7.5 7.2z"/>
 </g>
</svg>