<?xml version="1.0" encoding="utf-8"?>
<!DOCTYPE svg PUBLIC "-//W3C//DTD SVG 20010904//EN" "http://www.w3.org/TR/2001/REC-SVG-20010904/DTD/svg10.dtd">
<svg version="1.0" xmlns="http://www.w3.org/2000/svg" width="1791px" height="306px" viewBox="0 0 1791 307" preserveAspectRatio="xMidYMid meet">
 <g fill="#e84e4e">
  <path d="M563.5 294.5 l-0.7 -5.5 -5.9 4.7 c-3.9 3 -6.3 4.3 -6.9 3.7 -0.7 -0.7 1.2 -2.8 5.5 -6.2 3.6 -2.9 6.5 -5.8 6.5 -6.5 0 -0.7 -1 -7.9 -2.2 -16.2 -1.3 -9.6 -2.6 -15.3 -3.5 -15.8 -0.7 -0.4 -2 -2.4 -2.8 -4.3 -1.6 -4 -3.2 -4.4 -4.5 -1 -0.5 1.3 -1.8 3 -2.9 3.8 -1.3 0.9 -3.2 5.8 -6 15.5 -2.3 7.8 -4.1 15 -4.1 16 0 1 2.3 4.1 5 6.8 4.5 4.4 6.2 7.5 4.3 7.5 -0.4 0 -3 -2.3 -5.9 -5.1 l-5.1 -5 -1.3 4.6 c-2.1 7.7 -5 7.6 -3.1 -0.1 0.7 -2.5 1.1 -4.8 0.9 -5 -0.2 -0.1 -3.4 0.6 -7 1.6 -4.3 1.2 -7 1.5 -7.4 0.9 -0.9 -1.5 -0.4 -1.7 8.2 -4.2 l7.9 -2.3 4.2 -14.4 c3.6 -12.4 4.1 -15.3 3.6 -20.3 -0.7 -6.4 -1.6 -7.6 -4.1 -5.4 -0.9 0.9 -2.9 1.8 -4.4 2.2 -1.8 0.5 -5.7 4.3 -11.5 11.3 -12.7 15.3 -11.8 13.1 -8.8 21.3 2.9 8.1 3 8.9 1.2 8.9 -0.8 0 -2.4 -3 -3.7 -6.9 l-2.4 -7 -3.4 4 c-1.8 2.1 -3.8 3.9 -4.3 3.9 -1.8 0 -0.9 -2.3 2.3 -5.9 l3.2 -3.6 -6.1 -1.1 c-7.9 -1.4 -9.9 -2.2 -8.7 -3.4 0.7 -0.7 2.9 -0.7 6.3 0 10.8 2 10.5 2.2 21.4 -11 5.3 -6.5 9.7 -12.6 9.7 -13.7 0 -1 0.7 -3 1.4 -4.5 1.8 -3.4 0.9 -4.1 -5.4 -4.3 -3.7 -0.1 -7.1 1.2 -18.7 6.8 l-14.1 6.9 -0.7 8.4 c-0.6 6.4 -1.1 8.4 -2.2 8.4 -1.2 0 -1.4 -1.3 -0.8 -7.5 0.4 -4.1 0.4 -7.5 0.1 -7.5 -0.4 0 -2.4 0.9 -4.6 2 -4.4 2.2 -6 2.5 -6 1 0 -0.6 2 -2 4.5 -3.2 2.5 -1.2 4.5 -2.5 4.5 -2.9 0 -0.3 -2.5 -2.3 -5.5 -4.3 -5.1 -3.4 -6.9 -5.6 -4.4 -5.6 0.5 0 3.7 1.8 6.9 4 3.2 2.2 6.3 4 6.9 4 2.2 0 30.1 -14.4 30.1 -15.5 0 -0.6 0.9 -2 2 -3 2.4 -2.2 2.6 -5.5 0.4 -5.5 -0.9 0 -2.8 -0.7 -4.3 -1.6 -2.4 -1.4 -4.8 -1.5 -18.7 -0.8 l-15.9 0.9 -3.9 7.3 c-2.2 3.9 -4.3 7.2 -4.8 7.2 -1.6 0 -0.7 -3.6 2.2 -8.5 1.6 -2.7 3 -5.4 3 -5.8 0 -0.5 -2.3 -0.7 -5.2 -0.6 -7 0.4 -7.2 -1.5 -0.3 -2.7 l5.6 -0.9 -3.6 -5.2 c-3.3 -4.9 -4.4 -8.3 -2.7 -8.3 0.4 0 2.7 3.2 5.2 7.1 l4.5 7.1 16.4 -0.6 c11.7 -0.5 16.9 -1 18 -2 0.9 -0.8 2.6 -1.7 3.9 -2 3 -1 2.8 -2.7 -1.1 -6.9 -2.5 -2.7 -6.4 -4.9 -16.9 -9.1 -7.5 -3.1 -14.1 -5.6 -14.6 -5.6 -0.5 0 -3.5 2 -6.8 4.5 -5.7 4.3 -8.4 5.5 -8.4 3.6 0 -0.5 2.5 -2.7 5.5 -5 3.1 -2.3 5.3 -4.6 5.1 -5 -0.3 -0.4 -2.3 -1.3 -4.5 -2.1 -2.3 -0.7 -4.1 -1.9 -4.1 -2.7 0 -1.7 0.5 -1.6 5.7 0.3 2.4 0.9 4.5 1.5 4.7 1.3 0.3 -0.2 0 -2.4 -0.4 -4.9 -1.3 -6.7 -1.2 -10.2 0.3 -9.8 0.7 0.3 1.7 3.9 2.4 8.3 0.7 4.3 1.6 8.1 2 8.5 0.4 0.4 7.1 3.2 14.8 6.3 12.2 4.8 14.6 5.5 18.7 5 4.7 -0.6 6.9 -2.6 4.8 -4.7 -0.5 -0.5 -1 -2 -1 -3.3 0 -1.6 -3.5 -5.9 -11.3 -14 l-11.3 -11.6 -6.7 1.6 c-7.8 2 -11 2.2 -10.5 0.5 0.3 -0.7 3.3 -1.8 6.9 -2.6 3.5 -0.8 6.6 -1.6 6.8 -1.8 0.2 -0.2 -1.1 -2.1 -2.8 -4.2 -3.5 -4.5 -3.7 -5.2 -1.7 -5.2 0.8 0 2.8 1.7 4.5 3.7 1.7 2 3.2 3.5 3.4 3.2 0.2 -0.2 1.2 -3.4 2.1 -7.1 1.2 -4.6 2.3 -6.8 3.3 -6.8 1 0 1.4 0.6 1 1.8 -0.2 0.9 -1.3 4.7 -2.3 8.4 l-1.8 6.8 10.9 11.2 c7.1 7.3 12 11.5 13.8 11.9 1.6 0.4 3.4 1.2 3.9 1.7 1.7 1.7 4.8 -0.5 4.8 -3.2 0 -1.3 0.8 -3.4 1.9 -4.7 1.6 -2.1 1.9 -4.7 2.2 -18.4 l0.4 -16 -6.5 -4.2 c-3.6 -2.3 -6.6 -4.9 -6.8 -5.8 -0.5 -2.3 0.8 -1.9 7.3 2.5 l6 4 0.3 -5.5 c0.2 -4 0.7 -5.5 1.7 -5.5 1.1 0 1.5 1.4 1.5 5.5 l0 5.5 6.3 -3.5 c7 -3.9 7.7 -4.1 7.7 -2.2 0 0.6 -3 2.8 -6.6 4.7 -3.9 2.1 -7 4.4 -7.5 5.8 -0.5 1.3 -0.9 8.8 -0.9 16.7 0 18.5 0.7 19.9 9.5 20.3 10.8 0.5 20.3 6.4 25.7 15.9 1.6 2.9 3.4 5.1 3.9 4.8 0.5 -0.3 2.6 -0.1 4.6 0.5 3.3 0.9 5.9 0.5 18.7 -2.8 l15 -3.8 2.1 -7 c2.5 -8 3.3 -9.7 4.5 -8.9 0.5 0.3 0 3.6 -1.1 7.3 -1 3.7 -1.9 6.9 -1.9 7.1 0 0.4 3.6 -0.3 8.4 -1.5 1.9 -0.5 2.6 -0.2 2.6 0.9 0 1 -1.7 1.9 -5 2.7 l-5.1 1.2 5.2 5.5 c3.8 4.1 4.9 5.7 4 6.6 -0.8 0.8 -2.7 -0.4 -7.4 -5 l-6.2 -6.1 -15.5 4 c-8.6 2.2 -15.9 4.6 -16.3 5.4 -0.4 0.8 -2.1 2.1 -3.7 2.9 -3.2 1.6 -4.1 4.5 -1.5 4.5 0.9 0 2.7 1.1 4 2.4 1.9 1.9 5 2.8 18.1 5.1 l15.8 2.8 5.4 -6.2 c3 -3.3 5.8 -6.1 6.3 -6.1 1.9 0 0.7 2.4 -3.7 7.5 l-4.5 5.4 3.8 0.6 c5.9 1 7.3 1.5 7.3 2.7 0 0.7 -1.9 0.9 -5.5 0.4 -3 -0.3 -5.5 -0.3 -5.5 0.1 0 0.5 0.9 3.2 2 6.1 2.2 5.7 2.5 8.2 1.1 8.2 -0.5 0 -2.2 -3.3 -3.6 -7.2 -1.5 -4 -3 -7.6 -3.4 -8 -0.3 -0.4 -7.3 -1.9 -15.5 -3.4 -12.9 -2.3 -15.3 -2.5 -18.6 -1.4 -2.1 0.7 -4.5 1 -5.3 0.7 -2.5 -0.9 -3 2.4 -0.7 4.8 1.1 1.2 2 2.8 2 3.7 0 0.8 6 5.5 13.8 10.7 l13.9 9.2 7.3 -3.5 c7.1 -3.4 10.3 -3.8 8 -1.1 -0.6 0.7 -3.5 2.3 -6.5 3.5 -3 1.2 -5.5 2.5 -5.5 2.9 0 0.3 1.8 1.7 4 3.1 2.2 1.4 4 3 4 3.7 0 1.9 -1.7 1.6 -5.7 -1.2 -2 -1.3 -3.9 -2.3 -4.1 -2.1 -0.2 0.2 -0.7 3.5 -1 7.3 -1 9.6 -2.8 8.1 -2.4 -2 l0.3 -8.2 -13.1 -8.9 c-8.1 -5.4 -14.4 -8.9 -16.3 -9.2 -1.8 -0.1 -4.3 -0.4 -5.7 -0.6 -2 -0.2 -2.4 0.1 -2.2 1.7 0.1 1.1 0.4 3.6 0.5 5.5 0.2 2.4 3 7.8 8.6 16.8 l8.4 13.2 8.4 0 c6.3 0 8.4 0.3 8.1 1.3 -0.3 0.8 -3 1.3 -7.6 1.5 l-7.2 0.3 2.5 3.9 c1.4 2.2 2.5 4.4 2.5 5 0 2.2 -2.1 0.8 -4.6 -3 -1.5 -2.2 -2.8 -4 -3 -4 -0.2 0 -1.6 2.4 -3 5.3 -3.2 6.3 -4.4 7.8 -5.5 7.1 -0.5 -0.3 0.7 -3.7 2.7 -7.6 2 -3.9 3.3 -7.9 3.1 -8.9 -0.3 -1 -4 -7.4 -8.3 -14.3 -5.9 -9.3 -8.6 -12.8 -10.7 -13.5 -1.5 -0.6 -3 -1.7 -3.3 -2.6 -1 -2.4 -4.4 -1.9 -4.4 0.7 0 1.2 -0.5 3.6 -1.1 5.3 -1 2.5 -0.7 6.1 1 17.9 1.1 8.1 2.3 15.1 2.6 15.6 0.2 0.4 3.6 2 7.5 3.6 3.8 1.6 7 3.5 7 4.3 0 1.5 -1.1 1.3 -8.9 -1.8 l-5.3 -2.2 0.7 5.6 c0.5 4.5 0.4 5.5 -0.9 5.5 -1 0 -1.7 -1.6 -2.1 -5.5z"/>
  <path d="M277 296.9 c-16.6 -2.2 -36.3 -6.2 -38.2 -7.8 -0.7 -0.6 1 -26.2 1.8 -27 0.2 -0.3 3.2 0.5 6.7 1.6 14.8 5.1 38.9 8.3 60.8 8.2 22.5 0 34.2 -2.6 38.9 -8.7 2.8 -3.5 4.3 -9.9 3.7 -15.9 -1.2 -12 -8.2 -15 -39.2 -17.3 -41.3 -3 -55.3 -7.1 -64.1 -18.7 -5.2 -6.8 -6.9 -13.8 -6.8 -28.8 0 -11.1 0.4 -13.9 2.3 -19 4.8 -12.4 12.4 -19.3 26.3 -23.9 21.4 -7.1 66.1 -6.7 97.1 0.8 3.2 0.7 6 1.6 6.2 1.8 0.8 0.7 -0.7 24.5 -1.6 25.9 -0.5 0.9 -3.2 0.6 -11.1 -1.4 -19 -4.8 -23.1 -5.2 -48.8 -5.2 l-24.5 0 -6 3 c-7.8 3.9 -9.7 7.1 -9.7 16.5 -0.1 7.5 1.3 10.7 5.7 13.6 4.5 2.9 11.2 3.9 50.5 7.5 41 3.7 54.2 15.1 54.1 46.3 -0.1 31.4 -11.9 43.3 -47.8 48.6 -8.4 1.2 -46.8 1.1 -56.3 -0.1z"/>
  <path d="M65 293.6 c-0.5 -1.4 -2.6 -6.5 -4.6 -11.3 -2 -4.8 -13.3 -32.4 -25.1 -61.3 -11.7 -28.9 -22 -53.8 -22.8 -55.5 -0.7 -1.6 -3.2 -7.7 -5.5 -13.5 -2.3 -5.8 -4.8 -11.2 -5.6 -12.1 -0.8 -0.8 -1.4 -1.9 -1.4 -2.2 0 -1.3 32.8 -0.8 33.6 0.4 0.4 0.7 11.2 27.3 24 59.2 12.8 31.9 23.9 58.4 24.6 58.8 1.6 1 2.1 0.4 3.7 -4.1 1.3 -3.6 6.6 -16.9 8.2 -20.5 0.5 -1.1 1.3 -3.3 1.9 -5 0.6 -1.6 1.6 -4.1 2.1 -5.5 0.6 -1.4 8.3 -20.7 17.3 -43 l16.2 -40.5 15.2 -0.3 c13.7 -0.2 15.2 -0.1 15.2 1.4 0 1.6 -7.6 21.2 -12 30.9 -1 2.2 -4.6 11 -8 19.5 -3.4 8.5 -6.8 16.9 -7.5 18.5 -0.7 1.7 -1.9 4.6 -2.8 6.5 -0.8 1.9 -4.7 11.4 -8.6 21 -3.9 9.6 -11 27.2 -15.8 39 l-8.8 21.5 -16.3 0.3 -16.2 0.2 -1 -2.4z"/>
  <path d="M671.2 295.2 c-1 -0.7 -1.2 -17.2 -1 -79.3 l0.3 -78.4 18.6 -0.3 c18.1 -0.2 18.6 -0.2 20.6 2 1.1 1.3 19.7 25.8 41.3 54.6 23.9 31.9 39.8 52.2 40.7 52 1.2 -0.3 1.4 -8.5 1.3 -53.2 0 -38.1 0.3 -53.2 1.1 -54.2 0.9 -1.1 4.4 -1.4 14.5 -1.4 l13.4 0 0.2 78.6 c0.2 48.6 -0.1 78.9 -0.7 79.5 -1.1 1.1 -26.4 1.2 -28.1 0.1 -0.7 -0.4 -21.3 -27.5 -45.9 -60.2 -28.1 -37.5 -45.3 -59.6 -46.6 -59.8 -1.8 -0.3 -1.9 1 -2.1 60 l-0.3 60.3 -13 0.3 c-7.1 0.1 -13.6 -0.2 -14.3 -0.6z"/>
  <path d="M911.3 295.3 c-1.8 -0.7 -1.9 -155.3 -0.1 -157.1 0.8 -0.8 6.5 -1.2 19 -1.2 17.7 0 17.9 0 20.1 2.4 1.2 1.4 19.8 25.9 41.2 54.5 24.9 33.2 39.6 52 40.7 52.1 1.7 0 1.8 -3.4 2 -54.2 l0.3 -54.3 14 0 14 0 0 79 0 79 -14.5 0 -14.5 0 -45.5 -60.6 c-35.1 -46.7 -45.9 -60.5 -47.3 -60.1 -1.6 0.4 -1.7 3.9 -1.7 59.6 0 32.5 0 59.7 0 60.4 0 0.9 -3.3 1.2 -13.2 1.1 -7.3 0 -13.9 -0.3 -14.5 -0.6z"/>
  <path d="M1081.6 295.1 c-0.5 -0.7 19.5 -49 27.9 -67.6 0.7 -1.6 4.8 -11.1 9 -21 4.2 -9.9 8.5 -19.9 9.6 -22.2 1 -2.4 1.9 -4.5 1.9 -4.8 0 -0.3 0.9 -2.4 2 -4.8 1 -2.3 4.7 -10.7 8 -18.7 8.9 -21.2 5.9 -19 26.4 -19 12.7 0 17.6 0.3 18.3 1.3 0.6 0.6 2.7 5.3 4.8 10.2 2.1 5 4.6 10.8 5.5 13 1 2.2 6.5 15 12.3 28.5 5.8 13.5 18.2 42.4 27.6 64.3 9.5 21.9 16.9 40.2 16.6 40.7 -0.7 1.2 -29.5 1.3 -31.1 0.2 -0.5 -0.4 -2.1 -3.4 -3.4 -6.7 -2.8 -7.3 -7.5 -18.1 -9.3 -21.5 l-1.3 -2.5 -38.6 -0.3 c-21.7 -0.1 -39.7 0.2 -41 0.7 -1.9 0.7 -3.7 3.9 -8.3 14.8 -3.2 7.6 -6.3 14.4 -6.8 15.1 -1.1 1.4 -29.2 1.8 -30.1 0.3z m113.4 -58.4 c0 -3 -27.6 -68.2 -29 -68.5 -1 -0.2 -2.7 2.7 -5.2 9 -4.8 12 -12.7 31.1 -19 46.1 -2.7 6.5 -4.7 12.5 -4.4 13.3 0.8 2 57.6 2.1 57.6 0.1z"/>
  <path d="M1271.2 295.2 c-1 -0.7 -1.2 -17.2 -1 -79.3 l0.3 -78.4 18.7 -0.3 c18.4 -0.2 18.8 -0.2 20.7 2 1.1 1.3 19.9 26.2 41.9 55.3 21.9 29.2 40.3 52.9 40.8 52.8 0.5 -0.2 1.1 -23.1 1.4 -55 l0.5 -54.8 14 0 14 0 0 79 0 79 -13.9 0.3 c-10.1 0.2 -14.2 -0.1 -15.4 -1 -0.8 -0.7 -21.5 -28 -46 -60.6 -30.4 -40.4 -45 -59.2 -46.1 -59 -1.4 0.3 -1.7 6.6 -2.1 60.3 l-0.5 60 -13 0.3 c-7.1 0.1 -13.6 -0.2 -14.3 -0.6z"/>
  <path d="M1460.5 294.8 c-0.3 -0.7 -0.4 -36.4 -0.3 -79.3 l0.3 -78 18.7 -0.3 c17.8 -0.2 18.9 -0.1 20.5 1.8 1 1.1 19.8 26 41.8 55.3 22.1 29.2 40.5 53.1 41.1 53 0.5 -0.2 1.1 -22 1.4 -55 l0.5 -54.8 14 0 14 0 0 79 0 79 -14 0.2 c-7.7 0.2 -14.5 0 -15.1 -0.5 -0.6 -0.4 -21.2 -27.6 -45.9 -60.5 -30.6 -40.9 -45.3 -59.7 -46.4 -59.5 -1.4 0.3 -1.7 6.5 -2.1 60.3 l-0.5 60 -13.8 0.3 c-10.4 0.2 -13.9 -0.1 -14.2 -1z"/>
  <path d="M1693.6 294.4 c-0.4 -1 -0.6 -15.6 -0.6 -32.6 0.1 -27.9 0 -31.2 -1.6 -33.6 -1 -1.5 -15.6 -22.1 -32.6 -45.8 -16.9 -23.8 -30.8 -43.7 -30.8 -44.3 0 -1.3 33.7 -1.6 35.6 -0.3 0.6 0.4 11.1 14.8 23.4 32 12.2 17.2 22.8 31.1 23.4 30.9 1.2 -0.4 6.1 -7.2 34.5 -48.2 4.6 -6.6 9.2 -12.8 10.3 -13.7 1.7 -1.6 4.2 -1.8 17.9 -1.8 12.1 0 15.9 0.3 15.9 1.3 0 0.6 -14.6 21.6 -32.5 46.6 l-32.5 45.4 -0.2 32.6 -0.3 32.6 -14.6 0.3 c-13 0.2 -14.7 0.1 -15.3 -1.4z"/>
  <path d="M181.2 216.8 l0.3 -78.3 14.5 0 14.5 0 0.3 78.3 0.2 78.2 -15 0 -15 0 0.2 -78.2z"/>
  <path d="M407 216.6 c0 -70.6 0.2 -78.4 1.6 -79 2.5 -1 27.2 -0.7 27.9 0.3 0.3 0.5 0.5 36 0.5 78.8 l0 77.8 -15 0.3 -15 0.3 0 -78.5z"/>
  <path d="M562.4 167.2 c-3.6 -2.3 -1.6 -10.6 2.9 -11.7 1.6 -0.5 4.2 -4.4 9.9 -15.1 l7.7 -14.5 -3.9 -6.6 c-3.9 -6.3 -4.9 -9.3 -3.1 -9.3 0.4 0 2.5 2.8 4.6 6.1 4.1 6.7 4 6.7 7.8 -0.2 1.3 -2.3 2.1 -2.9 2.9 -2.1 0.8 0.8 0.3 2.3 -1.6 5.6 l-2.7 4.6 8.1 0 c4.4 0 8 0.4 8 0.9 0 1.1 -6 2.1 -12.5 2.1 l-5 0 -7.5 14.3 c-6.1 11.6 -7.4 14.9 -7.2 17.9 0.5 5.5 -4.7 10.5 -8.4 8z"/>
  <path d="M611 151 c-2.1 -3.9 2.3 -8.9 7.9 -9 2.5 0 6.8 -2.2 16.8 -8.7 l13.5 -8.8 -0.4 -8.2 c-0.4 -10.1 1.4 -11.7 2.3 -2.1 0.3 3.8 0.8 7.1 1.2 7.4 0.3 0.3 2.3 -0.6 4.4 -2 4.3 -3 5.3 -3.2 5.3 -1.2 0 0.8 -1.8 2.5 -4 3.7 -2.2 1.3 -4 2.5 -4 2.9 0 0.3 3 2 6.6 3.8 4.8 2.4 6.4 3.6 5.6 4.4 -0.8 0.8 -3 0.2 -7.9 -2.2 -3.7 -1.8 -7.2 -3.3 -7.8 -3.3 -0.5 0 -6.9 3.8 -14.1 8.5 -9.8 6.4 -13.3 9.2 -13.8 11.2 -0.7 2.7 -5.1 5.6 -8.5 5.6 -1.1 0 -2.5 -0.9 -3.1 -2z"/>
  <path d="M613.6 113.4 c-2.1 -2 -2 -5.4 0.2 -8.4 1.3 -1.9 2 -6 2.7 -16.5 1.1 -15.5 1.7 -13.8 -6.2 -19.5 -3.9 -2.7 -5.5 -5 -3.5 -5 0.4 0 3 1.6 5.7 3.6 l5 3.5 0.5 -4.7 c0.3 -2.8 1.1 -4.9 1.9 -5.2 1.1 -0.4 1.3 0.5 0.8 4.7 -0.3 2.8 -0.4 5.1 -0.1 5.1 0.2 0 2.7 -1.1 5.4 -2.5 5.3 -2.7 7 -3.1 7 -1.5 0 0.6 -2.9 2.5 -6.5 4.2 -4.8 2.4 -6.5 3.8 -6.5 5.3 0 1.1 -0.5 7.4 -1 13.9 -0.7 9.9 -0.6 12.3 0.6 14 1.8 2.7 1.8 5.6 -0.2 8.4 -1.8 2.6 -3.7 2.8 -5.8 0.6z"/>
  <path d="M669.4 73.9 c-1.2 -1.4 -1.8 -3.3 -1.6 -6.2 0.1 -2.9 -1.3 -7.9 -4.4 -16.2 -2.5 -6.6 -4.9 -12.3 -5.3 -12.8 -0.4 -0.4 -3.8 -1.3 -7.7 -2 -3.8 -0.7 -6.7 -1.7 -6.4 -2.2 0.3 -0.6 1.2 -0.9 2 -0.8 0.8 0.1 3.6 0.5 6.2 0.8 l4.8 0.7 -1.5 -4.3 c-1 -2.8 -1.2 -4.6 -0.6 -5.2 1 -1 1.3 -0.5 4 6.7 0.6 1.6 1.3 1.2 4.7 -3.2 2.1 -2.8 4.2 -5.1 4.7 -5.2 1.7 -0.1 0.5 2.6 -3.5 7.7 l-4.1 5.4 4.8 12.7 c3.4 9.3 5.5 13.4 7.7 15.2 2.9 2.5 4 7.2 2.4 9.9 -1.1 1.7 -4.1 1.3 -6.2 -1z"/>
  <path d="M694.7 51.3 c-0.4 -0.3 -0.7 -2.2 -0.7 -4 0 -2.5 0.8 -4.1 2.9 -6.1 2.1 -1.9 4.3 -6.4 7.7 -15.4 l4.7 -12.7 -4.6 -5.7 c-5.9 -7.5 -4.8 -9.4 1.4 -2.4 l4.7 5.3 1.2 -3.9 c1.5 -4.6 2.5 -6 3.4 -4.5 0.4 0.5 0 2.7 -0.9 4.7 -0.8 2 -1.3 3.9 -1.1 4.1 0.2 0.3 3 0 6.2 -0.6 3.7 -0.7 6.1 -0.8 6.8 -0.1 1.1 1.1 0.4 1.4 -7.9 2.9 -3.2 0.6 -6.2 1.5 -6.6 1.9 -0.4 0.4 -2.8 6.2 -5.4 13 -3.4 9 -4.5 13.1 -4 15.2 0.6 2.9 -0.8 6.8 -2.9 8.2 -1.4 1 -4.1 1 -4.9 0.1z"/>
 </g>
</svg>