<svg height='300px' width='300px'  fill="#e84e4e" xmlns="http://www.w3.org/2000/svg" xmlns:xlink="http://www.w3.org/1999/xlink" version="1.1" x="0px" y="0px" viewBox="7.5 7.5 50 50" enable-background="new 7.5 7.5 50 50" xml:space="preserve"><path d="M53.934,30.157c-0.33,0-0.643,0.064-0.943,0.156l-4.707-8.183c0.278-0.479,0.45-1.028,0.45-1.622  c0-1.792-1.457-3.249-3.249-3.249c-0.983,0-1.854,0.448-2.451,1.14l-7.43-2.918c0.023-0.155,0.048-0.31,0.048-0.471  c0-1.792-1.457-3.249-3.249-3.249c-1.792,0-3.249,1.458-3.249,3.249c0,0.123,0.023,0.239,0.036,0.358l-6.296,0.886  c-0.545-1.031-1.616-1.744-2.862-1.744c-1.792,0-3.249,1.458-3.249,3.249c0,0.614,0.181,1.182,0.478,1.672l-5.243,5.386  c-0.303-0.094-0.618-0.159-0.951-0.159c-1.792,0-3.249,1.458-3.249,3.249s1.458,3.249,3.249,3.249c0.594,0,1.144-0.172,1.623-0.451  l8.451,5.115c-0.012,0.11-0.034,0.219-0.034,0.333c0,1.792,1.458,3.249,3.249,3.249c0.919,0,1.747-0.388,2.338-1.004l12.402,10.54  c-0.114,0.331-0.189,0.681-0.189,1.05c0,1.792,1.457,3.249,3.249,3.249s3.249-1.457,3.249-3.249c0-0.199-0.024-0.392-0.059-0.581  l8.258-12.787c0.11,0.011,0.217,0.033,0.33,0.033c1.792,0,3.249-1.457,3.249-3.248C57.183,31.615,55.726,30.157,53.934,30.157z   M26.26,29.213c1.396-0.182,2.517-1.242,2.771-2.615l5.105,0.965c-0.013,0.115-0.035,0.227-0.035,0.344  c0,0.697,0.226,1.341,0.602,1.871l-7.241,5.479c-0.288-0.993-1.029-1.786-1.992-2.142L26.26,29.213z M32.402,18.26  c0.272,0,0.533-0.043,0.785-0.107l2.457,7.002c-0.551,0.343-0.993,0.84-1.26,1.438l-5.337-1.009  c-0.104-0.79-0.486-1.486-1.054-1.992l3.522-5.47C31.8,18.203,32.093,18.26,32.402,18.26z M27.577,36.424l7.833-5.927  c0.543,0.408,1.21,0.659,1.94,0.659c0.513,0,0.992-0.13,1.424-0.343l2.733,5.014c-0.579,0.485-0.988,1.159-1.121,1.936  l-12.819-1.241C27.571,36.488,27.575,36.456,27.577,36.424z M50.685,33.406c0,0.158,0.024,0.311,0.047,0.464l-4.42,2.691  c-0.578-0.9-1.583-1.502-2.73-1.502c-0.432,0-0.843,0.089-1.22,0.242l-2.76-5.061c0.613-0.591,0.998-1.417,0.998-2.333  c0-0.64-0.192-1.233-0.513-1.736l3.504-3.033c0.534,0.386,1.186,0.62,1.894,0.62c0.813,0,1.547-0.31,2.117-0.805l4.481,7.789  C51.24,31.33,50.685,32.303,50.685,33.406z M42.88,22.432l-3.459,2.993c-0.563-0.471-1.279-0.766-2.07-0.766  c-0.271,0-0.531,0.043-0.783,0.106l-2.457-7.003c0.514-0.32,0.927-0.778,1.196-1.323l7.181,2.82  c-0.161,0.385-0.252,0.807-0.252,1.25C42.235,21.23,42.479,21.892,42.88,22.432z M30.594,17.708l-3.436,5.334  c-0.404-0.18-0.847-0.285-1.317-0.285c-0.477,0-0.926,0.109-1.334,0.294l-2.161-3.019c0.576-0.587,0.934-1.389,0.934-2.273  c0-0.186-0.025-0.365-0.055-0.542l6.221-0.875C29.697,16.897,30.094,17.372,30.594,17.708z M17.909,20.2  c0.571,0.497,1.308,0.809,2.123,0.809c0.546,0,1.054-0.148,1.506-0.388l2.135,2.984c-0.657,0.594-1.078,1.443-1.08,2.396  l-8.336,1.331c-0.152-0.842-0.628-1.567-1.295-2.05L17.909,20.2z M14.271,28.342l8.489-1.355c0.359,1.125,1.303,1.986,2.482,2.208  l-0.753,3.726c-0.045-0.002-0.088-0.014-0.134-0.014c-1.312,0-2.438,0.785-2.951,1.906l-7.899-4.781  C13.913,29.564,14.185,28.985,14.271,28.342z M27.304,37.501l13.075,1.267c0.195,1.37,1.238,2.468,2.588,2.727l-1.219,5.287  c-0.886,0.112-1.656,0.576-2.172,1.254L27.265,37.572C27.277,37.548,27.292,37.525,27.304,37.501z M42.77,46.803l1.219-5.287  c1.599-0.203,2.842-1.556,2.842-3.207c0-0.285-0.049-0.557-0.118-0.82l4.327-2.637c0.332,0.66,0.874,1.192,1.547,1.502  l-7.689,11.907C44.425,47.517,43.665,46.975,42.77,46.803z"></path></svg>