<svg   fill="#e84e4e" xmlns="http://www.w3.org/2000/svg" xmlns:xlink="http://www.w3.org/1999/xlink" xmlns:sketch="http://www.bohemiancoding.com/sketch/ns" viewBox="0 0 32 32" version="1.1" x="0px" y="0px"><g><path d="M18.6004598,31.442215 C19.2540057,28.7293122 19.8337604,25.4134726 20.3110389,22.1618814 L20.3110389,22.1618814 C20.1746025,22.1575868 19.5349629,22.1394877 19.1062285,22.1627371 C18.3312041,22.2047652 16.7537592,22.0555943 16.7537592,22.0555943 C16.7537592,22.0555943 18.2758418,21.5704512 19.1062285,21.265904 C19.5805758,21.0919355 20.4782727,20.9547119 20.4782727,20.9547119 L20.4499507,21.1972719 C20.9857597,17.4048875 21.3765862,13.7920068 21.5761005,11.4362149 L21.5761005,11.4362149 L21.5025733,12.1627371 C21.5025733,12.1627371 20.5883656,12.1365918 20.1062285,12.1627371 C19.3312041,12.2047652 17.7537592,12.0555943 17.7537592,12.0555943 C17.7537592,12.0555943 19.2758418,11.5704512 20.1062285,11.265904 C20.5557364,11.1010455 21.5130387,11.0086006 21.6120651,10.9993709 C21.6869012,10.0617354 21.7261364,9.36710221 21.7261364,9 C21.7261364,6.47961619 19.8767189,4.35519098 17.3540065,3.7048366 C17.3316365,3.69906964 17.3092137,3.69389365 17.2867387,3.68926832 L17.2867387,3.68926831 L18.6328747,-1.4152832 L17.5559704,-2.42834473 L16.5267956,2.1229248 L16.6869518,-5.15405273 L15.4282848,-5.21911621 L15.2550671,2.1229248 L14.2412731,-2.75817871 L13.0372936,-2.0098877 L14.3196717,3.6865867 C14.1836231,3.69555682 14.0493784,3.71610425 13.9171142,3.75439602 C11.8493048,4.353046 10.2655294,5.95069343 9.83969928,7.92958521 C9.88161992,7.79499396 9.95645682,7.55657461 10.0040382,7.41573662 C10.0533977,7.26963579 10.1637758,6.97851563 10.1637758,6.97851563 C10.1637758,6.97851563 11.0229943,7.06619611 11.4973416,7.2401646 C12.3277283,7.54471173 13.849811,8.02985491 13.849811,8.02985491 C13.849811,8.02985491 12.272366,8.17902574 11.4973416,8.13699772 C11.0415024,8.11227847 9.93805883,8.03852761 9.81904201,8.03055579 L9.81904356,8.03055589 C9.75799169,8.34525897 9.72613639,8.6692194 9.72613639,9 C9.72613639,12.0375663 12.4124277,37.5 15.7261364,37.5 C16.6643987,37.5 17.55236,35.4586392 18.3432834,32.4629692 C18.1955453,32.4393212 17.6208423,32.3520512 17.2937513,32.3703618 C16.6868718,32.4043349 15.4516603,32.2837534 15.4516603,32.2837534 C15.4516603,32.2837534 16.6435206,31.8915904 17.2937513,31.6454112 C17.6455796,31.512208 18.5101614,31.4485631 18.6004598,31.442215 L18.6004598,31.442215 Z M13.3665056,26.2823582 C14.1968923,26.5869054 15.7189749,27.0720486 15.7189749,27.0720486 C15.7189749,27.0720486 14.14153,27.2212194 13.3665056,27.1791914 C12.8843685,27.153046 11.9701608,27.1791913 11.9701608,27.1791913 L11.7863577,25.9078466 C11.7863577,25.9078466 12.8921583,26.1083898 13.3665056,26.2823582 Z M13.8616694,15.4859096 C13.8616694,15.4859096 15.0462397,15.5186942 15.8880365,15.4053432 C16.144439,15.3708177 17.2146703,15.2973419 17.7791496,15.4053432 C18.8614428,15.6124173 20.0817447,15.8543527 20.0817447,15.8543527 C20.0817447,15.8543527 19.417988,15.8769603 18.5814658,16.0223912 C18.5566559,16.0267044 17.4614895,16.303447 17.2711978,16.3425642 C17.1899439,16.3592671 15.6880189,16.4144692 14.7806147,16.3425642 C13.2690462,16.2227837 11.6076933,15.8543527 11.6076933,15.8543527 L13.8616694,15.4859096 Z"  sketch:type="MSShapeGroup" transform="translate(15.726136, 16.000000) rotate(-45.000000) translate(-15.726136, -16.000000) "></path></g></svg>