<?xml version="1.0" standalone="no"?>
<!DOCTYPE svg PUBLIC "-//W3C//DTD SVG 20010904//EN"
 "http://www.w3.org/TR/2001/REC-SVG-20010904/DTD/svg10.dtd">
<svg version="1.0" xmlns="http://www.w3.org/2000/svg"
 width="700.000000pt" height="700.000000pt" viewBox="0 0 700.000000 700.000000"
 preserveAspectRatio="xMidYMid meet">
<metadata>
Created by potrace 1.14, written by Peter Selinger 2001-2017
</metadata>
<g transform="translate(0.000000,700.000000) scale(0.100000,-0.100000)"
fill="#000000" stroke="none">
<path d="M6225 5828 c-3 -7 15 -74 39 -148 l45 -134 -35 -43 c-19 -23 -40 -48
-47 -55 -7 -7 -75 -86 -152 -175 -112 -131 -144 -163 -165 -163 -35 0 -86 -34
-110 -72 -25 -42 -26 -99 -2 -121 62 -56 189 34 181 128 -3 33 18 64 151 215
12 14 65 76 118 138 52 61 100 112 106 112 6 0 49 -7 96 -16 176 -32 179 -32
192 -17 12 15 0 35 -24 39 -7 1 -60 10 -118 19 -58 10 -107 19 -109 21 -2 2
18 30 46 61 67 78 79 101 57 110 -13 5 -34 -12 -82 -66 l-65 -72 -42 123 c-29
85 -47 124 -58 126 -10 2 -19 -2 -22 -10z"/>
<path d="M5193 5678 c-5 -7 -9 -53 -8 -101 1 -69 -1 -87 -12 -83 -7 3 -56 30
-109 61 -101 58 -119 64 -127 41 -8 -19 11 -33 141 -107 l112 -63 1 -111 c0
-60 2 -189 3 -285 4 -171 3 -175 -20 -203 -59 -70 -33 -191 44 -210 17 -4 32
3 55 23 30 26 32 33 32 94 0 57 -3 68 -28 94 l-28 29 -5 285 -5 286 108 67
c128 80 143 92 136 111 -9 23 -24 17 -133 -50 -58 -36 -106 -63 -108 -61 -2 1
-4 41 -6 87 -3 102 -16 131 -43 96z"/>
<path d="M4030 5290 c-18 -11 -11 -24 74 -143 78 -108 86 -128 62 -162 -7 -11
-15 -24 -16 -30 -5 -16 -27 -67 -94 -218 -35 -78 -72 -162 -82 -186 -14 -33
-28 -47 -56 -58 -51 -20 -90 -95 -78 -149 11 -47 32 -67 70 -67 72 0 139 128
99 191 -11 17 6 60 134 342 13 30 37 84 52 120 16 36 31 68 34 72 7 8 99 22
211 34 67 6 98 23 85 44 -5 9 -27 11 -74 6 -99 -9 -165 -17 -178 -21 -19 -6
-16 7 23 91 36 78 38 108 7 102 -11 -2 -31 -34 -53 -85 -19 -46 -38 -83 -41
-83 -4 0 -37 45 -75 99 -72 104 -82 114 -104 101z"/>
<path d="M3140 4635 c-13 -16 -10 -36 26 -209 l25 -121 -49 -45 c-48 -45 -179
-163 -218 -197 -12 -10 -63 -56 -114 -103 -76 -69 -99 -85 -127 -87 -53 -2
-79 -11 -113 -39 -63 -53 -78 -126 -36 -169 62 -62 197 16 210 121 6 42 9 46
216 233 63 57 133 121 155 141 22 20 57 51 77 69 l37 32 148 -45 c82 -26 156
-46 166 -46 11 0 17 8 17 24 0 22 -10 27 -98 55 -55 17 -102 31 -106 31 -4 0
-23 7 -42 15 l-35 14 53 47 c86 76 100 92 96 111 -6 34 -34 23 -108 -46 -41
-38 -76 -68 -78 -66 -5 4 -29 112 -36 159 -6 39 -14 77 -22 108 -6 22 -30 30
-44 13z"/>
<path d="M2164 4515 c-7 -18 9 -43 118 -182 l76 -99 -94 -240 c-143 -362 -144
-364 -170 -370 -29 -7 -81 -65 -90 -98 -4 -18 -16 -27 -45 -34 -35 -9 -42 -8
-59 11 -11 11 -20 24 -20 27 0 9 -76 51 -82 45 -2 -2 -46 91 -98 208 -139 315
-141 319 -157 354 l-15 33 96 134 c64 89 94 139 90 150 -14 37 -43 13 -126
-104 l-85 -119 -38 87 c-43 99 -57 117 -79 109 -21 -8 -20 -29 5 -85 12 -26
30 -67 41 -91 l18 -43 -57 6 c-32 3 -78 9 -103 12 -74 10 -143 10 -146 -1 -11
-33 33 -44 271 -69 32 -4 60 -8 62 -9 1 -2 61 -135 133 -297 109 -244 129
-298 120 -315 -13 -25 -15 -61 -7 -100 6 -26 3 -33 -26 -51 l-32 -21 -28 21
c-18 13 -44 21 -74 21 -47 1 -70 19 -281 214 -22 20 -70 63 -107 96 -38 33
-84 74 -103 92 l-35 32 18 88 c9 48 19 97 21 108 2 11 9 44 15 72 5 29 8 57 4
63 -10 16 -43 11 -49 -7 -5 -19 -56 -271 -56 -280 0 -4 -43 34 -117 104 -38
37 -59 45 -73 28 -15 -18 -4 -33 70 -100 30 -28 60 -55 68 -62 10 -10 -12 -19
-105 -48 -166 -50 -199 -70 -155 -94 14 -7 38 -4 95 15 43 13 110 35 151 48
70 22 76 22 93 7 10 -9 65 -59 123 -110 367 -330 336 -298 342 -348 3 -23 16
-56 29 -74 21 -30 21 -33 6 -58 -14 -23 -22 -26 -74 -26 -36 0 -67 -6 -80 -16
-21 -15 -38 -11 -285 71 -145 47 -284 93 -310 100 -40 12 -48 19 -54 45 -6 31
-37 165 -56 247 -13 51 -29 66 -49 42 -10 -13 -7 -38 15 -137 36 -161 36 -157
29 -157 -3 0 -50 14 -105 32 -81 25 -101 29 -108 18 -16 -26 10 -48 80 -69 39
-12 82 -26 96 -31 l25 -10 -38 -32 c-139 -119 -185 -166 -180 -181 8 -24 38
-18 75 15 21 18 71 62 111 98 40 36 79 68 86 72 11 7 93 -18 543 -164 71 -23
92 -34 92 -48 0 -21 63 -80 85 -80 11 0 15 -11 15 -38 0 -36 -2 -38 -42 -49
-24 -7 -60 -28 -81 -47 -29 -28 -46 -36 -77 -37 -22 -1 -43 -2 -47 -3 -14 -4
-165 -20 -283 -31 -41 -3 -77 -8 -80 -10 -3 -2 -45 -6 -95 -9 l-90 -6 -95 130
c-72 98 -100 129 -115 127 -11 -1 -21 -9 -22 -17 -2 -8 36 -66 83 -129 47 -62
83 -115 81 -118 -5 -5 -26 -7 -132 -18 -38 -3 -74 -11 -80 -16 -14 -14 9 -44
31 -42 10 1 58 4 106 8 l87 7 -62 -136 c-45 -101 -58 -139 -50 -147 28 -28 45
-2 153 239 15 33 30 52 42 53 10 1 21 2 26 3 4 1 43 6 87 10 44 5 87 9 96 11
8 2 49 6 90 10 41 4 85 9 99 10 14 1 52 6 85 9 33 4 81 9 108 11 26 3 47 2 47
-3 0 -16 60 -43 102 -46 38 -3 44 -7 52 -34 8 -28 4 -34 -38 -74 -30 -30 -46
-53 -46 -69 0 -22 -22 -37 -162 -119 -90 -51 -216 -124 -280 -162 -64 -37
-120 -68 -123 -68 -4 0 -67 34 -141 75 -143 80 -178 91 -172 53 2 -18 32 -39
125 -91 68 -38 121 -73 118 -77 -3 -5 -38 -26 -78 -48 -82 -45 -102 -64 -93
-88 8 -20 30 -13 121 38 38 22 74 40 79 41 7 1 10 -52 11 -143 0 -143 0 -145
22 -148 13 -2 24 1 24 7 1 6 3 16 4 21 1 6 3 77 4 159 l1 148 281 162 c258
148 284 160 313 153 37 -11 70 -7 109 13 27 13 30 13 52 -13 21 -24 22 -29 8
-44 -25 -28 -41 -89 -33 -120 8 -26 -8 -51 -183 -293 l-192 -265 -35 5 c-19 2
-64 6 -100 9 -36 3 -95 8 -131 11 -57 5 -67 4 -73 -11 -7 -18 5 -37 26 -40 7
-1 49 -5 93 -8 116 -11 169 -17 173 -21 2 -2 -23 -40 -57 -86 -49 -66 -58 -85
-50 -100 17 -33 28 -26 92 60 26 35 52 71 56 80 5 9 12 14 14 11 3 -3 30 -63
60 -135 42 -99 60 -131 75 -133 13 -2 22 3 24 15 4 16 -8 48 -92 244 l-28 67
169 233 c225 310 215 299 251 299 22 0 41 11 70 40 38 37 42 39 67 27 23 -11
26 -17 23 -61 -2 -34 4 -62 19 -93 l22 -45 -32 -146 c-17 -81 -33 -156 -35
-167 -3 -11 -9 -40 -15 -65 -5 -25 -12 -56 -15 -70 -2 -14 -11 -59 -20 -100
-9 -41 -16 -76 -16 -77 0 -1 -69 -24 -154 -53 -145 -48 -176 -66 -160 -91 9
-15 36 -10 159 31 122 41 151 47 140 30 -12 -19 -43 -183 -38 -197 3 -8 15
-13 27 -11 18 3 24 17 42 101 12 54 24 100 27 103 4 5 18 -7 140 -122 70 -67
107 -81 107 -41 0 14 -23 43 -68 84 -37 34 -89 82 -116 107 l-50 45 12 58 c6
32 13 69 16 82 14 62 48 229 52 251 3 14 9 41 14 60 5 19 12 51 15 70 14 83
25 114 41 123 36 20 63 55 74 96 10 38 13 41 44 38 31 -2 34 -6 46 -49 11 -44
55 -98 80 -98 5 0 11 -12 14 -27 3 -16 21 -102 40 -193 19 -91 37 -176 39
-190 3 -14 15 -71 27 -127 l22 -102 -68 -63 c-171 -160 -175 -164 -168 -181
13 -35 35 -21 174 110 36 35 68 63 71 63 4 0 12 -28 19 -63 22 -113 33 -142
55 -142 26 0 27 44 3 144 -9 41 -16 76 -15 77 1 2 60 -17 131 -42 70 -24 136
-44 146 -44 20 0 32 21 22 37 -4 6 -74 34 -156 62 -82 28 -152 53 -154 56 -3
3 -16 55 -29 117 -13 62 -38 176 -54 253 -16 77 -36 167 -43 201 -12 57 -12
63 7 88 14 20 20 45 21 89 1 57 3 61 28 69 24 8 31 6 54 -22 30 -36 73 -60
106 -60 16 0 32 -14 55 -48 17 -26 102 -143 188 -261 122 -169 154 -218 149
-235 -4 -12 -31 -76 -60 -144 -59 -133 -65 -162 -35 -162 23 0 32 11 61 80 12
30 33 78 45 105 12 28 25 59 29 69 6 16 15 8 56 -50 70 -97 79 -106 98 -102
32 6 23 34 -38 117 -34 46 -60 84 -58 86 2 1 41 5 88 9 201 16 210 18 210 45
0 22 -23 33 -60 27 -28 -5 -110 -13 -215 -21 l-70 -5 -188 259 c-185 257 -187
261 -183 304 3 34 -1 54 -20 87 l-24 42 24 23 25 23 38 -19 c41 -21 84 -24
112 -9 14 7 42 -4 127 -54 60 -34 186 -107 279 -160 94 -54 172 -100 174 -102
3 -2 6 -77 8 -167 2 -89 8 -166 14 -172 6 -6 16 -6 27 1 15 10 17 28 14 158
-3 139 -2 147 15 138 10 -6 53 -31 95 -56 69 -40 79 -44 92 -30 22 22 12 36
-56 74 -34 19 -74 42 -90 52 l-29 16 103 58 c128 71 158 92 158 109 0 35 -39
23 -174 -54 l-141 -79 -55 31 c-88 49 -108 60 -245 139 -71 42 -146 85 -165
96 -93 52 -99 57 -105 87 -7 34 -29 64 -67 89 -23 15 -25 20 -15 46 6 17 16
30 22 31 5 0 26 2 45 4 19 1 40 3 47 4 6 0 24 12 40 25 22 18 38 23 63 20 30
-3 252 -26 375 -39 22 -2 69 -7 105 -11 36 -4 78 -8 94 -8 28 0 33 -8 102
-154 58 -120 78 -153 91 -150 27 5 27 33 0 90 -14 29 -37 80 -52 113 -15 33
-32 68 -37 79 -6 10 -6 16 -1 13 5 -3 47 -9 93 -12 47 -4 88 -9 92 -11 13 -8
38 9 38 26 0 25 -6 27 -75 35 -77 8 -139 16 -142 19 -1 1 37 52 83 114 83 110
97 143 62 150 -12 2 -47 -37 -115 -128 l-98 -131 -79 6 c-44 3 -93 8 -110 10
-17 2 -58 7 -91 9 -33 3 -76 7 -95 10 -33 5 -52 7 -200 22 -56 6 -69 11 -98
40 -18 19 -45 36 -60 40 -49 10 -52 13 -52 46 -1 66 -31 175 -71 258 -58 116
-161 220 -277 278 -46 23 -98 44 -117 48 -29 5 -35 11 -36 33 -1 40 -8 73 -19
86 -7 9 23 96 100 291 60 154 116 290 122 303 13 25 51 35 245 65 21 3 47 8
58 10 11 3 23 5 28 5 12 2 8 41 -5 46 -7 3 -75 -5 -150 -18 -76 -13 -138 -19
-138 -15 0 5 16 47 35 95 40 99 41 108 18 117 -25 10 -38 -10 -76 -108 l-34
-89 -58 74 c-115 146 -127 159 -141 159 -8 0 -17 -7 -20 -15z"/>
<path d="M4532 4188 c-5 -7 -24 -58 -42 -113 -17 -55 -39 -122 -49 -150 l-17
-50 -74 -17 c-41 -10 -84 -20 -95 -22 -11 -2 -120 -27 -243 -55 -200 -47 -224
-50 -238 -36 -52 52 -190 20 -228 -53 -12 -23 -12 -32 0 -60 34 -81 191 -73
244 12 18 30 28 35 122 56 57 13 108 25 114 26 6 1 102 23 212 49 l200 46 113
-115 c109 -112 140 -133 153 -100 4 10 -24 46 -87 111 -50 53 -97 101 -103
107 -9 9 13 18 92 37 103 24 126 38 103 65 -12 15 -21 14 -139 -15 -41 -10
-76 -18 -77 -17 -1 1 17 62 41 136 31 96 41 140 34 153 -10 20 -22 22 -36 5z"/>
</g>
</svg>
