<svg   fill="#000000" xmlns="http://www.w3.org/2000/svg" xmlns:xlink="http://www.w3.org/1999/xlink" version="1.1" x="0px" y="0px" viewBox="0 0 44.77 46.02" enable-background="new 0 0 44.77 46.02" xml:space="preserve"><g><path d="M33.54,16.64c-0.5,0-0.93-0.38-0.99-0.88c-0.37-3.19-3.07-5.59-6.29-5.59c-0.22,0-0.44,0.01-0.66,0.03   c-0.54,0.05-1.03-0.34-1.09-0.88C24.47,9,24.45,8.68,24.45,8.35c0-4.6,3.74-8.33,8.33-8.33c3.76,0,7.06,2.54,8.04,6.17   c0.06,0.24,0.04,0.49-0.07,0.71c-0.59,1.17-1.26,2.33-1.98,3.44c-0.06,0.1-1.6,2.46-4.13,5.86c-0.16,0.21-0.39,0.35-0.65,0.39   c-0.17,0.03-0.25,0.04-0.33,0.05C33.61,16.64,33.58,16.64,33.54,16.64z M26.45,8.17c3.47,0.08,6.46,2.29,7.62,5.43   c1.88-2.58,3.01-4.32,3.02-4.34c0.61-0.95,1.18-1.92,1.69-2.91c-0.86-2.57-3.27-4.33-6-4.33C29.35,2.02,26.55,4.76,26.45,8.17z"></path><path d="M26.26,24.83c-0.02,0-0.06,0-0.08,0c-0.5-0.04-0.91-0.44-0.94-0.94c-0.18-3.34-2.95-5.97-6.3-5.98   c-0.53,0-0.97-0.42-1-0.95l-0.01-0.11c-0.01-0.12-0.02-0.23-0.02-0.35c0-4.6,3.74-8.33,8.33-8.33c4.34,0,7.99,3.39,8.3,7.72   c0.02,0.24-0.05,0.48-0.2,0.67c-2.09,2.79-4.24,5.43-6.39,7.87c-0.16,0.18-0.38,0.3-0.62,0.33C26.95,24.81,26.6,24.83,26.26,24.83z    M19.95,15.97c3.5,0.43,6.35,3.05,7.11,6.47c1.84-2.12,3.68-4.39,5.48-6.77c-0.41-3.11-3.1-5.5-6.27-5.5   C22.95,10.17,20.22,12.72,19.95,15.97z"></path><path d="M18.93,32.57c-0.62,0-1.25-0.08-1.89-0.22c-0.42-0.1-0.74-0.46-0.77-0.89c-0.23-2.75-2.18-5.02-4.87-5.64   c-0.42-0.1-0.74-0.46-0.77-0.89c-0.02-0.23-0.03-0.45-0.03-0.68c0-4.6,3.74-8.33,8.33-8.33s8.33,3.74,8.33,8.33   c0,0.24-0.02,0.48-0.04,0.72c-0.02,0.22-0.11,0.42-0.26,0.59c-2.32,2.56-4.62,4.83-6.83,6.75c-0.16,0.14-0.37,0.23-0.58,0.24   C19.32,32.56,19.13,32.57,18.93,32.57z M18.17,30.52c0.31,0.04,0.61,0.06,0.91,0.05c2-1.76,4.08-3.81,6.18-6.11   c0-0.07,0.01-0.15,0.01-0.22c0-3.49-2.84-6.33-6.33-6.33c-3.44,0-6.25,2.75-6.33,6.17C15.5,25.04,17.64,27.51,18.17,30.52z"></path><g><path d="M8.47,39.38c-0.42,0-0.81-0.27-0.95-0.69c-0.03-0.1-0.05-0.21-0.05-0.31c0-0.42,0.27-0.81,0.69-0.95    c0.27-0.09,0.55-0.19,0.82-0.3c0.52-0.2,1.09,0.06,1.29,0.58c0.04,0.12,0.07,0.24,0.07,0.36c0,0.4-0.24,0.78-0.64,0.93    c-0.31,0.12-0.62,0.23-0.92,0.33C8.68,39.37,8.57,39.38,8.47,39.38z"></path><path d="M2.63,40.24c-0.45,0-0.85-0.03-1.19-0.08c-0.34-0.05-0.63-0.27-0.77-0.58c-0.14-0.31-0.11-0.67,0.08-0.96    c0.52-0.79,1.28-1.88,2.27-3.23c0.19-0.26,0.51-0.4,0.83-0.41c0.33,0.01,0.63,0.18,0.81,0.45c0.65,0.99,1.53,1.76,2.57,2.26    c0.18-0.05,0.36-0.1,0.55-0.15c0,0,0,0,0,0l0,0c0.53-0.16,1.09,0.14,1.24,0.67c0.16,0.53-0.14,1.09-0.67,1.24    c-0.33,0.1-0.65,0.19-0.98,0.27c-0.04,0.01-0.07,0.01-0.11,0.02c-0.94,0.22-1.84,0.34-2.69,0.37C4.36,40.14,3.52,40.24,2.63,40.24    z M3.86,37.65c-0.14,0.2-0.28,0.39-0.4,0.56c0.44-0.03,0.78-0.07,0.88-0.08C4.17,37.97,4.01,37.81,3.86,37.65z"></path><path d="M13.67,36.89c-0.33,0-0.66-0.17-0.85-0.47c-0.29-0.47-0.15-1.09,0.32-1.38c0.04-0.03,0.08-0.05,0.12-0.08    c1.09-0.68,2.19-1.45,3.27-2.28l0.01,0.02c6.3-4.77,11.54-11.16,15.94-16.97c2.93-3.87,6.21-8.21,7.96-13.1    c-0.53,0.25-1.05,0.54-1.57,0.83l-0.46,0.25l-0.95-1.76l0.45-0.25c1.17-0.64,2.49-1.36,3.87-1.67c0.34-0.07,0.69,0.03,0.94,0.28    c0.24,0.25,0.33,0.61,0.25,0.95c-1.59,6.05-5.46,11.16-8.88,15.67c-5.25,6.93-11.69,14.69-19.74,19.72    c-0.05,0.03-0.1,0.06-0.14,0.09C14.04,36.84,13.85,36.89,13.67,36.89z"></path><path d="M12.44,37.61c-0.35,0-0.69-0.18-0.87-0.51c-0.09-0.15-0.13-0.32-0.13-0.49c0-0.35,0.19-0.69,0.51-0.88    c0.29-0.16,0.58-0.32,0.87-0.5c0.47-0.29,1.09-0.13,1.37,0.34c0.29,0.47,0.13,1.09-0.34,1.37h0l0,0c0,0,0,0-0.01,0    c-0.3,0.18-0.61,0.35-0.91,0.52c0,0-0.01,0-0.01,0.01C12.77,37.57,12.6,37.61,12.44,37.61z"></path><path d="M9.8,38.89c-0.39,0-0.77-0.23-0.93-0.62c-0.05-0.12-0.07-0.25-0.07-0.38c0-0.39,0.23-0.77,0.62-0.93    c0.27-0.11,0.55-0.23,0.82-0.36c0,0,0,0,0,0c0.5-0.23,1.1-0.01,1.33,0.49c0.23,0.5,0.01,1.1-0.49,1.33    c-0.3,0.14-0.6,0.27-0.9,0.39C10.05,38.87,9.93,38.89,9.8,38.89z"></path><path d="M11.13,38.3c-0.37,0-0.73-0.21-0.9-0.56c-0.07-0.14-0.1-0.29-0.1-0.44c0-0.37,0.21-0.73,0.56-0.9    c0.28-0.13,0.56-0.27,0.83-0.42c0.49-0.26,1.09-0.08,1.35,0.41c0.08,0.15,0.12,0.31,0.12,0.47c0,0.36-0.19,0.7-0.53,0.88    c-0.3,0.16-0.6,0.31-0.9,0.46C11.42,38.26,11.27,38.3,11.13,38.3z"></path></g><path d="M7.15,39.75c-0.13,0-0.26-0.03-0.38-0.08c-3.12-1.3-5.14-4.32-5.14-7.7c0-4.6,3.74-8.33,8.33-8.33s8.33,3.74,8.33,8.33   c0,0.57-0.06,1.13-0.17,1.69c-0.05,0.23-0.18,0.44-0.37,0.59c-3.73,2.89-7.22,4.73-10.38,5.47C7.3,39.75,7.23,39.75,7.15,39.75z    M9.96,25.65c-3.49,0-6.33,2.84-6.33,6.33c0,2.46,1.41,4.67,3.61,5.72c2.71-0.7,5.73-2.31,8.99-4.79c0.04-0.31,0.07-0.62,0.07-0.93   C16.3,28.49,13.46,25.65,9.96,25.65z"></path><path d="M7.15,39.75c-0.13,0-0.26-0.03-0.38-0.08c-3.12-1.3-5.14-4.32-5.14-7.7c0-4.6,3.74-8.33,8.33-8.33s8.33,3.74,8.33,8.33   c0,0.57-0.06,1.13-0.17,1.69c-0.05,0.23-0.18,0.44-0.37,0.59c-3.73,2.89-7.22,4.73-10.38,5.47C7.3,39.75,7.23,39.75,7.15,39.75z    M9.96,25.65c-3.49,0-6.33,2.84-6.33,6.33c0,2.46,1.41,4.67,3.61,5.72c2.71-0.7,5.73-2.31,8.99-4.79c0.04-0.31,0.07-0.62,0.07-0.93   C16.3,28.49,13.46,25.65,9.96,25.65z"></path><path d="M18.93,32.57c-0.62,0-1.25-0.08-1.89-0.22c-0.42-0.1-0.74-0.46-0.77-0.89c-0.23-2.75-2.18-5.02-4.87-5.64   c-0.42-0.1-0.74-0.46-0.77-0.89c-0.02-0.23-0.03-0.45-0.03-0.68c0-4.6,3.74-8.33,8.33-8.33s8.33,3.74,8.33,8.33   c0,0.24-0.02,0.48-0.04,0.72c-0.02,0.22-0.11,0.42-0.26,0.59c-2.32,2.56-4.62,4.83-6.83,6.75c-0.16,0.14-0.37,0.23-0.58,0.24   C19.32,32.56,19.13,32.57,18.93,32.57z M18.17,30.52c0.31,0.04,0.61,0.06,0.91,0.05c2-1.76,4.08-3.81,6.18-6.11   c0-0.07,0.01-0.15,0.01-0.22c0-3.49-2.84-6.33-6.33-6.33c-3.44,0-6.25,2.75-6.33,6.17C15.5,25.04,17.64,27.51,18.17,30.52z"></path><g><path d="M30.26,11.36c-0.19,0-0.38-0.05-0.55-0.16c0,0-0.01,0-0.01-0.01c-0.24-0.16-0.51-0.3-0.78-0.43    c-0.5-0.23-0.72-0.83-0.48-1.33c0.23-0.5,0.83-0.71,1.33-0.48c0,0,0,0,0,0l0,0c0,0,0,0,0,0c0.36,0.17,0.71,0.36,1.03,0.57    c0.29,0.19,0.45,0.51,0.45,0.84c0,0.19-0.05,0.38-0.16,0.55C30.91,11.2,30.59,11.36,30.26,11.36z"></path><path d="M29.27,10.82c-0.14,0-0.28-0.03-0.41-0.09c-0.3-0.14-0.59-0.24-0.87-0.32l0,0c-0.53-0.15-0.84-0.7-0.69-1.23    c0.15-0.53,0.7-0.84,1.23-0.69c0,0,0,0,0,0l0,0c0.37,0.11,0.74,0.24,1.14,0.42c0.5,0.23,0.73,0.82,0.5,1.32    C30.02,10.6,29.65,10.82,29.27,10.82z"></path><path d="M31.89,12.81c-0.29,0-0.57-0.12-0.77-0.36c-0.39-0.47-0.85-0.88-1.35-1.22c-0.29-0.19-0.44-0.51-0.44-0.83    c0-0.19,0.05-0.38,0.17-0.55c0.31-0.46,0.93-0.58,1.39-0.28c0.67,0.45,1.26,0.98,1.77,1.59c0,0,0,0,0,0    c0.35,0.42,0.3,1.05-0.13,1.41C32.34,12.73,32.11,12.81,31.89,12.81z"></path><path d="M33.38,15.77c-0.45,0-0.86-0.31-0.97-0.76h0l0,0c0,0,0,0,0-0.01c-0.14-0.59-0.38-1.17-0.69-1.7h0c0,0,0,0,0,0    c-0.28-0.48-0.12-1.09,0.36-1.37c0.48-0.28,1.09-0.12,1.37,0.36c0.41,0.7,0.72,1.46,0.91,2.24c0.13,0.54-0.2,1.08-0.74,1.21    C33.54,15.76,33.46,15.77,33.38,15.77z"></path><path d="M32.53,13.71c-0.34,0-0.67-0.17-0.86-0.48c-0.15-0.25-0.33-0.5-0.51-0.73h0c0,0,0,0,0,0c-0.35-0.43-0.28-1.06,0.14-1.41    c0.43-0.35,1.06-0.29,1.41,0.14c0.24,0.3,0.47,0.62,0.67,0.95c0.1,0.16,0.15,0.34,0.15,0.52c0,0.34-0.17,0.67-0.48,0.86    C32.89,13.66,32.71,13.71,32.53,13.71z"></path><path d="M10.91,46.02L10.91,46.02c-3.82,0-7.29-1.59-10.05-4.6c-0.46-0.5-0.69-0.82-0.79-1.1c-0.14-0.38-0.04-0.81,0.26-1.08    l0.08-0.07c0.3-0.49,1-1.56,2.62-3.77c0.19-0.26,0.51-0.4,0.83-0.41c0.33,0.01,0.63,0.18,0.81,0.45c0.65,0.99,1.53,1.77,2.58,2.26    c2.71-0.7,5.73-2.31,8.99-4.79c0.04-0.31,0.07-0.62,0.07-0.93c0-0.18-0.01-0.35-0.02-0.52c-0.03-0.32,0.1-0.63,0.34-0.84    c0.24-0.21,0.57-0.29,0.88-0.22c0.55,0.13,1.06,0.19,1.58,0.17c2-1.76,4.08-3.81,6.18-6.11c0-0.07,0.01-0.15,0.01-0.22    c0-0.08-0.01-0.16-0.01-0.23l-0.01-0.12c-0.01-0.27,0.08-0.54,0.27-0.74c0.19-0.2,0.44-0.32,0.74-0.31c0.16,0,0.32-0.01,0.47-0.02    c1.95-2.22,3.9-4.62,5.8-7.14c-0.03-0.2-0.06-0.39-0.11-0.59c0,0,0-0.01,0-0.02l0,0l0,0l0,0c-0.12-0.54,0.21-1.08,0.75-1.2    c0.23-0.05,0.46-0.02,0.65,0.07c2.03-2.77,3.25-4.66,3.27-4.68c0.61-0.95,1.18-1.92,1.69-2.91c-0.34-1.02-0.93-1.93-1.73-2.66    c-0.24-0.22-0.35-0.54-0.32-0.86c0.04-0.32,0.23-0.6,0.51-0.76c1.46-0.8,2.79-1.44,4.07-1.96c0.05-0.02,0.1-0.04,0.16-0.05    C41.52,0.05,41.77,0,42.07,0c0.84,0,1.26,0.41,1.43,0.65c0.2,0.28,0.38,0.75,0.17,1.44c0.02,0.09,0.05,0.2,0.08,0.32    c0.66,2.47,2.66,10-1.87,17.21c-0.11,0.17-9.65,14.15-20.77,22.62C17.86,44.71,14.33,46.02,10.91,46.02z M2.25,39.98    c0.02,0.03,0.05,0.06,0.08,0.09c2.37,2.58,5.33,3.95,8.58,3.95c2.99,0,6.1-1.17,9-3.38c10.86-8.27,20.22-21.98,20.31-22.12    c4.05-6.44,2.21-13.34,1.61-15.6c-0.07-0.28-0.13-0.5-0.16-0.64c-0.01-0.05-0.02-0.1-0.02-0.14c-0.74,0.31-1.5,0.67-2.3,1.08    c0.68,0.88,1.19,1.88,1.48,2.96c0.06,0.24,0.04,0.49-0.07,0.71c-0.59,1.17-1.26,2.33-1.98,3.44c-0.06,0.1-1.6,2.46-4.13,5.86    c-0.05,0.06-0.1,0.12-0.16,0.17c-0.03,0.07-0.07,0.13-0.11,0.19c-2.09,2.79-4.24,5.43-6.39,7.87c-0.16,0.18-0.38,0.3-0.62,0.33    c-0.04,0.01-0.08,0.01-0.12,0.02c0,0.06-0.01,0.13-0.02,0.19c-0.02,0.22-0.11,0.42-0.26,0.59c-2.32,2.56-4.62,4.83-6.83,6.75    c-0.16,0.14-0.37,0.23-0.58,0.24c-0.48,0.04-0.85,0.04-1.27,0c-0.03,0.38-0.08,0.75-0.15,1.12c-0.05,0.23-0.18,0.44-0.37,0.59    c-3.73,2.89-7.22,4.73-10.38,5.47c-0.2,0.05-0.42,0.03-0.61-0.05c-1.11-0.46-2.1-1.15-2.91-2.03C2.98,38.87,2.5,39.59,2.25,39.98z    "></path></g></g></svg>