<svg    fill="#000000" xmlns="http://www.w3.org/2000/svg" xmlns:xlink="http://www.w3.org/1999/xlink" version="1.1" x="0px" y="0px" viewBox="0 0 100 100" enable-background="new 0 0 100 100" xml:space="preserve"><path fill="#000000" d="M49.027,60.23c0.573-3.176,4.696-24.736,12.677-34.805c0,0-8.793,9.353-13.222,33.449  c0.503-31.751-4.067-46.49-4.067-46.49c2.685,9.145,2.928,38.389,2.943,46.639c-4.455-23.771-13.14-33.01-13.14-33.01  c7.501,9.461,11.593,29.074,12.535,34.037c-5.44,0.177-9.796,4.613-9.796,10.062c0,4.695,3.236,8.641,7.614,9.752  c-0.479,1.275-0.967,3.258,0.041,4.391c1.568,1.766,1.47,4.314,0.588,5.1c-0.883,0.783,2.157,0.293,0.784-5.196  c0,0-0.356-2.94,1.224-3.979c5.542-0.062,10.015-4.545,10.015-10.064C57.223,65.212,53.695,61.13,49.027,60.23z"></path><path fill="#000000" d="M73.594,26.892c-0.432-1.33-1.371-2.283-2.676-2.728c0.157-0.135,0.325-0.26,0.49-0.384  c0.605-0.456,1.234-0.926,1.326-1.81c0.125-1.185-0.772-2.389-1.32-3.002c-0.809-0.906-1.836-1.635-2.616-1.858  c-1.461-0.417-3.015-0.107-4.262,0.852c-1.021,0.786-2.503,2.384-3.063,3.821c-0.392-0.446-0.836-0.582-1.18-0.607  c-1.064-0.079-2.195,0.812-2.798,1.672c-0.922,1.322-0.88,2.782-0.841,4.193c0.012,0.39,0.022,0.791,0.015,1.184  c-1.627,0.489-2.164,1.26-2.162,3.11c-0.685,0.113-1.161,0.367-1.452,0.773c-0.537,0.746-0.302,1.823-0.07,2.865  c0.113,0.518,0.231,1.05,0.248,1.521c-0.938,0.303-1.195,1.117-1.26,1.969c-0.316-0.091-0.592-0.083-0.843-0.052  c0.75-0.642,1.649-1.593,1.798-2.462c0.223-1.303-0.689-2.943-1.71-3.699c0.82-0.465,1.343-1.162,1.89-1.892  c0.104-0.139,0.211-0.28,0.317-0.421c0.114-0.147,0.236-0.296,0.354-0.441c0.662-0.812,1.348-1.652,1.283-2.856  c-0.065-1.223-0.89-2.65-1.914-3.318c-0.488-0.319-1-0.461-1.508-0.423c0.155-0.288,0.324-0.556,0.51-0.85l0.113-0.18  c0.901-1.437,0.961-2.682,0.758-4.346l-0.025-0.218c-0.156-1.309-0.318-2.663-1.449-3.559c-0.865-0.687-1.511-0.628-2.135-0.571  c-0.301,0.027-0.609,0.056-0.971,0.006c-0.118-2.851-1.513-5.057-3.762-5.927c-1.099-0.425-2.109-0.426-2.92-0.003  c-0.808,0.42-1.38,1.234-1.656,2.354c-0.068,0.277-0.092,0.455-0.104,0.565c-0.095,0.031-0.235,0.083-0.446,0.187  c-0.156,0.076-0.264,0.114-0.359,0.148c-0.313,0.111-0.454,0.194-0.798,0.698c-1.188,1.739-0.347,4.618,1.174,5.974l0.021,0.042  c-0.085,0.271-0.193,0.485-0.297,0.693c-0.284,0.564-0.529,1.053,0.033,2.047c0.713,1.263,2.034,2.524,2.747,3.154  c-0.239,0.366-0.335,0.808-0.279,1.296c0.137,1.176,1.114,2.409,1.88,3.044c-1.031,1.169-0.185,2.974,0.335,4.083  c0.013,0.027,0.025,0.053,0.037,0.08c-0.279,0.32-0.319,0.872-0.322,1.292c0,0.11,0.002,0.224,0.007,0.34  c-0.359-0.41-0.804-0.778-1.236-0.96c0.032-0.059,0.063-0.116,0.094-0.173c0.445-0.811,0.796-1.451,0.546-2.726  c-0.061-0.311-0.491-1.978-1.066-2.415c-0.323-0.245-0.768-0.218-1.161-0.194c-0.008,0-0.016,0.001-0.024,0.002  c-0.008-0.213-0.014-0.424-0.02-0.63c-0.06-2.16-0.116-4.201-2.892-5.198c-0.825-0.296-1.639-0.526-2.525-0.095  c-1.434,0.698-1.429,1.901-1.423,3.063c0,0.015,0,0.028,0,0.042c-0.116-0.068-0.238-0.142-0.362-0.217  c-1.186-0.718-2.811-1.701-3.991-0.539c-1.236,1.218-0.247,2.581,0.477,3.576c0.194,0.269,0.382,0.527,0.52,0.764  c-0.52,0.108-0.943,0.393-1.236,0.837c-0.617,0.934-0.513,2.318-0.155,3.208c0.453,1.127,0.883,2.119,1.561,2.852  c0.542,0.587,1.207,0.95,2.016,1.098c-0.282,0.23-0.515,0.517-0.685,0.849c-0.373,0.728-0.416,1.593-0.123,2.438  c0.322,0.926,1.303,1.89,2.691,2.644c1.08,0.586,2.22,0.95,3.162,1.019c-0.556,1.006-0.725,2.316-0.423,3.485  c0.341,1.321,1.357,1.458,2.173,1.567c0.496,0.067,0.968,0.13,1.294,0.417c-0.018,0.262,0.127,0.563,0.254,0.791  c0.291,0.519,0.845,1.234,1.448,1.869c1.049,1.104,1.37,1.086,1.491,1.078c0.162-0.009,0.286-0.148,0.277-0.312  c-0.009-0.154-0.137-0.274-0.291-0.277c-0.174-0.049-0.786-0.557-1.507-1.403c-0.829-0.973-1.084-1.547-1.085-1.691  c0.058-0.106,0.045-0.24-0.035-0.333c-0.472-0.548-1.16-0.641-1.767-0.722c-0.805-0.108-1.44-0.194-1.682-1.132  c-0.303-1.173-0.052-2.559,0.625-3.449c0.069-0.092,0.079-0.216,0.024-0.317c-0.054-0.102-0.164-0.163-0.278-0.154  c-0.905,0.059-2.208-0.306-3.399-0.953c-1.242-0.675-2.146-1.542-2.417-2.32c-0.241-0.692-0.208-1.394,0.09-1.977  c0.262-0.511,0.717-0.885,1.282-1.053c0.142-0.042,0.23-0.182,0.207-0.328s-0.152-0.252-0.298-0.248  c-2.39,0.059-3.157-1.41-4.06-3.657c-0.312-0.776-0.378-1.941,0.1-2.664c0.265-0.401,0.667-0.61,1.197-0.622  c0.094-0.002,0.183-0.049,0.236-0.127c0.054-0.078,0.066-0.178,0.034-0.267c-0.144-0.4-0.446-0.815-0.766-1.255  c-0.855-1.177-1.354-2.009-0.539-2.811c0.854-0.841,2.195-0.03,3.273,0.623c0.297,0.18,0.578,0.35,0.829,0.473  c0.09,0.044,0.197,0.04,0.283-0.013c0.085-0.052,0.139-0.145,0.141-0.245c0.004-0.186,0.003-0.369,0.002-0.546  c-0.005-1.115-0.009-1.996,1.092-2.532c0.682-0.332,1.34-0.142,2.068,0.12c2.397,0.861,2.442,2.455,2.503,4.661  c0.009,0.302,0.017,0.615,0.033,0.932c0.007,0.155,0.135,0.278,0.29,0.28c0.109,0,0.224-0.006,0.345-0.013  c0.276-0.017,0.621-0.038,0.769,0.075c0.295,0.225,0.716,1.404,0.845,2.059c0.209,1.066-0.067,1.569-0.484,2.33  c-0.087,0.158-0.176,0.322-0.269,0.503c-0.043,0.085-0.043,0.186,0.001,0.271c0.044,0.084,0.127,0.142,0.221,0.155  c0.486,0.065,1.234,0.705,1.668,1.426c0.059,0.098,0.109,0.193,0.15,0.285c0.011,0.085,0.021,0.167,0.031,0.244  c0.032,0.244,0.059,0.455,0.068,0.592c0.009,0.139,0.114,0.251,0.252,0.271c0.137,0.02,0.27-0.059,0.317-0.189  c0.127-0.346,0.047-0.735-0.096-1.077c-0.056-0.449-0.109-0.952-0.107-1.4c0.004-0.799,0.188-0.929,0.225-0.947  c0.144-0.07,0.206-0.242,0.139-0.387c-0.042-0.092-0.087-0.189-0.135-0.291c-0.685-1.461-1.218-2.838-0.231-3.629  c0.073-0.059,0.114-0.148,0.11-0.242c-0.004-0.093-0.052-0.179-0.129-0.232c-0.72-0.486-1.785-1.745-1.913-2.843  c-0.05-0.436,0.052-0.785,0.313-1.068c0.054-0.059,0.083-0.137,0.077-0.216c-0.004-0.08-0.042-0.154-0.102-0.206  c-1.254-1.075-2.312-2.265-2.829-3.181c-0.408-0.722-0.277-0.979-0.019-1.494c0.125-0.248,0.266-0.528,0.37-0.907  c0.019-0.07,0.012-0.145-0.021-0.209l-0.099-0.197c-0.017-0.035-0.041-0.066-0.07-0.091c-1.337-1.156-2.134-3.749-1.119-5.236  c0.267-0.391,0.309-0.405,0.509-0.477c0.099-0.035,0.235-0.083,0.421-0.174c0.222-0.109,0.35-0.15,0.427-0.174  c0.236-0.075,0.315-0.175,0.34-0.427c0.009-0.093,0.024-0.249,0.095-0.539c0.234-0.95,0.703-1.632,1.356-1.972  c0.658-0.343,1.5-0.333,2.437,0.03c2.081,0.805,3.35,2.91,3.393,5.629c0.002,0.136,0.098,0.253,0.231,0.283  c0.549,0.121,0.987,0.082,1.374,0.045c0.602-0.054,1.035-0.094,1.718,0.446c0.94,0.746,1.08,1.922,1.229,3.167l0.024,0.219  c0.191,1.571,0.143,2.667-0.672,3.963l-0.111,0.179c-0.308,0.486-0.571,0.906-0.812,1.464c-0.048,0.108-0.025,0.234,0.057,0.319  s0.207,0.114,0.316,0.072c0.533-0.202,1.076-0.127,1.613,0.223c0.969,0.632,1.598,1.949,1.646,2.857  c0.053,0.977-0.531,1.693-1.15,2.453c-0.121,0.147-0.245,0.299-0.363,0.453c-0.111,0.143-0.219,0.287-0.324,0.428  c-0.628,0.84-1.172,1.565-2.152,1.943c-0.113,0.042-0.188,0.15-0.189,0.271c-0.001,0.12,0.07,0.229,0.182,0.275  c0.977,0.403,2.08,2.136,1.872,3.355c-0.148,0.872-1.468,2.102-2.354,2.697c-0.103,0.069-0.151,0.195-0.122,0.315  c0.029,0.12,0.132,0.208,0.255,0.221c0.319,0.034,0.597-0.012,0.84-0.052c0.39-0.064,0.696-0.115,1.147,0.121  c0.09,0.047,0.199,0.044,0.287-0.008c0.088-0.052,0.142-0.146,0.144-0.248c0.019-1.22,0.301-1.732,1.044-1.888  c0.131-0.027,0.227-0.141,0.232-0.276c0.022-0.594-0.121-1.25-0.262-1.886c-0.212-0.957-0.41-1.861-0.027-2.394  c0.226-0.312,0.652-0.499,1.306-0.568c0.153-0.017,0.267-0.147,0.263-0.3c-0.049-1.856,0.331-2.416,1.934-2.851  c0.123-0.033,0.212-0.143,0.217-0.27c0.021-0.481,0.009-0.968-0.005-1.439c-0.039-1.377-0.076-2.677,0.735-3.839  c0.522-0.752,1.472-1.481,2.271-1.422c0.444,0.033,0.803,0.315,1.063,0.84c0.058,0.113,0.181,0.177,0.305,0.16  c0.126-0.018,0.226-0.113,0.248-0.238c0.258-1.404,1.96-3.275,3.029-4.097c1.098-0.844,2.461-1.119,3.741-0.752  c1.378,0.394,3.679,2.678,3.515,4.232c-0.066,0.628-0.543,0.986-1.097,1.401c-0.317,0.239-0.647,0.485-0.927,0.806  c-0.068,0.078-0.091,0.186-0.059,0.284c0.031,0.099,0.113,0.173,0.215,0.196c1.736,0.394,2.453,1.565,2.75,2.477  c0.542,1.674,0.068,3.813-1.152,5.203c-1.333,1.517-2.896,1.463-4.55,1.405c-0.905-0.032-1.841-0.064-2.778,0.153  c-0.087,0.02-0.158,0.077-0.197,0.157c-0.039,0.079-0.041,0.172-0.004,0.252c0.162,0.353,0.459,0.756,0.771,1.184  c0.572,0.78,1.222,1.665,1.102,2.297c-0.094,0.494-1.119,1.081-1.611,1.362c-0.082,0.048-0.158,0.091-0.225,0.13  c-1.221,0.723-2.433,1.053-4.184,1.138c-0.389,0.019-0.787-0.021-1.172-0.059c-0.43-0.042-0.875-0.086-1.324-0.054  c-0.1,0.007-0.189,0.066-0.238,0.154c-0.047,0.089-0.046,0.196,0.004,0.284l0.021,0.037c1.091,1.928,2.121,3.749,0.208,5.234  c-0.991,0.77-2.317,1.643-3.774,1.549c-0.078-0.005-0.154,0.021-0.214,0.073c-0.06,0.052-0.095,0.125-0.099,0.203  c-0.018,0.283,0.044,0.65,0.109,1.039c0.092,0.561,0.209,1.258,0.039,1.578c-0.149,0.285-0.479,0.408-0.859,0.55  c-0.233,0.088-0.475,0.179-0.701,0.316c-0.582,0.354-0.654,0.488-0.715,0.908c-0.018,0.125-0.039,0.281-0.104,0.512  c-0.045,0.156-0.172,0.391-0.274,0.578c-0.195,0.359-0.303,0.557-0.185,0.754c0.056,0.092,0.152,0.141,0.252,0.141  c0.052,0,0.104-0.013,0.151-0.041c0.097-0.059,0.146-0.162,0.143-0.268c0.026-0.066,0.1-0.201,0.155-0.304  c0.123-0.226,0.263-0.481,0.324-0.702c0.073-0.268,0.101-0.451,0.12-0.586c0.033-0.244,0.033-0.244,0.438-0.49  c0.18-0.109,0.385-0.186,0.602-0.267c0.432-0.161,0.92-0.345,1.175-0.828c0.262-0.497,0.133-1.269,0.021-1.949  c-0.037-0.224-0.074-0.438-0.093-0.622c0.813-0.01,2.041-0.275,3.851-1.68c1.039-0.807,1.445-1.783,1.242-2.985  c-0.146-0.874-0.599-1.752-1.076-2.609c0.242,0.009,0.488,0.034,0.744,0.06c0.405,0.04,0.825,0.082,1.26,0.061  c1.854-0.09,3.145-0.443,4.453-1.22c0.063-0.037,0.138-0.079,0.217-0.125c0.699-0.399,1.754-1.002,1.897-1.763  c0.167-0.885-0.562-1.878-1.204-2.755c-0.195-0.264-0.382-0.518-0.525-0.746c0.74-0.116,1.5-0.089,2.238-0.063  c1.719,0.06,3.494,0.122,5.012-1.605C73.695,31.102,74.206,28.783,73.594,26.892z"></path></svg>