<svg   fill="#000000" xmlns="http://www.w3.org/2000/svg" data-name="Layer 2" viewBox="0 0 100 100" x="0px" y="0px"><defs><style>.cls-1{fill:#000000;}</style></defs><title>Thirdbatch</title><path class="cls-1" d="M67.78,17.76l-2.23,0a31.23,31.23,0,0,0-8.52.95c-1.86.53-3.9,1.77-4.61,3.22l0.18,0.92a1.54,1.54,0,0,1,1.4,0,1,1,0,0,1,.57,1l-0.1,1.33a0.2,0.2,0,0,0,.08.15,0.71,0.71,0,0,0,.6.12L58,24.78a1.38,1.38,0,0,1,1.58.68,0.94,0.94,0,0,1-.37,1.17l-0.35.24C58.71,27,58.73,27,58.73,27a0.5,0.5,0,0,0,.48.25l0.77,0a6.07,6.07,0,0,1,1.4-1.61A24.29,24.29,0,0,1,74,20.87a22.46,22.46,0,0,1,3.2-.07C75.48,18.85,72.38,17.85,67.78,17.76Z"></path><path class="cls-1" d="M61.72,28.35a1,1,0,0,1-.54.94,37.18,37.18,0,0,1,5,2.13A17.52,17.52,0,0,1,76,48c-0.37,5.17-1.85,10.25-3.28,15.17-0.29,1-.57,2-0.85,2.93A153.81,153.81,0,0,1,66,83.61a30.34,30.34,0,0,1-3.66,6.69,2.67,2.67,0,0,0,.32.18,6.87,6.87,0,0,0,4.81.1c7.51-2.23,12.3-9.89,15-15.92,1.16-2.59,2.11-5.22,2.81-7.22,0.33-1,.69-1.94,1.05-3,4.41-12.3,10.44-29.14-.16-39.4-5.85-5.65-17.86-4-24.29,1.25a5.36,5.36,0,0,0-1,1.07A1.11,1.11,0,0,1,61.72,28.35Z"></path><path class="cls-1" d="M38.5,29h0.07a0.25,0.25,0,1,0,0-.48l-0.07,0a1.05,1.05,0,0,1-.85-1.17,1.19,1.19,0,0,1,1.34-.9l1.25,0.06a0.51,0.51,0,0,0,.5-0.21s0-.09-0.09-0.18l-0.33-.27a0.94,0.94,0,0,1-.27-1.2,1.38,1.38,0,0,1,1.64-.54L44.46,25l0.12,0a19.12,19.12,0,0,0-.91-5.83c-3.15-1.46-8,.12-10.84,1l-1.2.38c-3.22,1-6.55,2.07-8.68,4.54a22.13,22.13,0,0,1,6.34.65L30.17,26c2,0.48,4.57,1.08,5.89,2.89a3.84,3.84,0,0,1,.4.7,7.33,7.33,0,0,1,1.06-.09h0.21A1.22,1.22,0,0,1,38.5,29Z"></path><path class="cls-1" d="M30,26.76l-0.89-.22a21.35,21.35,0,0,0-5.21-.64,18,18,0,0,0-9.73,2.65C7.31,33,7.31,41,8.51,47a89.54,89.54,0,0,0,3.18,10.91c0.65,1.91,1.25,3.87,1.83,5.77a92.7,92.7,0,0,0,4.23,11.85,30.57,30.57,0,0,0,7.53,10.15l0.22,0.19c2.52,2.23,7.08,6.26,10.71,5-3.36-3.47-5.47-8.2-7-12.33l-0.77-2C26,70.08,22.95,62.1,22,54.3c-1.13-9.31,1-16,6.45-20.55a19.65,19.65,0,0,1,7.19-4,3,3,0,0,0-.23-0.38C34.26,27.77,32,27.23,30,26.76Z"></path><path class="cls-1" d="M60.53,28.67l0.07,0a0.31,0.31,0,0,0,.31-0.24,0.45,0.45,0,0,0-.48-0.28l-1.25,0A1.27,1.27,0,0,1,58,27.27a1,1,0,0,1,.41-1.06L58.72,26c0.14-.1.11-0.16,0.1-0.19a0.59,0.59,0,0,0-.67-0.22l-2.81.64a1.5,1.5,0,0,1-1.3-.3,1,1,0,0,1-.36-0.82l0.1-1.33a0.26,0.26,0,0,0-.16-0.2,0.71,0.71,0,0,0-.72,0l-0.12.09L53,24.78c0.23,1.08.46,2.2,0.67,3.3,0,0.21.09,0.42,0.14,0.63a13.23,13.23,0,0,1,1.87-.25,14.07,14.07,0,0,1,4.27.47A1.35,1.35,0,0,1,60.53,28.67Z"></path><path class="cls-1" d="M44.39,27.44a13.9,13.9,0,0,0,.17-1.64,1.57,1.57,0,0,1-.35-0.07l-2.75-.87a0.59,0.59,0,0,0-.69.16s0,0.09.08,0.2l0.33,0.27a1,1,0,0,1,.32,1.09,1.27,1.27,0,0,1-1.29.72L39,27.24a0.44,0.44,0,0,0-.51.23,0.31,0.31,0,0,0,.29.26l0.07,0a1.09,1.09,0,0,1,.86,1.06,1,1,0,0,1-.64.88,14.52,14.52,0,0,1,1.84.67,9.39,9.39,0,0,0,2.55.79l0.25,0c0.2-1.26.44-2.44,0.59-3.16C44.33,27.73,44.37,27.54,44.39,27.44Z"></path><path class="cls-1" d="M52.23,24.94c-0.34-1.62-.69-3.29-1-4.95-0.54-3.27-1.55-7.31-4.54-9.62a19.33,19.33,0,0,0-5.94-2.67l-1.62-.53L38.57,7c-2.82-1-8.08-2.85-11-1.41a3.55,3.55,0,0,0-1.87,2.17,9.53,9.53,0,0,0,.18,6.44c0.66,1.55,4.15,1.24,5.49.77a11.38,11.38,0,0,0,2.16-1.15,7.29,7.29,0,0,1,3.82-1.49,4.2,4.2,0,0,1,.51,0,6.88,6.88,0,0,1,4.77,2.92c2.47,3.32,3.18,8.83,2.58,12.33,0,0.1-.06.31-0.12,0.59-0.14.69-.37,1.81-0.56,3l0.29,0a23.52,23.52,0,0,0,5.11-1.3c1-.34,2.07-0.69,3.14-1-0.05-.22-0.1-0.44-0.14-0.65C52.69,27.13,52.46,26,52.23,24.94Z"></path><path class="cls-1" d="M65.29,83.3a153,153,0,0,0,5.86-17.41c0.27-1,.56-2,0.85-2.94,1.42-4.88,2.89-9.92,3.25-15a16.71,16.71,0,0,0-9.43-15.81c-3-1.49-6.51-3.07-10.07-2.88a21.42,21.42,0,0,0-5.58,1.34,24.13,24.13,0,0,1-5.29,1.34,7.19,7.19,0,0,1-1.52,0,10.14,10.14,0,0,1-2.77-.84,8,8,0,0,0-3-.82h0c-3,0-6.29,2.23-8.56,4.09-11.94,9.84-4.63,29.09.2,41.84l0.77,2c2.2,5.86,5.55,12.94,12,15.67A14.16,14.16,0,0,0,47.3,95C51,95.07,54.83,95,58,93.2,61.64,91.15,63.81,86.83,65.29,83.3Z"></path></svg>