<svg    fill="#000000" xmlns="http://www.w3.org/2000/svg" xmlns:xlink="http://www.w3.org/1999/xlink" version="1.1" x="0px" y="0px" viewBox="0 0 100 100" enable-background="new 0 0 100 100" xml:space="preserve"><g><path fill="#000000" d="M95.398,45.128c-0.001-0.029-0.004-0.058-0.005-0.086c2.525-2.139,1.202-4.496-1.393-5.25   c1.365-3.993-1.485-4.268-3.468-4.029c-0.033-0.033-0.066-0.066-0.102-0.099c-0.152-1.103-0.62-2.326-1.791-3.171   c-0.61-0.212-1.228-0.376-1.839-0.448c-0.345-0.038-0.686-0.055-1.02-0.029c-0.333,0.016-0.655,0.089-0.97,0.178   c-0.622,0.196-1.199,0.576-1.634,1.112c-0.228,0.26-0.41,0.56-0.586,0.865c-0.17,0.31-0.313,0.635-0.447,0.969l-0.095,0.24   l-0.211-0.136c-0.533-0.339-1.251-0.602-1.833-0.322c-0.29,0.137-0.51,0.408-0.658,0.713c-0.046,0.087-0.074,0.181-0.109,0.274   c-0.057,0.349-0.195,0.88-0.396,1.605c-0.48,1.743-4.841,5.877-8.065,8.751l-1.965,2.645c-1.337,2.744-3.183,6.175-3.951,8.433   c0,0-0.356,0.895-3.929,7.039c0,0,3.332-13.701,5.251-15.477c0.403-0.373,0.76-0.689,1.094-0.979c0.001-0.001,0,0,1.073-1.675   c0.875-1.368,2.771-3.121,4.591-4.465c1.227-1.068,2.495-2.346,4.084-4.023c1.492-1.578,1.434-1.902,1.927-2.266   c0.135-0.305,0.624-0.613,0.935-0.796c0.336-0.204,0.748-0.241,1.12-0.184c0.291,0.045,0.56,0.146,0.824,0.273   c0.097-0.283,0.201-0.564,0.328-0.838c0.167-0.34,0.344-0.68,0.578-0.99c0.442-0.628,1.076-1.179,1.839-1.458   c0.725-0.265,1.512-0.248,2.223-0.074c0.362-2.421-1.65-4.015-2.814-4.72c-0.011-0.055-0.023-0.113-0.034-0.168   c3.454-3.602-0.006-4.968-1.461-5.357c0.529-1.06,0.401-2.722-2.711-4.922c0.099-4.4-2.646-4.663-4.372-4.398   c0.132-0.569,0.197-1.149,0.187-1.816c-0.036-2.029-4.926-3.75-6.22-3.699c-0.765,0.03-1.646,1.226-2.243,2.199   c-1.988-1.351-7.23-4.361-9.239-0.161c-0.208-0.171-0.498-0.32-0.862-0.444l-0.001,0.007c-0.726-0.128-1.477-0.172-2.179-0.036   c-0.352,0.063-0.689,0.174-0.979,0.348c-0.147,0.088-0.278,0.194-0.397,0.307c-0.114,0.121-0.213,0.251-0.3,0.393   c-0.326,0.575-0.389,1.292-0.323,1.991c0.065,0.707,0.258,1.406,0.463,2.101l0.154,0.516l-0.545-0.052   c-0.243-0.024-0.53-0.021-0.786,0.009c-0.26,0.032-0.513,0.091-0.726,0.193c-0.443,0.19-0.666,0.554-0.661,1.052   c0,0.133,0.01,0.228,0.034,0.381c0.016,0.155,0.048,0.272,0.078,0.387c0.027,0.116,0.081,0.234,0.128,0.343   c0.055,0.108,0.118,0.205,0.191,0.292c0.148,0.169,0.341,0.287,0.572,0.341c0.114,0.031,0.238,0.043,0.364,0.049   c0.137,0.003,0.238-0.007,0.433-0.015l0.013,0.608c-0.123,0.006-0.29,0.038-0.431,0.081c-0.145,0.044-0.282,0.106-0.412,0.179   c-0.253,0.153-0.459,0.368-0.594,0.633c-0.065,0.134-0.114,0.277-0.149,0.427c-0.036,0.152-0.058,0.321-0.068,0.476   c-0.023,0.327-0.017,0.662,0.017,0.992c0.036,0.331,0.099,0.658,0.201,0.964c0.052,0.152,0.114,0.297,0.193,0.424   c0.076,0.139,0.16,0.209,0.304,0.335c0.133,0.115,0.248,0.19,0.389,0.282c0.141,0.089,0.285,0.171,0.437,0.246   c0.294,0.146,0.621,0.286,0.917,0.364l0.629,0.169l-0.604,0.215c-0.336,0.12-0.678,0.319-0.923,0.575   c-0.248,0.26-0.387,0.595-0.354,0.949c0.029,0.354,0.197,0.705,0.414,1.017c0.217,0.315,0.482,0.603,0.766,0.874l0.046,0.045   l-0.006,0.067c-0.057,0.562,0.023,1.164,0.202,1.717c0.086,0.28,0.202,0.552,0.342,0.809c0.074,0.125,0.134,0.261,0.223,0.379   l0.256,0.36c0.197,0.218,0.381,0.451,0.611,0.639c0.112,0.095,0.214,0.206,0.338,0.288l0.358,0.259   c0.24,0.175,0.512,0.301,0.768,0.455c0.161,0.076,0.325,0.146,0.49,0.219c0-0.005,0.003-0.015,0.003-0.015s0.057,0.026,0.143,0.081   c0.061,0.026,0.122,0.053,0.178,0.08l-0.012,0.034c0.602,0.447,1.894,1.783,2.137,5.114c0.32,4.367-0.794,10.522-1.393,12.489   c-0.598,1.969-3.109,11.211-2.822,9.389c0.289-1.826,0.353-8.626-0.419-13.161c-0.729-4.278,1.864-12.965,2.161-13.934   c-0.17-0.069-0.34-0.138-0.507-0.212c-0.263-0.148-0.541-0.27-0.79-0.44l-0.375-0.255c-0.128-0.081-0.232-0.191-0.352-0.286   c-0.24-0.187-0.436-0.421-0.645-0.641l-0.274-0.365c-0.093-0.121-0.16-0.259-0.24-0.388c-0.152-0.264-0.28-0.543-0.378-0.833   c-0.105-0.287-0.169-0.587-0.222-0.89c-0.036-0.282-0.054-0.563-0.036-0.857c-0.284-0.259-0.558-0.535-0.791-0.851   c-0.244-0.329-0.453-0.712-0.507-1.154c-0.061-0.443,0.117-0.913,0.415-1.23c0.146-0.162,0.316-0.297,0.493-0.413   c0.035-0.022,0.07-0.039,0.104-0.06c-0.181-0.067-0.354-0.141-0.529-0.222c-0.162-0.076-0.321-0.16-0.479-0.252   c-0.15-0.091-0.328-0.209-0.458-0.318c-0.12-0.097-0.306-0.256-0.397-0.424c-0.107-0.167-0.187-0.339-0.25-0.514   c-0.126-0.349-0.202-0.706-0.251-1.063c-0.045-0.359-0.063-0.72-0.045-1.085c0.01-0.191,0.027-0.367,0.065-0.554   c0.04-0.189,0.1-0.376,0.182-0.557c0.145-0.308,0.376-0.576,0.648-0.781c-0.219-0.094-0.425-0.23-0.587-0.406   c-0.121-0.133-0.223-0.275-0.301-0.426c-0.078-0.154-0.147-0.303-0.193-0.466c-0.05-0.167-0.092-0.332-0.109-0.467   c-0.028-0.131-0.054-0.327-0.055-0.485c-0.004-0.336,0.056-0.708,0.254-1.031c0.191-0.326,0.498-0.562,0.812-0.706   c0.315-0.143,0.64-0.209,0.957-0.245c0.152-0.015,0.3-0.023,0.45-0.023c-0.145-0.579-0.256-1.169-0.289-1.778   c-0.031-0.769,0.048-1.615,0.52-2.314c0.121-0.17,0.26-0.324,0.415-0.462c0.16-0.13,0.331-0.245,0.513-0.334   c0.365-0.179,0.756-0.269,1.14-0.307c0.486-0.036,0.966,0.004,1.435,0.093c-0.105-1.293-1.103-3.047-5.891-2.619   c-1.437-0.656-2.5-2.161-4.932,0.318c-0.755,0.77-1.121,1.475-1.268,2.082c-0.015,0.007-0.029,0.015-0.043,0.021   c-3.617-0.882-4.521,1.44-4.688,3.32c-0.003,0.003-0.004,0.005-0.007,0.007c-1.78,0.017-3.663,0.637-1.56,3.721   c-0.16,0.327-0.28,0.715-0.339,1.183c-0.823-1.654-2.466-3.457-5.613-2.724c-0.236-0.031-0.47-0.049-0.704-0.053   c-1.069-1.027-2.907-1.928-4.608,1.419c-0.38,0.232-0.743,0.48-1.085,0.735c-1.093-0.189-2.347,0.127-3.018,2.125   c0.447,0.343,0.832,0.789,1.092,1.321c0.327,0.685,0.368,1.498,0.187,2.205c-0.081,0.359-0.216,0.695-0.367,1.021   c-0.102,0.208-0.224,0.4-0.341,0.596c0.313,0.126,0.617,0.262,0.915,0.415c0.41,0.212,0.806,0.452,1.179,0.728   c0.741,0.546,1.414,1.25,1.777,2.127c0.088,0.217,0.166,0.442,0.204,0.675c0.053,0.23,0.066,0.467,0.069,0.699   c0.002,0.235-0.026,0.465-0.062,0.695c-0.052,0.225-0.093,0.453-0.178,0.666c-0.07,0.22-0.161,0.429-0.261,0.633   c-0.089,0.21-0.218,0.399-0.324,0.599c-0.238,0.385-0.507,0.748-0.791,1.098l-0.056-0.045c0.26-0.363,0.505-0.737,0.715-1.128   c0.093-0.201,0.208-0.392,0.282-0.601c0.084-0.204,0.161-0.41,0.215-0.623c0.069-0.208,0.094-0.427,0.131-0.64   c0.021-0.215,0.035-0.431,0.019-0.645c-0.015-0.214-0.039-0.428-0.098-0.632c-0.049-0.207-0.125-0.406-0.214-0.599   c-0.361-0.773-1-1.392-1.717-1.872c-0.359-0.242-0.742-0.451-1.137-0.635c-0.391-0.183-0.81-0.342-1.209-0.455l-0.379-0.108   l0.202-0.358c0.16-0.285,0.308-0.573,0.431-0.87c0.112-0.298,0.225-0.595,0.279-0.9c0.062-0.302,0.1-0.604,0.083-0.904   c-0.016-0.298-0.075-0.59-0.174-0.874c-0.207-0.569-0.635-1.049-1.124-1.472c-0.385-0.317-0.826-0.582-1.285-0.818   c-1.151-0.385-1.845,0.382-2.259,1.365c-0.372-1.358-1.545-2.149-5.25-1.137c-2.131,0.582-3.112,1.987-3.514,3.515   c-0.06,0.039-0.12,0.077-0.179,0.116c-2.314-1.079-6.125-0.079-6.648,2.899c-0.35,1.989,0.784,3.382,1.957,4.265   c-0.369,0.319-0.766,0.673-1.193,1.075c-3.546,3.326-0.721,5.786-0.094,6.948c0.286,0.529,0.968,0.518,1.625,0.35   c-1.513,3.764,3.927,9.43,6.038,8.813c0.935-0.274,1.774-1.012,2.46-1.828c0.023,0.002,0.046,0.003,0.068,0.006   c1.524,2.029,3.767,2.302,5.389,0.958c1.127-0.935,1.493-2.149,1.596-3.05c0.526-0.399,0.817-0.695,0.817-0.695   c13.552,15.949,13.735,26.963,14.472,30.195c0.738,3.232,0.627,23.408,0.627,23.408l5.499,0.1l18.817-0.391   c0,0,1.96-6.359,5.429-19.805c3.471-13.447,14.2-15.566,14.2-15.566c0.451,2.613,4.506,2.436,4.506,2.436   c2.901-0.49,2.975-1.574,3.715-2.887c3.889,0.646,4.343-2.846,3.969-4.162C99.431,50.825,96.572,46.518,95.398,45.128z    M73.126,32.869c0,0-2.033,4.455-3.924,5.514C67.313,39.44,69.113,34.772,73.126,32.869z M70.075,31.962   c0,0-4.636,8.718-4.706,6.208C65.3,35.659,70.075,31.962,70.075,31.962z M61.628,30.774c0,0,0.979,0.49,0.586,1.272   c-0.391,0.781-0.042,5.625-0.625,4.766C61.004,35.952,61.628,30.774,61.628,30.774z M22.113,33.178l-0.929-2.017l1.503,0.812   l0.606,2.542L22.113,33.178z M29.84,23.413l0.343,3.604l-1.335-1.266L29.84,23.413z M25.429,34.66   c-1.86-1.588,0.051-3.973,0.051-3.973l3.853,1.423l4.437,16.575C33.77,48.686,27.289,36.248,25.429,34.66z M45.717,26.443   l1.18,2.56l-2.099-2.136L45.717,26.443z M46.171,54.068c-0.379,4.822-0.5,8.494-0.537,10.236c-0.009,0.676-0.018,1.115-0.018,1.115   s0.001-0.393,0.018-1.115c0.025-2.105,0.037-6.52-0.287-7.225c-0.429-0.93-6.172-10.134-8.586-20.681c0,0-0.51-3.15,0.492-3.424   c1.002-0.273,4.968-0.596,5.888,1.99C44.062,37.55,46.706,47.244,46.171,54.068z M47.82,37.135l-1.43-3.103   c-2.801-3.223-2.429-5.275-2.429-5.275s2.742,2.687,3.327,3.546C47.872,33.162,47.82,37.135,47.82,37.135z M49.157,29.56   c0,0,0.232-0.859,0.263-3.317l1.018,0.652L49.157,29.56z M51.974,36.352c0.022,1.681-0.858-1.862-0.725-3.616   c0.132-1.754,0.979-1.956,2.445-2.443C53.694,30.292,51.951,34.668,51.974,36.352z M84.9,48.032c1.58-0.803,2.402-1.243,2.909-1.25   c0.746-0.011-1.359,1.523-3.535,2.524c-2.176,1.002-2.206,0.121-2.206,0.121C83.217,48.882,84.145,48.416,84.9,48.032z    M80.179,45.363l1.882-0.867c0,0,0.042,0.921-0.948,2.892c0,0-1.612,0.544-1.538-0.52S80.179,45.363,80.179,45.363z M77.821,43.063   c0,0-1.041,3.864-3.057,4.793C72.747,48.785,77.821,43.063,77.821,43.063z M73.001,52.807c1.521-2.207,5.115-4.613,5.115-4.613   C76.692,52.045,71.479,55.012,73.001,52.807z M78.04,56.504c-1.529,1.27,0.455-1.715,1.325-2.303   c0.869-0.59,5.919-3.104,6.55-1.324C85.915,52.877,79.565,55.236,78.04,56.504z M87.402,50.391l-1.72-0.607l1.189-0.547l4.77,0.149   L87.402,50.391z"></path></g></svg>