<svg    fill="#000000" xmlns="http://www.w3.org/2000/svg" xmlns:xlink="http://www.w3.org/1999/xlink" version="1.1" x="0px" y="0px" viewBox="0 0 100 100" enable-background="new 0 0 100 100" xml:space="preserve"><g><path d="M9.197,12.203v58.783c0,0,4.009,17.369,41.861,24.494V36.696C13.206,29.571,9.197,12.203,9.197,12.203z"></path><path d="M10.813,11.661c6.903,18.37,40.564,23.562,40.564,23.562L90.803,4.521L10.813,11.661z"></path><path d="M79.36,30.221c0.861,0,1.91-0.246,2.952-0.693c1.977-0.847,3.7-2.35,3.173-3.583c-0.139-0.324-0.561-0.866-1.832-0.866   c-0.861,0-1.91,0.246-2.951,0.692c-1.978,0.847-3.703,2.35-3.175,3.583C77.666,29.679,78.089,30.221,79.36,30.221z M81.097,26.691   c0.906-0.389,1.838-0.611,2.557-0.611c0.551,0,0.858,0.135,0.912,0.26c0.146,0.338-0.75,1.457-2.647,2.27   c-0.906,0.389-1.839,0.612-2.558,0.612c-0.551,0-0.859-0.135-0.913-0.26C78.302,28.623,79.198,27.504,81.097,26.691z"></path><path d="M63.327,44.834c1.566,0,3.675-0.579,5.782-1.587c1.754-0.84,3.291-1.876,4.331-2.918c1.488-1.493,1.474-2.488,1.2-3.06   c-0.226-0.47-0.814-1.03-2.342-1.03c-1.567,0-3.676,0.579-5.783,1.587c-1.753,0.839-3.291,1.875-4.33,2.918   c-1.488,1.493-1.474,2.488-1.2,3.061C61.211,44.275,61.8,44.834,63.327,44.834z M62.894,41.451c0.961-0.964,2.4-1.931,4.054-2.722   c1.948-0.933,3.949-1.49,5.352-1.49c0.763,0,1.302,0.172,1.439,0.461c0.144,0.298-0.046,0.96-1.006,1.922   c-0.962,0.964-2.401,1.931-4.055,2.722c-1.948,0.933-3.949,1.489-5.351,1.489c-0.763,0-1.301-0.172-1.439-0.461   C61.744,43.075,61.934,42.413,62.894,41.451z"></path><path d="M81.88,47.014c-1.571,0.526-2.851,1.463-3.338,2.443c-0.233,0.47-0.281,0.941-0.14,1.362   c0.283,0.85,1.289,1.356,2.688,1.356c0.75,0,1.573-0.143,2.381-0.414c1.572-0.526,2.852-1.463,3.339-2.444   c0.233-0.47,0.281-0.941,0.14-1.362c-0.284-0.849-1.29-1.356-2.688-1.356C83.512,46.6,82.688,46.743,81.88,47.014z M86.002,48.274   c0.057,0.167,0.027,0.369-0.087,0.599c-0.368,0.74-1.452,1.502-2.762,1.941c-1.715,0.576-3.57,0.384-3.803-0.313   c-0.057-0.167-0.027-0.369,0.087-0.599c0.368-0.74,1.451-1.501,2.761-1.94c0.707-0.237,1.42-0.363,2.063-0.363   C85.182,47.6,85.864,47.864,86.002,48.274z"></path><path d="M72.796,53.91c-1.609,0-3.716,0.491-5.777,1.348c-3.587,1.491-6.966,4.12-6.162,6.057c0.238,0.571,0.927,1.252,2.861,1.252   c1.61,0,3.716-0.49,5.777-1.347c1.906-0.792,3.592-1.812,4.747-2.87c1.64-1.504,1.675-2.563,1.416-3.185   C75.421,54.593,74.731,53.91,72.796,53.91z M73.566,57.612c-1.071,0.982-2.653,1.936-4.454,2.684   c-1.945,0.808-3.911,1.271-5.395,1.271c-1.048,0-1.772-0.237-1.938-0.636c-0.356-0.859,1.61-3.081,5.622-4.749   c1.945-0.808,3.91-1.271,5.394-1.271c1.048,0,1.772,0.238,1.938,0.639C74.919,55.992,74.472,56.782,73.566,57.612z"></path><path d="M66.563,70.256c-0.877,0-1.839,0.192-2.784,0.556c-1.17,0.451-2.184,1.118-2.855,1.878   c-0.75,0.848-1.003,1.729-0.713,2.479c0.341,0.885,1.356,1.392,2.786,1.392c0.877,0,1.84-0.192,2.785-0.556   c1.169-0.451,2.184-1.117,2.855-1.878c0.749-0.848,1.002-1.729,0.712-2.479C69.008,70.763,67.992,70.256,66.563,70.256z    M67.887,73.465c-0.567,0.643-1.442,1.213-2.465,1.606c-1.895,0.729-3.959,0.564-4.278-0.262c-0.147-0.381,0.046-0.912,0.528-1.458   c0.567-0.642,1.443-1.212,2.466-1.606c0.831-0.32,1.67-0.489,2.425-0.489c0.965,0,1.674,0.288,1.853,0.751   C68.563,72.388,68.37,72.919,67.887,73.465z"></path><path d="M52.564,94.695l25.992-17.647l-0.219-0.707c-0.154-0.501-0.227-0.93-0.227-1.348c0-2.518,2.023-4.566,4.511-4.566   c0.809,0,1.588,0.226,2.317,0.672l0.595,0.363l5.269-4.166V5.961l-38.238,30.25V94.695z M54.564,37.18l34.238-27.085v56.233   l-3.446,2.726c-0.866-0.411-1.8-0.626-2.734-0.626c-3.59,0-6.511,2.945-6.511,6.566c0,0.393,0.042,0.793,0.128,1.21L54.564,90.92   V37.18z"></path></g></svg>