<svg   fill="#000000" xmlns="http://www.w3.org/2000/svg" xmlns:xlink="http://www.w3.org/1999/xlink" xml:space="preserve" version="1.1" style="shape-rendering:geometricPrecision;text-rendering:geometricPrecision;image-rendering:optimizeQuality;" viewBox="0 0 613 642" x="0px" y="0px" fill-rule="evenodd" clip-rule="evenodd"><defs><style type="text/css">
   
    .fil0 {fill:#000000}
   
  </style></defs><g><path class="fil0" d="M465 85c-1,20 -18,41 -13,56 37,96 67,108 102,172 11,20 30,48 40,82 10,35 21,74 0,106 -17,28 -76,44 -63,44 13,0 53,-22 57,-18 4,4 20,21 24,45 4,19 -3,47 -9,53 -7,8 -20,15 -34,17 -11,1 -22,-1 -29,-10 -17,-22 24,-34 33,-40 10,-7 -45,13 -51,10 -18,-10 -15,-32 -17,-34 -7,-6 -111,-26 -202,-128 -38,-42 -132,-180 -179,-193 -49,-13 -39,45 -39,45 -12,6 -31,-72 22,-78 91,-8 249,258 346,300 18,7 41,14 53,17 21,6 -19,-5 -52,-21 -13,-6 -23,-14 -30,-20 -25,-18 -39,-38 -68,-68 -49,-51 -101,-109 -144,-150 -58,-56 -122,-131 -195,-166 -13,-6 -18,-7 -17,-10 3,-5 15,-7 20,-6 20,0 60,19 77,30 19,13 64,59 104,102 69,77 141,168 174,206 14,16 25,26 20,16 -5,-9 -28,-37 -53,-68 -36,-44 -97,-114 -146,-169 -34,-37 -82,-74 -81,-129 1,-12 3,-24 2,-24 -9,10 -5,50 0,63 2,10 5,15 1,10 -4,-4 -16,-20 -21,-35 -3,-7 -10,-70 -8,-72 3,-2 11,5 17,9 20,10 5,30 17,17 31,-36 53,-37 101,-8 51,32 89,72 124,120 40,54 76,108 118,160 27,34 82,95 94,133 9,30 -1,51 -20,65 -1,2 74,-22 -24,-146 -40,-51 -76,-95 -114,-148 -43,-61 -76,-113 -133,-163 -13,-12 -20,-17 -27,-19 -21,-10 -35,-19 -3,-39 11,-7 6,17 6,20 0,6 59,47 71,59 5,5 7,6 9,2 8,-32 19,-48 53,-58 8,-3 21,-2 17,2 -27,31 -29,55 -25,70 9,40 20,41 93,142 7,11 16,19 12,12 -4,-8 -20,-32 -32,-52 -18,-32 -35,-75 -11,-108 10,-13 35,-22 33,-5zm27 393l-8 7c-6,4 -7,12 -2,18l0 0c4,5 12,6 18,2l8 -6c6,-5 7,-13 2,-19l0 0c-4,-5 -12,-6 -18,-2zm36 -23l-8 6c-6,5 -7,13 -3,18l0 0c5,6 13,7 19,3l8 -7c5,-4 6,-12 2,-18l0 0c-4,-6 -13,-7 -18,-2zm-21 -29l-8 6c-6,5 -7,13 -2,18l0 0c4,6 12,7 18,3l8 -7c5,-4 6,-12 2,-18l0 0c-4,-5 -13,-6 -18,-2zm-20 -31l-8 6c-6,5 -7,13 -3,18l0 0c5,6 13,7 19,3l8 -7c5,-4 6,-12 2,-18l0 0c-5,-6 -13,-7 -18,-2zm-20 -27l-8 6c-5,4 -6,12 -2,18l0 0c5,6 13,7 18,2l8 -6c6,-5 7,-13 3,-18l0 0c-5,-6 -13,-7 -19,-2zm-24 -32l-8 6c-6,5 -7,13 -2,19l0 0c4,5 12,6 18,2l8 -7c5,-4 6,-12 2,-18l0 0c-4,-5 -13,-6 -18,-2zm-22 -27l-8 6c-6,5 -7,13 -2,18l0 0c4,6 12,7 18,2l8 -6c5,-4 6,-12 2,-18l0 0c-4,-6 -12,-7 -18,-2zm-24 -31l-8 6c-6,5 -7,13 -2,18l0 0c4,6 12,7 18,2l8 -6c5,-4 6,-12 2,-18l0 0c-4,-6 -12,-7 -18,-2zm-24 -31l-8 7c-6,4 -7,12 -2,18l0 0c4,5 12,6 18,2l8 -6c5,-5 6,-13 2,-18l0 0c-4,-6 -12,-7 -18,-3zm-22 -29l-8 6c-6,5 -7,13 -2,18l0 0c4,6 12,7 18,2l8 -6c5,-4 6,-12 2,-18l0 0c-4,-6 -12,-7 -18,-2zm-23 -31l-8 7c-6,4 -7,12 -3,18l0 0c5,6 13,7 18,2l9 -6c5,-5 6,-13 2,-18l0 0c-5,-6 -13,-7 -18,-3zm-25 -28l-8 7c-6,4 -7,12 -2,18l0 0c4,5 12,6 18,2l8 -6c5,-5 6,-13 2,-18l0 0c-4,-6 -12,-7 -18,-3zm-27 -28l-8 7c-6,4 -7,12 -3,18l0 0c5,5 13,6 19,2l8 -7c5,-4 6,-12 2,-18l0 0c-5,-5 -13,-6 -18,-2zm-24 -31l-8 6c-6,4 -7,13 -2,18l0 0c4,6 12,7 18,2l8 -6c5,-4 6,-13 2,-18l0 0c-4,-6 -12,-7 -18,-2zm-30 -27l-8 7c-5,4 -6,12 -2,18l0 0c4,5 13,6 18,2l8 -6c6,-5 7,-13 2,-19l0 0c-4,-5 -12,-6 -18,-2zm-23 -25l-8 7c-6,4 -7,12 -3,18l0 0c5,6 13,7 18,2l9 -6c5,-5 6,-13 2,-18l0 0c-5,-6 -13,-7 -18,-3zm-40 -14l-8 6c-6,5 -7,13 -3,18l0 0c5,6 13,7 19,3l8 -7c5,-4 6,-12 2,-18l0 0c-4,-6 -13,-7 -18,-2zm-8 44l-8 7c-6,4 -7,12 -3,18l0 0c5,5 13,6 18,2l9 -6c5,-5 6,-13 2,-19l0 0c-5,-5 -13,-6 -18,-2zm22 37l-8 6c-6,5 -7,13 -3,18l0 0c5,6 13,7 19,2l8 -6c5,-4 6,-12 2,-18l0 0c-5,-6 -13,-7 -18,-2zm26 29l-8 6c-6,4 -7,13 -2,18l0 0c4,6 12,7 18,2l8 -6c6,-4 7,-13 2,-18l0 0c-4,-6 -12,-7 -18,-2zm266 307l-8 7c-6,4 -7,12 -2,18l0 0c4,5 12,6 18,2l8 -6c6,-5 7,-13 2,-18l0 0c-4,-6 -12,-7 -18,-3zm-26 -24l-8 6c-5,5 -6,13 -2,18l0 0c5,6 13,7 18,3l8 -7c6,-4 7,-12 3,-18l0 0c-5,-6 -13,-7 -19,-2zm-19 -30l-8 7c-6,4 -7,12 -2,18l0 0c4,5 12,6 18,2l8 -6c5,-5 6,-13 2,-19l0 0c-4,-5 -13,-6 -18,-2zm-26 -28l-8 7c-6,4 -7,12 -3,18l1 0c4,6 12,7 18,2l8 -6c5,-5 6,-13 2,-18l0 0c-4,-6 -13,-7 -18,-3zm-28 -27l-8 6c-5,5 -6,13 -2,18l0 0c4,6 13,7 18,3l8 -7c6,-4 7,-12 2,-18l0 0c-4,-6 -12,-7 -18,-2zm-21 -32l-8 6c-6,5 -7,13 -2,18l0 0c4,6 12,7 18,3l8 -7c5,-4 6,-12 2,-18l0 0c-4,-6 -12,-7 -18,-2zm-26 -27l-8 7c-6,4 -7,12 -3,18l0 0c5,6 13,7 18,2l9 -6c5,-5 6,-13 2,-18l0 0c-5,-6 -13,-7 -18,-3zm-24 -29l-9 6c-5,4 -6,12 -2,18l0 0c5,6 13,7 18,2l8 -6c6,-5 7,-13 3,-18l0 0c-5,-6 -13,-7 -18,-2zm-23 -29l-8 6c-5,5 -6,13 -2,19l0 0c4,5 13,6 18,2l8 -7c6,-4 7,-12 2,-18l0 0c-4,-5 -12,-6 -18,-2zm-24 -26l-8 6c-6,5 -7,13 -3,19l0 0c5,5 13,6 18,2l9 -7c5,-4 6,-12 2,-18l0 0c-5,-5 -13,-6 -18,-2zm-25 -30l-8 6c-5,4 -6,12 -2,18l0 0c4,6 12,7 18,2l8 -6c6,-5 7,-13 2,-18l0 0c-4,-6 -12,-7 -18,-2z"></path></g></svg>