<svg   fill="#000000" xmlns="http://www.w3.org/2000/svg" xmlns:xlink="http://www.w3.org/1999/xlink" version="1.1" x="0px" y="0px" viewBox="0 0 1000 1000" style="enable-background:new 0 0 1000 1000;" xml:space="preserve"><g><path d="M248.3,378.1l-0.6,0.4c-8.2-15.5-15.9-21-19.7-22.8c0-0.6,0.1-0.9,0.1-0.9   C236.3,360.8,243,369.1,248.3,378.1z"></path><path d="M273.9,448.1c-3.2,1.7-5.3,1.8-5.3,1.8C270.4,449.5,272.2,448.8,273.9,448.1z"></path><path d="M305.9,363.4c-0.3,4.6-0.6,8.9-1,13c0.6-7,0.9-13.9,1-20.5C306,360.4,305.9,363.4,305.9,363.4z"></path><path d="M305.6,330.1c-0.6-13.3-1.6-22.2-1.6-22.2C304.9,310.9,305.4,320.1,305.6,330.1z"></path><path d="M409.8,348.8c-0.2,0-0.4,0-0.6,0c-31.8,0-61.6-13.3-81.2-24.7c-12.9-7.5-21.5-14.2-23.5-15.8   c0.8,0.6,1.7,1.2,2.5,1.9c0.1,0.1,0.2,0.1,0.3,0.2c0,0,0.1,0.1,0.1,0.1c0.4,0.3,0.9,0.6,1.3,1c0.5,0.4,1.1,0.8,1.6,1.2   c1,0.7,2,1.4,3,2.1c0.9,0.6,1.9,1.3,2.8,1.9c4,2.7,8,5.2,11.9,7.5C361.7,343.7,390.4,348.5,409.8,348.8z"></path><path d="M429.7,338.5c-5.2-7-9.5-14.9-13-23C421.3,325,426.2,333.1,429.7,338.5z"></path><path d="M414.3,260.4c-6.2,3.1-12.6,3.1-12.6,3.1c0,3.3,0.3,6.7,0.8,10.1c2.1,14.4,8,29.4,14.2,41.9   c0,0,0,0.1,0,0.1c3.6,8,7.9,16,13,23c2.9,4.6,4.9,7.3,4.9,7.3c-8.3,2-16.6,3-24.8,3c-19.3-0.3-48.1-5.1-81.7-24.7   c-3.9-2.3-7.9-4.8-11.9-7.5c-0.9-0.6-1.9-1.3-2.8-1.9c-1-0.7-2-1.4-3-2.1c-0.5-0.4-1.1-0.8-1.6-1.2c-0.4-0.3-0.9-0.6-1.3-1   c0,0-0.1-0.1-0.1-0.1c-0.1-0.1-0.2-0.1-0.3-0.2c-0.8-0.6-1.7-1.2-2.5-1.9c-0.1-0.1-0.1-0.1-0.2-0.1c-0.1-0.1-0.1-0.1-0.1-0.1   c-0.1-0.1-0.1-0.1-0.1-0.1s1,8.9,1.6,22.2c0,0.1,0,0.2,0,0.3c0.1,2.9,0.1,5.8,0.2,8.7c0.1,6.2,0.1,12.1,0.1,16.6c0,0.1,0,0.1,0,0.2   c-0.1,6.6-0.4,13.6-1,20.5c0,0,0,0.1,0,0.1c-5.3,51.8-22.3,67.1-31,71.6c-1.7,0.8-3.5,1.4-5.3,1.8c0,0,0-0.1,0-0.1s0-0.1,0-0.1   c-5.7-35-13.5-57.1-20.9-71.1l0.6-0.4c-5.3-9.1-11.9-17.3-20.3-23.3c0,0,0,0.3-0.1,0.9c-1.6-0.8-2.5-0.9-2.5-0.9c0.9,1,1.7,2,2.3,3   c7.4,11.6-1.5,24.9-8.2,32.6c0,0,0,0,0,0c-3.4,3.8-6.2,6.2-6.2,6.2c-13,8.5-23.7,11.1-31.8,11.1c-12.4,0-18.9-6-18.9-6   c50.7-5.1,31.7-90,31.7-90c-1.3-43.1,17.8-57.1,17.8-57.1c-23-58.1-63.4-69.7-91.9-69.7c-18.8,0-32.3,5-32.3,5   c-29.3-19.2,3.6-35.8,11.5-39.4c1.5-0.4,2.9-0.8,4.5-1.2c14.6-3.8,28.6-5.5,41.7-5.5c82.8,0,133.8,65.9,133.8,65.9   c22.2-8.9,43-11.8,60.6-11.8c31.1,0,52.1,8.9,52.1,8.9c12.6,12.7,26.9,16.8,40,16.8c22.3,0,41.1-11.6,41.7-12   C460.5,248.3,422,254,422,254c0,0,0,0,0,0C419.9,257,417.1,259,414.3,260.4L414.3,260.4z"></path><g><path d="M657.8,389c0,0-133.6-36.1-228.4-127.6c-1,0.3-1.9,0.5-2.6,0.7c-4.8,5.1-10.8,7.7-15.8,9    c4,32.3,30.4,69.1,30.7,69.5l7.7,10.7l-12.8,3.2c-8.8,2.2-18.1,3.3-27.5,3.3c-36,0-68.9-15.7-89.4-28.1c-1.9-1.2-3.7-2.3-5.4-3.4    c0.1,2.3,0.1,4.6,0.2,6.9c0.3,12,0.3,24.5,0.2,30.3v0.2l0,0.2c-5.1,88.8-41.4,94.5-45.5,94.9l-8.2,0.7l-1.3-8.1    c-5.5-33.9-12.9-54.9-19.5-67.7c-1-1.9-1.9-3.6-2.9-5.1c-1.4,4-3.5,7.7-5.7,10.9c-5.3,7.7-11.4,13.1-12.5,14.1l-0.4,0.3l-0.5,0.3    c-1.6,1.1-3.3,2.1-4.9,3c8.4,27.5,37.4,114,79.3,153.1c0,0,236.8,316.7,458.4,294.8c0,0,154.1-13.3,173.1-224.4    C924.1,630.6,926,487.9,657.8,389z M843.8,775.4c-1,1.1-2.1,2.6-3.5,4.2c-1.5,1.6-3.1,3.4-5,5.4c-1.9,2-4.2,4.1-6.5,6.4    c-1.3,1.1-2.6,2.2-3.9,3.4c-0.7,0.6-1.4,1.2-2.1,1.8c-0.7,0.6-1.5,1.2-2.2,1.8c-6,4.9-13.2,9.7-21.6,14.2    c-8.4,4.4-17.9,8.4-28.4,11.2c-10.5,2.9-21.9,4.7-33.7,5.2c-11.8,0.5-24.1,0-36.4-1.8c-12.3-1.7-24.7-4.4-36.8-7.9    c-12.1-3.6-24-7.8-35.4-12.6c-11.4-4.8-22.5-10-33-15.4c-21-10.8-39.8-22.4-55.4-32.9c-15.7-10.5-28.2-20-36.8-26.8    c-8.6-6.8-13.4-11-13.4-11l0.4-0.5l0.4-0.5c0,0,0.4,0.2,1.1,0.7c0.6,0.4,1.6,1,2.7,1.7c2.5,1.6,6.2,3.8,10.9,6.8    c4.7,2.9,10.4,6.3,16.9,10.3c3.3,2,6.8,4,10.5,6.1c3.7,2.1,7.5,4.4,11.6,6.7c4,2.3,8.3,4.7,12.7,7.1c2.2,1.2,4.4,2.4,6.7,3.7    c2.3,1.2,4.6,2.5,6.9,3.7c9.4,5,19.5,9.9,29.9,14.9c5.3,2.4,10.5,4.9,16,7.2c2.7,1.2,5.4,2.3,8.2,3.5c2.7,1.2,5.5,2.3,8.3,3.4    c11.2,4.4,22.7,8.4,34.3,11.8c2.9,0.9,5.8,1.6,8.7,2.4c2.9,0.7,5.8,1.5,8.7,2.1c5.8,1.3,11.7,2.5,17.5,3.4    c2.9,0.5,5.8,0.8,8.7,1.2c2.9,0.3,5.8,0.7,8.6,0.9c2.9,0.2,5.7,0.4,8.5,0.5c1.4,0,2.8,0.1,4.2,0.1h4.2c11.1-0.1,21.8-1.1,31.7-3.3    c2.5-0.6,4.9-1.1,7.3-1.8c1.2-0.3,2.4-0.7,3.5-1c1.2-0.3,2.3-0.7,3.5-1.1c1.2-0.4,2.3-0.7,3.4-1.1c1.1-0.4,2.2-0.8,3.3-1.2    c1.1-0.4,2.2-0.8,3.2-1.2c1.1-0.4,2.1-0.9,3.1-1.3c4.2-1.7,7.9-3.8,11.6-5.7c1.8-1,3.6-2,5.3-3c1.7-1,3.3-2.1,4.9-3    c0.8-0.5,1.5-1,2.3-1.5c0.7-0.5,1.4-1,2.2-1.5c1.4-1,2.8-2,4.1-2.9c2.6-2,5-3.8,7.1-5.5c2-1.8,3.9-3.4,5.5-4.7    c1.6-1.4,2.9-2.7,4-3.6c1.5-1.4,2.6-2.3,3.1-2.8c0.2-0.2,0.3-0.3,0.3-0.3l0.5,0.4l0.5,0.4C846.7,771.9,845.7,773.1,843.8,775.4z"></path><path d="M491.7,720.3l-1.5-0.2l0.4-0.5C490.6,719.6,490.9,719.9,491.7,720.3z"></path><path d="M846.2,771.5l-0.8-0.1c0.2-0.2,0.3-0.3,0.3-0.3L846.2,771.5z"></path></g></g></svg>