<svg   fill="#000000" xmlns="http://www.w3.org/2000/svg" xmlns:xlink="http://www.w3.org/1999/xlink" version="1.1" x="0px" y="0px" viewBox="0 0 1000 1000" style="enable-background:new 0 0 1000 1000;" xml:space="preserve"><path d="M870.1,321.8C738.6,506.4,489.3,723.3,489.3,723.3C182.4,933.3,97,891.8,97,891.8  C254,813.3,661.3,170.6,661.3,170.6l30.1,88.1c-2.5,2.9-10.6,12.5-23.2,27.3c-7.6,9-16.8,19.9-27.5,32.5  c-10.6,12.5-22.5,26.7-35.5,42.1c-13,15.5-27,32.2-41.9,50c-3.7,4.5-7.5,9-11.2,13.5c-3.8,4.6-7.6,9.2-11.4,13.9  c-7.8,9.4-15.7,18.9-23.7,28.7c-16.1,19.5-32.9,39.4-50.4,59.3c-4.4,5-8.8,10-13.2,15c-4.5,5-8.9,10-13.4,15  c-9,10-18.1,19.9-27.2,29.8c-18.3,19.8-36.6,39.5-54.7,58.9c-9.1,9.6-18,19.3-27,28.7c-4.5,4.7-8.9,9.4-13.3,14  c-2.2,2.3-4.4,4.6-6.6,6.9c-2.2,2.3-4.4,4.6-6.6,6.8c-17.5,18.2-34.5,35.7-50.7,52.2c-4.1,4.1-8.1,8.2-12,12.2  c-3.9,4-7.9,7.9-11.7,11.7c-7.7,7.7-15.1,15.1-22.4,22.1c-14.4,14.2-27.9,26.8-39.8,38.1c-6,5.6-11.7,10.8-16.9,15.6  c-2.6,2.4-5.2,4.6-7.6,6.8c-2.4,2.2-4.8,4.2-7,6.2c-8.7,7.9-15.9,13.8-20.7,17.9c-4.8,4.1-7.4,6.3-7.4,6.3l0.4,0.5  c0,0,2.7-2,7.7-5.9c5-3.9,12.4-9.4,21.5-16.9c4.6-3.7,9.7-7.8,15.1-12.4c5.4-4.6,11.2-9.7,17.4-15c12.4-10.8,26.1-23.3,40.9-37.1  c7.4-6.9,15-14.2,22.8-21.8c7.9-7.5,15.8-15.5,24-23.7c4.1-4.1,8.3-8.2,12.4-12.5c4.1-4.3,8.3-8.6,12.6-12.9  c8.5-8.7,17.1-17.7,25.7-26.9c17.3-18.4,35.1-37.6,52.9-57.2c8.9-9.9,17.8-19.8,26.7-29.8c8.8-10.1,17.7-20.3,26.6-30.4  c17.7-20.3,35.3-40.7,52.7-60.7c4.3-5,8.7-10,13.1-14.9c4.3-5,8.6-9.9,12.9-14.7c8.6-9.7,17.1-19.3,25.5-28.8  c16.7-18.9,32.9-37.2,48-54.8c15-17.6,29-34.5,41.8-50.1c12.8-15.6,24.5-30,34.7-42.9c10.3-12.8,19.1-24.1,26.3-33.4  c7.2-9.3,12.9-16.7,16.7-21.7c2.2-3,3.8-5.1,4.8-6.4l0.8,2.3c54.9,4.6,82.6,54.5,83.1,55.4l-0.2-0.2c0,0-2.3,2.5-6.7,7.3  c-4.3,4.8-10.8,11.8-19,20.6c-8.2,8.8-18.2,19.6-29.6,31.9c-11.5,12.3-24.4,26.1-38.6,41.2c-14.2,15-29.7,31.3-46,48.4  c-16.3,17.2-33.5,35.4-51.5,53.9c-4.5,4.7-9,9.3-13.6,14c-4.6,4.7-9.3,9.4-13.9,14.1c-4.7,4.7-9.5,9.4-14.3,14.1  c-4.8,4.7-9.6,9.5-14.5,14.1c-9.9,9.3-19.7,18.8-29.9,28.1c-10.2,9.3-20.3,18.6-30.7,27.7c-5.2,4.6-10.3,9.1-15.5,13.7  c-5.2,4.5-10.4,9-15.6,13.5c-5.2,4.5-10.3,9.1-15.5,13.5c-5.2,4.4-10.4,8.8-15.6,13.2c-2.6,2.2-5.1,4.4-7.7,6.6  c-2.6,2.2-5.2,4.3-7.8,6.5c-5.2,4.3-10.3,8.6-15.4,12.8c-5.1,4.3-10.2,8.4-15.3,12.5c-5.1,4.1-10.2,8.2-15.2,12.3  c-5,4.1-10.1,7.9-15.1,11.9c-5,3.9-9.9,7.8-14.8,11.6c-9.9,7.5-19.5,14.9-28.9,22.1c-9.5,7.1-18.8,13.8-27.8,20.4  c-1.1,0.8-2.2,1.6-3.3,2.5c-1.1,0.8-2.3,1.6-3.4,2.4c-2.2,1.6-4.5,3.1-6.7,4.7c-4.4,3.1-8.7,6.1-12.9,9.1c-2.1,1.5-4.2,3-6.3,4.4  c-2.1,1.4-4.2,2.8-6.2,4.2c-4.1,2.8-8.1,5.4-12,8c-2,1.3-3.9,2.6-5.8,3.9c-1.9,1.3-3.8,2.6-5.7,3.7c-3.8,2.4-7.4,4.7-11,7  c-3.5,2.2-7,4.4-10.3,6.5c-1.7,1.1-3.3,2.1-4.9,3.1c-1.6,1-3.2,1.9-4.8,2.8c-6.3,3.7-12,7.1-17.2,10.2c-1.3,0.8-2.5,1.5-3.8,2.3  c-0.6,0.4-1.2,0.7-1.8,1.1c-0.6,0.3-1.2,0.7-1.8,1c-2.4,1.3-4.6,2.5-6.6,3.6c-4.1,2.3-7.6,4.2-10.4,5.7c-5.7,3.1-8.7,4.8-8.7,4.8  l0.3,0.5c0,0,3.1-1.5,8.9-4.3c2.9-1.4,6.5-3.2,10.7-5.2c2.1-1,4.4-2.2,6.8-3.3c0.6-0.3,1.2-0.6,1.8-0.9c0.6-0.3,1.2-0.7,1.9-1  c1.3-0.7,2.6-1.4,3.9-2.1c5.3-2.8,11.2-6,17.6-9.5c1.6-0.9,3.2-1.8,4.9-2.7c1.6-1,3.3-1.9,5-2.9c3.4-2,6.9-4.1,10.5-6.2  c3.6-2.1,7.4-4.4,11.2-6.6c3.9-2.2,7.7-4.8,11.7-7.3c4-2.5,8.1-5.1,12.3-7.8c2.1-1.3,4.2-2.7,6.3-4c2.1-1.4,4.3-2.8,6.4-4.3  c4.3-2.9,8.7-5.9,13.1-8.9c2.2-1.5,4.5-3,6.8-4.6c1.1-0.8,2.3-1.5,3.4-2.3c1.1-0.8,2.3-1.6,3.4-2.4c4.5-3.3,9.2-6.6,13.9-9.9  c4.7-3.4,9.5-6.7,14.2-10.3c9.5-7.1,19.3-14.4,29.2-22c4.9-3.9,9.8-7.8,14.8-11.7c2.5-2,5-4,7.5-5.9c1.3-1,2.5-2,3.8-3  c1.3-1,2.5-2.1,3.7-3.1c5-4.1,10-8.3,15.1-12.5c5.1-4.2,10.2-8.4,15.2-12.7c5.1-4.3,10.2-8.7,15.3-13c2.6-2.2,5.2-4.4,7.7-6.6  c2.5-2.2,5.1-4.5,7.6-6.7c5.1-4.5,10.2-9,15.3-13.6c5.2-4.5,10.2-9.2,15.3-13.8c5.1-4.6,10.2-9.3,15.2-14c5-4.7,10.1-9.5,15.1-14.2  c10.1-9.4,20.1-19,30-28.5c2.5-2.4,5-4.7,7.5-7.1c2.5-2.4,4.9-4.8,7.4-7.1c4.9-4.7,9.9-9.5,14.8-14.2c19.6-18.8,38.8-37.4,57.5-55.4  c9.3-9,18.4-17.9,27.2-26.7c4.4-4.4,8.8-8.7,13.1-13c4.3-4.3,8.5-8.6,12.6-12.9c4.2-4.2,8.2-8.5,12.2-12.6c4-4.2,7.9-8.3,11.7-12.3  c7.6-8.2,15-16,22-23.6c14-15.3,26.8-29.3,37.9-41.9c5.6-6.3,10.8-12.2,15.5-17.7c4.8-5.5,9.1-10.6,13-15.2  c7.8-9.2,13.9-16.5,18-21.5c4.1-5,6.3-7.7,6.3-7.7l-0.2-0.2L870.1,321.8z"></path><path d="M674,157.2c0,0,115.4-1.5,131.5,23.8l64.6-76.2c0,0,48.5,0,27.7,36.9L854,199.5c0,0,14.6,64.6,21.5,106.2  c0,0-63.8-2.3-93.8-3.1c0,0-35.4-50-79.2-54.6L674,157.2z"></path></svg>