<svg    fill="#000000" xmlns="http://www.w3.org/2000/svg" xmlns:xlink="http://www.w3.org/1999/xlink" version="1.1" x="0px" y="0px" viewBox="0 0 100 100" enable-background="new 0 0 100 100" xml:space="preserve"><g><path d="M55.022,9.209c-4.146-1.415-8.53-2.162-13.026-2.184c-0.481,0.002-0.961,0.008-1.447,0.019   c-10.906,0.331-21.107,4.949-28.724,13.005C4.199,28.113,0,38.75,0,49.999c0,23.697,18.753,42.976,41.804,42.976   c5.427,0,10.616-1.07,15.378-3.014c21.89-5.537,36.966-21.723,39.93-39.315c0.148-0.877,2.806-2.57,2.887-5.687   c0.092-3.498-4.77-6.414-5.528-8.136C89.001,24.405,75.485,12.863,55.022,9.209z M1.984,49.999   c0-22.316,16.966-40.313,38.616-40.971c0.466-0.01,0.934-0.016,1.395-0.018c21.851,0.105,39.627,18.493,39.628,40.988   c0,22.603-17.862,40.992-39.819,40.992C19.847,90.99,1.984,72.602,1.984,49.999z"></path><path d="M38.014,53.225c0.025-0.047,0.06-0.109,0.092-0.17c-0.02-0.02-0.041-0.043-0.062-0.066   c-0.034,0.025-0.064,0.047-0.087,0.064c-0.091,0.068-0.167,0.123-0.211,0.15L13.978,67.545c-0.83,0.5-1.483,1.742-1.428,2.713   c0.017,0.297,0.101,0.598,0.258,0.918c2.2,3.15,4.858,5.898,7.903,8.17c0.216,0.105,0.415,0.17,0.609,0.197   c0.092,0.014,0.187,0.021,0.281,0.021c0.648,0,1.199-0.309,1.548-0.566c0.539-0.4,1.309-1.229,1.554-1.676   c0.672-1.217,1.344-2.432,2.015-3.646c1.994-3.609,3.988-7.219,5.982-10.83L38.014,53.225z"></path><path d="M36.992,51.035L9.793,51.09c-1.659,0.004-3.358,0.803-3.438,2.578c0.056,0.564,0.128,1.146,0.213,1.736   c0.004,0.02,0.011,0.061,0.017,0.1c0.349,2.35,0.926,4.678,1.718,6.914c0.012,0.025,0.024,0.055,0.036,0.09   c0.004,0.014,0.009,0.029,0.014,0.045c0.252,0.707,0.549,1.451,0.908,2.275c0.011,0.02,0.022,0.039,0.033,0.057L9.302,64.9   c0.469,0.59,1.12,0.889,1.938,0.889l0,0c0.551,0,1.164-0.137,1.771-0.398c0.76-0.326,1.544-0.74,2.624-1.391l21.377-12.9   C37.005,51.078,36.999,51.057,36.992,51.035z"></path><path d="M27.127,22.767l0.099,0.177c0.823,1.474,1.645,2.948,2.466,4.424l10.242,18.374l-0.052-27.699   c-0.002-1.48-0.177-3.279-1.511-4.067c-0.069-0.041-0.144-0.077-0.231-0.111c-4.129,0.341-8.11,1.428-11.837,3.23   c-0.233,0.246-0.389,0.524-0.487,0.867c-0.164,0.576-0.144,1.257,0.061,2.025C26.151,21.018,26.582,21.791,27.127,22.767z"></path><path d="M38.976,55.949l-0.021,0.037c-2.706,4.9-5.412,9.799-8.118,14.695l-3.596,6.514c-0.105,0.189-0.212,0.377-0.319,0.562   c-0.571,0.998-1.065,1.859-1.119,2.967c-0.054,1.135,0.397,1.885,1.508,2.498c3.297,1.463,6.792,2.379,10.389,2.723   c0.331-0.037,0.608-0.135,0.868-0.307c1.272-0.844,1.432-2.633,1.429-4.096l-0.05-27.354C39.624,54.773,39.3,55.361,38.976,55.949z   "></path><path d="M37.034,48.846c0.002-0.013,0.003-0.024,0.005-0.036c-0.48-0.288-0.961-0.576-1.44-0.861l-6.146-3.676   c-3.858-2.309-7.715-4.615-11.573-6.922l-2.75-1.645c-0.255-0.152-0.511-0.318-0.771-0.486c-0.727-0.471-1.479-0.958-2.24-1.146   c-0.878-0.218-1.667-0.143-2.247,0.224c-0.185,0.117-0.348,0.268-0.506,0.471c-1.62,3.651-2.635,7.525-3.018,11.516   c0.046,0.529,0.224,0.964,0.543,1.328c0.833,0.95,2.469,1.288,3.617,1.288v0.619l0,0l0.011-0.619L37.034,48.846z"></path><path d="M38.043,46.892c0.013-0.014,0.026-0.029,0.039-0.043c-0.044-0.072-0.094-0.156-0.151-0.258L24.15,21.864   c-0.44-0.791-1.358-1.488-2.184-1.66c-0.312-0.065-0.604-0.056-0.904,0.031c-3.245,2.358-6.062,5.253-8.372,8.604   c-0.279,0.743-0.226,1.42,0.168,2.122c0.354,0.633,1.243,1.593,1.762,1.902l23.148,13.845   C37.875,46.771,37.967,46.837,38.043,46.892z"></path><path d="M45.167,48.724c0.007,0.036,0.012,0.071,0.017,0.105l26.49-0.053c1.329-0.004,2.981-0.47,3.679-1.505   c0.074-0.11,0.138-0.228,0.193-0.365c-0.351-4.42-1.451-8.663-3.272-12.616c-0.178-0.139-0.368-0.242-0.578-0.313   c-0.568-0.189-1.276-0.164-2.053,0.077c-0.707,0.22-1.415,0.687-2.101,1.139c-0.271,0.178-0.55,0.362-0.826,0.528   c-4.771,2.878-9.543,5.758-14.313,8.637L45.167,48.724z"></path><path d="M47.322,40.843c-1.012,1.83-2.023,3.662-3.034,5.494l-0.27,0.486c0.009,0.011,0.018,0.021,0.027,0.031l0.111-0.066   l15.787-9.527c2.464-1.486,4.926-2.972,7.39-4.457c0.334-0.202,1.064-0.895,1.447-1.372c0.367-0.46,0.795-1.188,0.745-2.038   c-0.001-0.01-0.002-0.02-0.003-0.029c-2.421-3.643-5.42-6.759-8.919-9.268c-0.039-0.003-0.08-0.004-0.12-0.004   c-0.953,0-2.103,0.729-2.616,1.658c-0.692,1.258-1.387,2.514-2.081,3.771c-2.001,3.619-4,7.24-6,10.86L47.322,40.843z"></path><path d="M44.83,53.467l-0.755-0.449c-0.019,0.02-0.037,0.039-0.055,0.059l2.54,4.557c1.66,2.979,3.319,5.955,4.979,8.934   l5.875,10.539c0.21,0.377,0.587,0.871,0.982,1.287c0.584,0.613,1.187,0.977,1.79,1.078c0.109,0.02,0.218,0.029,0.322,0.029l0,0   c0.176,0,0.351-0.027,0.529-0.082c3.278-2.426,6.105-5.395,8.404-8.826c0.274-1.236-0.278-2.57-1.337-3.203l-9.954-5.955   C53.712,58.779,49.271,56.123,44.83,53.467z"></path><path d="M72.497,65.037c1.723-3.895,2.755-8.049,3.068-12.35c-0.544-1.268-2.012-1.724-3.229-1.724   c-2.963,0.005-5.918,0.011-8.871,0.017l-18.017,0.038c-0.093,0-0.172-0.004-0.242-0.006c-0.003,0.016-0.007,0.031-0.012,0.049   c-0.007,0.033-0.014,0.061-0.019,0.086c0.078,0.041,0.167,0.09,0.271,0.15l22.992,13.752c0.521,0.311,1.683,0.66,2.459,0.66   l0.005,0.621l0,0v-0.621C71.554,65.709,72.062,65.496,72.497,65.037z"></path><path d="M42.043,22.753l0.033,17.735c0.004,1.737,0.007,3.475,0.009,5.213c0.024,0.006,0.048,0.013,0.073,0.021   c0.154-0.28,0.309-0.559,0.463-0.839c2.133-3.858,4.265-7.719,6.396-11.579l1.953-3.534c1.578-2.852,3.209-5.8,4.642-8.533   c0.652-1.243,0.839-2.547,0.499-3.484c-0.068-0.191-0.16-0.364-0.28-0.528c-3.773-1.866-7.819-2.994-12.026-3.354   c-2.077,0.943-1.914,4.842-1.805,7.438C42.021,21.834,42.042,22.331,42.043,22.753z"></path><path d="M54.722,76.713l-1.024-1.838c-0.886-1.588-1.771-3.176-2.655-4.764L42.14,54.141c-0.013,0.002-0.026,0.004-0.039,0.006   l0.052,27.502c0.003,1.939,0.466,3.258,1.374,3.922c0.267,0.195,0.553,0.309,0.896,0.354c3.918-0.408,7.705-1.498,11.259-3.238   c0.138-0.135,0.249-0.273,0.338-0.424c0.424-0.715,0.384-1.57,0.274-2.16c-0.179-0.977-0.675-1.83-1.199-2.736   C54.969,77.148,54.844,76.932,54.722,76.713z"></path></g></svg>