<svg   fill="#000000" xmlns:x="http://ns.adobe.com/Extensibility/1.0/" xmlns:i="http://ns.adobe.com/AdobeIllustrator/10.0/" xmlns:graph="http://ns.adobe.com/Graphs/1.0/" xmlns="http://www.w3.org/2000/svg" xmlns:xlink="http://www.w3.org/1999/xlink" version="1.1" x="0px" y="0px" viewBox="0 0 100 100" style="enable-background:new 0 0 100 100;" xml:space="preserve"><g><g i:extraneous="self"><g><path d="M50,2.5c-21.9,0-39.7,18.9-39.7,38.4c0,14.8,10.2,11.8,24.6,9.4l-4.1,24.4c-1,5.7,0.6,11.5,4.3,15.9     c3.7,4.4,9.1,6.9,14.9,6.9s11.2-2.5,14.9-6.9c3.7-4.4,5.3-10.2,4.3-15.9l-4.1-24.4c14.4,2.4,24.6,5.4,24.6-9.4     C89.7,21.4,71.9,2.5,50,2.5z M27.6,39c-0.2,1.9-1.8,3.2-3.6,3.2c-0.2,0-0.3,0-0.5,0c-2-0.3-3.4-2.1-3.2-4.1     c1.3-10,8.7-19.4,18.5-23.5c1.9-0.8,4,0.1,4.8,2c0.8,1.9-0.1,4-2,4.8C34.3,24.4,28.5,31.6,27.6,39z M60.6,76.2     c0.5,3.1-0.3,6.3-2.4,8.7s-5,3.8-8.2,3.8c-3.2,0-6.1-1.4-8.2-3.8s-2.9-5.6-2.4-8.7l4.6-27c2-0.2,4-0.3,6-0.3c2,0,4,0.1,6,0.3     L60.6,76.2z"></path></g></g></g></svg>