<svg   fill="#000000" xmlns="http://www.w3.org/2000/svg" xmlns:xlink="http://www.w3.org/1999/xlink" xml:space="preserve" version="1.1" style="shape-rendering:geometricPrecision;text-rendering:geometricPrecision;image-rendering:optimizeQuality;" viewBox="0 0 333 333" x="0px" y="0px" fill-rule="evenodd" clip-rule="evenodd"><defs><style type="text/css">
   
    .fil0 {fill:#000000}
   
  </style></defs><g><path class="fil0" d="M212 126c46,19 83,49 83,90 0,42 -36,78 -85,91l0 10c-20,10 -70,12 -86,-2l0 -8c-50,-13 -86,-49 -86,-91 0,-41 35,-75 83,-90 10,-3 21,-9 19,-27 4,-1 7,4 10,12 8,-8 14,-7 18,2 7,-5 11,-2 15,2 0,-7 3,-12 7,-15 4,13 12,21 22,26zm-73 -31c-3,-13 -7,-26 -17,-39 -6,-7 -3,-9 4,-6 10,5 16,16 22,26 -2,-28 3,-48 16,-62 9,-9 10,-5 9,0 -3,12 -3,23 -3,34 6,-12 12,-25 22,-32 7,-4 9,-2 6,6 -6,12 -9,24 -12,37 9,-10 18,-20 32,-23 9,-2 10,1 1,7 -23,14 -26,33 -28,52l-3 2c-4,2 -7,6 -8,10 -1,0 -1,0 -2,0 -3,-1 -6,-1 -8,0 -2,-3 -5,-5 -8,-6 -4,0 -7,1 -10,3 -2,-5 -5,-9 -10,-9 -1,-1 -2,-1 -3,0l0 0zm-38 60c-21,14 -40,26 -42,53 -1,18 3,34 13,49 10,16 27,30 51,44 -38,-14 -49,-32 -55,-41 -11,-16 -15,-34 -14,-52 2,-29 22,-43 44,-57 17,-11 26,-14 40,-32 -10,20 -30,30 -37,36zm139 -6c23,15 37,24 44,52 11,39 -16,71 -49,88 24,-22 55,-47 44,-87 -6,-26 -20,-34 -42,-48 -11,-8 -25,-14 -42,-30 20,12 36,21 45,25zm-6 18c12,9 22,16 28,42 2,10 2,23 -4,39 -4,10 -14,30 -43,49 22,-19 33,-36 38,-51 6,-15 5,-27 4,-36 -5,-24 -14,-31 -26,-39 -13,-9 -26,-12 -42,-47 13,17 18,28 45,43zm-48 33c2,7 6,15 8,25 7,25 0,47 -14,68 8,-18 11,-32 12,-43 1,-11 -1,-18 -3,-24 -2,-10 -5,-17 -8,-24 -7,-18 -13,-33 -11,-74 4,34 7,50 16,72zm-26 -37c-3,15 -5,24 -4,45 1,11 2,20 4,29 2,10 8,30 -1,60 2,-30 -1,-45 -4,-59 -2,-9 -3,-18 -4,-30 -1,-21 1,-31 4,-46 2,-10 4,-16 7,-35 1,16 0,27 -2,36zm60 25c8,8 14,14 18,27 7,23 4,39 -12,57 5,-9 9,-19 10,-28 1,-9 0,-19 -3,-27 -3,-12 -9,-18 -16,-25 -12,-11 -25,-24 -37,-67 10,20 20,44 40,63zm-93 6c-6,9 -12,17 -15,28 -4,12 -4,26 1,39 4,13 12,26 25,39 -22,-14 -28,-29 -30,-38 -5,-14 -5,-28 -1,-42 4,-12 10,-20 16,-29 11,-15 23,-26 30,-71 -1,49 -18,63 -26,74zm-8 -32c-5,6 -11,13 -17,21 -9,13 -16,27 -17,42 -2,12 0,24 8,36 -14,-11 -14,-29 -13,-37 2,-15 9,-30 18,-44 6,-8 12,-15 18,-21 10,-11 17,-15 27,-35 -2,18 -18,31 -24,38z"></path></g></svg>