<svg   fill="#000000" xmlns="http://www.w3.org/2000/svg" xmlns:xlink="http://www.w3.org/1999/xlink" version="1.1" x="0px" y="0px" viewBox="0 0 100 100" enable-background="new 0 0 100 100" xml:space="preserve"><g><path fill="#000000" d="M86.667,39.976c-7.267-8.302-19.762-7.354-29.014-12.249c-0.166-0.088-0.331-0.177-0.496-0.268   C46.041,21.319,36.401,7.431,22.343,9.145C8.759,10.802,4.903,22.085,5.002,34.294c0.203,24.885,15.352,48.108,39.619,54.849   c16.604,4.612,41.987,1.293,48.599-17.441C97.163,60.532,94.37,48.776,86.667,39.976z M87.377,74.428   c-9.113,16.963-31.106,13.894-43.556,10.436c-7.414-2.059-14.056-6.605-19.468-12.411c0.593,0.561,1.67,0.714,2.3-0.148   c1.436-1.964,3.2-3.652,4.967-5.32c1.351-1.275-0.634-3.346-1.984-2.07c-1.949,1.84-3.85,3.722-5.433,5.888   c-0.393,0.538-0.319,1.069-0.025,1.467c-7.438-8.056-12.505-18.511-13.874-28.263c-2.42-17.232-0.069-35.148,18.151-31.065   c0.165,0.037,0.318,0.105,0.482,0.146c-2.25,1.049-4.131,2.718-5.956,4.439c-1.352,1.274,0.632,3.345,1.984,2.07   c1.978-1.864,3.98-3.801,6.697-4.485c0.479-0.121,0.771-0.409,0.924-0.754c2.531,1.106,4.916,2.583,7.172,4.288   c-0.299,0.157-0.577,0.357-0.84,0.586c-1.506,0.509-2.537,1.641-3.8,2.871c-1.329,1.295,0.653,3.367,1.985,2.069   c1.265-1.224,3.753-3.463,5.425-3.189c2.581,0.422,6.607,5.866,8.602,7.627c0.943,0.832,1.947,1.481,2.987,2.021   c-2.119,1.555-3.661,3.565-4.618,6.036c-0.67,1.729,2.097,2.537,2.76,0.825c0.755-1.949,2.035-3.62,3.793-4.782   c0.399-0.263,0.595-0.627,0.65-1.004c7.686,2.518,16.565,0.9,24.019,6.774C93.838,48.815,93.49,63.047,87.377,74.428z"></path><g><path fill="#000000" d="M15.918,28.477c-3.72,0-3.72,5.723,0,5.723S19.638,28.477,15.918,28.477z"></path><path fill="#000000" d="M74.32,41.354c-3.72,0-3.72,5.723,0,5.723S78.04,41.354,74.32,41.354z"></path><path fill="#000000" d="M66.389,65.678c-3.72,0-3.72,5.723,0,5.723S70.108,65.678,66.389,65.678z"></path><path fill="#000000" d="M54.853,44.931c-3.72,0-3.72,5.723,0,5.723C58.572,50.655,58.572,44.931,54.853,44.931z"></path><path fill="#000000" d="M41.153,71.402c-3.72,0-3.72,5.723,0,5.723C44.873,77.125,44.873,71.402,41.153,71.402z"></path><path fill="#000000" d="M24.187,37.828c-3.563,1.003-6.392,3.908-8.072,7.096c-0.86,1.633,1.628,3.08,2.49,1.444    c1.335-2.534,3.49-4.976,6.348-5.781C26.74,40.085,25.98,37.323,24.187,37.828z"></path><path fill="#000000" d="M36.827,48.508c-1.86,0-1.86,2.862,0,2.862C38.687,51.37,38.687,48.508,36.827,48.508z"></path><path fill="#000000" d="M69.273,78.556c-1.86,0-1.86,2.862,0,2.862C71.133,81.417,71.133,78.556,69.273,78.556z"></path><path fill="#000000" d="M84.414,58.524v0.715c0,1.845,2.884,1.845,2.884,0v-0.715C87.298,56.679,84.414,56.679,84.414,58.524z"></path><path fill="#000000" d="M82.732,68.778c-1.86,0-1.86,2.862,0,2.862C84.592,71.64,84.592,68.778,82.732,68.778z"></path><path fill="#000000" d="M38.029,28.238c-1.86,0-1.86,2.862,0,2.862C39.889,31.1,39.889,28.238,38.029,28.238z"></path><path fill="#000000" d="M50.046,60.193c-1.86,0-1.86,2.862,0,2.862C51.906,63.055,51.906,60.193,50.046,60.193z"></path></g></g></svg>