<svg   fill="#000000" xmlns="http://www.w3.org/2000/svg" xmlns:xlink="http://www.w3.org/1999/xlink" version="1.1" x="0px" y="0px" viewBox="0 0 100 100" enable-background="new 0 0 100 100" xml:space="preserve"><path d="M74.815,75.384c-1.149-4.756-1.753-9.674-2.151-13.428c-0.629-5.929-3.905-12.188-6.761-16.068l-0.446-0.608  c-2.944-4.019-7.394-10.091-12.157-11.396c-0.719-0.197-1.485-0.297-2.276-0.297c-2.015,0-4.044,0.628-5.817,1.662  c-5.354-3.704-8.415-9.166-8.193-14.671c0.008-0.203-0.108-0.392-0.293-0.476s-0.403-0.048-0.551,0.092  c-0.369,0.35-0.768,0.726-1.147,1.132c-0.168-1.117-0.44-2.189-0.707-3.235l-0.126-0.494c-0.061-0.246-0.288-0.415-0.551-0.373  c-0.115,0.015-0.216,0.068-0.292,0.146c-0.215-0.34-0.425-0.694-0.641-1.059c-0.418-0.704-0.85-1.433-1.35-2.097  c-0.113-0.15-0.3-0.223-0.489-0.191c-0.187,0.034-0.337,0.17-0.39,0.352c-0.494,1.69,0.066,3.851,0.734,5.711  c-0.106-0.041-0.227-0.045-0.339-0.009c-0.192,0.064-0.327,0.239-0.341,0.442c-0.07,1.078,0.17,2.27,0.437,3.351  c-0.017,0.017-0.032,0.034-0.047,0.054c-0.133,0.173-0.137,0.413-0.011,0.592c0.634,0.896,1.348,1.733,2.104,2.534  c-1.056-0.603-2.052-1.306-2.77-2.334c-0.076-0.109-0.188-0.176-0.309-0.2c-0.043-0.24-0.082-0.482-0.108-0.729  c-0.05-0.475-0.009-0.988,0.035-1.533c0.06-0.726,0.12-1.477-0.04-2.193c-0.175-0.781-0.56-1.44-0.931-2.078  c-0.225-0.385-0.437-0.748-0.596-1.124c-0.093-0.219-0.321-0.345-0.56-0.296c-0.233,0.047-0.401,0.252-0.401,0.49l0.003,0.912  c0,0.149,0.001,0.3,0.002,0.45c-0.399-0.964-0.846-1.896-1.499-2.546c-0.139-0.137-0.345-0.18-0.527-0.114  c-0.184,0.068-0.31,0.237-0.324,0.433c-0.071,0.982,0.062,1.883,0.254,2.744c-0.013-0.016-0.025-0.031-0.038-0.047  c-0.197-0.341-0.466-0.666-0.829-0.958c-0.206-0.166-0.502-0.145-0.68,0.05c-0.092,0.099-0.135,0.225-0.132,0.351  c-0.488-0.828-1.087-1.603-1.869-2.278c-0.144-0.122-0.346-0.155-0.519-0.083c-0.175,0.072-0.294,0.237-0.308,0.426  c-0.035,0.489,0.028,0.963,0.147,1.418c-0.675-0.635-1.399-1.227-2.274-1.589c-0.229-0.094-0.494-0.008-0.62,0.205  c-0.128,0.213-0.08,0.487,0.112,0.645c0.579,0.473,0.967,1.094,1.158,1.805c-0.155-0.015-0.312,0.021-0.421,0.142  c-0.142,0.16-0.166,0.394-0.061,0.579l0.282,0.483c0.302,0.51,0.559,0.944,0.708,1.423c-0.065-0.08-0.133-0.16-0.2-0.241  c-0.879-1.06-1.876-2.26-2.926-2.848c-0.157-0.088-0.349-0.086-0.502,0.008c-0.153,0.093-0.246,0.26-0.242,0.439  c0.014,0.649,0.184,1.188,0.347,1.708c0.133,0.421,0.26,0.826,0.295,1.276c-0.443-0.271-0.871-0.61-1.315-0.962  c-0.479-0.38-0.977-0.772-1.511-1.09c-0.218-0.127-0.493-0.074-0.649,0.123c-0.154,0.198-0.138,0.48,0.039,0.659  c0.744,0.753,1.306,1.663,1.849,2.543c0.173,0.281,0.346,0.561,0.523,0.834c-0.141,0.094-0.225,0.252-0.224,0.421  c0.001,0.171,0.09,0.329,0.234,0.42c0.889,0.559,1.644,0.998,2.561,1.414c0.009,0.234-0.039,0.425-0.143,0.55  c-0.156,0.189-0.441,0.231-0.652,0.233c-0.222,0.002-0.416,0.149-0.477,0.363c-0.062,0.213,0.025,0.44,0.213,0.56  c0.539,0.34,1.124,0.483,1.689,0.623c0.234,0.057,0.462,0.113,0.682,0.181c-0.119,0.186-0.224,0.378-0.322,0.56  c-0.121,0.223-0.235,0.433-0.341,0.563c-0.126,0.155-0.147,0.372-0.053,0.55s0.279,0.278,0.486,0.263  c3.468-0.317,5.975,1.584,8.608,3.592c0.5,0.381,1,0.763,1.509,1.129c0.479,0.347,1.047,0.796,1.673,1.293  c2.547,2.017,5.961,4.722,8.697,4.722c0.114,0,0.223-0.02,0.335-0.029c-0.039,0.131-0.085,0.261-0.116,0.393  c-1.486,6.284,2.024,9.715,5.741,13.347c0.53,0.518,1.067,1.043,1.601,1.586c3.873,3.944,8.303,8.827,11.794,15.141  c0.764,1.379,1.426,2.863,2.128,4.434c2.262,5.063,4.601,10.299,10.397,11.73c0.184,0.045,0.378,0.068,0.578,0.068  c0.837,0,1.692-0.389,2.346-1.065c0.624-0.646,1.353-1.851,1.28-3.92C75.74,80.414,75.389,77.757,74.815,75.384z M47.035,35.455  c-1.33,1.914-4.259,4.973-6.031,6.313C41.729,39.104,44.158,36.69,47.035,35.455z M44.312,35.818  c-0.089,0.063-0.183,0.12-0.271,0.185c-0.328-0.395-0.674-0.78-1.032-1.158C43.42,35.186,43.868,35.5,44.312,35.818z M32.11,24.308  c-0.202-0.782-0.438-1.697-0.54-2.572c0.174,0.147,0.346,0.297,0.502,0.464c0.166,0.177,0.434,0.211,0.634,0.081  c0.203-0.13,0.285-0.386,0.195-0.609l-0.038-0.094c-0.605-1.496-1.539-3.806-1.573-5.677c0.19,0.306,0.374,0.615,0.555,0.92  c0.432,0.729,0.878,1.48,1.39,2.142c0.08,0.102,0.193,0.167,0.315,0.187c0.282,1.138,0.522,2.246,0.605,3.426  c0.015,0.209,0.159,0.387,0.36,0.445c0.202,0.056,0.418-0.017,0.542-0.185c0.28-0.383,0.613-0.751,0.955-1.099  c0.155,3.885,1.81,7.687,4.659,10.865c-0.737-0.658-1.492-1.301-2.237-1.936c-0.269-0.229-0.538-0.463-0.808-0.693  c-0.025-0.061-0.063-0.117-0.113-0.165c-0.291-0.28-0.616-0.525-0.952-0.759c-1.606-1.413-3.163-2.897-4.437-4.569  C32.129,24.422,32.124,24.363,32.11,24.308z M33.851,28.635c0.736,0.381,1.437,0.755,2.063,1.182  c0.621,0.546,1.249,1.081,1.872,1.611c0.465,0.396,0.922,0.786,1.372,1.177c-0.322-0.154-0.651-0.298-0.991-0.417  c-0.479-0.168-0.936-0.31-1.377-0.445c-1.477-0.454-2.753-0.847-4.064-2.103c-0.959-0.918-1.68-1.956-2.175-3.098  C31.545,27.431,32.71,28.043,33.851,28.635z M25.665,21.716c0.024-0.26,0.043-0.546,0.038-0.848  c0.055,0.046,0.111,0.092,0.169,0.137c0.169,0.13,0.401,0.141,0.579,0.023c0.179-0.116,0.264-0.332,0.213-0.539l-0.173-0.677  c-0.154-0.597-0.305-1.176-0.404-1.766c0.21,0.444,0.401,0.924,0.591,1.396c0.224,0.559,0.435,1.087,0.677,1.566  c0.102,0.202,0.329,0.308,0.55,0.264c0.223-0.047,0.385-0.238,0.396-0.465c0.029-0.586,0.038-1.184,0.04-1.776  c0.222,0.405,0.409,0.81,0.506,1.245c0.128,0.568,0.075,1.212,0.021,1.894c-0.046,0.566-0.094,1.152-0.033,1.72  c0.267,2.516,1.343,4.693,3.201,6.472c1.482,1.419,2.93,1.864,4.462,2.336c0.429,0.132,0.873,0.269,1.339,0.433  c2.069,0.728,3.782,2.226,5.301,3.615c-0.217,0.193-0.427,0.393-0.627,0.599c-1.857-1.896-4.159-2.973-6.394-4.006  c-2.163-1-4.399-2.034-6.268-3.828c-2.231-2.144-3.462-3.932-4.246-6.175l-0.297-0.863c-0.036-0.104-0.072-0.211-0.108-0.315  C25.436,22.139,25.642,21.964,25.665,21.716z M24.385,19.461c0.186,0.351,0.279,0.772,0.304,1.269  c-0.248-0.653-0.528-1.295-0.855-1.915C24.024,19.03,24.21,19.247,24.385,19.461z M20.963,19.148c0.351,0.346,0.7,0.689,1.063,1.004  c0.178,0.155,0.439,0.164,0.629,0.022c0.188-0.142,0.252-0.396,0.153-0.609l-0.135-0.288c-0.21-0.446-0.423-0.899-0.578-1.357  c1.081,1.402,1.659,3.101,2.264,4.875l0.3,0.871c0.84,2.403,2.143,4.306,4.496,6.565c1.99,1.911,4.304,2.98,6.542,4.015  c2.271,1.051,4.416,2.052,6.147,3.848c-0.104,0.13-0.209,0.26-0.307,0.393c-3.808-1.262-9.205-3.298-12.697-6.52  c-0.102-0.095-0.232-0.138-0.361-0.132c-0.074-0.065-0.159-0.137-0.231-0.202c-1.616-1.466-3.83-3.475-4.761-5.354  c-0.357-0.722-0.578-1.572-0.813-2.474c-0.406-1.564-0.872-3.29-2.191-4.342c0.016-0.061,0.022-0.123,0.015-0.188  c-0.029-0.246-0.077-0.485-0.142-0.717C20.558,18.749,20.759,18.947,20.963,19.148z M31.674,35.879  c-0.64-0.507-1.22-0.966-1.709-1.319c-0.502-0.362-0.995-0.738-1.487-1.113c-2.446-1.865-4.97-3.789-8.355-3.83  c0.156-0.283,0.329-0.575,0.516-0.731c0.129-0.108,0.195-0.274,0.175-0.441c-0.02-0.168-0.122-0.314-0.273-0.389  c-0.501-0.249-1.004-0.373-1.489-0.492c-0.109-0.026-0.217-0.053-0.322-0.08c0.029-0.031,0.057-0.062,0.081-0.091  c0.334-0.405,0.446-0.966,0.324-1.62c-0.03-0.163-0.14-0.301-0.292-0.367c-0.737-0.319-1.359-0.652-2.019-1.047  c0.062-0.153,0.045-0.331-0.055-0.474c-0.29-0.415-0.56-0.852-0.832-1.293c-0.012-0.019-0.022-0.037-0.034-0.056  c0.331,0.221,0.676,0.418,1.044,0.571c0.141,0.061,0.302,0.051,0.437-0.024c0.134-0.075,0.226-0.207,0.25-0.358  c0.158-1.002-0.085-1.775-0.3-2.458c-0.024-0.078-0.05-0.156-0.073-0.234c0.575,0.544,1.146,1.231,1.673,1.866  c0.428,0.515,0.831,1.001,1.224,1.402c0.135,0.137,0.336,0.185,0.519,0.124c0.183-0.063,0.313-0.225,0.336-0.416  c0.053-0.455,0.041-0.857-0.018-1.225c0.301,0.686,0.505,1.47,0.714,2.273c0.236,0.91,0.481,1.852,0.884,2.665  c1.016,2.051,3.31,4.132,5.029,5.691c3.104,2.815,7.732,6.255,11.908,7.966C37.16,40.226,33.902,37.644,31.674,35.879z   M36.331,37.627c1.589,0.668,3.163,1.229,4.628,1.718c-0.081,0.136-0.148,0.276-0.222,0.415  C39.324,39.258,37.825,38.51,36.331,37.627z M73.834,86.294c-0.558,0.577-1.373,0.864-1.964,0.721  c-5.323-1.315-7.561-6.324-9.725-11.168c-0.108-0.243-0.22-0.488-0.329-0.733c0.003-0.012,0.01-0.021,0.012-0.034  c0.231-1.465,0.806-2.142,2.363-2.783c0.255-0.104,0.377-0.397,0.271-0.652c-0.104-0.256-0.396-0.379-0.652-0.271  c-1.402,0.577-2.205,1.261-2.643,2.325c-0.379-0.81-0.771-1.607-1.188-2.36c-1.834-3.316-3.919-6.233-6.046-8.836  c0.065-1.046,1.656-2.654,2.737-3.046c0.26-0.094,0.395-0.396,0.3-0.655c-0.094-0.261-0.383-0.425-0.64-0.331  c-1.067,0.386-2.591,1.759-3.168,3.112c-1.739-2.058-3.489-3.921-5.14-5.602c-0.537-0.547-1.08-1.077-1.614-1.6  c-0.536-0.523-1.058-1.037-1.56-1.55c0.036-0.038,0.081-0.067,0.104-0.118c0.513-1.099,1.69-2.534,2.862-3.49  c0.215-0.175,0.247-0.489,0.072-0.703c-0.175-0.216-0.49-0.245-0.703-0.072c-1.231,1.004-2.423,2.443-3.037,3.648  c-2.324-2.507-3.95-5.112-3.422-8.949c1.979-1.081,6.662-5.96,7.722-8.089c0.018-0.036,0.021-0.074,0.03-0.111  c0.84-0.231,1.697-0.359,2.545-0.359c0.702,0,1.379,0.088,2.013,0.262c0.788,0.216,1.573,0.586,2.348,1.063  c-1.416,0.539-3.21,1.816-3.675,2.893c-0.109,0.253,0.007,0.548,0.261,0.657c0.064,0.028,0.132,0.041,0.198,0.041  c0.193,0,0.377-0.112,0.459-0.302c0.381-0.881,2.496-2.328,3.709-2.539c0.035-0.006,0.064-0.024,0.097-0.037  c3.104,2.315,5.967,6.177,8.076,9.053c-1.963,0.617-3.291,1.762-3.58,3.14c-0.057,0.27,0.116,0.535,0.387,0.592  c0.034,0.008,0.069,0.011,0.104,0.011c0.231,0,0.438-0.161,0.488-0.397c0.328-1.559,2.396-2.267,3.227-2.491  c2.438,3.328,5.179,8.414,6.212,13.478c-1.155,0.033-2.704,0.451-3.565,1.511c-0.175,0.215-0.142,0.363,0.072,0.537  c0.093,0.076,0.204,0.112,0.315,0.112c0.146,0,0.289,0.103,0.388-0.019C69.25,61.294,70.589,61,71.498,61C71.499,61,71,61,71,61  c1,0,1-0.083,1-0.083s-0.242-0.003-0.236-0.003c0.063,0.383-0.009,0.766,0.031,1.147c0.401,3.784,0.948,8.744,2.11,13.557  c0.098,0.405,0.15,0.835,0.235,1.263c-1.334-0.227-2.705,0.072-3.901,0.871c-0.229,0.153-0.3,0.464-0.146,0.693  c0.097,0.145,0.251,0.223,0.412,0.223c0.096,0,0.19-0.027,0.275-0.084c1.09-0.728,2.337-0.939,3.527-0.628  c0.279,1.668,0.468,3.428,0.526,5.147C74.895,84.822,74.323,85.787,73.834,86.294z"></path></svg>