<svg    fill="#000000" xmlns:x="http://ns.adobe.com/Extensibility/1.0/" xmlns:i="http://ns.adobe.com/AdobeIllustrator/10.0/" xmlns:graph="http://ns.adobe.com/Graphs/1.0/" xmlns="http://www.w3.org/2000/svg" xmlns:xlink="http://www.w3.org/1999/xlink" version="1.1" x="0px" y="0px" viewBox="0 0 100 100" enable-background="new 0 0 100 100" xml:space="preserve"><metadata><sfw xmlns="http://ns.adobe.com/SaveForWeb/1.0/"><slices></slices><sliceSourceBounds bottomLeftOrigin="true" height="96.207" width="91" x="-0.5" y="-90.5"></sliceSourceBounds></sfw></metadata><g><g i:extraneous="self"><g><path d="M45.222,23.991c0.604,0.074,1.21,0.131,1.814,0.15c0.009,0,0.018,0,0.027,0c0.04-2.636,0.773-5.369,2.138-7.943     c0.003-0.006,0.005-0.012,0.009-0.017c0.022-0.041,0.04-0.083,0.062-0.124c0.578-1.069,1.255-2.095,2.014-3.051     c0.157-0.199,0.336-0.391,0.522-0.578c-0.71-0.059-1.451-0.218-2.148-0.447c-1.136-0.372-2.153-0.924-2.874-1.554     c-0.019,0.048-0.039,0.097-0.049,0.128c-0.227,0.657-0.401,1.098-0.559,1.499c-0.228,0.578-0.408,1.034-0.673,1.964l-0.107,0.374     c-0.407,1.419-0.792,2.76-0.843,4.137l-0.009,0.236c-0.061,1.6-0.154,4.018,0.648,5.161     C45.208,23.946,45.209,23.97,45.222,23.991z"></path><path d="M50.283,10.082c1.661,0.544,2.81,0.384,3.113,0.203c-0.308-0.613-1.546-1.286-2.641-1.644     c-1.626-0.533-2.758-0.391-3.092-0.215C47.829,8.765,48.656,9.549,50.283,10.082z"></path><path d="M35.377,19.236c0.2,0.061,0.4,0.132,0.6,0.204c0.828,0.299,1.113,0.351,1.416,0.137c2.133-1.517,3.844-2.62,5.506-3.558     c0.03-0.134,0.066-0.266,0.099-0.399c-0.072,0.017-0.143,0.033-0.216,0.05c-1.047,0.241-1.525,0.35-1.703,0.375     c-3.861,0.54-7.273,1.347-10.331,2.432c0.383,0.024,0.766,0.043,1.149,0.084C33.181,18.696,34.319,18.917,35.377,19.236z"></path><path d="M51.25,16.643c0.328,0.438,0.718,0.855,1.814,1.636c0.048,0.034,0.139,0.109,0.249,0.204     c0.066,0.057,0.145,0.127,0.223,0.191c0.39-0.112,0.79-0.326,1.208-0.55c0.262-0.14,0.522-0.279,0.786-0.4     c0.939-0.432,1.93-0.76,2.861-1.051c1.172-0.366,2.505-0.711,3.941-0.972c-2.967-0.642-6.256-0.895-9.967-0.778     C51.962,15.478,51.588,16.05,51.25,16.643z"></path><path d="M34.073,25.077c0.231,0.075,0.462,0.152,0.687,0.247c0.34,0.144,0.574,0.463,0.607,0.831     c0.033,0.368-0.139,0.724-0.448,0.927c-0.359,0.241-0.658,0.419-0.962,0.588c-2.243,1.25-4.408,2.54-6.23,4.551     c-1.515,1.673-2.765,3.611-3.721,5.769c5.155-3.792,10.408-6.017,16.314-6.938c1.37-0.21,2.676,0.497,3.726,1.066l0.412,0.221     c1.106,0.579,2.163,1.27,3.141,2.054c2.043,1.638,3.721,3.668,4.852,5.873c0.031,0.062,0.091,0.167,0.166,0.3     c0.072,0.128,0.141,0.251,0.206,0.369c1.521-3.089,2.942-6.585,3.422-10.245l0.023-0.214c0.071-0.676,0.19-1.807,1.201-2.296     c0.607-0.295,1.39-0.306,2.079-0.315c0.209-0.002,0.404-0.004,0.567-0.018c0.777-0.064,1.556-0.113,2.335-0.153     c2.328-0.121,4.588-0.113,6.759,0.021c-1.957-1.011-3.976-2.033-6.048-2.815c-0.892-0.336-1.738-0.732-2.557-1.116     c-0.527-0.247-1.056-0.494-1.6-0.727c-0.379-0.163-0.619-0.54-0.605-0.951c0.013-0.412,0.276-0.773,0.665-0.911     c3.298-1.17,6.905-2.252,11.029-3.31c0.363-0.093,0.701-0.18,1.023-0.267c-4.446-0.904-8.921-0.04-12.13,0.962     c-0.867,0.271-1.785,0.574-2.621,0.959c-0.228,0.104-0.452,0.226-0.678,0.346c-0.624,0.334-1.331,0.712-2.163,0.831     c-0.591,0.089-1.035-0.306-1.515-0.718l-0.121-0.102c-0.76-0.542-1.247-0.956-1.605-1.316c-0.74,1.764-1.153,3.571-1.215,5.327     c0.251-0.091,0.486-0.206,0.679-0.376c0.414-0.366,1.046-0.325,1.412,0.089c0.365,0.415,0.325,1.046-0.09,1.412     c-1.062,0.936-2.452,1.113-3.643,1.113c-0.155,0-0.307-0.003-0.455-0.008c-0.934-0.03-1.877-0.12-2.804-0.269     c-1.243-0.199-2.788-0.59-3.717-1.861c-0.326-0.446-0.229-1.071,0.217-1.397c0.447-0.327,1.071-0.228,1.397,0.217     c0.187,0.256,0.465,0.435,0.769,0.586c-0.4-1.525-0.34-3.31-0.286-4.727l0.006-0.148c-1.207,0.738-2.491,1.59-4.002,2.665     c-1.2,0.853-2.384,0.427-3.251,0.115c-0.167-0.06-0.333-0.12-0.5-0.17c-0.937-0.283-1.956-0.48-3.115-0.604     c-2.2-0.234-4.459-0.145-6.575-0.015c-1.189,0.074-2.373,0.197-3.545,0.368c3.931,0.435,7.969,1.766,11.779,3.892     C33.545,24.905,33.802,24.989,34.073,25.077z"></path><path d="M72.227,19.377c-0.521,0.152-1.042,0.293-1.551,0.423c-3.166,0.812-5.983,1.624-8.579,2.474     c0.589,0.272,1.167,0.528,1.768,0.755c2.354,0.888,4.588,2.043,6.747,3.161c1.335,0.69,2.716,1.405,4.097,2.04     c0.206,0.095,0.441,0.178,0.681,0.264c0.114,0.041,0.231,0.083,0.351,0.127c0.411,0.136,0.814,0.321,1.193,0.587     c0.452,0.317,0.562,0.941,0.244,1.393c-0.316,0.452-0.94,0.561-1.393,0.244c-0.002,0-0.003-0.001-0.004-0.002     c-0.167-0.117-0.41-0.222-0.674-0.323c-0.36-0.119-0.76-0.194-1.15-0.259c-3.5-0.586-7.339-0.778-11.404-0.568     c-0.76,0.039-1.519,0.087-2.274,0.149c-0.202,0.017-0.445,0.021-0.704,0.024c-0.384,0.005-1.026,0.014-1.234,0.114     c-0.017,0.066-0.063,0.499-0.084,0.706l-0.03,0.264c-0.623,4.762-2.688,9.171-4.624,12.856c-0.001,0-0.001,0.001-0.001,0.001     c0,0,0,0-0.001,0.001c-0.179,0.34-0.526,0.535-0.886,0.535c-0.156,0-0.315-0.037-0.464-0.115     c-0.375-0.196-0.572-0.597-0.529-0.994c-0.081-0.262-0.366-0.829-0.849-1.688c-0.092-0.165-0.165-0.294-0.203-0.368     c-1.002-1.955-2.498-3.762-4.322-5.224c-0.877-0.704-1.826-1.324-2.818-1.843l-0.438-0.235c-0.785-0.426-1.77-0.961-2.463-0.847     c-6.525,1.017-12.224,3.732-17.936,8.543c-0.423,0.355-1.054,0.302-1.409-0.12c-0.287-0.341-0.308-0.817-0.083-1.176     c0.033-0.127,0.054-0.301,0.076-0.449c0.033-0.214,0.066-0.4,0.095-0.499c0.135-0.463,0.304-0.945,0.502-1.434     c1.076-2.641,2.546-5.001,4.371-7.017c1.784-1.969,3.794-3.277,5.884-4.473c-3.277-1.793-6.714-2.948-10.076-3.416l-0.857,0.729     c-1.792,1.518-3.645,3.087-5.141,4.893c-5.647,6.814-8.887,15.838-8.887,24.756c0,20.053,19.178,36.366,42.75,36.366     c23.573,0,42.75-16.313,42.75-36.366C92.667,38.804,85.03,26.137,72.227,19.377z M34.011,79.793     c-0.168,0.368-0.531,0.585-0.91,0.585c-0.139,0-0.28-0.029-0.415-0.09c-3.154-1.44-6.144-3.406-8.884-5.844     c-3.796-3.376-6.792-7.392-8.664-11.613c-0.224-0.505,0.004-1.096,0.509-1.319c0.505-0.225,1.096,0.004,1.319,0.509     c1.757,3.963,4.581,7.742,8.165,10.93c2.591,2.304,5.413,4.161,8.386,5.518C34.019,78.697,34.24,79.291,34.011,79.793z      M36.559,82.472c-0.552,0-1.029-0.447-1.029-1s0.418-1,0.97-1h0.059c0.552,0,1,0.447,1,1S37.111,82.472,36.559,82.472z"></path></g></g></g></svg>