<svg fill="#000" xmlns="http://www.w3.org/2000/svg" xmlns:xlink="http://www.w3.org/1999/xlink" viewBox="-10 0 100 100" enable-background="new 0 0 100 100"><g><path fill="none" d="M35.584 80.331c-.228-.622-1.303-1.584-1.756-1.884-.024.049-.051.112-.079.184-.246.832-.445 1.488-.54 1.749.0.003-.001.006-.002.009-.097.375-.179.728-.223.981C33.327 81.283 34.949 80.786 35.584 80.331z"/><path fill="none" d="M33.535 37.478c-.512-2.019-1.605-4.116.229-6.729-2.85.324-6.534 3.326-10.404 2.409-5.732-1.358-6.217-5.722-7.643-6.862 1.444 5.431-3.449 10.947-3.835 13.657-.966 6.774 1.412 16.486 4.328 20.627 1.323 1.877 9.531 9.359 11.193 11.16.151-2.567.752-4.639-.771-7.825-1.524-3.186-5.203-7.327-3.484-13.406.885-3.13 5.844-5.806 6.676-6.637C30.654 43.04 34.006 39.334 33.535 37.478z"/><path fill="none" d="M24.391 70.204c-.709-.851-.206 11.757.138 14.094.344-2.681 2.338-9.725 2.613-11.304C26.219 71.84 25.083 71.035 24.391 70.204z"/><path fill="none" d="M51.479 69.723c-1.408-.384-4.92 1.027-7.976-.825-2.269-1.374-5.981-10.931-5.569-8.317.302 1.911-.136 4.527-.275 5.774-.139 1.247-1.629 5.213-2.044 6.182-.235.55-.868 2.697-1.434 4.623 1.415 1.355 4.981 5.685 5.609 6.833 2.081-.685 4.063-1.582 4.137-2.45.676-7.968 2.052-8.714 5.137-10.529C49.771 70.597 52.992 70.136 51.479 69.723z"/><path d="M83.931 78.316c-1.104-1.021-3.298-.424-3.575 1.101-.277 1.523 4.718 6.812 3.193 8.774-1.406 1.813-5.394-2.449-18.425-5.819-2.087-.539-4.363-3.506-4.569-4.536-.357-1.787-.225-8.495-.688-10.519-.2-.874-.898-2.327-1.101-3.026-4.881-16.913-11.618-22.619-22.597-26.529-1.625-.578-2.13-2.159-2.216-3.879-.126-2.495 1.988-4.794 2.632-7.481.636-2.654.318-2.604.937-3.124 1.925-1.614 1.512-2.788 1.973-3.388 1.073-1.399 3.538-6.953 2.152-7.646-1.385-.692-7.764 3.863-9.218 4.321-1.369-.745-5.15-1.845-7.065-2.078-1.035-1.512-1.846-9.874-4.617-9.874-1.426.0-3.418 6.411-3.418 7.38.0.969-.566 1.383-.693 2.217-.151.991.186 2.083-.016 2.632-.341.93-1.992 4.546-1.924 6.234.112 2.777.342 4.502.207 6.013-.133 1.486-1.257 4.104-1.714 5.156-.353.813-1.613 3.458-2.136 5.156-.55 1.788-.253 8.603.413 11.551.686 3.038 1.988 7.193 3.231 9.238 1.236 2.035 3.324 14.562 3.739 16.501.416 1.939.693 8.451-.138 9.144-.832.692-1.663.318-2.702 1.247-1.037.928-.625 3.073.0 3.463 1.284.801 4.9.61 5.632.216.501-.271-.007.75.962 1.581s5.088.756 5.666.004c.178.615 1.543.583 2 .293.791-.503.363-1.568.771-1.4 2.013.829 18.484-1.959 20.646-2.472 2.105-.499 4.173-2.842 5.88-2.991 1.957-.172 3.114 1.748 4.433 2.234 1.875.692 9.763 2.199 18.362 6.553 2.318 1.175 5.014 1.216 7.065-.692C92.301 88.954 86.863 81.032 83.931 78.316zM33.209 80.38c.095-.261.294-.917.54-1.749.028-.071.055-.135.079-.184.453.3 1.528 1.262 1.756 1.884-.635.455-2.258.952-2.601 1.039.044-.254.126-.606.223-.981C33.208 80.386 33.209 80.383 33.209 80.38zM24.528 84.298c-.343-2.337-.847-14.944-.138-14.094.693.831 1.829 1.636 2.751 2.79C26.866 74.573 24.872 81.617 24.528 84.298zM29.823 43.872c-.832.832-5.791 3.507-6.676 6.637-1.718 6.079 1.96 10.221 3.484 13.406 1.523 3.187.922 5.258.771 7.825-1.662-1.801-9.87-9.283-11.193-11.16-2.917-4.141-5.294-13.853-4.328-20.627.386-2.71 5.28-8.226 3.835-13.657 1.426 1.14 1.911 5.504 7.643 6.862 3.87.917 7.554-2.085 10.404-2.409-1.835 2.613-.741 4.71-.229 6.729C34.006 39.334 30.654 43.04 29.823 43.872zM49.064 71.013c-3.085 1.815-4.46 2.562-5.137 10.529-.073.868-2.056 1.766-4.137 2.45-.628-1.148-4.194-5.478-5.609-6.833.566-1.926 1.199-4.073 1.434-4.623.416-.969 1.905-4.935 2.044-6.182.139-1.247.577-3.863.275-5.774-.413-2.613 3.3 6.943 5.569 8.317 3.056 1.853 6.567.441 7.976.825C52.992 70.136 49.771 70.597 49.064 71.013z"/></g></svg>