<svg   fill="#000" xmlns="http://www.w3.org/2000/svg" xmlns:xlink="http://www.w3.org/1999/xlink" viewBox="0 0 100 100" enable-background="new 0 0 100 100"><g><path d="M97.206 83.205c-2.164-3.372-4.192-7.188-4.68-7.899-5.277-7.693 3.02-21.513-6.092-28.735-1.09-.865 5.115-9.42 6.234-14.481 1.472-6.653-3.209-13.594-11.785-15.045-7.277-1.231-13.084.734-16.724 5.804-2.449 3.413-3.956 10.7.154 12.212 4.12 1.515 6.839-5.214 10.481-5.588.853-.087 2.949.367 3.782 2.344.906 2.147.71 6.311-.711 7.162-2.271 1.36-10.842.337-14.769-.166-2.187-.28-10.285-2.329-14.301-3.478-3.627-1.037-7.754-.912-9.493-3.046-1.392-1.708-8.724-13.389-9.542-14.704-.897-1.438-2.319-1.579-2.536-2.661-.216-1.08-1.641-4.571-2.49-4.734-1.313-.252-1.719 1.03-2.595 1.623-.491-.942-.464-2.399-1.436-2.617-.974-.216-1.662 1.812-1.862 2.818-1.097.288-2.974.123-4.379.664-1.406.541-1.716 1.461-2.818 2.311-1.06.816-7.187-1.218-8.645-.256-1.064.704-.596 5.992.325 6.812 4.548 4.056 8.674 4.709 8.218 6.165-.563 1.795-.651 12.029.765 17.192 4.077 14.866 11.633 18.888 12.319 21.52.649 2.486 1.46 14.477.865 15.787-.573 1.261-2.018.353-2.675 1.054-1.459 1.562-1.358 2.667-.101 3.121 1.316.474 2.038.738 3.271.653.309-.021.95-.184 1.158-.201-1.158.201-1.439 2.258-.806 2.868.817.787 4.177 1.398 5.938.984 3.772-.89 2.516-.984 4.981-6.368.627-1.369 1.409-13.283.906-15.095 7.05 1.342 18.316-.956 22.905-2.372.693 6.598 10.964 13.249 11.16 15.304.194 2.056-.656 3.882-2.164 3.975-2.465.15-2.938 1.783-2.063 2.515 2.163 1.813 4.137.948 4.88.705 1.59-.519 2.24-1.225 3.217-2.385 1.828-2.172 4.045-4.253 3.929-5.766-.12-1.553-2.36-3.869-2.467-4.831-.09-.822.749-1.938.749-3.041.002-1.969 2.387 3.704 6.177 5.661.833.43 7.462 5.344 7.462 6.712.0 1.358-2.068 2.035-1.728 3.347.442 1.704 2.477 1.964 4.181 1.556 1.909-.459 1.976-.446 2.791-2.974C97.62 86.31 97.858 84.223 97.206 83.205zM78.99 39.541c1.674-3.181 1.613-8.513-1.119-10.024-6.623-3.661-8.994 6.69-13.665 4.462-2.541-1.211-1.63-8.208 1.189-11.462 3.062-3.534 9.021-6.021 15.425-4.799 6.333 1.21 12.649 6.989 11.284 13.667-.772 3.781-5.542 11.717-6.653 13.846C84.432 47.183 78.239 40.968 78.99 39.541zM21.817 14.407c.213-1.876 2.202-3.85 2.854-3.6.799.307 1.085 7.275-.301 7.674C23.5 18.732 21.673 15.672 21.817 14.407zM95.582 89.446c-.591.66-3.918 1.122-4.557-.38-.53-1.25 1.602-1.345 1.668-3.217.082-2.272-7.863-7.639-8.634-8.148-5.37-3.544-4.939-10.471-18.608-12.472-2.858-.418-17.439 5.149-28.092 3.061.696 2.212-.243 14.055-.655 15.291-.451 1.352-1.419 3.745-1.762 4.292-.743 1.184-.41 1.639-3.605 2.323-1.495.32-3.804-.198-4.384-1.053-.59-.872.282-1.951 1.101-2.399.889-.486 1.849.474 2.341-.51.477-.953.48-15.224-5.367-21.304-7.434-7.73-10.647-13.39-12.187-21.111-1.641-8.229-.193-15.223-.514-16.827-.205-1.024-7.199-3.986-8.603-5.858-.649-.865-.982-3.851-.71-3.647.59.445 2.841-1.229 2.841-2.334.0-.596 4.301 1.269 6.122.227 1.763-1.009 1.088-2.439 5.841-2.685-.164.655-1.789 1.418-1.969 2.613-.243 1.607.606 3.633 2.128 4.39 1.521.757 2.636 3.157 2.627 4.591-.009 1.442-1.631 4.429-2.243 5.474-3.805 6.508-2.059 14.907-1.397 17.343 3.228 11.871 11.779 16.168 16.987 17.656C38.632 66.1 36.021 49.387 37.695 50c3.302 1.208 2.274 14.627 11.263 14.365 19.922-.579 16.425-9.902 19.206-7.97 1.506 1.047 1.231 6.36 5.513 9.569-2.141-6.152-1.979-20.201 11.637-16.786 9.229 2.314.603 17.254 6.765 26.779.351.54 4.707 7.434 4.962 8.497C97.22 85.223 96.361 88.576 95.582 89.446z"/><path d="M12.734 16.569c.451.297 1.251 1.096 1.614.143C14.076 14.943 13.259 16.515 12.734 16.569z"/></g></svg>