<svg  fill="#000" xmlns="http://www.w3.org/2000/svg" xmlns:xlink="http://www.w3.org/1999/xlink" viewBox="0 0 100 100" enable-background="new 0 0 100 100"><g><path fill="none" d="M79.524 31.179c1.893.308 2.936.294 3.949-.477.85-.646 1.041-1.625 1.08-2.308-.164-.871-.822-2.238-1.785-3.226-.961-.989-2.152-1.173-2.891-1.219-.957-.061-1.945.646-1.945.646-.861.79-2.178 1.844-1.947 3.613C76.185 29.733 77.815 30.902 79.524 31.179zM78.364 26.751c.049-.713 1.57-1.627 2.713-1.494 1.408.164 2.385 1.705 2.373 2.103-.01.386-.881 1.3-2.428 1.259C79.579 28.581 78.278 28.026 78.364 26.751z"/><path fill="none" d="M90.485 28.273c.297.025.662-.08.596-.3-.129-.413-1.066-.439-1.168-.146C89.833 28.062 90.122 28.24 90.485 28.273z"/><path fill="#000" d="M81.022 28.62c1.547.041 2.418-.873 2.428-1.259.012-.398-.965-1.939-2.373-2.103-1.143-.133-2.664.781-2.713 1.494C78.278 28.026 79.579 28.581 81.022 28.62z"/><path fill="#000" d="M94.507 28.918c-1.063-.738-2.295-1.286-3.93-1.592-1.299-.242-5.455.383-6.023-.392-.625-.85-.969-1.876-1.932-2.495-1.629-1.048-4.459-1.214-6.066-.493-2.445 1.096-2.969 3.865-3.646 4.403-.531.422-10.639 2.939-11.908 3.513-1.035.468-2.729 1.715-5.748 2.433-1.547.369-12.261.719-18.704 3.089-1.686.621-19.111 11.855-19.973 12.429-1.174.24-5.604 1.365-6.395 1.705s-1.628 1.48-1.82 2.223c-1.341.744-3.209 2.826-3.568 4.838-.339 1.9.359 3.641 2.012 5.174.98.908 4.311 3.664 5.173 4.381.863.719 2.026 1.459 3.064 1.979 1.016.506 1.64 1.537 2.861 1.969 1.222.43 17.101.82 18.259.799 1.186-.021 6.758-.461 7.613-.568.882-.111 3.046-.26 3.461-.031.615.338.736 1.529 1.024 1.674s.704-.076.807-.305c.193-.434-.17-1.586-.338-1.846.377-.158 2.262-.076 2.909-.221.121.344.321.912.929.869.545-.039.618-.402.546-.834 5.383-.814 7.967-.49 9.59-.107 1.047.25 1.963 1.123 2.516 1.801.303.369 1.047.107.848-.787-.141-.635-2.215-2.674-3.51-3.031-.607-.168-4.299-.324-5.67-.451-.184-.016-2.588.266-5.429.344-.586.018-1.147-.578-1.751-.57-3.749.063-6.8 1.02-7.492.57-.003-.002 2.69-2.412 2.85-5.535.114-2.23-1.317-4.617-2.321-6.393-2.747-4.865-10.876-6.42-10.626-6.475.108-.023 8.338 1.098 11.305 5.836.954 1.523 2.8 4.451 2.737 6.934-.056 2.184-2.01 4.777-1.588 4.771 1.485-.027 2.902-.561 5.169-.668.602-.029 1.087.719 1.669.689 2.868-.141 5.083-.334 5.864-.566 2.625-.783 5.623-1.561 7.885-3.822 1.23 1.416 4.168 3.488 4.445 3.893 1.424 2.078 9.672 3.51 12.045 3.262.307-.031.525-.297.719-.35 1.408-.383 4.479-.512 5.912-.385.359.031.561-.189.705-.404.143-.217 1.25-.344 1.721-.17.203.074.408.902.84 1.119.432.215.916-.195.916-.625.0-.434-.893-1.709-1.738-2.004-.365-.125-.695.004-1.031-.182-.416-.23-1.199-1.092-1.627-1.111-.367-.016-1.633.543-2.125.635-.604.113-1.801.104-2.447.031-.645-.072-3.043-1.303-3.336-1.846-.145-.266.059-.346-.066-.615-.342-.729-5.287-5.877-7.826-7.83 1.186-.754 2.799-2.301 3.443-2.875 2.033-1.816 4.201-5.375 4.848-6.309.648-.934 1.723-2.077 2.646-3.277 1.139-1.784 3.799-4.306 5.078-5.287.727-.557 3.227-1.465 4.168-2.155.969-.713 1.32-1.986 1.398-2.402.783-.292 2.076-1.506 2.154-3.614C96.032 30.72 95.343 29.501 94.507 28.918zM89.913 27.827c.102-.293 1.039-.267 1.168.146.066.22-.299.325-.596.3C90.122 28.24 89.833 28.062 89.913 27.827zM77.933 24.596c0 0 .988-.707 1.945-.646.738.046 1.93.23 2.891 1.219.963.988 1.621 2.355 1.785 3.226-.039.683-.23 1.662-1.08 2.308-1.014.771-2.057.785-3.949.477-1.709-.277-3.34-1.446-3.539-2.97C75.755 26.44 77.071 25.386 77.933 24.596zM91.419 37.542c-.824.544-2.727 1.156-3.266 1.518-1.547 1.036-2.859 2.574-4.117 3.938-1.258 1.366-6.063 8.025-7.113 9.402-1.049 1.379-3.791 3.932-4.932 4.816l-1.084-.965c2.777-1.559 4.287-7.504-1.33-9.426-1.57-.537-1.344-.756.945-1.784 2.229-1.001 2.938-3.569 3.883-4.093.943-.525 16.234-5.654 18.576-5.563C92.981 36.47 92.351 36.927 91.419 37.542z"/></g></svg>