<svg  fill="#000" xmlns="http://www.w3.org/2000/svg" xmlns:xlink="http://www.w3.org/1999/xlink" viewBox="0 0 100 100" enable-background="new 0 0 100 100"><g><path d="M23.915 40.812c0 0 1.009-.635 1.221-.85.211-.215.188-.136.446-.371.258-.235.165-.188.235-.259.07-.07.188-.164.258-.211.07-.046.282-.188.587-.399.305-.211.117-.07.376-.258.258-.188.094-.164.165-.353.07-.188.117-.188.398-.357.282-.172.587-.088.658-.159.07-.07.587.0.587.0l.493-.234c0 0 .399-.61.446-.728.046-.117.352-.868.352-.868l-.587.141c0 0-.376.14-.446.254-.071.115-1.457.426-1.644.497-.188.071-.329.071-.47.118-.141.046-.446.14-.517.14-.07.0-.657.446-.751.517-.094.071-.54.564-.54.564s-.094.164-.118.235c-.023.07-.188.234-.188.234s-.234.329-.258.435c-.024.106-.212.27-.282.364-.07.093-.211.446-.258.52-.046.075-.54.537-.61.606-.07.071-.141.423-.141.423S23.375 41.07 23.915 40.812z"/><path d="M28.541 42.22c-.071.023-.517.822-.517.822s-.211.563-.258.657c-.047.094-.399.517-.446.54-.047.024-.305.118-.423.118s-.775.211-.869.234c-.094.024-.375.117-.493.188-.117.07-.188.198-.188.357.0.159-.046.746.0.91.047.164.165.611.188.728.024.118.329.493.329.493s.54.023.751.118c.211.093.775.822.845.846.07.022.211.0.211.0s.493-.259.563-.423.305-.896.305-.896-.117-.607.0-.701c.118-.093.282-.422.282-.422s.024-.986.0-1.056c-.024-.072-.07-.376-.094-.494-.024-.118-.07-.618-.094-.803-.023-.183-.333-.605-.272-.7C28.423 42.643 28.541 42.22 28.541 42.22z"/><path d="M25.699 55.321c-.117-.281-.094-.904-.165-.992-.07-.088-.939-.17-1.045.0-.105.171-.307.476-.307.476s-.038.893.0 1.011c.038.117.131.422.307.586.176.164.031.353.257.611.225.258.46.609.46.609l1.174-.82c0 0-.046-.165.0-.306C26.428 56.354 25.817 55.604 25.699 55.321z"/><path d="M23.63 56.871c0 0-.561.329-.584.47-.023.142-.084.574-.084.574s.208.295.334.225c.126-.071.501.0.501.0l.282-.399.235-.158c0 0-.098-.305-.131-.331-.033-.027-.017-.169-.017-.169L23.63 56.871z"/><path d="M30.842 37.559c.164.035.352.059.493-.012.14-.07.399.047.54.0.141-.046.164-.164.34-.188.176-.024.153-.306.153-.306s.329-.258.49-.375c.162-.117.308-.282.496-.381.188-.1.258-.277.165-.441-.094-.165.282-.399.516-.587.235-.188.728-.586.903-.704.0.0-.574.118-.691.217-.117.101-.305.019-.422.0-.118-.017-.282.135-.376.112s-.59.188-.59.188-.889.235-1.077.258c-.188.024-.329.024-.775.094-.446.07-.188.118-.188.211.0.094.094.234.117.513.023.279-.07.051-.305.38-.235.328-.164.353-.188.939C30.419 38.064 30.677 37.524 30.842 37.559z"/><path d="M35.068 35.998c.329.188.634.07.892.234.258.164.611-.023.799-.118s.657-.446.751-.421c.094.024.517-.189.563-.048.047.141.728-.07.893-.117.164-.048.798-.235.986-.329.188-.094.446-.376.469-.587.023-.211-.117-.61-.165-.798-.046-.188-.375-.493-.398-.657-.024-.165.094-.611.188-.795.0.0-.376.161-.587.349s-.305.235-.658.375c-.353.141-.517.235-.751.365-.235.129-.541.152-.869.201-.329.048-.729.444-1.01.655-.281.211-.728.564-.892.751C35.115 35.247 34.739 35.81 35.068 35.998z"/><path d="M38.686 45.137c-.119-.311-.049-.521-.237-.756-.188-.235-.328-.462-.469-.537-.141-.074-.081-.051-.299-.309-.217-.258-.265-.305-.429-.517-.164-.211-.258-.352-.305-.423-.047-.069-.751-.14-.751-.14.0-.117.704-.869.164-.352-.54.517-1.104 1.056-1.244 1.126-.141.071-.423.305-.517.353-.094.047-.517.328-.564.398-.047.071-.211.165-.211.306s.188.704.188.704.422.188.681.282c.259.094.501.423.501.423s.368-.188.532.281c.165.47.234-.117.47.798.235.916.422 1.197.54 1.315.118.118.165.235.235.258.07.023.446-.164.446-.164s.306-.305.375-.399c.071-.094.306-.047.446-.517.141-.47.165-.61.211-.751.048-.142.259.023.235-.586C38.661 45.319 38.805 45.447 38.686 45.137z"/><path d="M32.438 41.374c.164.118.211.446.305.822.094.375.141.634.306.962.164.329.164.728.352.682.188-.047.657-.655.916-.938.259-.283.846-.729 1.057-.823.211-.094.517-.305.657-.563s.118-.329.0-.775c-.117-.447-.141-.447-.141-.893.0-.446.0-.61.0-.61-.024-.705.1-.658.238-.939.138-.282.513-.517.373-.775-.141-.258-.423-.563-.423-.563-.376-.587-.587-.517-.845-.54-.258-.024-.329.0-.47.0-.141.0-.586.0-.586.0-.142.118-.353.586-.635.845-.281.258-.798.517-.939.728-.141.211-.305.375-.353.586-.046.212-.046 1.12.0 1.381.047.263.212.615.235.826C32.508 40.999 32.274 41.257 32.438 41.374z"/><path d="M23.891 43.559c.118.023 1.174.68 1.174.68s.798-.493.869-.563c.071-.07.658-.239.658-.239l.399-.113.423-.728c0 0 .61-1.15.61-1.126.0.024-.329-.657-.352-.845-.024-.188.141-1.244.141-1.244l-.141-.682c-.094.071-.728.893-.798.917-.07.022-.939.656-1.01.656s-.775.33-.775.33-.281.183-.352.326c-.071.144-.423.284-.54.402-.118.117-.376.336-.376.336l-.234.274c0 0-.165.8-.258.963-.094.163-.282.534-.282.534S23.774 43.535 23.891 43.559z"/><path d="M23.638 62.413c-.028.211-.007.681-.007.681s.211.117.272.117c.06.0.412.07.412.07h.352v-.423l-.485-.61C24.103 62.155 23.666 62.201 23.638 62.413z"/><path d="M23.352 56.073l.258-.07c0 0 .047-.587.0-.869-.047-.282-.564-1.244-.564-1.244l-.282-.235-.305-.164-.827.399c0 0-.277.634-.16.892.117.259.535 1.245.479 1.479-.056.235.108 1.644.108 1.644s.235.023.258.0.282-1.103.282-1.103L23.352 56.073z"/><path d="M23.774 60.887c.023-.07-.137-.541-.137-.541l-.007-.342c0 0-.162-.198-.185-.268-.023-.07-.047-.27-.023-.369.023-.101.208-.57.208-.57-.091-.023-1.093.0-1.093.0v.435l-.078.974v.517c0 0 .141.541.188.635s.314.892.314.892l.484-1.033C23.445 61.215 23.751 60.957 23.774 60.887z"/><path d="M25.535 59.367V58.68l-.774-.54c-.07.023-.615.423-.578.492.038.071.28.507.288.735.008.228-.18.486-.18.604.0.118.47-.117.47-.117l.514-.329L25.535 59.367z"/><path d="M20.933 47.268c.094-.094.281-.356.281-.356l.142-.137.211-.277.144-.427.443-.352c0 0 .117-.165.165-.235.047-.071.188-.517.188-.611.0-.093-.024-.908-.024-1.029.0-.122-.023-.408-.023-.408s-.024-.16-.024-.229c0-.071.094-.304.094-.304s.235-.448.258-.519c.024-.07.258-.798.258-.798-.188.023-.704.798-.869 1.009-.165.212-.375.627-.47.841-.094.217-.445.827-.47.803-.023-.023-.446.992-.446.992s-.117.065-.211.182c-.094.118-.165.447-.188.658-.024.211-.024.657.0.704.023.047.117.493.117.493C20.675 47.386 20.839 47.362 20.933 47.268z"/><path d="M39.764 36.021c-.165.023-.565.388-.706.277-.14-.112-.656-.112-.774-.112-.117.0-.55-.023-.604.0-.053.023-.382.188-.429.282-.047.094-.141.258-.188.352-.047.094.047.142.0.471-.047.328.114.492-.014.61s-.221.399-.268.469c-.047.071-.071.236-.117.375-.047.141-.165.071-.165.587.0.517.282 1.057.282 1.245.0.188.047.657.211.916.165.258.577.892.688 1.009.111.118.698.422.768.399.071-.022.303-.562.61-.961.307-.4.709-.917 1.001-1.246.292-.328.287-.211.665-.845.378-.634.401-.703.331-.951-.07-.247-.141-.317-.118-.552s.446-.61.493-.775c.047-.164-.094-.235.0-.375.094-.142.258-.517.282-.657.023-.142.044-.211.14-.376.095-.164.264-.282.238-.399-.026-.118-.026.093-.026-.118.0-.211.069-.281-.083-.329-.152-.047-.319-.087-.387-.117-.211-.094-.446-.305-.446-.305s-.535.399-.725.61C40.234 35.716 39.928 35.998 39.764 36.021z"/><path d="M22.083 52.692c0 0 .305-.353.329-.458.023-.105.305-.91.375-1.049.07-.137.212-.513.165-.606-.046-.094-.352-.681-.47-.821-.117-.142-.329-.611-.54-.729-.211-.117-.399-.141-.493-.306-.094-.164-.141-.307-.235-.483-.094-.174-.117-.292-.117-.292-.094.0-.094.0-.094.0s-.517.462-.517.571c0 .11.141 1.321.141 1.349.0.029.118 1.132.118 1.132s.446.728.517.916c.07.188.234 1.081.234 1.081L22.083 52.692z"/><path d="M26.498 49.219c.047-.138.234-.471.234-.565s-.211-.094-.305-.191c-.094-.097-.282-.114-.353-.111-.07.001-.749-.449-.749-.449s-.308-.353-.425-.554c-.118-.203-.094-.268-.141-.436-.047-.168-.141-.583-.141-.583s-.047-.422-.024-.682c.024-.257.165-.775.165-.845s-.188-.211-.188-.211l-.446-.125c0 0-.916-.321-1.081-.346.0.0.071.4.0.517-.07.118.0.593.0.593s-.188.324-.234.394c-.047.071-.188.376-.282.494-.094.117-.258.38-.258.38s-.375.348-.561.536c-.185.188.021.751.0.892-.02.142.491.283.631.316.141.034.61.718.704.789.094.07.611.445.681.657s.306.704.352.775c.047.069.282-.095.423-.186.141-.091.47-.074.563-.011s.563-.18.634-.18c.071.0.353-.328.353-.328S26.451 49.357 26.498 49.219z"/><path d="M75.172 18.881c.211.117 3.357-2.066 3.311-2.442-.047-.376-.75-.631-1.104-.902-.352-.272-1.244-1.164-1.244-1.164-.211.188-.939.398-.963.798-.023.399.375 1.567.328 1.875C75.455 17.354 74.959 18.764 75.172 18.881z"/><path d="M56.834 38.651c.259-.118.399-.61.424-.751.025-.141-.049-.704-.118-.792-.069-.09-.517-.194-.595-.381-.075-.188-.438-1.292-.587-1.526-.147-.234-.744-.893-.744-.893l-.667.446-.813.376-.822.563-.985.755c0 0-.892-.496-1.01 1.477-.117 1.972 1.949 3.147 2.043 3.194.095.046 1.033-.259 1.315-.236.281.022.893-.14.938-.327.048-.188.61-.939.639-1.057C55.881 39.379 56.576 38.769 56.834 38.651z"/><path d="M58.549 26.618c.328.035.14.363.14.739.0.375 1.667 1.996 1.95 2.042.281.047 2.348-2.16 2.488-2.371.141-.211-.375-1.949-.445-2.16-.072-.211.141-.916.234-1.033.0.0-.846.117-.986.188-.141.07-1.361.398-1.484.563-.121.165-1.545.376-2.039.4-.492.022-.468-.023-.586.164-.117.188-.094.563.0.845C57.914 26.277 58.221 26.582 58.549 26.618z"/><path d="M69.467 19.539c.236-.024 1.619-1.926 1.619-1.926l-3.17 1.755C67.916 19.368 69.232 19.561 69.467 19.539z"/><path d="M53.924 45.225c.093.047.656.329.727.399.07.071.423.329.682.447.258.117.844.376.892.304.047-.07.222-.61.321-.868.102-.258.242-.54.406-.586.164-.048.023-.54-.211-1.057-.234-.518-.555-.916-.782-1.221-.227-.306-.321-.423-.532-.587-.212-.164-.586-.399-.879-.375-.295.022-.813-.098-.93-.003-.117.096-.305.261-.305.261-.047.234.164 1.337.188 1.501.023.165.094.971.0 1.213C53.406 44.896 53.829 45.179 53.924 45.225z"/><path d="M58.713 24.351c.211-.046.916-.258 1.197-.375.281-.117 1.502-.399 1.807-.422.307-.023.965-.329 1.152-.353s.398-.281.492-.52.189-.701.32-.983c0 0-5.392 2.137-5.509 2.137-.118.0-.306.446-.188.657C58.103 24.704 58.501 24.398 58.713 24.351z"/><path d="M81.781 11.085c.178-.107.172-.172.305-.277.092-.073.162-.219.23-.267-.051-.028-.123-.198-.217-.267-.24-.174-.426-.277-.766-.277C81.129 10.3 81.268 10.955 81.781 11.085z"/><path d="M80.738 7.291c-.133-.259.033-1.043-.195-1.227-.182-.148-.867-.223-.943.0-.08.237.41.649.482.879-.178.112-.344.146-.482.263.184.463.953 1.142 1.404 1.142l.484-.396C81.504 7.697 80.857 7.518 80.738 7.291z"/><path d="M26.383 64.479c-.167-.023-.589.0-.589.0s-.354.211-.26.281c.094.07.164.398.246.422.083.024.412-.023.482.0.071.024.175.085.251.008.077-.077.218-.103.218-.337.0-.233-.094-.374-.094-.374S26.55 64.502 26.383 64.479z"/><path d="M78.787 15.626c.234-.093.924-1.358.916-1.88-.008-.416-.254-1.405-.65-1.53-.803.643-1.789 1.376-2.25 1.705C76.945 14.56 78.553 15.718 78.787 15.626z"/><path d="M52.842 29.4c.235.095.799.375 1.034.352.233-.023.798-.893.892-1.104.095-.211.259-.751.446-1.033.188-.282 1.502-1.573 1.667-1.832.164-.258.4-1.22.376-1.291.0.0-2.207 1.01-2.325 1.08-.117.071-.398.282-.385.47.012.188-.084.281-.226.191-.14-.091-.54-.097-.657.0-.117.097-.846.584-.846.725.0.14.142.469.118.681-.024.211-.446.329-.54.493-.094.164-.563.704-.563.704S52.607 29.306 52.842 29.4z"/><path d="M46.878 28.79c-.094.117-.845.815-.845.815s-.329 1.978-.117 2.002c.211.023.916-.165.916-.165s-.142.399-.211.469c-.071.07-.211.259-.423.329-.211.071-.493.422-.516.516-.023.095-.235.556-.235.556s.563.384.751.478c.188.094.963.375 1.057.352.094-.023.329.047.399-.093.07-.142 2.16-3.288 2.184-3.358.023-.07.517-1.291.517-1.291-.071-.118-1.245-.236-1.245-.236l-.99-.517c0 0-.231-.258-.489-.234C47.372 28.437 46.972 28.672 46.878 28.79z"/><path d="M47.912 28.061c.118.165 3.005.822 3.227.869.221.047.905-1.62.953-1.807.046-.187-.893-.399-1.104-.505-.211-.105-.728.27-.798.176-.071-.094.54-.353.681-.446l-2.734.384c0 0-.271.556-.154.448.117-.109.916-.198.869-.056C48.804 27.265 47.794 27.897 47.912 28.061z"/><path d="M46.268 28.718c.094-.023.61-.516.681-.586.07-.071-.282-.211-.47-.282h-.094L45 28.728l-.61.877h.657C45.047 29.605 46.174 28.742 46.268 28.718z"/><path d="M41.103 33.791c0 .211.962.446 1.01.681.046.235.681.422.775.235.094-.188.845-.681.962-.752.117-.07.963-.681 1.057-.798.094-.118.329-1.574.376-1.785.046-.211.07-.845.0-.893-.071-.046-.423-.235-.563-.292-.141-.058-.611.692-.611.692s-.822.939-.916.939c-.094.0-.305-.211-.305-.211s.493-.705.54-.775c.047-.07.353-.446.353-.517.0-.071-.023-.352-.211-.376.0.0-.399.4-.543.47-.143.07-.96.775-1.078.869s-.705.704-.892.754c-.188.049-.353.702-.329.842C40.75 33.016 41.103 33.58 41.103 33.791z"/><path d="M47.278 43.018c.165.141.798.751.939.775.141.023.517.493.587.657.07.165.305.705.399.846.094.14.798-.047 1.01.0.211.047 1.361-.211 1.62-.329s.681-.188.774-.493c.094-.304-.305-1.033-.258-1.502.047-.47-.044-1.362-.257-1.597-.213-.234-.729-.318-.94-.253-.212.065-.292.181-.24-.241.052-.421.16-.421.0-.798-.159-.375-.206-.328-.23-.539-.023-.212-.07-.118-.141-.423-.07-.305-.188-.328-.188-.563.0-.235.0-.235.0-.235s-1.245.798-1.526 1.01c-.282.212-1.86 1.242-1.869 1.549-.009.306-.597 1.058-.573 1.269C46.409 42.36 47.114 42.878 47.278 43.018z"/><path d="M50.142 37.5c.094.023.963-2.066 1.221-2.184.258-.117.986-.422 1.104-.47.117-.046 2.442-1.029 2.396-1.195-.048-.166-1.315-2.819-1.315-2.819s-.211.047-.328.07c-.118.023-.212-.211-.259-.375-.048-.165-1.737-1.126-1.737-1.126-.07.14-1.01 1.525-1.104 1.713-.094.188-1.08 1.973-1.174 2.067-.094.094-.892 1.174-.822 1.338C48.193 34.683 50.048 37.477 50.142 37.5z"/><path d="M44.39 40.88c.211.165.587.564.681.682.094.118.456.352.604.375s.571-.554.688-.817c.118-.264.394-.38.597-.803.202-.423.601-.682.941-.869.341-.188.834-.775.974-.986.142-.211.517-.352.635-.469.117-.118-.048-.117-.142-.493s-.563-.54-.798-.798-.442-.458-.667-.404c-.226.052.08-.112-.002-.394-.082-.282-.035-.094-.27-.493-.235-.399-.188-.306-.352-.493-.164-.188-.258-.235-.517-.235s-.305.0-.587-.093c-.282-.095-.155-.097-.5-.26-.345-.164-.885-.28-.885-.28-.07.046-.892.481-1.15.733-.258.252-.498.605-.613.675-.115.071-.374.686-.467.989s-.165.942-.305 1.268-.375.654-.399.89c-.023.235.305.633.446.868s.892.893 1.021.962c.129.071.177-.188.458-.304.282-.118.329.117.305.316C44.061 40.646 44.178 40.714 44.39 40.88z"/><path d="M58.242 30.997c.164-.047 1.34-1.031 1.387-1.243.047-.213-2.489-3.03-2.489-3.03-.165.07-1.128.986-1.151 1.056s-.634.845-.727 1.057c-.094.211-.986.963-.986 1.198s.072.963.271 1.245c.197.281 1.02 2.442 1.16 2.371.141-.07 1.738-2.16 1.832-2.371C57.632 31.066 58.078 31.043 58.242 30.997z"/><path d="M25.326 50.813c0 0-.167.118-.261.188-.094.071-.399.399-.493.399s-.845.0-.845.0h-.211l-.47.963v.54l.094.25c0 0 .282.385.353.408.07.022.516.328.516.328s.634-.423.751-.517c.117-.095.376-.329.399-.399.024-.07.423-.399.375-.622-.046-.223-.086-.558.004-.684.09-.127.09-.502.138-.667.047-.164.258-.422.258-.422L25.326 50.813z"/><path d="M64.137 32.922c-.189.023-1.127.047-1.15-.094-.023-.142-.164-.329-.281-.329-.119.0-1.473 1.597-1.465 1.527.008-.071.83-1.527.9-1.738.07-.211-1.695-2.101-1.695-2.101-.137-.083-.697.504-.816.551-.119.046-1.128.962-1.175 1.033-.048.07-.868.798-.892.869-.021.066-.682.646-.709.72-.053-.008-.23.008-.302.292-.093.375.845 1.9 1.058 1.947.211.047.693.422.887.376.192-.047.662-.587.686-.353.025.235-.094.799.117.822s.729-.117.986-.306c.26-.188 1.221-.61 1.48-.751.258-.141 2.793-1.895 2.84-2.074C64.652 33.133 64.324 32.898 64.137 32.922z"/><path d="M67.801 28.554c-.166-.094-.564-.916-.705-.939s-.705.0-.916-.117-1.104-.141-1.314-.141c-.213.0-1.1-.305-1.184-.118-.084.188-2.01 2.184-2.293 2.278-.281.094-.094.141.0.282.096.14 1.293.493 1.551.798s.775.633.939.751c.164.117 1.01.728 1.291.681.281-.048 3.311-2.372 3.311-2.372C68.504 29.399 67.965 28.648 67.801 28.554z"/><path d="M58.385 37.148c-.212.094-.705 1.315-.775 1.432-.07.118-.281.563-.352.893-.067.329-.377.422-.542.586-.164.165-.445.4-.562.611-.118.211-.259.634-.166.822.094.188.611.986.799 1.197.188.211.634 1.456.799 1.808.164.352.635.0.773.0s.377-.164.377-.164-.352-3.616-.375-3.898c-.024-.281.188-1.596.258-1.761.069-.164.773-1.339 1.01-1.526C59.629 37.148 58.596 37.054 58.385 37.148z"/><path d="M68.223 20.313c-.094-.212-.986-.165-.986-.165s-3.357 2.935-3.521 3.334c-.164.399.328 2.701.68 2.888.354.188 2.959.141 3.24.0s1.598-2.864 1.645-3.052-.752-1.479-.893-1.714S68.316 20.524 68.223 20.313z"/><path d="M55.164 48.748c.091-.423.098-.893.0-1.175-.097-.282-.302-.376-.302-.681.001-.305-.774-.329-1.128-.305.0.0-.094-.141-.258-.199s-.258-.036-.445-.13c-.189-.094-.142-.094-.213-.399-.07-.305-.07-.023-.352.023-.281.047-.281-.07-.423.0-.14.07-.352.141-.554.235-.201.093-.479.211-.808.271-.328.059-.61.059-.845-.13-.235-.188-.258.188-.47.322-.211.135-.469.688-.704.993-.235.306-.399.446-.544.658-.146.211.051.54.45.938.399.399.282.259.798.699.517.441.165.405.259.655.094.252.188.102.394.172.207.07.264.141.616.353.352.211.376.328.276.399-.099.069-.019.28.0.587.019.305.052.305.264.986.211.681.328.985.314 1.338s.39-.234.508-.423c.117-.188.305-.54.398-.682.094-.141.398-.469.563-.634.165-.164.071-.14.211-.445.142-.306-.022-.164.0-.424.024-.257.118-.28.423-.398.305-.117.235-.141.494-.281.26-.141.352-.376.443-.518.091-.14.307-.563.331-.686S55.073 49.17 55.164 48.748z"/><path d="M57.795 45.349c.002.017-.313.252-.531.487s-.289.563-.523.728c-.234.164-.281.586-.493.705-.211.118-.132.188-.289.657-.157.471-.157 1.315-.251 1.621-.094.305-.211.821-.4 1.104-.186.282-.82.938-.773 1.033.047.094.394.211.631.211s.537-.094.998-.329c.461-.234.99-.469 1.102-.751.109-.282.386-.728.531-1.079.144-.353.378-.793.519-1.113.141-.32.306-.649.563-1.025.258-.375.258-.797.377-1.208.117-.412.0-.693.0-.881.0-.188-.354-.128-.494-.158C58.619 45.319 57.795 45.349 57.795 45.349z"/><path d="M52.35 66.157c0 0-.285.083-.283.106.001.023-.258.141-.258.141l-.258.235c-.305.069-.473.422-.201.609s-.061.541-.023.635.723-.164.723-.164l.184-.211c0 0 .117-.051.188-.236.07-.188.141-.258.211-.258s.142.047.259.023-.142-.445-.259-.563C52.514 66.357 52.35 66.157 52.35 66.157z"/><path d="M50.518 61.826c-.188.046-.728.188-.728.188l-.423.188c0 0-.178.023-.171.212.007.188-.15.258-.15.258-.219.094-.093.306-.132.399-.04.095.07.282.132.375.063.095.274.282.321.329.047.047.212.023.329.0s.276-.093.432-.142c.155-.046.32-.069.414-.069.094.0.258.0.352-.023s.759-.235.759-.235c.298-.281.298-.442.228-.644-.071-.201-.53-1.141-.53-1.141C51.105 61.591 50.706 61.779 50.518 61.826z"/><path d="M69.139 20.43c0 .211.258 1.081.445 1.48.188.399.916.658 1.332.751s1.109-.165 1.439-.235c.328-.07.539-.188.539-.563.0-.375.541-1.291.516-1.573.0.0-2.652-.657-3.027-.648C70.006 19.651 69.139 20.219 69.139 20.43z"/><path d="M51.35 64.667c.131.117.295.376.295.446.0.069-.234.282-.07.329.165.046.869.0.869.0l.329.021-.517-1.501c-.352.212-.447.4-.517.494C51.668 64.55 51.219 64.55 51.35 64.667z"/><path d="M84.496 15.337c-.064.144.111.657.248.581C84.885 15.843 84.506 15.316 84.496 15.337z"/><path d="M89.742 5.845c-.162.304-.08 1.219-.309 1.537-.074.102-.496.427-.66.658l.221.308c.518.008 1.617-.891 1.537-1.405-.041-.276-.479-.242-.658-.308.203-.312 1.021-.643 1.098-1.097C90.689 5.374 90.09 5.629 89.742 5.845z"/><path d="M26.515 61.474c0 0-.933.211-.98.211-.046.0-.375.0-.375.0v.563l.375.306c0 0 .182.07.303.0s.426-.118.426-.118.128.024.251.0c.124-.022.382-.046.453-.046.071.0.0-.023.0-.142.0-.116.031-.219.031-.219L26.515 61.474z"/><path d="M74.49 18.692c.049-.281.0-3.061.0-3.061-.258.126-1.197.929-1.408.998s-2.301 2.252-2.16 2.369c.143.117 2.816.493 3.1.329C74.305 19.162 74.443 18.975 74.49 18.692z"/><path d="M91.992 4.863c-.689-.393-2.436.146-3.086.583-.291.194-.418 1.231-.758 1.166-.434-1.37.174-3.671-.176-4.195-.35-.524-1.266-.941-1.865-.292-.201.219.424 1.476.408 1.981-.018.513-.432 1.196-1.107 1.224-.748.03-1.045-.711-1.133-1.156-.076-.379.449-1.254.434-1.64-.02-.574-.76-1.148-1.65-.525C82.5 2.399 82.611 4.63 82.555 5.154c-.059.524.023 1.447-.35 1.631-.916-.182-.512-1.9-3.613-1.514-.42.949.098 2.644.475 3.267.322.535 1.389.294 1.738.811.076.109.164.443.061.524-6.703 5.273-24.145 14.646-33.558 15.323-1.59 1.429-2.578 2.763-3.779 3.804-7.315 6.336-12.583 4.892-17.895 7.674-2.257 1.866-4.988 7.236-6.525 9.729-1.632 2.648-3.441 9.251-6.117 10.836-.201.119-.71-.069-.933.0-.389.122-1.125.586-1.34.934-.426.688.008 3.253-.208 4.311-.087.43-.618 1.166-.783 1.572-.526 1.303.13 3.588-1.689 5.36.679.454 2.235-1.208 2.505-2.098.275-.904.264-3.292.641-3.729 1.075-1.241 2.47-4.103 2.447-5.593 1.321-2.366 4.756-6.164 5.984-8.561-.066 3.315 1.867 7.443 2.229 10.075.211 1.527.574 4.528.535 6.213-.002.089-.014.174-.01.254.042.873-2.588 3.123-2.401 4.395 1.737 11.787.705 14.511.141 20.852.188 1.313-.294 2.482-.235 2.863.054.346 2.442 2.208 3.944.846.093-.738-.598-1.84-.892-3.24.141-.751.02-1.9.0-2.396-.143-3.568.441-6.657.667-8.505.141 3.451.002 7.955.349 10.471.096.696.57 2.039.641 2.738.049.493-.097 1.486-.059 1.98.073.935.311 1.172 1.398 1.457.395.104 2.412.101 2.856-.285.376-.325-.506-1.104-.652-1.579-.273-.889-1.114-1.439-1.272-3.613-.584-3.549-1.345-10.649-1.041-14.233.067-.796.428-2.401.575-3.186.336-1.801.361-4.541.68-6.346 1.111-2.688 7.304-12.552 7.613-12.446 3.133 1.069 5.486 2.105 10.408.557.399 1.875 2.178 5.123 3.757 8.337.54 1.099-1.783 6.518-1.783 8.453.0 3.64 1.034 11.035-1.502 15.262-.258.43.223 1.066.223 1.497.155 1.068-.634 3.034-.646 4.326-.006.658 3.105 1.502 4.185.845.222-.688-.518-1.774-.656-2.259-.128-.45-.136-1.455-.055-2.249.457-.85.348-1.701.449-2.756-.308-3.255.955-10.347 2.055-13.149.182-1.939.309-3.226.323-3.101.48 3.946.396 11.955-.058 15.905-.104.905-.797 2.642-.816 3.554-.009.399.417 1.629.428 2.029.02.779-.956 3.447-.544 3.855 1.403 1.389 4.428 1.225 4.519.979.267-.719-.988-2.268-1.144-2.819-.218-.774-.419-1.496-.345-2.296.063-.69.742-1.989.699-2.681-.023-.354-.467-1.165-.467-1.34.0-.174.137-9.923 1.107-13.05.148-.48.84-1.27.989-1.748.185-.586.04-1.909-.011-2.521-.18-2.163-1.682-4.479-2.402-6.526.06-1.897 3.915-8.956 3.462-12.044 1.325-1.432 2.946-4.232 3.263-5.884.152-.792-.191-2.427-.408-3.205-.533-1.918-.596-3.983.469-5.612 1.189-1.627 15.34-11.99 20.797-18.216.363-.414 1.875-3.062 2.227-3.324.029 1.157.979 2.492 2.436 2.45.631-.018 1.568-.789 1.572-1.981.002-.393-.055-1.183.0-1.573.102-.735.609-2.141.816-2.855.336-1.172 1.197-1.231 1.455-3.321C90.672 8.179 92.123 7.969 91.992 4.863zM89.18 9.292c-.014.447-.074.781-.16 1.052-.176-.077-.498-.073-.738.071-.104.063-.273.111-.313.151.031.051.084.142.092.252.018.265.139.404.283.487.064.0.121-.007.178-.02-.078.118-.158.239-.236.375.0.0-.727 1.499-.861 1.976-.09.313-.553 1.639-.559 2.288.088.703.336 2.469-1.492 2.65-1.615.0-1.906-1.947-1.9-2.851-.336.279-2.088 2.755-2.729 3.896-.832.973-4.074 3.801-5.008 4.676-.625.583-2.25 1.939-4.229 3.567.961-.899 2.105-2.079 2.092-2.222-.025-.235-.916-.822-1.08-.963-.164-.14.164-1.033.0-1.197h-.164c0 0-2.113-.07-2.35.0-.234.071-.586 1.197-.727 1.41-.137.211.234.586.0.845-.232.258-.658.774-.588.962.07.188.799 1.972.811 2.205s.434.025.742.0c-3.963 3.251-8.713 7.11-9.873 8.205-2.223 2.099-1.439 4.571-1.189 6.402.059.423.555 1.827.506 2.252-.178 1.558-1.23 4.073-2.236 5.308-.305.371-.966.868-1.415 1.033-.593.22-1.966.069-2.489.423-.764.518-1.724 2.247-1.926 3.146-1.602 7.143 4.492 13.46 3.945 18.033-.067.558-.92 1.433-1.08 1.972-.959 3.252-1.436 10.265-.986 13.525.048.345-.826.744-1.174.751-.163.004-1.063-.485-1.027-.644.918-4.175 1.379-13.408.463-17.858-.622-3.03-3.716-8.501-4.883-11.364-.333-.816-.98-2.455-1.268-3.287-.537-1.556-2.173-4.193-2.328-6.009-.173-2.04-.222-5.873.056-8.154-1.837 2.143-.905 7.519-.891 9.519-1.991 1.535-6.415 2.237-8.343.512-2.344-2.099-3.458-4.659-4.027-6.434-.329-1.022-.763-2.634-1.184-4.208-.219 1.212 1.281 7.78 1.336 8.961.08 1.744-.586 7.598-1.526 9.429-.939 1.831-2.667 9.703-2.573 13.389-.225 1.014-1.89 5.933.146 17.343.496 2.646-1.397 1.698-1.837-.028-.658-2.586-.06-8.237-.417-10.882-.202-1.49-1.323-4.267-1.659-5.733-.264-1.151-1.156-3.423-1.08-4.602.063-.965 1.261-2.655 1.362-3.616.438-4.181-2.218-12.432-2.536-16.625-.094-1.237-.367-3.575.24-4.658.918-1.642 2.65-4.681 4.176-6.699.509-.672.776-.848 1.362-1.292.848-.508 1.285-.661 1.924-.844 8.467-2.425 11.841-3 16.092-7.075.831-.635 2.778-1.492 3.74-2.296 9.027-1.083 30.923-12.567 33.539-17.076-.063-1.202-1.467-1.189-1.721-1.373-.709-.513-.809-2.171-.668-2.838 2.561-.39 2.479 1.475 3.369 1.502.096.007.209.0.334-.016-.297.504-.59.794-.563.87.068.211 1.121 1.596 1.238 1.963.119.368.826.349 1.178.709.354.359.002 3.714 1.059 3.714.973.0.707-3.076.879-3.454.174-.379.623-.538.881-.805.26-.267 1.248-1.583 1.223-1.753-.033-.213-.234-.873-.348-1.235.068.006.131.009.188.006.445-.016.541-1.205.918-1.447.537-.343 1.752-.756 2.588-.538C91.598 8.647 89.217 8.153 89.18 9.292z"/><path d="M81.512 12.627c-.578.787-1.592 2.094-1.898 3.235.289.122.52.102.629.228.215.243.285.829.498 1.193.146.093.535.034.695-.032.52-.439 1.383-1.047 1.777-1.593-.15-.691-.416-2.27-.766-2.881C82.273 12.618 81.727 12.526 81.512 12.627z"/><path d="M74.75 19.843c-.307.141-1.129 2.7-1.012 2.935.119.235.801.47.916.61.117.142-.164.353-.186.517-.025.164.352.587.65.587.297.0 2.73-2.371 2.871-2.559.0.0-2.02-2.02-2.131-2.207S75.055 19.702 74.75 19.843z"/><path d="M80.432 18.599c-.258-.07-.658-.141-.68-.422-.025-.282-.424-1.033-.729-1.13.0.0-.658.966-.869.989-.211.024-1.057.869-1.057 1.198s1.432 1.95 1.785 1.973c.352.023 1.83-1.902 2.041-2.16C81.137 18.787 80.689 18.669 80.432 18.599z"/><path d="M86.15 15.801c.141.0.322-.406.273-.53C86.324 15.269 86.119 15.685 86.15 15.801z"/><path d="M28.211 48.7c-.07.048-.54.499-.61.519-.07.021-.657.516-.657.516l-.376.744c0 0 .094 1.109.0 1.298-.094.188-.446.893-.446.893s.493.117.61.164c.118.047.745.211.745.211l.382.307c0 0 .235.257.494.304.258.048.869.0.869.0s.258.113.329.021c.07-.092.235.214.235.214s.023-.916.0-1.127c-.024-.212-.05-.705.01-.774.06-.071-.013-.376.0-.517.013-.142.035-.517.024-.611-.011-.094.041-.06.003-.382-.038-.322-.147-.38-.163-.609s.062-.506.0-.65c-.063-.143.133-.228.0-.337s-.039-.354-.157-.361c-.117-.008-.67-.407-.67-.407S28.282 48.654 28.211 48.7z"/><path d="M29.104 54.329c-.142-.04-.517-.109-.705-.099-.188.011-.828-.528-.828-.528s-.158-.118-.252-.212c-.094-.094-.446-.14-.446-.14l-.634-.197c-.165.032-.541.102-.423.337.117.235.521.646.566.839.044.194.138.711.138.805.0.095.211.574.211.569.0-.006.178.124.347.223.169.101.639.241.804.312.164.07.657.212.657.212l.493-.282c0 0 .305-.446.305-.634.0-.188.023-.774.0-.869C29.315 54.57 29.245 54.371 29.104 54.329z"/><path d="M52.42 68.188c-.047.095.07.259.141.282.07.024.635.188.729.188s.587.0.587.0c.094-.212-.329-.894-.329-.894s-.305.188-.446.235C52.96 68.048 52.467 68.095 52.42 68.188z"/><path d="M41.853 51.196c-.187-.101.4-.054-.563-.147-.962-.094-1.053-.071-1.23-.142-.178-.07-.178.142-.507-.117-.329-.259-.611-.461-.681-.524-.071-.063-.188-.18-.329-.228-.141-.047-.226-.093-.406-.28-.18-.188-.214-.26-.456-.376-.241-.118-.359-.142-.359-.142h-.258c0 0-.188-.047-.258.0-.071.047-.274.0-.274.0-.36.188-.5.601-.923.629-.423.029-.775.146-.869.24-.094.093.0.0.0.328.0.329.067.329.198.869.13.54.014.47.154.682.141.211.282.305.353.328.06.02.535.272.683.352-.044-.027-.05-.047.405.118.65.235.509.423.861.352.352-.07.549-.14.744-.328s.318-.235.597-.259c.279-.023-.449-.047.279-.023s.919.023 1.047.023c.127.0-.295.048.127.0.423-.047.658-.117.658-.117s.188-.023.352-.165c.165-.14.376-.305.422-.375C41.666 51.824 42.04 51.298 41.853 51.196z"/><path d="M35.678 48.724c.165-.094.658 1.479.165-.094-.493-1.573-.61-1.534-.61-1.718.0-.185.587.389-.117-.415-.54-.615-.707-.758-.787-.802.124.047.338.126-.27-.118-.821-.329-.751-.389-.892-.441-.141-.052-.264-.17-.308-.311-.044-.141-.185-.493-.185-.493s-.094-.392-.188-.489-.27-.408-.27-.408.034-.48.0-.534c-.105-.166-.481-1.246-.481-1.246l-.07-.328c-.282.211-.282.234-.422.353-.142.116-.423.141-.564.258-.141.117-.235.328-.375.328-.141.0-.376.093-.564.117-.188.023.023.211.0.705-.023.493.165.916.235 1.126.07.211.0.587.094.798.094.211.0.165.282.587s.062.235.313.728c.25.493.133.203.297.583.165.379-.211-.066.305.732.517.798.658.868.728 1.127.07.258.023.328.118.634.094.305.234.586.282.681.047.094.164.281.234.376.071.093.822 1.056 1.01 1.15.188.094.376.0.376.0s.188.234.117-.259c-.071-.493-.305-.634-.305-.963.0-.328-.023-.469.0-.61.023-.141.0-.211.188-.234.188-.023.362-.188.362-.188s.094-.065.324-.139c.229-.072.348-.096.559-.214C35.467 48.888 35.514 48.818 35.678 48.724z"/><path d="M28.173 58.632c-.126.095-.267.329-.149.399.118.071-.019.869-.045.939-.025.07.427.234.427.234l.229-.399c0 0 .188-.362.118-.438-.07-.077.07-.313.0-.406s.081-.704.081-.704C28.752 58.279 28.298 58.539 28.173 58.632z"/><path d="M27.249 58.563c0 0-.646-.471-.734-.54-.087-.071-.393-.282-.393-.282s-.42.141-.328.282c.093.141.187.422.328.517.141.093.61.376.61.376s.342.164.347.188c.005.023-.011-.048-.005-.023C27.08 59.103 27.249 58.563 27.249 58.563z"/><path d="M28.752 57.251c0 0-.751.302-.916.371-.164.071-.399.304-.094.293.305-.011.493-.058.634-.104C28.517 57.764 28.752 57.251 28.752 57.251z"/><path d="M29.785 41.445c0 0 .54-.375.656-.446.115-.071.776-.235.776-.235s.141-.587.235-.803c.094-.215.094-1.122.094-1.311.0.0.0.0-.305-.071-.306-.07-.493-.117-.564-.117s-.353-.211-.353-.211l-.371-.258-.193-.094c0 0-.493.023-.704.094-.211.071-.563.328-.563.328s-.047.399-.024.576c.024.177.0.482.024.787.023.305-.024.164-.094.775-.071.611-.024.211.0.329.023.118.234-.023.422.024.188.046.164.258.188.398.023.142.282.211.446.399C29.621 41.796 29.785 41.445 29.785 41.445z"/><path d="M47.63 58.233c.47-.423.705-.563.751-.634.141-.211.165-.134.165-.349s1.127.63.0-.356c-1.127-.985-1.198-.985-1.268-1.104-.07-.117.165.048-.07-.117-.235-.164-.47-.188-.47-.306.0-.116-.211-.234-.211-.234-.117.282-.226.916-.277 1.127-.052.212-.216.541-.216.541.07.258.493.563.493.962.0.399.235.681.329.963.094.281-.047.846.117.563.165-.282.353-.658.399-.728C47.418 58.491 47.16 58.655 47.63 58.233z"/><path d="M51.316 60.323c-.094-.094-.141-.282-.188-.493-.047-.212-.047-.648-.07-.677-.023-.027-.071-.38-.071-.38s-.761.821-.968.915c-.206.095-.605.493-.652.588-.046.093-.108.211-.171.47-.063.258-.017.61.171.54.188-.071.389-.142.618-.212.228-.07.651-.211.651-.211s.235.0.376-.023c.141-.023.352-.023.305-.118C51.27 60.629 51.41 60.417 51.316 60.323z"/><path d="M49.367 59.367c.282-.171.437-.265.652-.452.216-.188.123-.142.216-.307.094-.164.094-.257.118-.329.07-.211-.118-.328-.118-.328-.046-.021-.123-.035-.216-.046-.328-.035-.857-.009-.973.046-.148.071-.336.095-.431.259-.094.164-.422.329-.422.329l-.123.211c0 0-.183.069-.37.258-.188.188-.204.376-.161.446s.09-.07.395.188c.306.259.657.752.728.775C48.734 60.441 49.085 59.537 49.367 59.367z"/><path d="M50.729 65.019c-.023-.116-.141-.211-.188-.306-.047-.096-.164-.069-.282-.14-.118-.071-.775.398-.775.398s-.024.188.0.282c.024.094.258.188.399.329.141.141.094.116.135.375.042.259.099.188.099.188s.117.023.251.0c.133-.023.477-.282.477-.282s.118-.188.0-.401C50.847 65.463 50.753 65.136 50.729 65.019z"/><path d="M41.853 47.855c-.21-.118-.28-.07-.445-.141-.165-.07-.352-.211-.446-.211-.094.0-.234-.093-.446-.234-.211-.141-.456-.258-.456-.258-.037-.117-.319-.235-.319-.235l-.423.137c-.14.074-.164.356-.398.544-.235.188-.352.586-.493.797-.141.211-.329.376-.282.518.047.141.211.375.282.422s1.385.601 1.479.676c.094.076.405.217.52.264s.443.142.701.117c.259-.023.399.004.399.004s.232.027.328.0-.025-.332.0-.592c.025-.257.142-.785.119-1.073C41.948 48.301 42.063 47.972 41.853 47.855z"/><path d="M50.307 51.894c-.047-.117-.658.0-.658.0-.234.47-.375.916-.469 1.057-.094.141-.306.517-.564.634-.258.118-.268.188-.545.423-.276.234-.324.314-.582.463-.259.147-.54.147-.353.266.188.116.54.353.658.445.117.095.385.259.568.399.184.141.356.305.552.493.195.188.477.376.453.492-.023.118-.939.165.282.471 1.222.305 1.386.329 1.386.329.164-.424.422.727.188-.563-.235-1.292-.258-1.573-.211-1.737.047-.165.281-.391.047-.595-.235-.205-.235-.205-.235-.205-.094-.117-.258-.188-.117-.258.141-.07.165-.258.117-.399-.047-.141-.258-.445-.258-.517.0-.069-.211-.353-.235-.445-.023-.095-.07-.259-.023-.329C50.354 52.246 50.354 52.012 50.307 51.894z"/><path d="M46.385 54.313c.14.188 1.057-1.198 1.151-1.339s.141-.211.235-.375c.094-.165.3-.399.3-.399s.381-.282.569-.471c.188-.188.352-.28.234-1.056-.117-.774-.14-.094-.315-.282-.175-.188-.295-.141-.439-.188-.146-.046-.137-.211-.254-.333-.118-.122-.188-.229-.736-.816-.237-.255-.298-.306-.31-.31-.007-.015-.028-.05-.082-.127-.235-.344.211-.291.392-.408.181-.118.101-.165.219-.283.117-.117.117-.164.188-.398.07-.235.235-.305.352-.47.117-.164.211-.258.231-.375.019-.118.286-.283.403-.682.118-.399-.07-.281-.258-.651-.188-.369-.281-.312-.517-.546-.234-.235-.282-.376-.517-.633-.234-.259-.563-.353-.751-.751-.188-.4-.47-.611-.779-.823.0.0-.254.376-.442.541C45.07 43.3 45.07 43.418 45 43.582c-.07.164-.07.328-.117.432-.047.105-.023.507-.094.813-.07.306-.118.422-.258.681-.141.258-.235.376-.423.728-.188.353-.211.447-.329.563-.117.118-.259.658-.165.798.094.141-.023.611.0.866.024.256.024.684.094 1.13.071.445.141.094.258.276.118.184.282.169.541.405.258.234.258.305.399.633.141.329.211.377.309.775s.113.563.02.892c-.094.329.165.681.466 1.269C46.002 54.43 46.245 54.125 46.385 54.313z"/><path d="M43.474 45.436c0 0 .258-.446.282-.54.023-.093.07-.281.117-.422.047-.141.188-.376.235-.563.047-.188.188-.328.306-.474.117-.144.211-.394.54-.7.329-.305.094-.305.0-.54-.056-.14-.188-.093-.375-.257-.188-.164-.188-.094-.376-.212-.188-.118-.235-.046-.551-.118-.318-.07-.294-.164-.481-.469-.188-.306-.165-.212-.494-.399-.328-.188-.446-.235-.54-.306-.094-.07-.423-.422-.54-.469-.118-.047-.094.353-.241.422-.147.071-.252.423-.346.587-.094.165-.963 1.479-1.268 1.619-.305.142-.493.541-.611.706-.117.164-.07.282.0.469.071.188.258.306.306.656.047.35.258.588.305 1.034.047.447.352.681.493.845.141.165.845.353 1.056.541.211.188.282-.071.399-.188.117-.118.094-.845.163-1.222.069-.375.119-.986.166-1.243.046-.259.305-.893.399-1.127.094-.235.563-.705.608-.798.044-.094.559-.328.559-.328s.148.375.0.563c-.148.188.101 1.197.0 1.409C43.483 44.121 43.568 45.108 43.474 45.436z"/><path d="M36.126 52.668c.019.011.045.024.045.024S36.154 52.683 36.126 52.668z"/></g></svg>