<svg fill="#000" xmlns="http://www.w3.org/2000/svg" xmlns:xlink="http://www.w3.org/1999/xlink" viewBox="0 0 100 100" enable-background="new 0 0 100 100"><g><g><path display="none" fill="none" d="M42.728 56.506c-.121-.646-.202-1.074-.281-1.34-.114-.387-.381-.963-.75-1.764-1.669-3.617-5.578-12.086-4.402-23.895.13-1.312 1.782-5.51 7.776-9.143l-.265-.505c-1.965.886-4.024 1.744-6.203 2.652-8.759 3.652-18.687 7.791-24.577 14.868-4.745 5.7-8.184 12.479-9.945 19.606-1.511 6.111-1.77 12.443-.731 17.828 1.028 5.332 4.49 10.846 8.502 10.846.303.0.609-.031.909-.094l.343-.072-.141-.322c-1.073-2.447-1.822-5.324-2.096-6.637-.694-3.33-.812-10.422-.229-13.797 1.14-6.602 3.263-9.941 12.826-12.291.201-.049.425-.074.668-.074 2.5.0 6.551 2.658 8.063 4.451 1.831 2.172 3.133 8.24 3.423 11.008.754 7.184 2.83 11.547 2.851 11.592l.121.248.253-.113c.034-.014 3.356-1.506 4.776-1.506.077.0.146.006.206.016.4.063.96.531 1.455.945.21.176.429.359.638.514l.08.061.1-.004c.86-.027 2.043-.344 3.188-.648.213-.059.424-.113.629-.168l.333-.086L50.1 78.369C44.692 66.986 43.316 59.643 42.728 56.506zM46.089 79.299c-.726-.539-1.556-1.408-2.219-1.514-1.324-.207-5.144 1.514-5.144 1.514s-2.066-4.279-2.823-11.496c-.305-2.9-1.608-8.934-3.489-11.162-1.695-2.01-6.463-5.098-9.017-4.471-9.426 2.316-11.834 5.547-13.039 12.52-.588 3.404-.474 10.521.231 13.904.31 1.482 1.082 4.336 2.114 6.693-4.247.887-8.018-5.061-9.072-10.525-1.925-9.979.326-24.839 10.614-37.199 7.265-8.728 20.596-12.902 30.679-17.442-6.181 3.747-7.784 8.072-7.913 9.359-1.429 14.359 4.532 23.644 5.162 25.767.443 1.494 1.141 9.506 7.668 23.246C48.575 78.822 47.076 79.268 46.089 79.299z"/><path display="none" fill="none" d="M91.746 36.77c-.146-.562-.623-1.327-1.176-2.213-.815-1.31-1.825-2.933-1.802-4.082.145-.214.306-.294.491-.385.171-.085.366-.181.522-.385l.273-.355-.438-.097c-.135-.03-.407-.141-.67-.249-.577-.235-1.182-.472-1.505-.42-.425.066-.582.531-.733.979-.128.378-.273.808-.534.882-.047.013-.095.019-.144.019-1.188.0-2.837-3.612-2.869-5.265-.021-1.018.434-2.342.735-3.218l.147-.438-.104-.123C77.289 13.565 70.919 9.747 64.466 9.747c-4.466.0-9.016 1.917-13.522 5.698l-.239.201.222.22c.548.542.464 4.419.403 7.248-.041 1.881-.079 3.658.018 4.777.158 1.826.919 4.61 1.358 6.106.027.093 2.806 9.323 4.123 10.088l.455.265-.027-.527c-.147-2.787.046-6.122.923-8.17-.531 3.776-.976 10.612 1.569 15.835 2.949 6.053 6.318 6.883 9.025 7.551.845.207 1.643.404 2.368.734.208.191.409.389.621.598 1.096 1.078 2.336 2.299 4.713 2.299.235.0.482-.012.734-.037 2.66-.25 3.555-1.715 4.421-3.131.055-.09.108-.18.164-.268.328-.207.761-.449 1.256-.729 2.738-1.543 7.839-4.416 9.675-9.273C93.471 47.265 92.799 40.805 91.746 36.77zM81.587 59.027c-.918 1.479-1.687 3.066-4.402 3.322-3.234.305-4.41-1.479-5.885-2.816-3.16-1.467-7.489-.359-11.294-8.17-2.854-5.855-1.892-13.854-1.318-17.09-1.69 1.895-1.869 6.661-1.715 9.565-1.077-.625-3.608-8.612-3.993-9.921-.487-1.66-1.198-4.328-1.348-6.051-.264-3.041.492-11.216-.505-12.202 11.002-9.23 21.62-7.02 32.598 5.942-.29.858-.871 2.411-.847 3.6.034 1.758 1.858 5.94 3.375 5.514.76-.214.688-1.768 1.235-1.854.415-.064 1.64.571 2.067.666-.272.355-.727.284-1.069.855-.119 1.997 2.625 5.078 2.984 6.455 1.057 4.05 1.691 10.433.989 12.292C90.321 54.789 83.746 57.654 81.587 59.027z"/><path display="none" fill="#000" d="M91.471 36.841c-.359-1.377-3.104-4.458-2.984-6.455.343-.572.797-.5 1.069-.855-.428-.095-1.652-.73-2.067-.666-.548.086-.476 1.64-1.235 1.854-1.517.426-3.341-3.755-3.375-5.514-.024-1.189.557-2.742.847-3.6C72.747 8.644 62.129 6.433 51.127 15.664c.997.986.241 9.161.505 12.202.149 1.723.86 4.391 1.348 6.051.385 1.31 2.916 9.297 3.993 9.921-.154-2.905.024-7.67 1.715-9.565-.573 3.236-1.535 11.235 1.318 17.09 3.805 7.811 8.134 6.703 11.294 8.17 1.475 1.338 2.65 3.121 5.885 2.816 2.716-.256 3.484-1.844 4.402-3.322 2.159-1.373 8.734-4.238 10.873-9.895C93.162 47.274 92.527 40.891 91.471 36.841z"/><path display="none" fill="#000" d="M37.012 29.479c.129-1.288 1.732-5.612 7.913-9.359-10.083 4.54-23.414 8.714-30.679 17.442C3.958 49.922 1.707 64.783 3.631 74.762c1.054 5.465 4.826 11.412 9.072 10.525-1.032-2.357-1.805-5.211-2.114-6.693-.705-3.383-.819-10.5-.231-13.904 1.205-6.973 3.613-10.203 13.039-12.52 2.553-.627 7.321 2.461 9.017 4.471 1.88 2.229 3.184 8.262 3.489 11.162.757 7.217 2.823 11.496 2.823 11.496s3.82-1.721 5.144-1.514c.663.105 1.494.975 2.219 1.514.987-.031 2.486-.477 3.753-.807-6.528-13.74-7.225-21.752-7.668-23.246C41.544 53.123 35.583 43.838 37.012 29.479z"/><path d="M93.56 67.025c-.374-.23-.794-.488-.901-.604l-.015-.035c-.923-2.34-.925-3.65-.93-6.264-.002-1.604-.006-3.598-.217-6.566.078-1.109.498-1.686.984-2.35 1.204-1.651 2.704-3.705-.028-14.637-.295-1.179-1.04-2.263-1.697-3.22-.664-.965-1.292-1.879-1.237-2.601 3.374-2.415 4.098-5.609 2.211-9.758-.526-1.16-1.854-1.91-3.382-1.91-1.008.0-2.523.321-4.119 1.814C78.796 14.599 73.091 9 63.592 9c-.355.0-.718.008-1.078.025-4.857.22-9.315 3.898-12.897 6.855-1.544 1.274-2.879 2.375-3.966 2.96-1.355.731-3.72 1.663-5.807 2.486-1.441.568-2.802 1.104-3.757 1.54l-1.168.532c-4.078 1.856-10.902 4.961-14.195 7.05-7 4.442-12.655 11.984-15.924 21.237-3.139 8.883-3.665 18.426-1.442 26.18.883 3.08 4.64 8.836 9.717 8.836.225.0.452-.014.677-.037.601 1.141 1.476 1.375 2.323 1.604.095.027.191.053.287.08l.054.01c1.091.094 2.375.141 3.816.141 8.051.0 20.67-1.541 26.624-3.832l.047-.025c.258-.158.441-.475.544-.939.207-.934.065-2.482-.488-3.617.82-.049 1.536-.172 2.287-.303.36-.063.733-.129 1.128-.188.833.482 1.169 1.578 1.524 2.738.315 1.025.641 2.09 1.355 2.779 2.076 2.006 7.637 3.816 9.604 4.346.919.246 3.125.434 5.134.434 1.907.0 4.342-.158 5.122-.906.625-.604.918-1.303.867-2.084-.099-1.502-1.473-3.244-4.082-5.18-1.212-1.834-1.108-5.822-1.054-7.973.006-.252.013-.482.017-.688.093.006.188.01.284.01 1.15.0 2.373-.465 3.021-.896 1.883-1.256 2.158-1.869 1.838-4.109-.417-2.926-3.729-3.283-5.507-3.477-.343-.037-.748-.08-.967-.133.688-1.635 1.007-3.232 1.199-4.508.47.125 1.049.365 1.568.58.329.137.642.268.91.363 2.084 3.57 4.929 8.42 9.177 12.365l.049.045.063.018c3.825 1.172 8.489 1.932 11.88 1.932 3.31.0 5.167-.684 5.522-2.029C98.698 70.18 95.354 68.127 93.56 67.025zM49.915 78.768c-.205.055-.416.109-.629.168-1.145.305-2.328.621-3.188.648l-.1.004-.08-.061c-.209-.154-.427-.338-.638-.514-.495-.414-1.055-.883-1.455-.945-.06-.01-.129-.016-.206-.016-1.42.0-4.742 1.492-4.776 1.506l-.253.113-.121-.248c-.021-.045-2.097-4.408-2.851-11.592-.29-2.768-1.592-8.836-3.423-11.008-1.511-1.793-5.563-4.451-8.063-4.451-.243.0-.467.025-.668.074-9.563 2.35-11.686 5.689-12.826 12.291-.583 3.375-.465 10.467.229 13.797.274 1.313 1.023 4.189 2.096 6.637l.141.322-.343.072c-.3.063-.606.094-.909.094-4.012.0-7.474-5.514-8.502-10.846-1.039-5.385-.78-11.717.731-17.828 1.761-7.127 5.2-13.906 9.945-19.606 5.89-7.077 15.818-11.216 24.577-14.868 2.179-.909 4.238-1.766 6.203-2.652l.265.505c-5.994 3.633-7.646 7.832-7.776 9.143-1.176 11.808 2.733 20.278 4.402 23.895.369.801.635 1.377.75 1.764.079.266.16.693.281 1.34.588 3.137 1.964 10.48 7.372 21.863l.148.313L49.915 78.768zM83.052 58.506c-.495.279-.928.521-1.256.729-.056.088-.109.178-.164.268-.866 1.416-1.761 2.881-4.421 3.131-.252.025-.499.037-.734.037-2.377.0-3.617-1.221-4.713-2.299-.212-.209-.413-.406-.621-.598-.726-.33-1.523-.527-2.368-.734-2.707-.668-6.076-1.498-9.025-7.551-2.545-5.224-2.101-12.059-1.569-15.835-.877 2.048-1.07 5.383-.923 8.17l.027.527-.455-.265c-1.317-.765-4.096-9.995-4.123-10.088-.439-1.497-1.2-4.281-1.358-6.106-.097-1.119-.059-2.896-.018-4.777.061-2.829.145-6.706-.403-7.248l-.222-.22.239-.201C55.45 11.664 60 9.747 64.466 9.747c6.453.0 12.823 3.819 19.477 11.674l.104.123-.147.438c-.302.876-.757 2.201-.735 3.218.032 1.652 1.682 5.265 2.869 5.265.049.0.097-.006.144-.019.261-.074.406-.503.534-.882.151-.449.309-.913.733-.979.323-.052.928.186 1.505.42.263.107.535.219.67.249l.438.097-.273.355c-.156.204-.352.299-.522.385-.186.091-.347.171-.491.385-.023 1.149.986 2.772 1.802 4.082.553.886 1.03 1.651 1.176 2.213 1.053 4.035 1.725 10.496.98 12.463C90.891 54.09 85.79 56.963 83.052 58.506z"/></g><g><path d="M61.885 34.21l-.097-.01c-1.138-.098-3.087-1.722-3.075-3.21.022-3.114 2.886-5.742 4.911-6.613 2.145-.923 3.813-.767 4.874.426 1.219 1.373 1.309 3.733 1.169 4.911l-.008.07-.04.058c-.782 1.134-2.27 1.767-3.992 2.499-1.15.489-2.455 1.043-3.659 1.816L61.885 34.21z"/></g><g><path d="M76.842 59.238l-.203-.217c-.184-.197-.284-.369-.367-.506-.039-.068-.073-.127-.107-.168-.126-.061-.372-.133-.634-.209-.976-.283-2.608-.758-2.884-2.135l-.104-.518.489.197c.552.221 1.657.344 3.115.344.249.0.438-.004.531-.006h.067c1.171.0 3.061-.338 3.815-.682l.392-.178.012.43c.034 1.275-1.621 1.953-2.611 2.359-.24.098-.542.221-.604.275-.081.076-.17.186-.273.313-.12.146-.257.314-.425.488L76.842 59.238z"/></g><g><path d="M76.747 61.354c-1.407.0-3.019-.395-3.322-1.506l-.181-.656.595.332c.496.277.716.322 1.169.322.15.0.32-.006.524-.014.314-.01.703-.021 1.215-.021 2.01.0 2.215-.008 2.892-.287l.576-.236-.198.592C79.693 60.848 78.126 61.354 76.747 61.354z"/></g><g><path d="M72.493 46.215c-.018-.914-.429-3.558-1.598-3.993l-.042-.016-.046-.002c-1.884-.071-4.414 3.193-4.854 4.316l-.015.039-.004.04c-.075.875.407 2.388 1.344 3.409.623.678 1.351 1.036 2.104 1.036h.021c1.159-.079 1.865-1.833 2.488-3.381.201-.5.391-.972.568-1.308l.034-.065L72.493 46.215zM71.553 46.497c-.322.05-.699.1-1.039.1v0c-.406.0-.703-.071-.908-.22-.522-.376-.589-1.328-.583-1.862l.004-.226.222-.049c.159-.035.574-.115.986-.115.403.0.688.076.874.233.431.367.578 1.128.683 1.814l.044.281L71.553 46.497z"/><path d="M70.234 44.695c-.229.0-.463.03-.639.059.022.571.153 1.024.344 1.161.07.052.228.112.574.112v0c.211.0.444-.023.669-.053-.072-.416-.2-.974-.445-1.182C70.712 44.77 70.597 44.695 70.234 44.695z"/></g><g><path d="M85.983 43.724l-.019-.041-.029-.034c-.573-.646-2.601-2.756-4.65-2.756h-.086l-.071.047c-.674.44-1.17 1.378-1.325 1.866-.251.788-.25 2.432.0 3.2l.022.064.047.049c.765.763 1.644 2.085 2.419 3.254.164.249.322.487.472.708l.076.113.135.012c.029.003.061.004.091.004v0c1.118.0 2.652-1.876 2.93-2.798C86.26 46.541 86.37 44.608 85.983 43.724zM82.741 45.1c-.268.296-.745.466-1.308.466v0c-.148.0-.301-.013-.451-.037l-.198-.032-.036-.197c-.144-.761.028-1.581.401-1.908.246-.215.734-.36 1.215-.36.227.0.437.032.624.093l.184.061.011.193C83.209 43.811 83.254 44.536 82.741 45.1z"/><path d="M82.364 43.603c-.368.0-.716.112-.84.22-.151.133-.299.618-.245 1.167.441.031.866-.081 1.041-.274.273-.302.313-.696.304-1.093C82.542 43.61 82.455 43.603 82.364 43.603z"/></g></g></svg>