<svg  fill="#000" xmlns="http://www.w3.org/2000/svg" xmlns:xlink="http://www.w3.org/1999/xlink" viewBox="0 0 100 100" enable-background="new 0 0 100 100"><g><path fill="#000" d="M97.113 76.28c-.11-.193-.196-.347-.078-.567.338-.636.139-1.085-.162-1.769-.104-.235-.223-.503-.335-.816l-.046-.13c-.284-.796-.284-.796-.738-1.511-.142-.222-.334-.525-.593-.942-.548-.885-.945-1.925-1.331-2.93-.393-1.025-.763-1.994-1.245-2.651-.58-.789-.88-1.648-1.1-2.275-.14-.399-.241-.687-.362-.817-.286-.306-.606-.346-.855-.346-.055.0-.107.002-.157.004-.043.002-.084.004-.123.004-.138.0-.201-.022-.231-.082-.169-.332-.583-1.417-1.154-2.919-1.908-5.019-5.463-14.358-7.611-15.891-1.046-.744-3.085-2.907-3.259-4.387-.164-1.402 5.645-10.324 7.4-11.363.834-.495 1.493-.886 3.763-.886.804.0 1.774.049 2.965.15.181.016.357.023.526.023 1.095.0 1.733-.313 1.88-.622.076-.162.079-.303.007-.417-.239-.38-1.276-.385-2.19-.389-.48-.002-.935-.004-1.196-.061-1.263-.275-2.433-.415-3.476-.415-1.15.0-2.142.172-2.944.511-3.574 1.508-8.273 7.819-10.28 10.516-.51.685-.879 1.181-.97 1.246-.053.037-.15.058-.286.058-.229.0-.538-.05-.896-.108-.445-.071-.948-.152-1.408-.152-.343.0-.618.045-.84.137-.007.004-.02.006-.043.006-.199.0-.751-.234-1.584-.591-2.32-.989-7.149-3.048-14.135-4.162-3.213-.513-6.051-2.479-7.929-3.78-1.011-.699-1.741-1.205-2.197-1.283-1.151-.196-2.502-1.083-3.587-1.795-.604-.396-1.125-.738-1.469-.863-.244-.089-.572-.264-.989-.484-1.214-.646-3.049-1.619-5.573-2.019-2.221-.351-3.509-.48-4.752-.48-.484.0-.97.02-1.576.063-.365.026-.792.045-1.243.064-1.484.063-3.167.135-3.905.527-.052.027-.122.043-.209.043-.848.0-3.042-1.338-3.532-2.039-.335-.48-.816-.767-1.287-.767-.339.0-.643.155-.857.438-.465.614-.493 1.766-.08 3.242-.209.209-.385.407-.541.582-.34.381-.587.657-.885.743-.246.07-.488.106-.719.106-.885.0-1.51-.521-1.966-.902-.099-.082-.193-.161-.281-.227-.037-.028-.072-.041-.106-.041-.029.0-.071.011-.106.06-.12.167-.087.67.074 1.146.126.375.328.764.506 1.106.188.361.35.672.383.88.071.443-.444 1.028-.942 1.594C9.85 28.11 9.43 28.588 9.3 29.013c-.121.397-.032.854.055 1.296.069.352.134.685.081.945-.088.432-.387 1.157-.703 1.926-.541 1.313-1.152 2.801-.925 3.334.365.857.87.966 1.141 1.024.084.019.156.033.173.062.007.011.007.03.0.056-.073.268.098.766.397 1.157.229.301.737.805 1.552.805.163.0.297.185.467.417.323.443.768 1.053 1.824 1.025 1.065-.026 1.716-.754 2.24-1.337.333-.372.622-.693.914-.693.258.0.521.03.775.061.248.027.503.058.747.058.284.0.514-.038.724-.122.317-.124.422-.402.523-.672.075-.2.147-.391.301-.505.269.612.329 1.553-.014 1.969-.255.309-1.78.524-2.895.682-.236.033-.458.064-.651.094-.922.143-3.857 1.202-4.419 1.444-.163.068-.466.159-.819.263-.977.288-2.316.685-2.636 1.196-.111.177-.343.263-.708.263-.329.0-.716-.067-1.092-.133-.347-.06-.674-.117-.931-.117-.101.0-.184.009-.254.026-.388.098-.493.281-.569.417-.063.111-.105.186-.277.186-.485.0-.793.262-.92.507-.169.325-.153.587-.136.866.012.204.025.416-.038.669-.035.142-.104.327-.185.542-.256.68-.606 1.611-.086 1.91.355.205.623.48.859.724.377.389.7.722 1.239.668.089-.009.177-.014.261-.014.524.0.847.169 1.133.318.203.104.378.196.58.196.074.0.147-.012.222-.037.355-.118.616-.254.825-.362.252-.131.435-.226.642-.226.131.0.267.037.427.119.209.107.396.308.594.521.323.344.689.735 1.276.896.141.037.285.057.44.057.348.0.693-.097 1.026-.189.322-.089.655-.183.98-.183.111.0.214.011.316.033.129.026.244.039.349.039.279.0.448-.094.626-.192.217-.12.441-.246.907-.246.102.0.211.006.328.019.224.026.755-.457 1.317-.971.511-.466 1.039-.949 1.279-.988.012-.002.028-.004.048-.004.351.0 1.762.257 3.397.553 2.288.414 4.895.886 5.579.837.703-.049 1.628-1.134 2.444-2.09.594-.696 1.156-1.355 1.493-1.442.344-.088 2.073-.229 3.473-.229.823.0 1.395.05 1.651.143.36.13 1.877.794 3.797 1.635 3.872 1.696 9.174 4.018 10.281 4.288.975.238 2.191.353 3.718.353 1.402.0 2.877-.095 4.302-.187 1.323-.085 2.572-.165 3.677-.165 1.113.0 1.947.086 2.548.263 3.928 1.157 7.049 5.891 9.329 9.346.532.809 1.036 1.571 1.479 2.179.515.705 1.166 1.311 1.795 1.898.809.753 1.646 1.533 2.221 2.54 1.208 2.113 2.574 4.759 2.411 6.462-.024.264-.052.522-.077.773-.156 1.509-.28 2.699.141 3.046.114.095.229.124.339.151.175.044.341.084.506.404.058.109.105.229.15.344.121.303.234.588.502.655.061.014.116.027.173.04.263.059.511.114 1.002.396.092.052.188.078.287.078.451.0.882-.546 1.228-.983.065-.082.128-.161.186-.231.238-.286.225-.602.212-.857-.011-.224-.019-.401.125-.508.167-.127.228-.4.25-.608.042-.408-.033-.868-.171-1.025-.396-.452-.619-1.014-.783-1.423-.078-.197-.146-.367-.214-.48-.579-.951-.75-2.475-.877-3.586-.088-.777-.139-1.185-.267-1.271-.375-.255-.969-2.403-1.359-3.825-.283-1.023-.435-1.56-.517-1.633-.116-.102-.263-.2-.43-.315-.33-.226-.727-.498-1.078-.92-.005-.011-.013-.021-.021-.028-.005-.007-.012-.011-.017-.016-.279-.348-.524-.793-.682-1.392l-.111-.432c-.367-1.399-.822-3.137-.948-4.342.969.553 6.314 7.104 6.904 7.983.19.284.446.475.77.715.761.566 1.909 1.421 3.262 4.479.487 1.099.797 2.607 1.07 3.938.308 1.492.573 2.78 1.009 3.215.394.393.681.438.91.475.146.024.26.043.365.145.583.56.875.828 1.157.828.11.0.218-.045.328-.137.154-.129.338-.228.531-.33.423-.227.901-.483 1.144-1.15C97.421 76.824 97.25 76.522 97.113 76.28zM95.423 78.338c-.054.023-.111.036-.175.036-.362.0-.771-.401-1.012-.746-.144-.205-.361-.296-.591-.394-.228-.097-.462-.197-.636-.415-.146-.182-.398-1.332-.718-2.786-.28-1.276-.604-2.749-.921-3.86.1-.068.2-.19.288-.351.202-.367.29-.494.778-1.196l.023-.033c.375-.541.388-.543.597-.576.07-.011.165-.024.297-.062.017-.003.032-.009.047-.014.046.104.093.213.141.322.558 1.289 1.189 2.749 2.119 4.065.272.386 1.331 2.49.73 3.353-.099.143.039.47.171.786.162.384.328.781.157 1.001C96.427 77.846 95.989 78.089 95.423 78.338zM83.294 56.181c.319-.327.594-.611.744-1.162.344-1.273.389-2.468.143-3.759-.201-1.052-1.51-3.348-1.676-3.348l-.027.002-.014.018c-.017.025-.014.059.014.136.601 1.744.69 4.012.198 5.056-.266.564-.442 1.528-.584 2.302-.114.614-.21 1.145-.317 1.313-.091.145-.324.257-.551.362-.174.084-.343.165-.446.261-.198-.205-.393-.401-.576-.586.435-.102.895-.482 1.091-1.313.229-.976.362-1.847.362-3.413.0-.224.002-.429.004-.619.013-1.111.019-1.723-.425-3.037-.21-.62-.32-1.135-.415-1.589-.141-.654-.251-1.172-.594-1.632-.107-.144-.21-.304-.318-.475-.225-.354-.457-.721-.753-.939-.1-.073-.16-.074-.188-.027-.05.081.053.31.3.791.051.099.095.185.12.24.454.997.939 2.518.939 3.796.0.447.014.88.027 1.298.025.792.049 1.54-.027 2.233-.054.48-.159.834-.252 1.144-.113.379-.212.707-.192 1.161.01.258.061.516.11.766.109.55.195.983-.196 1.125-.022.009-.043.018-.063.026-.438-.4-1.71-1.277-3.218-2.24.025-.196.032-.431.023-.698-.026-.778.073-1.335.172-1.874.114-.627.223-1.218.092-2.055-.099-.633-.167-.856-.223-1.037-.076-.249-.126-.413-.195-1.547-.091-1.505-1.232-3.544-2.148-5.182-.28-.501-.545-.975-.748-1.375-.823-1.635-.909-1.635-.961-1.635-.019.0-.035.01-.047.025-.093.138.458 1.638 1.653 4.742.208.54.404 1.049.549 1.433.572 1.521.628 3.059.678 4.415.009.283.02.553.033.812.049.873.185 1.695.295 2.355.078.472.146.884.164 1.201-.81-.51-1.659-1.025-2.464-1.493.057-.139.101-.302.129-.498.181-1.233.052-3.872-.237-4.868-.159-.548-.333-.997-.518-1.472-.159-.404-.321-.824-.484-1.333-.081-.255-.141-.46-.193-.642-.17-.6-.255-.9-.808-1.664-.325-.449-.621-.779-.885-1.073-.325-.362-.606-.676-.868-1.12-.244-.412-.597-.862-.936-1.298-.335-.429-.681-.871-.91-1.263-.203-.347-.39-.653-.581-.911.009.003.017.007.024.01 1.298.484 2.154.805 2.542.805.053.0.096-.006.13-.019.112-.039.254-.058.433-.058.333.0.743.066 1.179.137.347.056.702.114 1.033.14.095.113.289.269.591.504.428.337 1.015.796 1.415 1.29 1.4 1.73 1.932 3.219 2.249 4.108.12.336.207.581.302.729.432.674.692 1.153.817 1.383.102.188.102.188.134.188h.023l.012-.018c.019-.023.019-.023-.05-.243-.069-.219-.197-.628-.358-1.242-.336-1.273-.677-1.829-1.036-2.418-.217-.354-.44-.718-.665-1.258-.479-1.145-1.808-2.557-2.596-3.064.191-.048.338-.128.439-.242.036-.039.113-.147.228-.31.206.048.621.066 1.333.089.881.028 1.977.063 2.231.25.015.011.031.02.046.028-.321.73-.492 1.336-.434 1.716.132.86 1.027 1.86 2.16 3.126.665.741 1.417 1.58 2.121 2.519 1.724 2.294 3.309 5.543 5.681 11.839-.025.004-.045.015-.056.029-.005.008-.009.018-.009.025-.043.028-.214.089-.38.147-.433.152-1.086.384-1.463.686-.32.256-.709.871-1.12 1.522-.316.501-.643 1.016-.96 1.409-.368-.4-.761-.823-1.154-1.244C82.343 57.157 82.868 56.618 83.294 56.181zM83.601 67.904c-.006-.002-.011-.004-.017-.004-.029.0-.104.0-.484.461-.119.145-.217.252-.305.347-.215.233-.344.375-.493.772-.032.087-.114.129-.251.129-.233.0-.573-.126-.846-.227-.205-.077-.369-.138-.46-.138-.007.0-.014.001-.019.002-.584-1.03-1.132-1.82-1.369-2.055-.188-.188-.368-.371-.543-.552.002.001.004.002.005.003.373.22.79.356 1.088.356.28.0.442-.123.442-.338.0-.901.175-1.258.698-1.872.171-.2.28-.313.351-.39.014-.012.024-.023.034-.035.412.69.866 1.288 1.351 1.538C82.901 65.966 83.138 66.594 83.601 67.904zM86.831 77.81c-.004.182-.068.335-.18.431-.26.225-.223.463-.186.713.037.241.075.491-.13.745-.126.154-.219.29-.3.409-.201.292-.334.487-.714.616-.05.017-.1.026-.149.026-.211.0-.369-.161-.521-.314-.147-.149-.288-.292-.469-.292-.029.0-.059.004-.089.012-.024.006-.048.009-.07.009-.211.0-.303-.248-.409-.534-.141-.386-.317-.864-.835-.937-.382-.056-.321-.556-.222-1.385.09-.736.211-1.745.103-2.963-.114-1.264-.754-2.842-1.451-4.202.008.0.016.0.024.0.149.0.34-.012.542-.024.162-.011.33-.021.483-.025.319-.011.37-.158.428-.332.049-.143.109-.322.344-.505.289-.228.3-.265.293-.373-.005-.07-.011-.176.146-.476.112-.214.157-.327.172-.394.01.028.019.055.029.081.344.979.701 1.99.88 2.278.05.078.095.393.185 1.037.211 1.517.604 4.341 1.496 5.208C86.624 77.001 86.843 77.435 86.831 77.81zM80.424 63.741c-.251.46-.381.625-.665.987-.053.066-.111.141-.176.224-.219.281-.863.372-1.335.439-.231.032-.393.057-.493.091-1.017-1.169-1.815-2.267-2.618-3.427.189-.096.45-.19.804-.206.104-.005.208-.008.31-.008.546.0.996.067 1.358.123.258.037.482.071.674.071.407.0 1.081-.437 1.413-.856.066.098.133.195.198.297.199.308.421.752.678 1.266.097.191.195.39.299.592C80.696 63.413 80.527 63.55 80.424 63.741zM67.24 49.801c.004-.01.006-.019.012-.028.146-.295.524-.461.926-.635.609-.267 1.298-.566 1.343-1.403.047-.908-.149-1.14-.421-1.46-.141-.164-.297-.349-.457-.668-.249-.498-.2-.64-.132-.838.061-.175.136-.394.053-.896-.174-1.067-.479-1.885-.944-2.935-.306-.687-1.609-2.732-2.193-3.198-.217-.174-.261-.188-.291-.188-.021.0-.037.011-.047.026-.024.048.015.114.253.46.11.161.247.362.387.582.469.744.511.864.844 1.807l.024.07c.224.634.233.791.257 1.171.012.214.03.509.096 1.001.034.272.062.466.081.614.063.474.063.474.11 1.075.011.145.025.321.043.548.113 1.412.113 1.412-.622 3.093l-.081.187c-.301.689-.434 1.153-.465 1.49-.212-.012-.425-.018-.635-.018-.153.0-.305.002-.453.01-.096.004-.19.01-.285.016-.005-.255-.006-.496.268-.754.596-.562.946-1.954.887-2.852-.035-.521-.28-.536-.459-.546-.069-.004-.13-.007-.155-.04-.025-.031-.03-.097-.015-.191.105-.644-.356-3.866-1.442-5.373-.548-.761-1.112-1.394-1.71-2.063-.558-.624-1.135-1.271-1.733-2.064-.066-.088-.116-.127-.162-.127-.025.0-.047.011-.063.031-.033.042-.121.151.188 1.512.151.664.409 1.117.656 1.557.154.275.315.56.45.894.369.913.901 2.291 1.296 3.418.376 1.075.329 1.91.288 2.648-.03.527-.058 1.026.07 1.54.412 1.645.147 2.241-.135 2.607-.501.076-1.008.163-1.527.253-.554.095-1.131.194-1.742.286.049-.067.097-.135.143-.2.504-.716.565-.949.701-1.462.03-.112.063-.236.104-.384.188-.656.222-1.607.246-2.303.007-.18.013-.339.021-.466.002-.046-.007-.08-.026-.102-.017-.017-.035-.024-.06-.024-.229.0-.973 1.01-1.215 1.527-.334.71-1.178 2.419-1.806 2.961-.333.285-.564.536-.703.755-.563.045-1.16.076-1.793.09.243-.204.471-.459.675-.791.389-.631.985-1.358 1.509-2.002.416-.508.775-.947.908-1.194.125-.231.272-.351.416-.467.189-.153.369-.299.472-.678.179-.654.534-2.54.354-3.321-.099-.428-.291-.609-.476-.783-.157-.149-.306-.29-.41-.576-.092-.252-.092-.357-.092-.459.0-.163.0-.304-.323-.909-.202-.38-.418-.808-.626-1.224-.343-.681-.696-1.384-1.024-1.939-.232-.392-.351-.687-.475-.998-.162-.406-.333-.827-.765-1.513-.319-.506-.492-.953-.631-1.312-.044-.111-.084-.214-.124-.308.195.04.39.081.58.122-.001.005-.002.011-.002.018-.001.089.107.147.302.252.189.103.45.244.73.479.7.586.848.824 1.208 1.487.305.564 1.377 2.214 2.117 2.526.042.02.078.027.106.027.052.0.072-.028.081-.045.078-.159-.403-.803-1.203-1.844-.356-.464-.693-.901-.849-1.15-.097-.157-.183-.301-.262-.433-.225-.371-.402-.666-.642-.963 3.792.894 6.721 1.882 8.867 2.662.349.372.556.732.771 1.107.225.389.455.79.862 1.253.868.99 1.603 2.33 1.825 3.337.156.696.593 1.277 1.016 1.84.23.303.447.591.61.887.224.4.352.816.476 1.219.129.423.251.823.471 1.105.263.337.329.548.441.9.061.189.135.425.261.74.07.177.14.336.208.491.266.611.458 1.055.32 1.632-.072.298-.05.586-.029.864.024.311.049.628-.052.978-.495-.28-.963-.538-1.384-.755C70.442 50.562 68.895 50.044 67.24 49.801zM51.759 50.302c.386-.157.784-.319 1.18-.419 1.146-.288 1.072-1.061 1.013-1.683-.022-.231-.043-.416-.06-.566-.079-.68-.079-.68.282-1.322.037-.067.079-.142.124-.225.337-.604.13-1.782-.109-2.189-.055-.093-.107-.138-.164-.138-.114.0-.147.19-.158.252-.142.819-.826 1.748-1.402 2.266-.362.326-.633.914-.871 1.434-.157.344-.307.668-.462.88-.272.366-.592.437-1.087.437-.08.0-.162-.002-.249-.004-.094-.001-.191-.003-.293-.003-.232.0-.542.009-.9.072-.306.055-.537.119-.701.192-1.615-.838-3.067-2.032-4.047-3.612-.324-.521-.62-1.139-.894-1.816.0.0.0.0.0.0v0c.242.0.538-.185.96-.598.433-.424.856-.733 1.231-1.006.605-.44 1.083-.789 1.269-1.383.237-.762.869-2.782.642-3.885-.129-.624.032-1.783.174-2.805.092-.667.18-1.295.18-1.713.0-.766.026-1.641.047-2.343.008-.248.014-.468.019-.649.661.418 1.374.841 2.108 1.225.006.035.031.078.08.133 1.226 1.38 1.426 1.82 1.426 3.147v.386c-.003 1.305-.006 2.928.212 3.525.177.487.229 1.277.031 1.565-.045.064-.099.098-.162.098-.461.009-.932.133-.932.993.0.157.003.305.007.444.014.636.025 1.094-.291 1.712-.377.736-.587 1.792-.656 2.14l-.009.044c-.009.046-.035.144-.068.27-.173.65-.53 2.005-.288 2.359.038.055.088.086.15.094.007.0.014.0.021.0.603.0 2.538-2.875 2.832-3.574.155-.369.087-.767.027-1.116-.078-.449-.144-.837.229-1.086.919-.612.624-2.861.512-3.536-.093-.56-.232-1.172-.366-1.764-.205-.904-.398-1.759-.398-2.292.0-.116.002-.224.004-.326.013-.67.021-1.112-.614-2.023-.16-.23-.346-.434-.536-.608.795.348 1.595.623 2.363.771-.011.015-.017.025-.018.028l-.009.018.007.018c.133.331.493 1.021.95 1.895 1.03 1.969 2.44 4.665 2.48 5.642.057 1.354.169 2.389.354 3.254.044.207.1.373.148.521.149.449.247.746-.145 1.574-.521 1.101-.763 1.698-1.181 2.832-.148.399-.213.694-.267.931-.1.445-.16.712-.609 1.204-.242.267-.638.57-1.01.844-.019.0-.035.0-.054-.001-.81-.016-1.675-.121-2.552-.314C51.43 50.435 51.595 50.367 51.759 50.302zM40.076 33.85l.041.16c.346 1.339 1.251 10.456.25 11.294-.46.386-2.097.572-5.003.572-1.386.0-2.906-.042-4.384-.102-.019-.12-.075-.202-.133-.287-.136-.199-.291-.424.017-1.276.103-.284-.033-1.873-.221-2.141-.024-.033-.052-.052-.081-.052-.068.0-.141.07-.209.581-.233 1.748-.509 2.116-.7 2.116-.131.0-.357-.175-.688-1.006-.334-.843-.288-1.612-.249-2.232.031-.51.055-.912-.136-1.187-.232-.33-.322-.398-.388-.398-.023.0-.045.011-.061.028-.066.078-.034.311.044.829.103.674.242 1.596.116 2.379-.181 1.117.324 1.523.693 1.819.27.217.448.359.261.688-.011.021-.021.04-.03.062-.856-.041-1.67-.083-2.402-.121-1.641-.085-2.859-.146-3.09-.114-.301.041-.359.187-.44.388-.153.381-.363.903-2.414.935-.552.009-2.043 1.045-2.68 1.487-.088.061-.161.111-.217.149-.139.094-.365.318-.625.58-.545.544-1.166 1.163-1.505 1.127-.036-.004-.074-.006-.111-.006-.277.0-.552.104-.844.212-.343.127-.697.259-1.117.259-.236.0-.466-.042-.702-.128-.083-.031-.162-.046-.242-.046-.175.0-.33.075-.494.153-.198.096-.423.204-.726.204v0c-.049.0-.1-.002-.15-.008-.709-.08-.993-.414-1.422-.923-.043-.051-.087-.104-.134-.157-.279-.326-.486-.336-.685-.348-.157-.008-.317-.017-.493-.173-.304-.271-.458-.542-.47-.823-.015-.327.158-.671.544-1.081.322-.343.349-.6.374-.849.028-.271.054-.529.435-.852.308-.26.688-.346 1.128-.443.424-.096.903-.202 1.423-.494.884-.494 1.756-1.332 2.393-1.945.126-.12.245-.234.355-.338.329-.309 1.542-.803 2.828-1.325 1.407-.572 2.863-1.164 3.279-1.558.506-.48 3.108-1.437 5.405-2.28.947-.348 1.857-.683 2.515-.946.009.008.022.013.041.013.0.0.0.0.0.0.026.0.099-.002.515-.247.051-.023.1-.046.143-.066.115-.057.199-.113.251-.173 1.034-.612 1.683-.753 2.311-.889.499-.106.97-.208 1.586-.544 1.294-.706 2.802-2.014 3.053-3.219.043-.207.075-.307.079-.317l.008-.023-.025-.036-.054.003-.01.028c-.038.109-.943 2.55-5.18 3.718-.508.14-1.214.533-1.783.911-.136-.185-.419-.399-.752-.651-.098-.073-.199-.15-.302-.23.29-.434.605-1.036.775-1.373.708-1.407 1.957-2.695 2.868-3.636.485-.501.868-.896 1.051-1.182.089-.14.097-.188.079-.22-.01-.02-.029-.03-.052-.03-.198.0-1.545 1.333-2.629 2.53-.686.758-2.258 2.556-2.597 3.495-.256-.227-.504-.479-.716-.763.223-.92.636-1.921 1.759-2.987.293-.278.479-.674.735-1.221.231-.495.52-1.111.999-1.876.745-1.19.729-1.22.704-1.265l-.02-.025h-.025c-.038.0-.081.036-.232.18-.136.127-.362.342-.456.342-.011.0-.015-.004-.017-.008-.012-.016-.035-.077.024-.307.322-1.249.732-1.872 1.063-2.374.12-.183.234-.355.325-.534.072-.142.066-.188.049-.216-.012-.02-.033-.03-.057-.03-.208.0-1.227 1.179-1.463 2.318l-.004.021c-.293 1.41-.382 1.836-.732 2.698-.3.737-.858 1.591-1.659 2.538-.048.058-.099.116-.152.178-.402.471-.935 1.09-1.26 1.822-.073-.189-.128-.39-.157-.601-.054-.392-.098-.776-.139-1.151.083-.209.182-.399.283-.594.245-.472.498-.957.593-1.786.136-1.18-.004-1.845-.152-2.55-.046-.219-.094-.445-.136-.694-.187-1.128-.739-1.401-1.242-1.569-.45-.149-2.404-.446-2.563-.446-.046.0-.052.031-.053.041-.005.045.021.049.186.083.524.104 2.111.521 2.587.938.451.395.641 1.565.406 2.505-.04.156-.072.31-.105.47-.052.245-.107.504-.193.81-.091-.297-.205-.474-.358-.474-.045.0-.095.015-.148.044-1.285.701-1.433 1.556-1.986 4.736-.044.251-.09.516-.139.798-.589 3.35-3.168 3.933-4.554 4.246-.226.05-.421.096-.574.143-.179.057-.369.114-.563.172-.874.265-1.866.563-2.25.887-.161.136-.332.349-.513.574-.487.608-1.093 1.365-2.061 1.405-.843.034-1.283-.576-1.6-1.02-.151-.212-.283-.395-.394-.395-.833.0-1.447-.373-1.686-1.024-.023-.063-.022-.112.003-.149.025-.036.071-.054.138-.054.061.0.131.014.199.026.056.011.107.02.142.02.005.0.008.0.011.0-.003-.008-.01-.021-.024-.041-.223-.312-.329-1.3.019-2.082.16-.361.124-.464.108-.488-.006-.01-.018-.021-.047-.021-.051.0-.258.042-.783.582-.436.449-.766.678-.98.678-.107.0-.185-.056-.224-.162-.155-.425.376-1.56.939-2.762.44-.94.895-1.912.913-2.376.021-.533-.065-.872-.143-1.17-.07-.274-.13-.51-.089-.824.054-.418.436-.902.84-1.414.5-.634 1.016-1.289.991-1.895-.008-.198-.289-.624-.537-1.001-.303-.461-.458-.707-.403-.811.009-.017.032-.044.084-.044.027.0.06.006.101.021l.01.004.008.008c.336.377 1.261.908 2.263.908.091.0.183-.005.272-.014.356-.034.894-.086.922-.208.03-.126-.448-.425-.604-.523l-.041-.025.029-.037c.132-.172.357-.396.596-.635.412-.412.924-.925.881-1.124-.022-.102-.045-.205-.069-.312-.265-1.174-.563-2.506.57-2.775.03-.008.061-.011.093-.011.945.0 2.921 3.179 3.408 4.873.103.358.769.572 1.352.572.417.0.755-.103.927-.282.094-.099.138-.219.131-.357-.054-1.185-.926-1.783-1.298-2.039-.142-.098-.19-.131-.174-.181.015-.045.069-.045.099-.045.082.0.244.021.546.061 2.395-.349 4.479-.52 6.37-.52 4.446.0 7.916.91 11.974 3.138.026.015.053.029.079.044.014.037.029.074.047.115.833 1.883.789 2.713.477 4.29-.317 1.602-.739 2.384-1.316 3.127-.441.569-.436.912-.429 1.276.007.392.015.837-.546 1.683-1.699 2.563-2.575 2.614-3.502 2.669-.113.006-1.107.07-1.105.255.001.055.003.155 1.107.185.06.002.119.002.177.002v0c2.146.0 2.898-1.044 3.625-2.054l.063-.088c.196-.271.379-.496.557-.714.501-.616.897-1.102 1.036-2.032.067-.453.05-.748.036-1.006-.025-.445-.044-.767.401-1.603.701-1.319.869-1.934.748-2.735-.1-.66-.443-2.275-.747-3.006.143.084.292.174.442.266.792.475 1.725 1.033 2.598 1.443.011.033.026.068.048.109.789 1.366.744 2.646.579 3.825-.056.399-.093.783-.13 1.155-.081.831-.151 1.549-.391 1.853-.093.117-.127.202-.104.251.011.022.034.037.061.037.152.0.54-.467.77-1.395.378-1.528.495-2.999.347-4.372-.053-.484-.216-.864-.406-1.137.069.025.137.049.204.07.235.076.77.44 1.509.946.348.236.74.505 1.165.785.001.031.004.063.014.099.461 1.815.48 2.927.085 4.951-.206 1.056-.264 1.813-.316 2.481-.051.657-.095 1.225-.272 1.871-.351 1.285-1.023 2.731-1.407 3.226-.515.662-1.041.983-1.609.983-.192.0-.355-.035-.487-.064-.056-.012-.103-.021-.146-.027-.815-2.513-1.373-5.447-1.757-7.472-.249-1.309-.445-2.343-.571-2.49-.205-.236-.289-.272-.32-.272-.008.0-.012.002-.017.009C39.677 32.31 39.88 33.092 40.076 33.85zM71.227 56.299c.085-.178.344-.272.746-.272 1.067.0 3.461.742 5.717 2.825-.004.0-.009.001-.014.001-.234.021-.438.038-.574.041H77.07c-.591.0-1.862-.352-2.387-.661-.508-.299-2.078-.831-2.976-.975-.11-.141-.221-.281-.334-.426C71.166 56.57 71.179 56.398 71.227 56.299zM79.157 60.806c-.122.087-.857.353-1.521.353-.083.0-.161-.005-.237-.012-.097-.012-.226-.018-.391-.018-.222.0-.478.01-.749.02-.291.011-.592.021-.867.021-.188.0-.743.0-.945-.115-.426-.623-.86-1.254-1.337-1.92.067-.085.15-.164.252-.216.034-.017.081-.026.142-.026.308.0.888.225 1.504.46.729.281 1.557.599 2.086.599v0c.084.0.158-.008.224-.022.58-.137.855-.208 1.107-.341.315.34.625.708.923 1.108C79.259 60.74 79.187 60.787 79.157 60.806zM92.749 25.386c.012.029.024.057.034.083.06.144.1.238.054.307-.032.049-.099.07-.223.07-.098.0-.239-.013-.459-.042-.185-.024-.617-.076-1.198-.121.004-.011.009-.02.014-.03.091-.235.095-.423.01-.572-.026-.047-.063-.09-.107-.129.109.015.2.024.269.029.178.012.335.02.477.025C92.324 25.041 92.617 25.055 92.749 25.386zM88.907 25.363c.072-.212.065-.501-.152-.71.359.039.704.086 1.017.131.015.033.042.071.077.118.109.151.275.381.217.676-.003.017-.004.032-.004.05-.332-.016-.688-.024-1.06-.024-.077.0-.153.001-.229.002C88.829 25.539 88.875 25.456 88.907 25.363zM87.44 24.617c.098.454.353.815.619 1.009-.399.02-.767.052-1.103.098.048-.089.069-.204.053-.354-.048-.422-.317-.683-.766-.751.295-.036.618-.057.974-.057.072.0.147.0.221.002C87.438 24.582 87.438 24.599 87.44 24.617zM84.946 24.98c.01.02.03.038.074.051.703.197.791.581.844.811.008.035.017.068.026.099-.092.027-.182.056-.266.086-.186.066-.458.268-.794.577.001-.005.002-.009.004-.013.063-.244.047-.442-.052-.606-.167-.274-.54-.392-.848-.464-.006-.002-.013-.002-.019-.003C84.271 25.306 84.613 25.126 84.946 24.98zM80.382 28.412c.015.012.033.021.058.03.078.026.162.04.251.04v0c.314.0.598-.165.666-.207.43.078 1.099.489 1.265.7.012.014.024.023.039.033-.371.458-.756.952-1.147 1.474-.206-1.019-.66-1.126-1.659-1.126h-.119c-.108.001-.21.02-.303.048C79.754 29.056 80.07 28.724 80.382 28.412zM78.678 30.246c.064-.074.128-.146.193-.22.005.0.008-.001.011-.001.697.0 1.904.653 2.045.783.037.033.123.108.221.168-.165.224-.329.451-.495.684-.029.043-.061.086-.091.129.014-.198-.089-.377-.529-.586-.345-.163-.808-.258-1.27-.258-.303.0-.57.041-.779.113C78.21 30.789 78.44 30.518 78.678 30.246zM76.973 32.306c.047-.005.113-.037.238-.098.276-.135.74-.361 1.277-.361.313.0.61.078.886.231.226.127.394.257.528.363.052.039.096.073.137.103-.342.505-.68 1.02-.995 1.527-.131-.143-.307-.279-.482-.378-.155-.088-.442-.137-.79-.137-.816.0-1.968.272-2.529 1.043.0.0-.001.001-.002.002C75.731 33.925 76.316 33.137 76.973 32.306zM74.643 35.438c.069.027.151.045.255.045.33.0.785-.148 1.09-.295.287-.138.729-.22 1.179-.22.308.0.759.038 1.165.221.013.006.025.011.038.017-.135.236-.262.469-.38.694-.022-.005-.047-.008-.074-.005-.072.007-.182.011-.339.011-.153.0-.335-.004-.538-.007-.248-.004-.528-.01-.817-.01-.639.0-1.479.023-2.028.189C74.322 35.894 74.474 35.678 74.643 35.438zM82.882 26.214c.849.048 1.392.851 1.397.859l.014.013c.003.002.015.008.032.014-.38.395-.813.881-1.276 1.436-.002-.009-.004-.016-.006-.023-.264-.805-.743-1.337-1.17-1.296-.085.008-.223.06-.38.139C81.971 26.927 82.434 26.546 82.882 26.214zM86.742 56.659v0 0 0zM84.213 60.447c.094-.118.199-.253.323-.401l.057-.067c.537-.641.537-.641.771-1.275l.041-.113c.237-.638.288-.695.682-1.15.075-.087.162-.188.265-.31l.155-.184c.157-.188.205-.244.228-.244v0h.008c.058.0.148-.02.395-.172.042-.025.078-.051.111-.076.315.843.645 1.737.988 2.69-.022.045-.034.096-.04.121-.045.196-.048.325-.05.437-.006.256-.008.409-.582 1.111-.903 1.108-1.672 1.274-2.049 1.274-.109.0-.214-.014-.313-.04-.042-.012-.08-.015-.113-.015-.077-.093-.155-.185-.234-.272l-.066-.073c-.211-.233-.5-.552-.837-.922C84.024 60.687 84.108 60.581 84.213 60.447zM85.854 63.037l.117-.016c.434-.06 1.09-.149 1.649-.47.632-.36 1.122-1.099 1.19-1.795.001-.004.001-.008.001-.011.123.345.247.695.375 1.054.061.173.125.264.188.31-.104.159-.175.472-.029.844.312.803.266 1.305-.199 2.151-.116.214-.483.208-.821.203-.054-.001-.107-.002-.158-.002-.099.0-.227.0-.338.025-.157-.142-.299-.266-.421-.369-.481-.409-.93-1.041-1.404-1.709-.051-.071-.103-.145-.153-.216C85.852 63.037 85.853 63.037 85.854 63.037zM88.602 65.891c.202-.033.412-.067.585-.067v0c.601.0.807-.563.945-1.473.111-.736.031-1.43-.246-2.119-.023-.059-.05-.106-.076-.143.125-.039.267-.084.423-.084.079.0.152.011.228.033.371.109.498.534.689 1.179.211.711.501 1.684 1.28 2.8.236.341.466.793.704 1.321-.013-.028-.039-.046-.072-.046-.13.0-.438.268-.896.678-.183.163-.356.316-.45.384-.181.126-.478.489-.641.897-.086-.226-.168-.412-.247-.546-.541-.906-1.533-1.975-2.377-2.79C88.501 65.906 88.552 65.898 88.602 65.891z"/><path fill="#000" d="M18.693 31.698c-.095-.188-.353-.318-.579-.432-.159-.079-.323-.162-.348-.234-.117-.342-.149-.734-.18-1.113-.048-.577-.092-1.122-.417-1.483-.211-.235-.454-.42-.688-.598-.348-.264-.648-.492-.716-.799-.064-.289-.02-.37.031-.465.041-.077.087-.164.087-.351.0-.263-.333-.566-.476-.684-.22-.182-.516-.365-.66-.365-.015.0-.028.002-.04.007-.112.036-.084.16-.053.304.042.189.099.447-.032.741-.07.158-.085.275-.096.36-.025.193-.032.246-.758.419-.15.037-.305.055-.46.055-.503.0-.941-.198-.994-.451-.04-.181.131-.367.479-.523.181-.082.18-.188.171-.231-.019-.087-.113-.149-.229-.149-.075.0-.265.029-.41.296-.066.124-.085.243-.101.349-.029.184-.043.286-.277.303-.265.019-.475.131-.478.256-.002.066.049.151.299.183.048.006.099.009.148.009.124.0.228-.019.311-.032.056-.011.103-.02.139-.02.044.0.086.0.086.145.0.108-.068.331-.134.545-.129.421-.201.684-.125.786.051.069.149.057.306-.061.622-.464.923-.531 1.143-.581.132-.029.236-.054.358-.147.073-.057.127-.051.162.026.053.12.035.398-.132.604-.257-.148-.629-.123-1.065.068-.253.11-.648.41-.466 1.177.049.206-.206.497-.476.805-.292.333-.594.677-.586.995.005.189.116.216.181.217v0c.409-.001 1.454-1.078 1.781-1.488.052-.064.092-.113.122-.149.079-.095.091-.109.076-.141l-.016-.026h-.027c-.013.0-.025.004-.046.011-.035.011-.095.029-.167.029-.085.0-.168-.025-.245-.08-.177-.123-.173-.159-.173-.161.006-.02.104-.045.161-.059.152-.04.36-.093.437-.268.035-.079.058-.153.08-.218.068-.214.107-.334.459-.377.107.385-.172.78-.43 1.048l-.07.072h.101c.404.0.703.317.81.613.059.16.053.299-.013.354-.127.105-.229.266-.336.434-.159.249-.323.506-.576.589-.098.019-.172.025-.209.028-.059.0-.094.001-.094.045l.005.043h.043c.008.0.025-.001.049-.003h.026c.07.0.137-.01.201-.029.333-.063.943-.248 1.3-.792.292-.444.357-1.039.19-1.764-.117-.513-.097-.677-.058-.725.008-.01.017-.014.031-.014.092.0.283.174.452.328.245.223.501.449.665.401.03-.009.061-.014.092-.014.315.0.631.424.805.843.167.402.191.76.063.89-.126.126-.503.237-.902.355-.688.203-1.467.434-1.428.869.044.48.177.725.394.725.092.0.197-.048.311-.142.069-.059.164-.15.274-.257.369-.358.926-.898 1.283-.898.083.0.147.03.199.09.748.879.605 1.112.441 1.383-.076.124-.162.265-.172.474-.016.345.016.555.098.641.028.029.063.045.101.045.247.0.597-.695.711-1.265.075-.374.168-.608.238-.779C18.747 32.057 18.802 31.918 18.693 31.698z"/><path fill="#000" d="M19.457 28.142c-.025-.128-.055-.272-.098-.455-.128-.545-.576-.849-.971-1.118-.35-.238-.652-.444-.678-.761-.017-.206-.058-.443-.232-.443-.086.0-.178.061-.276.125-.122.08-.251.16-.337.108-.254-.154-.466-.347-.688-.551-.343-.313-.698-.635-1.217-.809-.115-.039-.181-.056-.218-.056-.044.0-.059.023-.064.038-.021.057.041.11.368.382.949.788 3.47 2.883 4.207 6.241.258 1.177.179 1.387.047 1.734-.116.306-.275.727-.261 2.013.004.365.136.443.245.443.31.0.855-.659 1.426-1.719.826-1.533.628-1.927-.342-3.344C19.6 28.851 19.57 28.701 19.457 28.142z"/><path fill="#000" d="M23.026 29.066c-.347-.214-.599-.219-.842-.223-.304-.006-.567-.011-.98-.423-.239-.239-.554-.646-.887-1.077-.48-.621-.976-1.263-1.328-1.509-.107-.076-.147-.086-.172-.086s-.045.013-.055.033c-.047.099.233.473 1.225 1.706.453.564.922 1.147 1.209 1.554.136.19.378.214.658.24.473.044 1.062.1 1.493.968.035.071.076.107.122.107.029.0.082-.017.111-.122C23.648 29.989 23.557 29.393 23.026 29.066z"/></g></svg>