<svg  fill="#000000" xmlns="http://www.w3.org/2000/svg" xmlns:xlink="http://www.w3.org/1999/xlink" version="1.1" x="0px" y="0px" viewBox="0 0 100 100" style="enable-background:new 0 0 100 100;" xml:space="preserve"><path d="M87,14.9c0,0,0-0.1,0-0.1c0-0.2-0.1-0.3-0.1-0.5c0,0,0,0,0,0c0,0,0,0,0,0c-0.1-0.2-0.2-0.3-0.3-0.5c0,0-0.1-0.1-0.1-0.1  c-0.1-0.1-0.2-0.2-0.4-0.3c0,0,0,0,0,0c-0.1-0.1-0.3-0.2-0.5-0.2c0,0-0.1,0-0.1,0C85.4,13,85.2,13,85,13H38.3c-0.5,0-1,0.2-1.4,0.6  L13.6,36.9c-0.1,0.1-0.2,0.3-0.3,0.4c0,0,0,0.1-0.1,0.1c-0.1,0.2-0.1,0.3-0.2,0.5c0,0,0,0,0,0c0,0.1,0,0.2,0,0.4V85c0,1.1,0.9,2,2,2  h46.7c0.1,0,0.3,0,0.4,0c0.1,0,0.2,0,0.3-0.1c0,0,0.1,0,0.1,0c0.1,0,0.2-0.1,0.3-0.1c0,0,0.1,0,0.1,0c0.1-0.1,0.2-0.2,0.3-0.2  l23.3-23.3c0.4-0.4,0.6-0.9,0.6-1.4V15C87,15,87,14.9,87,14.9z M39.2,17h41L60.8,36.3h-41L39.2,17z M17,83V40.3h42.7V83H17z   M63.7,80.2v-41L83,19.8v41L63.7,80.2z"></path></svg>